<?xml version="1.0" encoding="UTF-8"?>
<svg width="882px" height="300px" viewBox="0 0 882 300" version="1.1" xmlns="http://www.w3.org/2000/svg" xmlns:xlink="http://www.w3.org/1999/xlink">
    <!-- Generator: Sketch 61 (89581) - https://sketch.com -->
    <title>validators</title>
    <desc>Created with Sketch.</desc>
    <g id="validators" stroke="none" stroke-width="1" fill="none" fill-rule="evenodd">
        <rect id="Rectangle" fill="#000000" fill-rule="nonzero" x="0" y="0" width="882" height="210"></rect>
        <g id="Group-2" transform="translate(514.999670, 0.000000)" fill="#1F232C">
            <rect id="Rectangle" fill-rule="nonzero" x="105.00033" y="105" width="52.5" height="52.5"></rect>
            <path d="M122.50066,52.5 L122.50066,105 L116.66733,105 L116.66733,52.5 L122.50066,52.5 Z M134.16666,52.5 L134.16666,105 L128.33333,105 L128.33333,52.5 L134.16666,52.5 Z M145.83366,52.5 L145.83366,105 L140.00033,105 L140.00033,52.5 L145.83366,52.5 Z M157.50066,52.5 L157.50066,105 L151.66733,105 L151.66733,52.5 L157.50066,52.5 Z M110.83701,52.5 L110.83701,105 L105.00033,105 L105.00033,52.5 L110.83701,52.5 Z" id="Shape" fill-rule="nonzero"></path>
            <path d="M40.83333,105 L40.83333,157.5 L35,157.5 L35,105 L40.83333,105 Z M29.16733,105 L29.16733,157.5 L23.334,157.5 L23.334,105 L29.16733,105 Z M17.50033,105 L17.50033,157.5 L11.667,157.5 L11.667,105 L17.50033,105 Z M5.83333,105 L5.83333,157.5 L-6.92779167e-14,157.5 L-6.92779167e-14,105 L5.83333,105 Z M52.50033,105 L52.50033,157.5 L46.66365,157.5 L46.66365,105 L52.50033,105 Z" id="Shape" fill-rule="nonzero"></path>
            <path d="M355.50533,0.9844 L355.50533,53.4844 L349.672,53.4844 L349.672,0.9844 L355.50533,0.9844 Z M343.83833,0.9844 L343.83833,53.4844 L338.005,53.4844 L338.005,0.9844 L343.83833,0.9844 Z M332.17233,0.9844 L332.17233,53.4844 L326.339,53.4844 L326.339,0.9844 L332.17233,0.9844 Z M320.50533,0.9844 L320.50533,53.4844 L314.672,53.4844 L314.672,0.9844 L320.50533,0.9844 Z M367.17233,0.9844 L367.17233,53.4844 L361.33565,53.4844 L361.33565,0.9844 L367.17233,0.9844 Z" id="Shape" fill-rule="nonzero"></path>
            <path d="M52.50033,163.333 L52.50033,157.5 C81.49533,157.5 105.00033,181.005 105.00033,210 L99.16733,210 C99.16733,184.227 78.27333,163.333 52.50033,163.333 Z M52.50033,175 L52.50033,169.166 C75.05233,169.166 93.33333,187.448 93.33333,210 L87.50033,210 C87.50033,190.67 71.83033,175 52.50033,175 Z M52.50033,180.834 L52.50033,186.667 C65.38733,186.667 75.83333,197.114 75.83333,210 L81.66733,210 C81.66733,193.892 68.60833,180.834 52.50033,180.834 Z M52.50033,198.333 L52.50033,192.5 C62.16533,192.5 70.00033,200.335 70.00033,210 L64.16733,210 C64.16733,203.557 58.94333,198.333 52.50033,198.333 Z M52.50033,210 L52.50033,204.166 C55.72233,204.166 58.33333,206.778 58.33333,210 L52.50033,210 Z" id="Shape"></path>
            <path d="M262.00033,110.833 L262.00033,105 C290.99533,105 314.50033,128.505 314.50033,157.5 L308.66733,157.5 C308.66733,131.727 287.77333,110.833 262.00033,110.833 Z M262.00033,122.5 L262.00033,116.667 C284.55233,116.667 302.83333,134.949 302.83333,157.5 L297.00033,157.5 C297.00033,138.17 281.33033,122.5 262.00033,122.5 Z M262.00033,128.333 L262.00033,134.167 C274.88733,134.167 285.33333,144.613 285.33333,157.5 L291.16733,157.5 C291.16733,141.392 278.10833,128.333 262.00033,128.333 Z M262.00033,145.833 L262.00033,140 C271.66533,140 279.50033,147.835 279.50033,157.5 L273.66733,157.5 C273.66733,151.056 268.44333,145.833 262.00033,145.833 Z M262.00033,157.5 L262.00033,151.667 C265.22233,151.667 267.83333,154.279 267.83333,157.5 L262.00033,157.5 Z" id="Shape"></path>
            <path d="M214.11233,52.5 L210.00033,52.5 L210.00033,48.3875 L258.38733,0 L262.50033,0 L262.50033,4.1125 L214.11233,52.5 Z M250.13333,0 L241.87933,0 L210.00033,31.8791 L210.00033,40.1333 L250.13333,0 Z M233.62533,0 L225.37133,0 L210.00033,15.3708 L210.00033,23.625 L233.62533,0 Z M210.00033,0 L210.00033,7.11666 L217.11633,0 L210.00033,0 Z M262.50033,20.6208 L262.50033,12.3667 L222.36633,52.5 L230.62133,52.5 L262.50033,20.6208 Z M262.50033,37.1291 L262.50033,28.875 L238.87533,52.5 L247.12933,52.5 L262.50033,37.1291 Z M262.50033,45.3833 L255.38333,52.5 L262.50033,52.5 L262.50033,45.3833 Z" id="Shape" fill-rule="nonzero"></path>
            <path d="M157.50033,105 L210.00033,105 L210.00033,52.5 C181.00533,52.5 157.50033,76.0051 157.50033,105 Z" id="Path" fill-rule="nonzero"></path>
            <path d="M262.50033,157.5 L262.50033,105 L210.00033,105 C210.00033,133.995 233.50533,157.5 262.50033,157.5 Z" id="Path" fill-rule="nonzero"></path>
            <path d="M110.83733,204.164 L110.83733,210.001 L105.00033,210.001 L105.00033,204.164 L110.83733,204.164 Z M122.49433,204.164 L122.49433,210.001 L116.65833,210.001 L116.65833,204.164 L122.49433,204.164 Z M134.16833,204.164 L134.16833,210.001 L128.33133,210.001 L128.33133,204.164 L134.16833,204.164 Z M145.82633,204.164 L145.82633,210.001 L139.99033,210.001 L139.99033,204.164 L145.82633,204.164 Z M157.50033,204.164 L157.50033,210.001 L151.66333,210.001 L151.66333,204.164 L157.50033,204.164 Z M151.66333,198.326 L151.66333,204.163 L145.82633,204.163 L145.82633,198.326 L140.00533,198.326 L140.00633,204.163 L134.16933,204.163 L134.16833,198.326 L128.33133,198.326 L128.33233,204.163 L122.49533,204.163 L122.49533,198.326 L128.33233,198.326 L128.33233,192.505 L122.49533,192.505 L122.49533,186.668 L128.33233,186.668 L128.33133,180.832 L134.16833,180.832 L134.16933,186.668 L139.99033,186.668 L139.99033,180.832 L145.82633,180.832 L145.82633,186.668 L151.66333,186.668 L151.66333,180.832 L157.50033,180.832 L157.50033,186.669 L151.66333,186.669 L151.66333,192.489 L157.50033,192.489 L157.50033,198.326 L151.66333,198.326 Z M110.83733,180.832 L110.83733,186.668 L116.65833,186.668 L116.65833,180.832 L122.49433,180.832 L122.49433,186.669 L116.67333,186.669 L116.67333,192.489 L122.49433,192.489 L122.49433,198.326 L116.67333,198.326 L116.67333,204.163 L110.83733,204.163 L110.83733,198.326 L105.00033,198.326 L105.00033,192.489 L110.83733,192.489 L110.83733,186.669 L105.00033,186.669 L105.00033,180.832 L110.83733,180.832 Z M139.99033,192.505 L134.16933,192.505 L134.16933,198.326 L139.99033,198.325 L139.99033,192.505 Z M116.65833,192.505 L110.83733,192.505 L110.83733,198.326 L116.65833,198.325 L116.65833,192.505 Z M134.16833,186.669 L128.33133,186.669 L128.33133,192.489 L134.16833,192.489 L134.16833,186.669 Z M145.82633,186.669 L140.00533,186.669 L140.00533,192.489 L145.82633,192.489 L145.82633,186.669 Z M116.67333,163.337 L116.67333,169.158 L122.49433,169.158 L122.49433,174.995 L116.67333,174.995 L116.67333,180.832 L110.83733,180.832 L110.83733,174.995 L105.00033,174.995 L105.00033,169.158 L110.83733,169.158 L110.83733,163.337 L116.67333,163.337 Z M128.33233,163.337 L128.33133,169.158 L134.16833,169.158 L134.16933,163.337 L140.00633,163.337 L140.00533,169.158 L145.82633,169.158 L145.82633,163.337 L151.66333,163.337 L151.66333,169.158 L157.50033,169.158 L157.50033,174.995 L151.66333,174.995 L151.66333,180.832 L145.82633,180.832 L145.82633,174.995 L140.00533,174.995 L140.00633,180.832 L134.16933,180.832 L134.16833,174.995 L128.33133,174.995 L128.33233,180.832 L122.49533,180.832 L122.49533,174.995 L128.33233,174.995 L128.33233,169.174 L122.49533,169.174 L122.49533,163.337 L128.33233,163.337 Z M139.99033,169.174 L134.16933,169.174 L134.16933,174.995 L139.99033,174.994 L139.99033,169.174 Z M116.65833,169.174 L110.83733,169.174 L110.83733,174.995 L116.65833,174.994 L116.65833,169.174 Z M151.66333,169.174 L145.82633,169.174 L145.82633,174.995 L151.66333,174.995 L151.66333,169.174 Z M110.83733,157.5 L110.83733,163.337 L105.00033,163.337 L105.00033,157.5 L110.83733,157.5 Z M122.49433,157.5 L122.49433,163.337 L116.65833,163.337 L116.65833,157.5 L122.49433,157.5 Z M134.16833,157.5 L134.16833,163.337 L128.33133,163.337 L128.33133,157.5 L134.16833,157.5 Z M145.82633,157.5 L145.82633,163.337 L139.99033,163.337 L139.99033,157.5 L145.82633,157.5 Z M157.50033,157.5 L157.50033,163.337 L151.66333,163.337 L151.66333,157.5 L157.50033,157.5 Z M151.66333,192.505 L145.82633,192.505 L145.82633,198.326 L151.66333,198.326 L151.66333,192.505 Z" id="Combined-Shape" fill-rule="nonzero"></path>
        </g>
        <g id="Group" transform="translate(513.274713, 119.701000)">
            <path d="M123.598287,117.899 C118.798287,115.199 109.798287,109.999 109.798287,104.499 L116.198287,48.599 C116.198287,43.099 119.198287,37.899 124.098287,35.199 L172.998287,6.999 C177.798287,4.199 183.798287,4.199 188.598287,6.899 L237.198287,34.599 C241.998287,37.299 244.998287,42.499 244.898287,47.999 L244.598287,103.899 C244.598287,109.399 241.598287,114.599 236.698287,117.299 L187.798287,145.499 C182.998287,148.299 176.998287,148.299 172.198287,145.599 L123.598287,117.899 Z" id="Path" fill="#000000"></path>
            <path d="M160.998287,100.099 C159.798287,98.799 158.298287,99.099 156.598287,99.799 C155.098287,98.899 153.698287,97.899 153.398287,95.399 C153.398287,94.999 150.998287,94.699 150.698287,94.599 C148.298287,93.499 149.698287,90.799 146.798287,90.699 C144.998287,90.599 144.998287,91.599 143.998287,90.299 C143.798287,90.099 143.398287,89.599 142.598287,88.699 L141.798287,82.199 L134.598287,74.799 C128.998287,72.999 125.998287,72.099 125.798287,72.099 C126.198287,72.399 128.398287,74.199 132.398287,77.299 L139.198287,83.899 C140.198287,87.699 140.998287,89.899 141.498287,90.699 C140.298287,89.499 132.198287,84.599 130.698287,83.899 C129.098287,83.199 126.198287,82.899 124.598287,82.299 C125.598287,83.499 133.898287,90.399 135.298287,90.799 C136.898287,91.299 139.098287,90.199 139.998287,91.899 C140.398287,92.699 140.398287,94.299 141.398287,93.499 C141.898287,93.099 142.798287,94.599 143.098287,94.699 C144.798287,94.899 144.598287,96.399 145.998287,97.199 C148.798287,98.799 148.698287,99.999 149.198287,103.799 C149.298287,104.899 151.698287,104.899 151.898287,105.999 C151.898287,106.199 152.098287,106.299 152.298287,106.299 C154.998287,106.399 158.598287,113.099 159.998287,115.499 C159.898287,113.599 158.698287,107.599 157.698287,106.899 C156.298287,105.999 154.998287,105.799 153.898287,104.299 C153.598287,103.899 151.698287,102.699 151.898287,102.099 C152.398287,100.399 151.998287,100.499 151.898287,98.899 C152.798287,99.099 153.298287,99.799 153.898287,100.299 C154.598287,100.799 155.398287,100.899 156.398287,100.299 C157.998287,99.999 159.398287,99.899 160.998287,100.099 Z M145.598287,59.399 C145.798287,59.499 146.098287,59.699 146.298287,59.799 C146.398287,59.799 146.498287,59.699 146.598287,59.699 C146.698287,59.799 146.898287,59.799 146.998287,59.899 C146.898287,60.099 146.798287,60.299 146.998287,60.399 C147.098287,60.499 147.298287,60.299 147.398287,60.099 C147.498287,60.199 147.698287,60.199 147.798287,60.299 C147.698287,60.599 147.798287,60.599 147.998287,60.399 C148.298287,60.599 148.598287,60.699 148.898287,60.899 C149.098287,61.399 149.298287,61.999 150.098287,61.299 C150.798287,61.399 151.198287,61.999 151.898287,61.999 C151.798287,62.899 151.998287,63.099 152.798287,62.499 C153.098287,62.699 153.498287,62.899 153.798287,62.999 C153.798287,63.199 153.998287,63.299 154.198287,62.999 C154.298287,62.899 154.298287,62.699 154.398287,62.599 C154.798287,62.799 155.298287,62.999 155.498287,63.399 C153.098287,66.499 150.598287,69.599 148.298287,72.799 C145.398287,76.999 143.798287,83.099 143.398287,87.599 C143.398287,87.999 143.398287,88.399 143.398287,88.699 C143.398287,89.499 143.398287,90.199 144.398287,89.199 C144.598287,88.999 144.898287,88.799 144.998287,88.899 C145.998287,89.499 146.998287,88.299 147.998287,87.399 C149.598287,85.999 151.198287,85.499 152.798287,85.099 C154.698287,84.599 156.598287,83.899 158.398287,83.799 C160.198287,83.699 161.998287,80.899 163.698287,79.299 C164.998287,77.999 163.298287,76.699 164.698287,75.599 C164.798287,75.499 164.998287,75.499 165.098287,75.399 L164.998287,75.299 C165.298287,75.499 165.498287,75.799 165.898287,75.899 C169.198287,77.099 172.398287,78.299 175.298287,80.199 C178.198287,82.099 177.898287,86.399 177.898287,90.999 C176.298287,89.599 174.998287,88.399 173.598287,87.299 C173.598287,87.899 173.798287,88.199 174.098287,88.499 C175.398287,90.099 176.498287,92.099 178.098287,93.399 L178.198287,93.999 C177.798287,94.599 177.798287,94.899 178.198287,94.999 C178.198287,99.099 179.098287,103.299 177.698287,107.399 C177.398287,108.399 176.798287,108.499 176.498287,107.999 C175.998287,107.499 175.798287,106.699 175.598287,105.799 C175.598287,105.399 175.498287,104.999 175.198287,104.999 C173.598287,105.099 170.798287,103.399 170.898287,101.899 C170.898287,100.799 171.098287,99.499 170.098287,99.199 C169.798287,100.699 169.598287,102.099 169.298287,103.699 C168.198287,102.899 167.598287,101.499 166.198287,101.299 C166.598287,103.299 170.398287,104.799 172.098287,104.999 C173.998287,105.299 174.898287,106.499 174.898287,108.999 C174.898287,109.999 175.298287,110.499 176.098287,110.599 C176.898287,110.699 177.198287,111.599 177.098287,112.599 C176.898287,116.699 177.498287,128.899 176.498287,133.199 C176.298287,133.899 176.098287,134.199 175.498287,134.399 C172.898287,135.399 170.398287,135.999 167.998287,135.599 C165.698287,135.199 162.398287,126.199 160.298287,125.299 C158.498287,124.499 156.698287,123.899 155.098287,122.699 C154.798287,122.099 154.498287,121.399 153.498287,122.199 C152.998287,122.599 152.898287,122.199 152.598287,121.999 C153.098287,120.699 152.698287,120.699 151.898287,121.199 C151.798287,121.099 151.598287,121.099 151.498287,120.999 C151.098287,119.899 149.198287,119.499 148.298287,120.399 C148.098287,120.499 147.898287,120.599 147.798287,120.399 C147.798287,120.199 147.798287,120.199 147.598287,120.399 L147.498287,120.399 L147.498287,120.299 C147.298287,120.399 147.198287,120.099 146.898287,120.299 C142.998287,120.299 142.598287,117.299 138.798287,116.799 C133.198287,116.099 128.198287,114.299 124.198287,110.499 C123.998287,110.299 123.598287,110.299 123.798287,109.699 C124.298287,108.399 123.898287,107.599 123.698287,106.699 C123.298287,104.599 122.598287,102.799 122.598287,100.499 C122.498287,98.499 122.498287,96.499 123.898287,94.199 C124.098287,94.199 124.098287,94.099 123.998287,93.899 C124.098287,93.699 124.198287,93.499 124.298287,93.299 C124.798287,92.999 124.998287,92.699 124.698287,92.299 C124.698287,92.199 124.798287,92.099 124.798287,91.999 L124.798287,91.599 C125.398287,88.999 121.998287,89.399 121.798287,87.099 C121.398287,82.799 119.598287,79.399 119.798287,74.599 C119.898287,71.799 119.498287,69.099 120.598287,66.099 C122.398287,60.999 120.898287,58.799 121.698287,53.799 C121.698287,53.499 121.598287,52.999 121.898287,52.899 C122.298287,52.799 122.698287,52.299 123.098287,52.799 C123.998287,54.099 125.598287,54.299 126.998287,54.799 C130.098287,55.799 135.698287,54.699 138.698287,55.899 C138.798287,56.399 138.898287,56.799 139.498287,56.099 C139.598287,56.199 139.798287,56.199 139.898287,56.299 C139.798287,56.699 139.998287,56.699 140.198287,56.499 C140.898287,56.499 141.198287,56.999 141.698287,57.299 L141.998287,57.199 C142.698287,57.599 143.498287,57.999 144.198287,58.399 C144.598287,59.099 144.898287,59.699 145.598287,59.399 Z" id="Shape" fill="#D3D8E0"></path>
            <path d="M133.498287,46.699 C130.098287,44.799 129.798287,41.899 132.698287,40.199 L175.598287,15.399 C178.498287,13.699 183.698287,13.899 186.998287,15.699 L228.998287,39.299 C232.398287,41.199 232.698287,44.099 229.798287,45.799 L186.898287,70.599 C183.998287,72.299 178.798287,72.099 175.498287,70.299 L133.498287,46.699 Z" id="Path" fill="#FFFFFF"></path>
            <path d="M182.498287,131.199 L182.998287,83.099 C182.998287,79.199 185.398287,74.699 188.398287,73.099 L231.198287,48.399 C234.098287,46.699 236.498287,48.499 236.398287,52.299 L235.898287,100.399 C235.898287,104.299 233.498287,108.799 230.498287,110.399 L187.698287,135.099 C184.798287,136.799 182.498287,135.099 182.498287,131.199 Z" id="Path" fill="#D3D8E0"></path>
            <path d="M82.2342872,40.457 C81.5452872,35.126 81.5142872,19.973 82.2172872,17.144 C82.9792872,14.506 86.3372872,11.806 87.2722872,11.102 C90.4382872,8.461 94.4412872,6.505 97.7902872,4.122 C100.720287,2.076 103.863287,0.383 107.510287,-4.54747351e-13 C107.229287,1.131 111.753287,3.617 113.148287,4.759 C115.600287,6.624 116.743287,8.993 115.936287,12.168 C115.654287,13.3 115.469287,14.402 115.378287,15.475 C115.347287,16.74 115.347287,16.74 116.789287,15.985 C117.993287,17.186 119.292287,18.357 120.400287,19.587 C122.953287,22.466 164.740287,52.773 165.338287,55.414 C165.886287,57.547 164.553287,62.764 166.219287,64.451 C167.173287,65.519 166.552287,71.355 166.064287,73.178 C166.027287,73.398 166.239287,73.752 166.489287,73.884 C167.730287,74.864 166.898287,75.223 166.067287,75.582 C165.713287,75.795 165.235287,75.941 164.853287,76.058 C159.968287,77.865 152.742287,80.91 147.990287,78.704 C144.331287,76.999 140.843287,74.824 137.222287,72.898 C129.854287,68.981 119.312287,60.492 112.468287,55.892 C108.767287,53.364 105.170287,50.49 101.108287,48.49 C99.8882872,47.922 99.0512872,47.237 98.4132872,46.177 C97.9882872,45.47 97.3722872,44.822 97.0422872,44.087 C96.7132872,43.351 96.2722872,43.276 95.5652872,43.702 C94.1522872,44.552 92.6432872,45.431 91.1052872,46.215 C89.9502872,46.882 88.6542872,48.115 87.5802872,48.025 C86.2872872,47.898 85.6652872,46.206 84.7112872,45.138 C84.3152872,44.527 82.4312872,41.443 82.2342872,40.457 Z" id="Path" fill="#000000"></path>
            <path d="M85.5092872,38.515 C85.4612872,32.883 85.7952872,27.135 86.1872872,21.577 C86.3912872,18.482 87.9982872,16.213 90.4792872,14.409 C93.5042872,12.334 96.6542872,10.325 99.8342872,8.412 C101.438287,7.503 102.897287,6.116 104.838287,5.627 C104.794287,9.928 104.904287,14.391 103.786287,18.602 C102.565287,23.158 100.711287,27.698 97.3382872,31.03 C93.9942872,34.457 89.7332872,36.596 85.5092872,38.515 Z" id="Path" fill="#FFFFFF"></path>
            <path d="M107.891287,5.007 C109.315287,6.245 110.460287,7.254 111.605287,8.263 C112.009287,8.558 112.317287,8.882 112.206287,9.544 C110.961287,15.048 110.752287,20.863 108.941287,26.227 C107.950287,29.144 108.046287,29.115 105.395287,27.625 C104.146287,26.961 103.875287,26.417 104.385287,25.006 C106.756287,18.739 108.407287,12.169 107.891287,5.007 Z" id="Path" fill="#D3D8E0"></path>
            <path d="M86.2242872,41.538 C91.5692872,37.813 97.5512872,35.148 102.037287,30.325 C102.265287,30.046 102.457287,29.988 102.861287,30.283 C105.092287,32.11 105.164287,33.029 103.212287,35.194 C102.822287,35.628 102.335287,36.09 101.945287,36.523 C98.7052872,39.605 94.5182872,41.303 90.9112872,43.87 C90.5582872,44.083 90.2712872,44.17 89.8672872,43.876 C88.6852872,43.087 87.4362872,42.423 86.2242872,41.538 Z" id="Path" fill="#D3D8E0"></path>
            <path d="M103.272287,42.914 C106.903287,39.399 110.276287,36.067 113.620287,32.639 C114.496287,31.744 114.937287,31.818 115.642287,32.753 C115.950287,33.077 116.258287,33.401 116.662287,33.696 C127.539287,43.964 138.284287,54.483 150.304287,63.356 C152.448287,64.897 154.592287,66.437 156.736287,67.977 C157.169287,68.368 157.602287,68.758 157.623287,69.17 C157.549287,69.611 156.917287,69.595 156.439287,69.741 C153.761287,70.56 151.062287,70.967 148.267287,71.403 C148.076287,71.462 147.856287,71.424 147.606287,71.292 C145.983287,70.429 144.226287,69.815 142.765287,68.798 C137.104287,64.987 131.537287,61.146 125.876287,57.335 C122.579287,55.101 119.377287,52.839 116.080287,50.605 C112.129287,47.944 108.224287,44.746 103.272287,42.914 Z" id="Path" fill="#FFFFFF"></path>
            <path d="M158.874287,68.474 L151.988287,63.051 C148.324287,60.302 144.910287,57.685 141.525287,55.165 C132.832287,48.621 125.015287,41.181 116.712287,34.204 C115.163287,32.899 114.372287,31.678 114.897287,29.635 C115.667287,26.68 115.996287,23.652 116.583287,20.44 C119.731287,23.556 122.792287,26.384 125.786287,29.338 C132.700287,36.217 139.422287,43.155 148.096287,47.928 C148.471287,48.127 156.707287,55.229 156.853287,55.707 C157.749287,60.348 157.795287,63.576 158.874287,68.474 Z" id="Path" fill="#D3D8E0"></path>
            <path d="M157.998287,110.998 C151.998287,110.298 145.998287,110.298 140.098287,110.498 C133.298287,110.698 128.698287,106.798 123.298287,103.398 C129.698287,100.098 151.698287,104.798 157.998287,110.998 Z" id="Path" fill="#FFFFFF"></path>
            <path d="M74.6982872,108.546 C72.7982872,112.846 71.9982872,117.446 70.8982872,121.946 C70.6982872,122.946 71.1982872,123.746 71.4982872,124.646 C71.7982872,125.346 72.6982872,126.146 71.7982872,126.946 C70.8982872,127.646 69.9982872,128.846 68.5982872,128.446 C68.1982872,128.346 67.8982872,128.246 67.4982872,128.446 C59.8982872,131.746 52.1982872,130.446 44.5982872,128.446 C35.0982872,125.946 25.8982872,122.446 17.0982872,118.046 C12.1982872,115.546 8.79828724,111.846 6.09828724,107.246 C4.79828724,105.146 2.79828724,103.646 1.89828724,101.246 C1.89828724,101.146 1.59828724,100.946 1.69828724,100.846 C2.09828724,99.046 1.09828724,97.846 0.398287238,96.346 C-0.601712762,94.446 0.398287238,93.246 2.09828724,91.946 C7.79828724,87.546 12.2982872,82.146 15.2982872,75.546 C15.7982872,74.346 14.6982872,72.746 13.2982872,72.646 C10.5982872,72.346 7.99828724,72.146 5.09828724,71.946 C6.09828724,70.446 5.59828724,69.246 4.69828724,67.846 C3.39828724,65.746 2.79828724,63.546 3.69828724,60.946 C4.99828724,57.346 6.09828724,53.746 8.69828724,50.746 C9.89828724,49.346 14.5982872,49.046 15.7982872,50.446 C18.8982872,54.046 19.1982872,54.146 23.8982872,56.446 C25.0982872,57.046 25.5982872,56.846 26.1982872,55.646 C31.1982872,46.246 34.1982872,36.146 36.3982872,25.846 C36.6982872,24.546 37.1982872,24.046 38.3982872,23.646 C40.2982872,23.046 43.0982872,22.846 47.7982872,23.246 C53.4982872,23.746 61.0982872,25.046 62.6982872,25.646 C68.3982872,27.746 73.9982872,30.046 78.7982872,33.846 C85.8982872,39.346 96.6982872,50.146 101.398287,57.946 C101.998287,59.046 100.598287,62.446 98.0982872,66.946 C98.3982872,66.846 98.5982872,66.846 98.9982872,66.846 C98.2982872,67.446 97.6982872,67.946 97.1982872,68.546 C96.6982872,69.446 96.0982872,70.446 95.4982872,71.446 C94.2982872,74.546 94.6982872,77.646 90.5982872,80.846 C95.8982872,81.846 98.7982872,86.346 103.798287,87.246 C105.898287,87.646 107.498287,86.946 109.498287,87.346 C113.698287,88.146 118.298287,90.246 122.298287,91.446 C123.598287,91.846 124.898287,92.146 125.798287,93.146 C126.598287,94.046 127.698287,93.046 128.798287,93.446 C134.398287,95.446 139.998287,97.346 145.698287,99.246 C149.998287,100.746 154.298287,102.246 157.998287,105.046 C158.898287,105.746 157.498287,105.946 158.198287,106.946 C159.998287,109.446 165.998287,118.146 160.098287,118.446 C160.998287,124.446 159.998287,127.546 159.898287,133.646 C159.898287,136.146 159.398287,136.746 157.398287,138.646 C155.898287,140.146 154.998287,140.546 154.998287,142.346 C153.398287,142.346 152.198287,141.546 150.898287,140.946 C136.998287,135.646 124.998287,127.146 113.098287,118.646 C110.198287,116.546 83.8982872,108.746 75.0982872,104.346 C75.2982872,105.846 75.2982872,107.146 74.6982872,108.546 Z" id="Path" fill="#000000"></path>
            <path d="M83.0982872,98.347 C83.3982872,97.447 82.7982872,97.847 82.3982872,97.847 C80.0982872,96.847 77.8982872,95.747 75.3982872,95.447 C75.5982872,92.947 76.0982872,90.547 76.8982872,88.147 C77.4982872,86.247 78.8982872,85.247 80.7982872,85.347 C87.6982872,85.547 94.5982872,86.347 100.198287,90.947 C109.598287,98.647 120.798287,103.647 131.098287,109.947 C133.198287,111.247 141.598287,113.047 144.698287,116.947 C147.598287,120.547 145.498287,126.347 145.598287,127.147 C145.798287,128.947 146.098287,130.847 146.398287,132.947 C142.298287,130.247 138.298287,127.647 134.498287,125.047 C127.198287,120.147 119.498287,115.847 111.598287,111.947 C110.498287,111.447 109.998287,110.047 108.598287,110.047 C108.398287,109.947 108.298287,109.847 108.098287,109.647 L108.198287,109.747 C107.698287,109.047 107.098287,108.747 106.198287,108.847 C106.198287,108.147 105.698287,108.047 105.098287,107.947 L105.198287,108.047 C104.198287,107.247 103.098287,106.547 102.098287,105.847 C100.798287,105.047 99.4982872,104.247 98.1982872,103.547 C94.8982872,101.847 91.3982872,100.547 87.7982872,99.447 C86.1982872,99.047 84.9982872,97.447 83.0982872,98.347 Z" id="Path" fill="#D3D8E0"></path>
            <path d="M54.9982872,33.947 C56.4982872,31.047 56.4982872,31.047 59.2982872,32.347 C66.5982872,35.747 71.6982872,35.747 77.7982872,41.147 C78.9982872,42.147 79.3982872,42.747 77.8982872,44.147 C69.0982872,52.647 62.4982872,62.847 56.4982872,73.447 C51.8982872,81.647 47.0982872,89.847 42.4982872,98.047 C41.7982872,99.347 41.0982872,99.747 39.4982872,99.147 C32.1982872,96.747 24.6982872,95.647 17.0982872,94.847 C15.2982872,94.647 13.4982872,94.747 11.6982872,94.547 C9.49828724,94.347 10.1982872,93.547 10.8982872,92.447 C12.9982872,88.947 14.8982872,85.347 17.1982872,82.047 C25.8982872,69.147 30.9982872,59.147 35.4982872,44.447 C36.7982872,40.047 41.4982872,35.247 39.9982872,30.747 C39.4982872,29.147 40.1982872,27.847 42.1982872,27.847 C46.5982872,27.747 48.9982872,28.647 53.1982872,29.947 C54.6982872,30.347 53.6982872,31.147 53.3982872,31.747 C50.2982872,38.847 47.1982872,45.847 44.0982872,52.947 C43.7982872,53.647 43.5982872,54.447 43.2982872,55.147 C42.7982872,55.847 42.0982872,56.547 42.8982872,57.747 C43.2982872,56.947 43.5982872,56.247 43.7982872,55.547 C47.5982872,48.347 51.2982872,41.147 54.9982872,33.947 Z" id="Path" fill="#D3D8E0"></path>
            <path d="M77.8982872,46.446 C79.5982872,46.446 81.2982872,46.146 83.0982872,46.046 C85.2982872,46.046 84.6982872,46.846 84.0982872,47.946 C82.4982872,51.546 81.0982872,55.146 79.2982872,58.646 C72.4982872,71.946 68.7982872,81.946 66.2982872,96.546 C65.4982872,100.846 61.5982872,105.946 63.5982872,110.146 C64.2982872,111.646 63.7982872,112.846 61.8982872,113.146 C57.6982872,113.746 49.1982872,106.146 51.3982872,99.046 C51.5982872,98.346 45.0982872,99.246 45.1982872,98.546 C45.5982872,97.746 58.5982872,85.946 57.6982872,84.846 C57.4982872,85.646 57.2982872,86.346 57.0982872,87.046 C54.2982872,94.246 70.4982872,46.646 77.8982872,46.446 Z" id="Path" fill="#D3D8E0"></path>
            <path d="M17.1982872,94.846 C15.3982872,94.646 13.5982872,94.746 11.7982872,94.546 C9.59828724,94.346 10.2982872,93.546 10.9982872,92.446 C13.0982872,88.946 14.9982872,85.346 17.2982872,82.046 C25.9982872,69.146 31.0982872,59.146 35.5982872,44.446 C36.8982872,40.046 41.5982872,35.246 40.0982872,30.746 C39.5982872,29.146 40.2982872,27.8458895 42.2982872,27.8458895 C46.5982872,27.746 24.7982872,95.546 17.1982872,94.846 Z" id="Path" fill="#FFFFFF"></path>
            <path d="M11.8982872,61.446 C11.8982872,61.346 11.7982872,61.246 11.7982872,61.246 C7.79828724,57.446 7.79828724,56.946 11.9982872,52.546 C12.0982872,54.546 13.5982872,54.946 14.8982872,55.546 C15.9982872,56.046 17.1982872,56.546 18.2982872,57.146 C21.9982872,58.846 21.9982872,58.846 20.3982872,62.646 C17.0982872,70.446 16.7982872,70.546 8.59828724,68.946 C7.89828724,68.846 7.49828724,68.646 7.39828724,67.846 C7.29828724,66.946 6.99828724,66.146 6.99828724,65.246 C6.99828724,60.646 7.69828724,60.246 11.5982872,61.946 C11.8982872,62.046 12.0982872,62.246 12.2982872,61.846 C12.2982872,61.846 11.9982872,61.546 11.8982872,61.446 Z" id="Path" fill="#D3D8E0"></path>
            <path d="M152.698287,110.647 C152.798287,114.447 153.398287,118.047 154.098287,121.747 C154.798287,125.847 152.998287,129.147 151.498287,132.747 C148.898287,129.147 149.698287,115.147 152.698287,110.647 Z" id="Path" fill="#D3D8E0"></path>
            <path d="M194.898287,63.799 C195.698287,63.499 195.998287,64.199 195.998287,65.699 C195.498287,65.399 195.198287,64.599 194.898287,63.799 Z" id="Path" fill="#FDFDFD"></path>
            <path d="M126.698287,120.099 C126.498287,119.999 126.298287,119.999 126.098287,119.899 L126.198287,119.799 C126.398287,119.799 126.598287,119.799 126.698287,120.099 C126.698287,119.999 126.698287,120.099 126.698287,120.099 Z" id="Path" fill="#B1B2B7"></path>
        </g>
        <path d="M61.1875,68.3515625 L66.0859375,68.3515625 L74.1953125,95.6328125 L74.3828125,95.6328125 L82.4921875,68.3515625 L87.390625,68.3515625 L76.8203125,101 L71.734375,101 L61.1875,68.3515625 Z M91.4921875,94.2734375 C91.4921875,92.3515529 92.1015564,90.7031319 93.3203125,89.328125 C94.5390686,87.9531181 96.3671753,87.1562511 98.8046875,86.9375 L106.773438,86.2109375 L106.773438,84.2421875 C106.773438,83.2890577 106.652345,82.5000031 106.410156,81.875 C106.167968,81.2499969 105.824221,80.7539081 105.378906,80.3867188 C104.933592,80.0195294 104.398441,79.7617195 103.773438,79.6132812 C103.148434,79.464843 102.453129,79.390625 101.6875,79.390625 C100.156242,79.390625 98.9335983,79.7343716 98.0195312,80.421875 C97.1054642,81.1093784 96.6484375,82.2421796 96.6484375,83.8203125 L92.3125,83.8203125 C92.3125,82.6640567 92.5624975,81.6054736 93.0625,80.6445312 C93.5625025,79.6835889 94.2343708,78.851566 95.078125,78.1484375 C95.9218792,77.4453125 96.9140568,76.9023457 98.0546875,76.5195312 C99.1953182,76.1367168 100.421868,75.9453125 101.734375,75.9453125 C103.046882,75.9453125 104.269526,76.1132796 105.402344,76.4492188 C106.535162,76.7851579 107.519527,77.2890591 108.355469,77.9609375 C109.19141,78.6328159 109.839841,79.4960885 110.300781,80.5507812 C110.761721,81.605474 110.992188,82.8515553 110.992188,84.2890625 L110.992188,97.296875 L114.648438,97.296875 L114.648438,101 L107.335938,101 L107.242188,96.4765625 L107.054688,96.4765625 C106.382809,98.2109462 105.390632,99.4960896 104.078125,100.332031 C102.765618,101.167973 101.195322,101.585938 99.3671875,101.585938 C98.1484314,101.585938 97.0468799,101.398439 96.0625,101.023438 C95.0781201,100.648436 94.2265661,100.093754 93.5078125,99.359375 C92.8671843,98.7187468 92.3710955,97.9531295 92.0195312,97.0625 C91.667967,96.1718705 91.4921875,95.2421923 91.4921875,94.2734375 Z M96.0625,94.859375 C96.0625,95.9843806 96.4531211,96.8085911 97.234375,97.3320312 C98.0156289,97.8554714 99.0937431,98.1171875 100.46875,98.1171875 C102.421885,98.1171875 103.960932,97.421882 105.085938,96.03125 C106.210943,94.640618 106.773438,92.843761 106.773438,90.640625 L106.773438,89.5390625 L98.078125,90.3359375 C97.1874955,90.3984378 96.6289074,90.6328105 96.4023438,91.0390625 C96.1757801,91.4453145 96.0625,91.9999965 96.0625,92.703125 L96.0625,94.859375 Z M119.570312,101 L119.570312,68.3515625 L123.882812,68.3515625 L123.882812,101 L119.570312,101 Z M131.851562,72.875 L131.851562,68.3515625 L136.351562,68.3515625 L136.351562,72.875 L131.851562,72.875 Z M131.945312,101 L131.945312,76.53125 L136.257812,76.53125 L136.257812,101 L131.945312,101 Z M142.984375,88.765625 C142.984375,86.9999912 143.183592,85.3320391 143.582031,83.7617188 C143.980471,82.1913984 144.578121,80.832037 145.375,79.6835938 C146.171879,78.5351505 147.179681,77.6250034 148.398438,76.953125 C149.617194,76.2812466 151.039054,75.9453125 152.664062,75.9453125 C154.492197,75.9453125 156.062493,76.3359336 157.375,77.1171875 C158.687507,77.8984414 159.726559,79.0312426 160.492188,80.515625 L160.492188,68.3515625 L164.828125,68.3515625 L164.828125,101 L160.492188,101 L160.492188,97.015625 C159.726559,98.4843823 158.703131,99.6132773 157.421875,100.402344 C156.140619,101.19141 154.593759,101.585938 152.78125,101.585938 C151.124992,101.585938 149.6836,101.250003 148.457031,100.578125 C147.230463,99.9062466 146.210942,98.9921933 145.398438,97.8359375 C144.585933,96.6796817 143.980471,95.3242265 143.582031,93.7695312 C143.183592,92.214836 142.984375,90.5468839 142.984375,88.765625 Z M147.53125,92.5625 C147.53125,93.390625 147.691405,94.1484341 148.011719,94.8359375 C148.332033,95.5234409 148.773435,96.1054664 149.335938,96.5820312 C149.89844,97.0585961 150.554684,97.4335924 151.304688,97.7070312 C152.054691,97.9804701 152.882808,98.1171875 153.789062,98.1171875 C155.960948,98.1171875 157.621088,97.4296944 158.769531,96.0546875 C159.917974,94.6796806 160.492188,92.9375105 160.492188,90.828125 L160.492188,86.703125 C160.492188,84.5937395 159.917974,82.8476632 158.769531,81.4648438 C157.621088,80.0820243 155.960948,79.390625 153.789062,79.390625 C152.898433,79.390625 152.074223,79.5273424 151.316406,79.8007812 C150.55859,80.0742201 149.89844,80.4531226 149.335938,80.9375 C148.773435,81.4218774 148.332033,82.0078091 148.011719,82.6953125 C147.691405,83.3828159 147.53125,84.1406209 147.53125,84.96875 L147.53125,92.5625 Z M171.226562,94.2734375 C171.226562,92.3515529 171.835931,90.7031319 173.054688,89.328125 C174.273444,87.9531181 176.10155,87.1562511 178.539062,86.9375 L186.507812,86.2109375 L186.507812,84.2421875 C186.507812,83.2890577 186.38672,82.5000031 186.144531,81.875 C185.902343,81.2499969 185.558596,80.7539081 185.113281,80.3867188 C184.667967,80.0195294 184.132816,79.7617195 183.507812,79.6132812 C182.882809,79.464843 182.187504,79.390625 181.421875,79.390625 C179.890617,79.390625 178.667973,79.7343716 177.753906,80.421875 C176.839839,81.1093784 176.382812,82.2421796 176.382812,83.8203125 L172.046875,83.8203125 C172.046875,82.6640567 172.296873,81.6054736 172.796875,80.6445312 C173.296877,79.6835889 173.968746,78.851566 174.8125,78.1484375 C175.656254,77.4453125 176.648432,76.9023457 177.789062,76.5195312 C178.929693,76.1367168 180.156243,75.9453125 181.46875,75.9453125 C182.781257,75.9453125 184.003901,76.1132796 185.136719,76.4492188 C186.269537,76.7851579 187.253902,77.2890591 188.089844,77.9609375 C188.925785,78.6328159 189.574216,79.4960885 190.035156,80.5507812 C190.496096,81.605474 190.726562,82.8515553 190.726562,84.2890625 L190.726562,97.296875 L194.382812,97.296875 L194.382812,101 L187.070312,101 L186.976562,96.4765625 L186.789062,96.4765625 C186.117184,98.2109462 185.125007,99.4960896 183.8125,100.332031 C182.499993,101.167973 180.929697,101.585938 179.101562,101.585938 C177.882806,101.585938 176.781255,101.398439 175.796875,101.023438 C174.812495,100.648436 173.960941,100.093754 173.242188,99.359375 C172.601559,98.7187468 172.105471,97.9531295 171.753906,97.0625 C171.402342,96.1718705 171.226562,95.2421923 171.226562,94.2734375 Z M175.796875,94.859375 C175.796875,95.9843806 176.187496,96.8085911 176.96875,97.3320312 C177.750004,97.8554714 178.828118,98.1171875 180.203125,98.1171875 C182.15626,98.1171875 183.695307,97.421882 184.820312,96.03125 C185.945318,94.640618 186.507812,92.843761 186.507812,90.640625 L186.507812,89.5390625 L177.8125,90.3359375 C176.921871,90.3984378 176.363282,90.6328105 176.136719,91.0390625 C175.910155,91.4453145 175.796875,91.9999965 175.796875,92.703125 L175.796875,94.859375 Z M196.867188,80.2109375 L196.867188,76.53125 L200.992188,76.53125 L200.992188,68.3515625 L205.257812,68.3515625 L205.257812,76.53125 L210.882812,76.53125 L210.882812,80.2109375 L205.257812,80.2109375 L205.257812,97.296875 L210.882812,97.296875 L210.882812,101 L200.992188,101 L200.992188,80.2109375 L196.867188,80.2109375 Z M215.570312,88.765625 C215.570312,86.9062407 215.792967,85.1836017 216.238281,83.5976562 C216.683596,82.0117108 217.363277,80.6601618 218.277344,79.5429688 C219.191411,78.4257757 220.335931,77.5468782 221.710938,76.90625 C223.085944,76.2656218 224.703116,75.9453125 226.5625,75.9453125 C228.421884,75.9453125 230.039056,76.2656218 231.414062,76.90625 C232.789069,77.5468782 233.929683,78.4257757 234.835938,79.5429688 C235.742192,80.6601618 236.421873,82.0117108 236.875,83.5976562 C237.328127,85.1836017 237.554688,86.9062407 237.554688,88.765625 C237.554688,90.6562595 237.328127,92.3828047 236.875,93.9453125 C236.421873,95.5078203 235.742192,96.8515569 234.835938,97.9765625 C233.929683,99.1015681 232.785163,99.9843718 231.402344,100.625 C230.019524,101.265628 228.406259,101.585938 226.5625,101.585938 C224.703116,101.585938 223.085944,101.265628 221.710938,100.625 C220.335931,99.9843718 219.191411,99.1015681 218.277344,97.9765625 C217.363277,96.8515569 216.683596,95.5078203 216.238281,93.9453125 C215.792967,92.3828047 215.570312,90.6562595 215.570312,88.765625 Z M220.117188,92.5625 C220.117188,93.390625 220.292967,94.1484341 220.644531,94.8359375 C220.996096,95.5234409 221.460935,96.1054664 222.039062,96.5820312 C222.617188,97.0585961 223.296871,97.4335924 224.078125,97.7070312 C224.859379,97.9804701 225.687496,98.1171875 226.5625,98.1171875 C227.421879,98.1171875 228.242184,97.9804701 229.023438,97.7070312 C229.804691,97.4335924 230.484372,97.0585961 231.0625,96.5820312 C231.640628,96.1054664 232.105467,95.5234409 232.457031,94.8359375 C232.808596,94.1484341 232.984375,93.390625 232.984375,92.5625 L232.984375,84.96875 C232.984375,84.1406209 232.808596,83.3828159 232.457031,82.6953125 C232.105467,82.0078091 231.640628,81.4218774 231.0625,80.9375 C230.484372,80.4531226 229.804691,80.0742201 229.023438,79.8007812 C228.242184,79.5273424 227.421879,79.390625 226.5625,79.390625 C225.703121,79.390625 224.87891,79.5273424 224.089844,79.8007812 C223.300777,80.0742201 222.617188,80.4531226 222.039062,80.9375 C221.460935,81.4218774 220.996096,82.0078091 220.644531,82.6953125 C220.292967,83.3828159 220.117188,84.1406209 220.117188,84.96875 L220.117188,92.5625 Z M244.210938,101 L244.210938,76.53125 L255.976562,76.53125 L255.976562,80.2578125 L248.523438,80.2578125 L248.523438,101 L244.210938,101 Z M259.75,93.265625 L264.085938,93.265625 C264.148438,94.8906331 264.730463,96.1054647 265.832031,96.9101562 C266.933599,97.7148478 268.234367,98.1171875 269.734375,98.1171875 C271.171882,98.1171875 272.42187,97.7968782 273.484375,97.15625 C274.54688,96.5156218 275.078125,95.5859436 275.078125,94.3671875 C275.078125,93.3828076 274.757816,92.593753 274.117188,92 C273.519268,91.4458306 272.485805,91.0141677 271.016772,90.7050002 L266.664062,89.8203125 C264.648427,89.3984354 263.097662,88.6210994 262.011719,87.4882812 C260.925776,86.3554631 260.382812,84.8281346 260.382812,82.90625 C260.382812,81.9531202 260.597654,81.0507855 261.027344,80.1992188 C261.457033,79.347652 262.074215,78.6093781 262.878906,77.984375 C263.683598,77.3593719 264.628901,76.8632831 265.714844,76.4960938 C266.800787,76.1289044 268.015618,75.9453125 269.359375,75.9453125 C270.515631,75.9453125 271.644526,76.0976547 272.746094,76.4023438 C273.847662,76.7070328 274.832027,77.1796843 275.699219,77.8203125 C276.566411,78.4609407 277.261716,79.2773388 277.785156,80.2695312 C278.308596,81.2617237 278.585937,82.4453125 278.617188,83.8203125 L274.304688,83.8203125 C274.242187,82.1953044 273.738286,81.0507846 272.792969,80.3867188 C271.847652,79.7226529 270.718757,79.390625 269.40625,79.390625 C268.062493,79.390625 266.925786,79.7109343 265.996094,80.3515625 C265.066402,80.9921907 264.601562,81.8281198 264.601562,82.859375 C264.601562,83.8125048 264.874997,84.5546848 265.421875,85.0859375 C265.968753,85.6171902 266.851556,86.0078113 268.070312,86.2578125 L272.195312,87.125 C274.632825,87.6406276 276.4414,88.4726505 277.621094,89.6210938 C278.800787,90.769537 279.390625,92.3359276 279.390625,94.3203125 C279.390625,95.3515677 279.160159,96.3085893 278.699219,97.1914062 C278.238279,98.0742232 277.574223,98.8320281 276.707031,99.4648438 C275.839839,100.097659 274.812506,100.609373 273.625,101 C272.437494,101.390627 271.125007,101.585938 269.6875,101.585938 C268.312493,101.585938 267.02735,101.410158 265.832031,101.058594 C264.636713,100.707029 263.589848,100.183597 262.691406,99.4882812 C261.792964,98.7929653 261.08594,97.9257864 260.570312,96.8867188 C260.054685,95.8476511 259.78125,94.6406319 259.75,93.265625 Z" id="Validators" fill="#FFFFFF" fill-rule="nonzero"></path>
    </g>
</svg>