<?xml version="1.0" encoding="UTF-8"?>
<svg width="882px" height="300px" viewBox="0 0 882 300" version="1.1" xmlns="http://www.w3.org/2000/svg" xmlns:xlink="http://www.w3.org/1999/xlink">
    <!-- Generator: Sketch 63.1 (92452) - https://sketch.com -->
    <title>Content Curators</title>
    <desc>Created with Sketch.</desc>
    <g id="Content-Curators" stroke="none" stroke-width="1" fill="none" fill-rule="evenodd">
        <rect id="Rectangle" fill="#000000" fill-rule="nonzero" x="0" y="0" width="882" height="210"></rect>
        <g id="Group-2" transform="translate(514.999670, 0.000000)" fill="#1F232C">
            <rect id="Rectangle" fill-rule="nonzero" x="105.00033" y="105" width="52.5" height="52.5"></rect>
            <path d="M122.50066,52.5 L122.50066,105 L116.66733,105 L116.66733,52.5 L122.50066,52.5 Z M134.16666,52.5 L134.16666,105 L128.33333,105 L128.33333,52.5 L134.16666,52.5 Z M145.83366,52.5 L145.83366,105 L140.00033,105 L140.00033,52.5 L145.83366,52.5 Z M157.50066,52.5 L157.50066,105 L151.66733,105 L151.66733,52.5 L157.50066,52.5 Z M110.83701,52.5 L110.83701,105 L105.00033,105 L105.00033,52.5 L110.83701,52.5 Z" id="Shape" fill-rule="nonzero"></path>
            <path d="M40.83333,105 L40.83333,157.5 L35,157.5 L35,105 L40.83333,105 Z M29.16733,105 L29.16733,157.5 L23.334,157.5 L23.334,105 L29.16733,105 Z M17.50033,105 L17.50033,157.5 L11.667,157.5 L11.667,105 L17.50033,105 Z M5.83333,105 L5.83333,157.5 L-6.92779167e-14,157.5 L-6.92779167e-14,105 L5.83333,105 Z M52.50033,105 L52.50033,157.5 L46.66365,157.5 L46.66365,105 L52.50033,105 Z" id="Shape" fill-rule="nonzero"></path>
            <path d="M355.50533,0.9844 L355.50533,53.4844 L349.672,53.4844 L349.672,0.9844 L355.50533,0.9844 Z M343.83833,0.9844 L343.83833,53.4844 L338.005,53.4844 L338.005,0.9844 L343.83833,0.9844 Z M332.17233,0.9844 L332.17233,53.4844 L326.339,53.4844 L326.339,0.9844 L332.17233,0.9844 Z M320.50533,0.9844 L320.50533,53.4844 L314.672,53.4844 L314.672,0.9844 L320.50533,0.9844 Z M367.17233,0.9844 L367.17233,53.4844 L361.33565,53.4844 L361.33565,0.9844 L367.17233,0.9844 Z" id="Shape" fill-rule="nonzero"></path>
            <path d="M52.50033,163.333 L52.50033,157.5 C81.49533,157.5 105.00033,181.005 105.00033,210 L99.16733,210 C99.16733,184.227 78.27333,163.333 52.50033,163.333 Z M52.50033,175 L52.50033,169.166 C75.05233,169.166 93.33333,187.448 93.33333,210 L87.50033,210 C87.50033,190.67 71.83033,175 52.50033,175 Z M52.50033,180.834 L52.50033,186.667 C65.38733,186.667 75.83333,197.114 75.83333,210 L81.66733,210 C81.66733,193.892 68.60833,180.834 52.50033,180.834 Z M52.50033,198.333 L52.50033,192.5 C62.16533,192.5 70.00033,200.335 70.00033,210 L64.16733,210 C64.16733,203.557 58.94333,198.333 52.50033,198.333 Z M52.50033,210 L52.50033,204.166 C55.72233,204.166 58.33333,206.778 58.33333,210 L52.50033,210 Z" id="Shape"></path>
            <path d="M262.00033,110.833 L262.00033,105 C290.99533,105 314.50033,128.505 314.50033,157.5 L308.66733,157.5 C308.66733,131.727 287.77333,110.833 262.00033,110.833 Z M262.00033,122.5 L262.00033,116.667 C284.55233,116.667 302.83333,134.949 302.83333,157.5 L297.00033,157.5 C297.00033,138.17 281.33033,122.5 262.00033,122.5 Z M262.00033,128.333 L262.00033,134.167 C274.88733,134.167 285.33333,144.613 285.33333,157.5 L291.16733,157.5 C291.16733,141.392 278.10833,128.333 262.00033,128.333 Z M262.00033,145.833 L262.00033,140 C271.66533,140 279.50033,147.835 279.50033,157.5 L273.66733,157.5 C273.66733,151.056 268.44333,145.833 262.00033,145.833 Z M262.00033,157.5 L262.00033,151.667 C265.22233,151.667 267.83333,154.279 267.83333,157.5 L262.00033,157.5 Z" id="Shape"></path>
            <path d="M214.11233,52.5 L210.00033,52.5 L210.00033,48.3875 L258.38733,0 L262.50033,0 L262.50033,4.1125 L214.11233,52.5 Z M250.13333,0 L241.87933,0 L210.00033,31.8791 L210.00033,40.1333 L250.13333,0 Z M233.62533,0 L225.37133,0 L210.00033,15.3708 L210.00033,23.625 L233.62533,0 Z M210.00033,0 L210.00033,7.11666 L217.11633,0 L210.00033,0 Z M262.50033,20.6208 L262.50033,12.3667 L222.36633,52.5 L230.62133,52.5 L262.50033,20.6208 Z M262.50033,37.1291 L262.50033,28.875 L238.87533,52.5 L247.12933,52.5 L262.50033,37.1291 Z M262.50033,45.3833 L255.38333,52.5 L262.50033,52.5 L262.50033,45.3833 Z" id="Shape" fill-rule="nonzero"></path>
            <path d="M157.50033,105 L210.00033,105 L210.00033,52.5 C181.00533,52.5 157.50033,76.0051 157.50033,105 Z" id="Path" fill-rule="nonzero"></path>
            <path d="M262.50033,157.5 L262.50033,105 L210.00033,105 C210.00033,133.995 233.50533,157.5 262.50033,157.5 Z" id="Path" fill-rule="nonzero"></path>
            <path d="M110.83733,204.164 L110.83733,210.001 L105.00033,210.001 L105.00033,204.164 L110.83733,204.164 Z M122.49433,204.164 L122.49433,210.001 L116.65833,210.001 L116.65833,204.164 L122.49433,204.164 Z M134.16833,204.164 L134.16833,210.001 L128.33133,210.001 L128.33133,204.164 L134.16833,204.164 Z M145.82633,204.164 L145.82633,210.001 L139.99033,210.001 L139.99033,204.164 L145.82633,204.164 Z M157.50033,204.164 L157.50033,210.001 L151.66333,210.001 L151.66333,204.164 L157.50033,204.164 Z M151.66333,198.326 L151.66333,204.163 L145.82633,204.163 L145.82633,198.326 L140.00533,198.326 L140.00633,204.163 L134.16933,204.163 L134.16833,198.326 L128.33133,198.326 L128.33233,204.163 L122.49533,204.163 L122.49533,198.326 L128.33233,198.326 L128.33233,192.505 L122.49533,192.505 L122.49533,186.668 L128.33233,186.668 L128.33133,180.832 L134.16833,180.832 L134.16933,186.668 L139.99033,186.668 L139.99033,180.832 L145.82633,180.832 L145.82633,186.668 L151.66333,186.668 L151.66333,180.832 L157.50033,180.832 L157.50033,186.669 L151.66333,186.669 L151.66333,192.489 L157.50033,192.489 L157.50033,198.326 L151.66333,198.326 Z M110.83733,180.832 L110.83733,186.668 L116.65833,186.668 L116.65833,180.832 L122.49433,180.832 L122.49433,186.669 L116.67333,186.669 L116.67333,192.489 L122.49433,192.489 L122.49433,198.326 L116.67333,198.326 L116.67333,204.163 L110.83733,204.163 L110.83733,198.326 L105.00033,198.326 L105.00033,192.489 L110.83733,192.489 L110.83733,186.669 L105.00033,186.669 L105.00033,180.832 L110.83733,180.832 Z M139.99033,192.505 L134.16933,192.505 L134.16933,198.326 L139.99033,198.325 L139.99033,192.505 Z M116.65833,192.505 L110.83733,192.505 L110.83733,198.326 L116.65833,198.325 L116.65833,192.505 Z M134.16833,186.669 L128.33133,186.669 L128.33133,192.489 L134.16833,192.489 L134.16833,186.669 Z M145.82633,186.669 L140.00533,186.669 L140.00533,192.489 L145.82633,192.489 L145.82633,186.669 Z M116.67333,163.337 L116.67333,169.158 L122.49433,169.158 L122.49433,174.995 L116.67333,174.995 L116.67333,180.832 L110.83733,180.832 L110.83733,174.995 L105.00033,174.995 L105.00033,169.158 L110.83733,169.158 L110.83733,163.337 L116.67333,163.337 Z M128.33233,163.337 L128.33133,169.158 L134.16833,169.158 L134.16933,163.337 L140.00633,163.337 L140.00533,169.158 L145.82633,169.158 L145.82633,163.337 L151.66333,163.337 L151.66333,169.158 L157.50033,169.158 L157.50033,174.995 L151.66333,174.995 L151.66333,180.832 L145.82633,180.832 L145.82633,174.995 L140.00533,174.995 L140.00633,180.832 L134.16933,180.832 L134.16833,174.995 L128.33133,174.995 L128.33233,180.832 L122.49533,180.832 L122.49533,174.995 L128.33233,174.995 L128.33233,169.174 L122.49533,169.174 L122.49533,163.337 L128.33233,163.337 Z M139.99033,169.174 L134.16933,169.174 L134.16933,174.995 L139.99033,174.994 L139.99033,169.174 Z M116.65833,169.174 L110.83733,169.174 L110.83733,174.995 L116.65833,174.994 L116.65833,169.174 Z M151.66333,169.174 L145.82633,169.174 L145.82633,174.995 L151.66333,174.995 L151.66333,169.174 Z M110.83733,157.5 L110.83733,163.337 L105.00033,163.337 L105.00033,157.5 L110.83733,157.5 Z M122.49433,157.5 L122.49433,163.337 L116.65833,163.337 L116.65833,157.5 L122.49433,157.5 Z M134.16833,157.5 L134.16833,163.337 L128.33133,163.337 L128.33133,157.5 L134.16833,157.5 Z M145.82633,157.5 L145.82633,163.337 L139.99033,163.337 L139.99033,157.5 L145.82633,157.5 Z M157.50033,157.5 L157.50033,163.337 L151.66333,163.337 L151.66333,157.5 L157.50033,157.5 Z M151.66333,192.505 L145.82633,192.505 L145.82633,198.326 L151.66333,198.326 L151.66333,192.505 Z" id="Combined-Shape" fill-rule="nonzero"></path>
        </g>
        <path d="M75.90625,61.6484375 C77.4687501,61.6484375 78.9335939,61.8789061 80.3007812,62.3398438 C81.6679686,62.8007814 82.8632811,63.4648438 83.8867188,64.3320312 C84.9101564,65.1992188 85.7343749,66.2460939 86.359375,67.4726562 C86.9843751,68.6992186 87.34375,70.0859375 87.4375,71.6328125 L87.4375,71.6328125 L82.8671875,71.6328125 C82.6484376,69.7109375 81.8984376,68.2304686 80.6171875,67.1914062 C79.3359374,66.1523439 77.6249999,65.6328125 75.484375,65.6328125 C74.3281251,65.6328125 73.2617189,65.8320312 72.2851562,66.2304688 C71.3085936,66.6289062 70.4609376,67.1796875 69.7421875,67.8828125 C69.0234374,68.5859375 68.4648438,69.4257811 68.0664062,70.4023438 C67.6679688,71.3789064 67.46875,72.4609374 67.46875,73.6484375 L67.46875,73.6484375 L67.46875,83.7265625 C67.46875,84.8828124 67.6835939,85.9453126 68.1132812,86.9140625 C68.5429686,87.8828124 69.1367189,88.7304688 69.8945312,89.4570312 C70.6523436,90.1835938 71.5351562,90.7460938 72.5429688,91.1445312 C73.5507812,91.5429688 74.6249999,91.7421875 75.765625,91.7421875 C77.9375001,91.7421875 79.6992186,91.2539064 81.0507812,90.2773438 C82.4023439,89.3007811 83.1875001,87.7031251 83.40625,85.484375 L83.40625,85.484375 L87.953125,85.484375 C87.859375,87.0156249 87.484375,88.4179689 86.828125,89.6914062 C86.171875,90.9648436 85.3085939,92.0390626 84.2382812,92.9140625 C83.1679686,93.7890624 81.9101564,94.4765626 80.4648438,94.9765625 C79.0195311,95.4765624 77.4687501,95.7265625 75.8125,95.7265625 C73.6406249,95.7265625 71.7226562,95.3320314 70.0585938,94.5429688 C68.3945312,93.7539061 67.0039064,92.6250001 65.8867188,91.15625 C64.7695311,89.6874999 63.9140624,87.9296874 63.3203125,85.8828125 C62.7265626,83.8359376 62.4296875,81.5312499 62.4296875,78.96875 C62.4296875,76.3125001 62.7031251,73.9140624 63.25,71.7734375 C63.7968749,69.6328126 64.6289061,67.8085936 65.7460938,66.3007812 C66.8632814,64.7929689 68.2695314,63.640625 69.9648438,62.84375 C71.6601561,62.046875 73.6406249,61.6484375 75.90625,61.6484375 Z M262.539062,61.6484375 C264.101563,61.6484375 265.566406,61.8789061 266.933594,62.3398438 C268.300781,62.8007814 269.496094,63.4648438 270.519531,64.3320312 C271.542969,65.1992188 272.367187,66.2460939 272.992188,67.4726562 C273.617188,68.6992186 273.976562,70.0859375 274.070312,71.6328125 L274.070312,71.6328125 L269.5,71.6328125 C269.28125,69.7109375 268.53125,68.2304686 267.25,67.1914062 C265.96875,66.1523439 264.257812,65.6328125 262.117188,65.6328125 C260.960938,65.6328125 259.894531,65.8320312 258.917969,66.2304688 C257.941406,66.6289062 257.09375,67.1796875 256.375,67.8828125 C255.65625,68.5859375 255.097656,69.4257811 254.699219,70.4023438 C254.300781,71.3789064 254.101562,72.4609374 254.101562,73.6484375 L254.101562,73.6484375 L254.101562,83.7265625 C254.101562,84.8828124 254.316406,85.9453126 254.746094,86.9140625 C255.175781,87.8828124 255.769531,88.7304688 256.527344,89.4570312 C257.285156,90.1835938 258.167969,90.7460938 259.175781,91.1445312 C260.183594,91.5429688 261.257812,91.7421875 262.398438,91.7421875 C264.570313,91.7421875 266.332031,91.2539064 267.683594,90.2773438 C269.035156,89.3007811 269.820313,87.7031251 270.039062,85.484375 L270.039062,85.484375 L274.585938,85.484375 C274.492188,87.0156249 274.117188,88.4179689 273.460938,89.6914062 C272.804688,90.9648436 271.941406,92.0390626 270.871094,92.9140625 C269.800781,93.7890624 268.542969,94.4765626 267.097656,94.9765625 C265.652344,95.4765624 264.101563,95.7265625 262.445312,95.7265625 C260.273437,95.7265625 258.355469,95.3320314 256.691406,94.5429688 C255.027344,93.7539061 253.636719,92.6250001 252.519531,91.15625 C251.402344,89.6874999 250.546875,87.9296874 249.953125,85.8828125 C249.359375,83.8359376 249.0625,81.5312499 249.0625,78.96875 C249.0625,76.3125001 249.335938,73.9140624 249.882812,71.7734375 C250.429687,69.6328126 251.261719,67.8085936 252.378906,66.3007812 C253.496094,64.7929689 254.902344,63.640625 256.597656,62.84375 C258.292969,62.046875 260.273437,61.6484375 262.539062,61.6484375 Z M333.90625,69.9453125 C335.21875,69.9453125 336.441406,70.1132814 337.574219,70.4492188 C338.707031,70.7851561 339.691406,71.2890624 340.527344,71.9609375 C341.363281,72.6328126 342.011719,73.4960938 342.472656,74.5507812 C342.933594,75.6054688 343.164062,76.8515626 343.164062,78.2890625 L343.164062,78.2890625 L343.164062,91.296875 L346.820312,91.296875 L346.820312,95 L339.507812,95 L339.414062,90.4765625 L339.226562,90.4765625 C338.554687,92.2109375 337.5625,93.4960936 336.25,94.3320312 C334.9375,95.1679689 333.367188,95.5859375 331.539062,95.5859375 C330.320312,95.5859375 329.21875,95.3984375 328.234375,95.0234375 C327.25,94.6484375 326.398438,94.0937499 325.679688,93.359375 C325.039063,92.7187501 324.542969,91.953125 324.191406,91.0625 C323.839844,90.171875 323.664062,89.2421874 323.664062,88.2734375 C323.664062,86.3515625 324.273438,84.7031251 325.492188,83.328125 C326.710938,81.9531249 328.539062,81.1562499 330.976562,80.9375 L330.976562,80.9375 L338.945312,80.2109375 L338.945312,78.2421875 C338.945312,77.2890624 338.824219,76.5000001 338.582031,75.875 C338.339844,75.2499999 337.996094,74.7539064 337.550781,74.3867188 C337.105469,74.0195311 336.570313,73.7617186 335.945312,73.6132812 C335.320312,73.4648439 334.625,73.390625 333.859375,73.390625 C332.328125,73.390625 331.105469,73.7343751 330.191406,74.421875 C329.277344,75.1093749 328.820312,76.2421876 328.820312,77.8203125 L328.820312,77.8203125 L324.484375,77.8203125 C324.484375,76.6640626 324.734375,75.6054688 325.234375,74.6445312 C325.734375,73.6835938 326.40625,72.8515625 327.25,72.1484375 C328.09375,71.4453125 329.085937,70.9023436 330.226562,70.5195312 C331.367188,70.1367189 332.59375,69.9453125 333.90625,69.9453125 Z M285.039062,70.53125 L285.039062,86.3515625 C285.039062,88.1171874 285.382813,89.5195314 286.070312,90.5585938 C286.757812,91.5976561 288.015625,92.1171875 289.84375,92.1171875 C291.671875,92.1171875 293.121094,91.4375 294.191406,90.078125 C295.261719,88.71875 295.796875,86.9687499 295.796875,84.828125 L295.796875,84.828125 L295.796875,70.53125 L300.109375,70.53125 L300.109375,95 L295.796875,95 L295.796875,90.96875 C295.125,92.4062499 294.226562,93.5351562 293.101562,94.3554688 C291.976562,95.1757812 290.492188,95.5859375 288.648438,95.5859375 C287.523438,95.5859375 286.472656,95.4257814 285.496094,95.1054688 C284.519531,94.7851561 283.679688,94.2734375 282.976562,93.5703125 C282.273438,92.8671875 281.722656,91.9609374 281.324219,90.8515625 C280.925781,89.7421876 280.726562,88.4062501 280.726562,86.84375 L280.726562,86.84375 L280.726562,70.53125 L285.039062,70.53125 Z M379,69.9453125 C380.859375,69.9453125 382.476562,70.2656251 383.851562,70.90625 C385.226563,71.5468749 386.367187,72.4257811 387.273438,73.5429688 C388.179688,74.6601564 388.859375,76.0117186 389.3125,77.5976562 C389.765625,79.1835939 389.992188,80.9062501 389.992188,82.765625 C389.992188,84.6562501 389.765625,86.3828124 389.3125,87.9453125 C388.859375,89.5078126 388.179688,90.8515625 387.273438,91.9765625 C386.367187,93.1015625 385.222656,93.9843751 383.839844,94.625 C382.457031,95.2656249 380.84375,95.5859375 379,95.5859375 C377.140625,95.5859375 375.523438,95.2656249 374.148438,94.625 C372.773437,93.9843751 371.628906,93.1015625 370.714844,91.9765625 C369.800781,90.8515625 369.121094,89.5078126 368.675781,87.9453125 C368.230469,86.3828124 368.007812,84.6562501 368.007812,82.765625 C368.007812,80.9062501 368.230469,79.1835939 368.675781,77.5976562 C369.121094,76.0117186 369.800781,74.6601564 370.714844,73.5429688 C371.628906,72.4257811 372.773437,71.5468749 374.148438,70.90625 C375.523438,70.2656251 377.140625,69.9453125 379,69.9453125 Z M175.890625,69.9453125 C177.65625,69.9453125 179.195312,70.25 180.507812,70.859375 C181.820312,71.46875 182.90625,72.3007812 183.765625,73.3554688 C184.625,74.4101562 185.273437,75.6484374 185.710938,77.0703125 C186.148438,78.4921876 186.367188,80.0234375 186.367188,81.6640625 L186.367188,81.6640625 L186.367188,83.9609375 L169.890625,83.9609375 L169.890625,86.5625 C169.890625,87.453125 170.058594,88.2421876 170.394531,88.9296875 C170.730469,89.6171874 171.1875,90.1992189 171.765625,90.6757812 C172.34375,91.1523436 172.992187,91.5117189 173.710938,91.7539062 C174.429688,91.9960936 175.171875,92.1171875 175.9375,92.1171875 C177.46875,92.1171875 178.796875,91.7265624 179.921875,90.9453125 C181.046875,90.1640626 181.6875,88.9218751 181.84375,87.21875 L181.84375,87.21875 L186.179688,87.21875 C186.085938,88.53125 185.742187,89.6992186 185.148438,90.7226562 C184.554688,91.7460939 183.785156,92.6171874 182.839844,93.3359375 C181.894531,94.0546876 180.828125,94.6093749 179.640625,95 C178.453125,95.3906251 177.203125,95.5859375 175.890625,95.5859375 C174.125,95.5859375 172.582031,95.2656249 171.261719,94.625 C169.941406,93.9843751 168.839844,93.1015625 167.957031,91.9765625 C167.074219,90.8515625 166.417969,89.5078126 165.988281,87.9453125 C165.558594,86.3828124 165.34375,84.6562501 165.34375,82.765625 C165.34375,80.9062501 165.574219,79.1835939 166.035156,77.5976562 C166.496094,76.0117186 167.183594,74.6601564 168.097656,73.5429688 C169.011719,72.4257811 170.117188,71.5468749 171.414062,70.90625 C172.710937,70.2656251 174.203125,69.9453125 175.890625,69.9453125 Z M103.984375,69.9453125 C105.84375,69.9453125 107.460937,70.2656251 108.835938,70.90625 C110.210938,71.5468749 111.351562,72.4257811 112.257812,73.5429688 C113.164063,74.6601564 113.84375,76.0117186 114.296875,77.5976562 C114.75,79.1835939 114.976562,80.9062501 114.976562,82.765625 C114.976562,84.6562501 114.75,86.3828124 114.296875,87.9453125 C113.84375,89.5078126 113.164063,90.8515625 112.257812,91.9765625 C111.351562,93.1015625 110.207031,93.9843751 108.824219,94.625 C107.441406,95.2656249 105.828125,95.5859375 103.984375,95.5859375 C102.125,95.5859375 100.507813,95.2656249 99.1328125,94.625 C97.7578124,93.9843751 96.6132812,93.1015625 95.6992188,91.9765625 C94.7851562,90.8515625 94.1054688,89.5078126 93.6601562,87.9453125 C93.2148438,86.3828124 92.9921875,84.6562501 92.9921875,82.765625 C92.9921875,80.9062501 93.2148438,79.1835939 93.6601562,77.5976562 C94.1054688,76.0117186 94.7851562,74.6601564 95.6992188,73.5429688 C96.6132812,72.4257811 97.7578124,71.5468749 99.1328125,70.90625 C100.507813,70.2656251 102.125,69.9453125 103.984375,69.9453125 Z M421.796875,69.9453125 C422.953125,69.9453125 424.082031,70.0976562 425.183594,70.4023438 C426.285156,70.7070312 427.269531,71.1796876 428.136719,71.8203125 C429.003906,72.4609374 429.699219,73.2773439 430.222656,74.2695312 C430.746094,75.2617186 431.023438,76.4453124 431.054688,77.8203125 L431.054688,77.8203125 L426.742188,77.8203125 C426.679687,76.1953126 426.175781,75.0507811 425.230469,74.3867188 C424.285156,73.7226564 423.15625,73.390625 421.84375,73.390625 C420.5,73.390625 419.363281,73.7109376 418.433594,74.3515625 C417.503906,74.9921874 417.039062,75.828125 417.039062,76.859375 C417.039062,77.8125001 417.3125,78.5546874 417.859375,79.0859375 C418.40625,79.6171876 419.289062,80.0078124 420.507812,80.2578125 L420.507812,80.2578125 L424.632812,81.125 C427.070312,81.640625 428.878906,82.4726562 430.058594,83.6210938 C431.238281,84.7695312 431.828125,86.3359374 431.828125,88.3203125 C431.828125,89.3515625 431.597656,90.3085936 431.136719,91.1914062 C430.675781,92.0742189 430.011719,92.8320312 429.144531,93.4648438 C428.277344,94.0976562 427.25,94.6093749 426.0625,95 C424.875,95.3906251 423.5625,95.5859375 422.125,95.5859375 C420.75,95.5859375 419.464844,95.4101562 418.269531,95.0585938 C417.074219,94.7070312 416.027344,94.1835939 415.128906,93.4882812 C414.230469,92.7929686 413.523438,91.9257811 413.007812,90.8867188 C412.492188,89.8476564 412.21875,88.6406251 412.1875,87.265625 L412.1875,87.265625 L416.523438,87.265625 C416.585938,88.8906249 417.167969,90.1054689 418.269531,90.9101562 C419.371094,91.7148436 420.671875,92.1171875 422.171875,92.1171875 C423.609375,92.1171875 424.859375,91.7968749 425.921875,91.15625 C426.984375,90.5156251 427.515625,89.5859375 427.515625,88.3671875 C427.515625,87.3828125 427.195312,86.5937499 426.554688,86 C425.914063,85.4062501 424.773438,84.9531249 423.132812,84.640625 L423.132812,84.640625 L419.101562,83.8203125 C417.085938,83.3984375 415.535156,82.6210936 414.449219,81.4882812 C413.363281,80.3554689 412.820312,78.828125 412.820312,76.90625 C412.820312,75.9531249 413.035156,75.0507811 413.464844,74.1992188 C413.894531,73.3476564 414.511719,72.6093751 415.316406,71.984375 C416.121094,71.3593749 417.066406,70.8632814 418.152344,70.4960938 C419.238281,70.1289061 420.453125,69.9453125 421.796875,69.9453125 Z M133.257812,69.9453125 C134.445313,69.9453125 135.523438,70.1054686 136.492188,70.4257812 C137.460937,70.7460939 138.296875,71.2578125 139,71.9609375 C139.703125,72.6640625 140.25,73.5664062 140.640625,74.6679688 C141.03125,75.7695312 141.226562,77.1093751 141.226562,78.6875 L141.226562,78.6875 L141.226562,95 L136.890625,95 L136.890625,79.15625 C136.890625,77.3593749 136.546875,75.9492189 135.859375,74.9257812 C135.171875,73.9023436 133.898437,73.390625 132.039062,73.390625 C131.148438,73.390625 130.335937,73.5664062 129.601562,73.9179688 C128.867188,74.2695312 128.226562,74.7734375 127.679688,75.4296875 C127.132813,76.0859375 126.707031,76.8632814 126.402344,77.7617188 C126.097656,78.6601561 125.945312,79.6406251 125.945312,80.703125 L125.945312,80.703125 L125.945312,95 L121.632812,95 L121.632812,70.53125 L125.945312,70.53125 L125.945312,74.5625 C126.617188,73.1250001 127.539062,71.9960938 128.710938,71.1757812 C129.882812,70.3554688 131.398438,69.9453125 133.257812,69.9453125 Z M408.414062,70.53125 L408.414062,74.2578125 L400.960938,74.2578125 L400.960938,95 L396.648438,95 L396.648438,70.53125 L408.414062,70.53125 Z M155.03125,62.3515625 L155.03125,70.53125 L160.65625,70.53125 L160.65625,74.2109375 L155.03125,74.2109375 L155.03125,91.296875 L160.65625,91.296875 L160.65625,95 L150.765625,95 L150.765625,74.2109375 L146.640625,74.2109375 L146.640625,70.53125 L150.765625,70.53125 L150.765625,62.3515625 L155.03125,62.3515625 Z M204.554688,69.9453125 C205.742188,69.9453125 206.820313,70.1054686 207.789062,70.4257812 C208.757812,70.7460939 209.59375,71.2578125 210.296875,71.9609375 C211,72.6640625 211.546875,73.5664062 211.9375,74.6679688 C212.328125,75.7695312 212.523438,77.1093751 212.523438,78.6875 L212.523438,78.6875 L212.523438,95 L208.1875,95 L208.1875,79.15625 C208.1875,77.3593749 207.84375,75.9492189 207.15625,74.9257812 C206.46875,73.9023436 205.195312,73.390625 203.335938,73.390625 C202.445312,73.390625 201.632812,73.5664062 200.898438,73.9179688 C200.164063,74.2695312 199.523437,74.7734375 198.976562,75.4296875 C198.429688,76.0859375 198.003906,76.8632814 197.699219,77.7617188 C197.394531,78.6601561 197.242188,79.6406251 197.242188,80.703125 L197.242188,80.703125 L197.242188,95 L192.929688,95 L192.929688,70.53125 L197.242188,70.53125 L197.242188,74.5625 C197.914063,73.1250001 198.835938,71.9960938 200.007812,71.1757812 C201.179688,70.3554688 202.695313,69.9453125 204.554688,69.9453125 Z M226.328125,62.3515625 L226.328125,70.53125 L231.953125,70.53125 L231.953125,74.2109375 L226.328125,74.2109375 L226.328125,91.296875 L231.953125,91.296875 L231.953125,95 L222.0625,95 L222.0625,74.2109375 L217.9375,74.2109375 L217.9375,70.53125 L222.0625,70.53125 L222.0625,62.3515625 L226.328125,62.3515625 Z M357.695312,62.3515625 L357.695312,70.53125 L363.320312,70.53125 L363.320312,74.2109375 L357.695312,74.2109375 L357.695312,91.296875 L363.320312,91.296875 L363.320312,95 L353.429688,95 L353.429688,74.2109375 L349.304688,74.2109375 L349.304688,70.53125 L353.429688,70.53125 L353.429688,62.3515625 L357.695312,62.3515625 Z M319.84375,70.53125 L319.84375,74.2578125 L312.390625,74.2578125 L312.390625,95 L308.078125,95 L308.078125,70.53125 L319.84375,70.53125 Z M103.984375,73.390625 C103.125,73.390625 102.300781,73.5273436 101.511719,73.8007812 C100.722656,74.0742189 100.039063,74.4531249 99.4609375,74.9375 C98.8828124,75.4218751 98.4179688,76.0078126 98.0664062,76.6953125 C97.7148438,77.3828124 97.5390625,78.1406251 97.5390625,78.96875 L97.5390625,78.96875 L97.5390625,86.5625 C97.5390625,87.3906249 97.7148438,88.1484376 98.0664062,88.8359375 C98.4179688,89.5234374 98.8828124,90.1054689 99.4609375,90.5820312 C100.039063,91.0585936 100.71875,91.4335936 101.5,91.7070312 C102.28125,91.9804689 103.109375,92.1171875 103.984375,92.1171875 C104.84375,92.1171875 105.664063,91.9804689 106.445312,91.7070312 C107.226562,91.4335936 107.90625,91.0585936 108.484375,90.5820312 C109.0625,90.1054689 109.527344,89.5234374 109.878906,88.8359375 C110.230469,88.1484376 110.40625,87.3906249 110.40625,86.5625 L110.40625,86.5625 L110.40625,78.96875 C110.40625,78.1406251 110.230469,77.3828124 109.878906,76.6953125 C109.527344,76.0078126 109.0625,75.4218751 108.484375,74.9375 C107.90625,74.4531249 107.226562,74.0742189 106.445312,73.8007812 C105.664063,73.5273436 104.84375,73.390625 103.984375,73.390625 Z M379,73.390625 C378.140625,73.390625 377.316406,73.5273436 376.527344,73.8007812 C375.738281,74.0742189 375.054688,74.4531249 374.476562,74.9375 C373.898437,75.4218751 373.433594,76.0078126 373.082031,76.6953125 C372.730469,77.3828124 372.554688,78.1406251 372.554688,78.96875 L372.554688,78.96875 L372.554688,86.5625 C372.554688,87.3906249 372.730469,88.1484376 373.082031,88.8359375 C373.433594,89.5234374 373.898437,90.1054689 374.476562,90.5820312 C375.054688,91.0585936 375.734375,91.4335936 376.515625,91.7070312 C377.296875,91.9804689 378.125,92.1171875 379,92.1171875 C379.859375,92.1171875 380.679688,91.9804689 381.460938,91.7070312 C382.242187,91.4335936 382.921875,91.0585936 383.5,90.5820312 C384.078125,90.1054689 384.542969,89.5234374 384.894531,88.8359375 C385.246094,88.1484376 385.421875,87.3906249 385.421875,86.5625 L385.421875,86.5625 L385.421875,78.96875 C385.421875,78.1406251 385.246094,77.3828124 384.894531,76.6953125 C384.542969,76.0078126 384.078125,75.4218751 383.5,74.9375 C382.921875,74.4531249 382.242187,74.0742189 381.460938,73.8007812 C380.679688,73.5273436 379.859375,73.390625 379,73.390625 Z M338.945312,83.5390625 L330.25,84.3359375 C329.359375,84.3984376 328.800781,84.6328126 328.574219,85.0390625 C328.347656,85.4453124 328.234375,86 328.234375,86.703125 L328.234375,86.703125 L328.234375,88.859375 C328.234375,89.984375 328.625,90.8085939 329.40625,91.3320312 C330.1875,91.8554686 331.265625,92.1171875 332.640625,92.1171875 C334.59375,92.1171875 336.132812,91.4218749 337.257812,90.03125 C338.382812,88.6406251 338.945312,86.84375 338.945312,84.640625 L338.945312,84.640625 L338.945312,83.5390625 Z M175.890625,73.390625 C175.09375,73.390625 174.335938,73.5195312 173.617188,73.7773438 C172.898437,74.0351562 172.257812,74.4140626 171.695312,74.9140625 C171.132812,75.4140624 170.691406,76.0234374 170.371094,76.7421875 C170.050781,77.4609376 169.890625,78.265625 169.890625,79.15625 L169.890625,79.15625 L169.890625,80.515625 L181.890625,80.515625 L181.890625,79.15625 C181.890625,78.265625 181.730469,77.4609376 181.410156,76.7421875 C181.089844,76.0234374 180.652344,75.4140624 180.097656,74.9140625 C179.542969,74.4140626 178.902344,74.0351562 178.175781,73.7773438 C177.449219,73.5195312 176.6875,73.390625 175.890625,73.390625 Z" id="Text-Layer" fill="#FFFFFF"></path>
        <g id="Group-6" transform="translate(576.000000, 79.000000)">
            <g id="Group-22" transform="translate(41.927083, 115.438851) rotate(-271.000000) translate(-41.927083, -115.438851) translate(-9.479167, 74.605517)">
                <path d="M42.4534185,80.9491384 C81.4804886,83.0988745 105.320667,64.5014892 102.567826,42.0909453 C101.861602,36.3416577 101.247126,20.7687507 96.4146755,15.2440532 C82.4103848,-0.766348072 56.2164067,-3.50000729 30.6675681,4.11476774 C5.11872948,11.7295428 0.254380355,33.4930836 0.0716994645,43.9588648 C-0.0808320952,52.697392 3.42634831,78.7994022 42.4534185,80.9491384 Z" id="Oval-Copy" fill="#000000"></path>
                <path d="M8.54868363,39.3617386 C10.5557138,52.5190429 29.3821774,62.1875699 51.4477763,61.1381519 C74.1372735,60.0627322 91.6596158,47.8329032 90.5850232,33.8168336 C90.550042,33.3605346 90.495785,32.9080932 90.4227615,32.4597902 L90.4818911,32.4557441 L91.6736836,44.645024 L91.6268364,44.648087 C91.9443612,58.3143772 74.6765326,70.0338398 52.4488992,71.0316863 C30.8723029,72.0037253 12.3920346,62.7275457 9.70595533,50.0041421 L9.61162929,50.0103092 L8.54868363,39.3617386 Z" id="Path" stroke="#979797" stroke-width="0.5" fill="#D8D8D8"></path>
                <path d="M52.3082978,58.4487157 C30.7878934,59.5269199 12.517826,49.4657697 11.50096,35.9713664 C10.484094,22.4749419 27.105496,10.4271233 48.6259004,9.06695174 C70.1463047,7.71043825 88.4163722,17.7845282 89.4332382,31.56292 C90.4501041,45.3392907 73.8287022,57.3741695 52.3082978,58.4487157 Z" id="Oval-Copy-18" stroke="#979797" stroke-width="0.5" fill="#D8D8D8"></path>
                <path d="M51.5764395,54.6923752 C72.8781699,52.9918916 88.9301688,40.8051225 87.6980601,27.3750847 C87.9662779,28.2727921 88.1572918,29.1924608 88.2663586,30.1316227 C89.8434527,43.7128745 73.6891117,56.1039314 52.1846281,57.8027403 C30.6801445,59.497933 11.9688287,50.0842215 10.3917346,36.7817097 C10.3768651,36.6562976 10.3635719,36.5309776 10.3518445,36.4057574 C13.9620278,48.248023 31.5591368,56.287091 51.5764395,54.6923752 Z" id="Path" fill="#FFFFFF"></path>
                <path d="M50.3943789,15.6839273 C31.4866323,17.0825323 17.0999678,27.6730298 18.2608643,39.3384655 C18.4316264,41.0543926 18.9292782,42.7001502 19.7141348,44.2555984 C18.2753345,42.1659972 17.3788354,39.8786271 17.1371504,37.4506184 C15.9762539,25.7880544 30.3629184,15.1919611 49.270665,13.7835817 C65.3971769,12.5823679 79.6040313,18.5690881 84.1548874,27.7302438 C78.682633,19.6613759 65.3657551,14.5764954 50.3943789,15.6839273 Z" id="Path" fill="#000000"></path>
                <path d="M66.188077,37.6726357 L40.7747677,43.8911627 C39.3480668,44.2384632 38.0385412,43.3642485 37.8498605,41.9387616 C37.8058991,41.606638 37.8265071,41.2619749 37.9105538,40.9236639 L42.7349948,21.469574 C43.0957202,20.0122663 44.5175422,18.9967708 45.9107232,19.2019501 C46.2353256,19.2497884 46.5406561,19.362793 46.8099637,19.5347744 L67.398832,32.7597013 C68.5546892,33.5066394 68.7966672,35.1480988 67.939305,36.425003 C67.5191283,37.0505601 66.8872756,37.5006833 66.188077,37.6726357 Z" id="Path" fill="#FFFFFF"></path>
                <path d="M65.0186021,38.8363467 L40.8149297,44.702427 C39.4561377,45.0301523 38.2100157,44.2081212 38.0316383,42.8665549 C37.9900775,42.5539834 38.0100098,42.2295742 38.0903416,41.91111 L42.7015391,23.6003883 C43.0463201,22.2288965 44.4010566,21.2730029 45.7274277,21.4658211 C46.0364639,21.510775 46.3270914,21.6170531 46.5833659,21.7788336 L66.1758409,34.2141567 C67.2757606,34.9161971 67.5047049,36.4601183 66.6872023,37.6617247 C66.2865599,38.2504076 65.6845199,38.6741917 65.0186021,38.8363467 Z" id="Path" fill="#000000"></path>
            </g>
            <g id="Curator" transform="translate(32.340617, 0.000000)" fill-rule="nonzero">
                <path d="M128.25137,112.027105 C127.101841,115.980871 124.350211,118.389488 121.064548,120.207312 C120.539566,120.516342 120.539566,120.689035 120.793005,121.216204 C123.44507,126.669675 123.626098,132.168592 120.711543,137.576618 C119.205431,140.185447 116.958351,142.283653 114.257885,143.602704 C110.519651,145.629578 106.428412,146.32944 102.25571,146.73845 C94.399083,147.474669 86.7868441,146.12039 79.2651193,144.011715 C70.4226194,141.452268 62.0156483,137.566807 54.3284744,132.486712 C49.0803211,129.136512 44.5255882,124.800441 40.9142793,119.716499 C39.2578706,117.371507 37.5290506,115.090138 36.5243437,112.390669 C34.9041406,108.036981 34.3429529,103.583313 35.9993617,99.0932882 C37.4204336,95.2576799 40.2263719,92.7309048 43.7383204,90.913081 C44.3471438,90.555256 44.9826417,90.2452998 45.6391173,89.9859909 C46.245562,89.7860303 46.399436,89.5042676 46.1822021,88.8862075 C45.4221818,86.6207885 45.1145981,84.2270851 45.2770607,81.8421402 C45.4537444,78.452411 47.1095289,75.3132674 49.8027676,73.2620118 C51.2178475,72.049583 52.8318585,71.0931343 54.5728626,70.4352958 C54.9336984,70.2978321 55.2132099,70.0037907 55.3331814,69.6354533 C58.7998728,62.0460389 62.3027699,54.4748027 65.9866953,46.9853686 C66.3125462,46.3218629 66.5659858,45.6220007 66.8918367,44.9766733 C67.9007,43.4380253 68.1319376,41.5131138 67.5163842,39.7776972 C66.1477993,36.0381483 66.9410634,31.845682 69.5801066,28.8707543 C70.3831291,27.9480944 71.3272254,27.1596042 72.3769934,26.5348507 C72.5801124,26.4505352 72.7382687,26.2839229 72.8124104,26.0761539 C72.8865522,25.8683848 72.8697687,25.6388247 72.7662042,25.4441564 C71.3117515,21.0170933 71.6066246,16.1981243 73.5898828,11.9831711 C74.832481,9.23787416 76.8176503,6.8980241 79.3194277,5.22995564 C85.9631654,0.76719818 93.4124789,-0.323496107 101.214798,0.0764251319 C112.420448,0.649039633 122.657597,4.17561783 132.333558,9.70180222 C138.536652,13.2255896 144.05587,17.8440973 148.626103,23.3354808 C152.5753,27.8376591 155.06898,33.4385302 155.776719,39.3959542 C156.496732,44.9861426 154.326073,50.5587775 150.02002,54.1748618 C149.176304,54.9674101 148.232992,55.6457567 147.214082,56.1926462 C146.661946,56.4744089 146.526175,56.7561716 146.743409,57.401499 C147.486723,59.6103291 147.60269,61.9833979 147.078311,64.2546948 C146.245581,67.9903228 143.792648,70.3534937 140.54319,72.0077134 C139.467658,72.57425 138.323747,72.9988933 137.139859,73.2711009 C136.786716,73.3051467 136.485937,73.5432186 136.370488,73.8800719 C135.042948,77.6308484 133.688253,81.3725357 132.306404,85.1051339 C132.07125,85.533057 132.2152,86.0711031 132.632255,86.3230759 C134.786491,88.3408603 136.877368,90.4404468 139.031604,92.4582313 C141.185841,94.4760157 143.285769,96.2847504 145.367594,98.2207327 C145.79301,98.620654 146.182221,98.4752281 146.607637,98.3570695 C148.27483,97.8511596 150.040179,97.7637729 151.74884,98.1025742 C155.487074,98.9478623 157.460282,101.510994 158.329218,105.101196 C158.46635,105.501044 158.521764,105.924557 158.492144,106.346405 C158.220601,107.773397 159.062383,108.536883 159.994678,109.39126 C164.8318,113.672571 169.918656,117.660671 175.228208,121.334363 C178.242328,123.515751 181.211192,125.769853 184.161953,128.051222 C188.868688,131.686869 204.980204,143.639061 208.66413,148.156353 C209.688416,149.437048 210.574387,150.823335 211.307143,152.291902 C212.29103,154.1742 212.458041,156.380703 211.768765,158.390701 C210.27785,163.359587 206.61241,167.374906 201.81221,169.297644 C199.904859,170.140473 197.723501,170.090538 195.856379,169.161307 C192.552613,167.552533 171.906339,152.555486 168.58447,149.165245 C163.995403,144.493438 159.288668,139.9307 154.663396,135.28616 C151.567812,132.186771 148.327406,129.296431 145.005537,126.424269 C144.656173,126.05789 144.135859,125.911596 143.647825,126.042526 C140.072517,126.733299 136.940727,125.878922 134.542103,123.024939 C133.063767,121.199772 132.375835,118.855645 132.632255,116.517129 C132.731009,115.817842 132.393464,115.129122 131.781422,114.781108 C130.604738,113.908552 129.500465,112.990551 128.25137,112.027105 Z" id="Path" fill="#000000"></path>
                <path d="M50.2916221,96.2915067 C58.1021873,95.888814 65.9224246,96.86748 73.3970553,99.1830431 C82.9676148,101.950714 92.061587,106.174115 100.363969,111.706953 C103.420203,113.796079 106.311334,116.119883 109.011511,118.657586 C111.227938,120.761147 113.293757,123.019808 115.193506,125.416667 C115.247671,124.193484 115.153307,122.96822 114.912506,121.76804 C114.568055,120.25386 114.667764,118.675829 113.598152,117.307595 C111.672689,114.771461 109.551029,112.392445 107.252996,110.192773 C104.960618,108.05815 102.509044,106.103452 99.9198084,104.345849 C92.8438864,99.6359863 85.0951959,96.0402322 76.9412783,93.6827388 C70.5745251,91.7131893 63.9144456,90.8796837 57.2622294,91.219916 C54.060173,91.318253 50.8975707,91.9596891 47.9076562,93.1172018 C45.4068409,94.0404106 43.2100972,95.6446537 41.5625,97.7509572 C44.4028087,96.9108558 47.3339513,96.4207885 50.2916221,96.2915067 L50.2916221,96.2915067 Z" id="Path" fill="#C4C3C6"></path>
                <path d="M97.6341413,5.1062007 C102.971799,5.09705036 108.28917,5.76392427 113.459597,7.09093789 C120.342898,8.9114876 126.888013,11.830884 132.843063,15.7367793 C137.792306,18.8325536 142.189554,22.7350073 145.852891,27.2826934 C146.763079,28.4337888 147.594859,29.644888 148.342594,30.9077841 C148.976337,31.9862486 148.704733,33.2550304 148.614198,34.4150594 C148.487473,36.6999472 147.925097,38.9394479 146.957414,41.0127246 C146.169393,42.5812011 145.04762,43.9577853 143.671007,45.0456381 C143.345082,45.3175199 143.200226,45.2450181 142.982943,44.8553208 C141.966293,42.946486 140.71637,41.1716676 139.26197,39.571751 C136.892732,36.9965556 134.258683,34.6787729 131.403563,32.6568904 C125.010616,28.0682664 117.946811,24.4975936 110.4629,22.0716254 C105.896838,20.5490846 101.189554,19.4894695 96.4119237,18.9087337 C92.5001193,18.3904309 88.526583,18.5931504 84.6876876,19.5068737 C81.8307845,20.107931 79.3964648,21.9654994 78.0605518,24.5638753 C77.7250956,25.2029003 77.5364178,25.908844 77.5082905,26.630177 C77.5082905,26.9383098 77.5082905,27.3642579 77.1642588,27.4186343 C76.8202272,27.4730106 76.8111737,27.0379998 76.738746,26.7933061 C75.0548017,21.4100464 75.5980095,16.4346093 79.4004645,12.0119986 C81.6463523,9.50301707 84.5463247,7.67024237 87.7749189,6.71936608 C90.9427173,5.61224566 94.2790595,5.06635354 97.6341413,5.1062007 Z" id="Path" fill="#FFFFFF"></path>
                <path d="M146.288162,33.8317944 C142.542396,29.1383811 138.036875,25.1102 132.959967,21.9156623 C126.872632,17.8826252 120.172205,14.8695542 113.120976,12.9943971 C107.819453,11.6197403 102.364759,10.9295379 96.8890751,10.9405156 C93.4434473,10.8911383 90.0158881,11.4484898 86.7621722,12.58724 C83.4567135,13.5629823 80.4872442,15.4427415 78.1863176,18.0160017 C77.6337481,18.6649918 77.130356,19.3545603 76.6803579,20.0789312 C76.3848673,22.5754858 76.6466955,25.1067305 77.4468643,27.489191 C77.5190061,27.7334853 77.5190061,28.1768342 77.8706973,28.1134986 C78.2223885,28.0501631 78.2043531,27.633958 78.2133708,27.3263282 C78.241387,26.6061723 78.42932,25.9013808 78.7634519,25.2633987 C80.094091,22.6692634 82.5188005,20.8147266 85.3644251,20.2146503 C89.1881654,19.3024181 93.146015,19.1000295 97.0423764,19.6174865 C101.809127,20.213733 106.503967,21.2898283 111.055918,22.8295038 C118.510284,25.2515127 125.546203,28.8163581 131.913911,33.3974934 C134.758208,35.4189176 137.381875,37.7359652 139.741295,40.3101167 C141.189954,41.9074223 142.434942,43.679344 143.447579,45.5850636 C143.664004,45.9741249 143.808288,46.0465084 144.132926,45.7750703 C145.504104,44.6889929 146.621449,43.3146553 147.406359,41.7487386 C148.054927,40.3872601 148.507332,38.9401981 148.75,37.4509689 C148.011722,36.1902214 147.189229,34.9810656 146.288162,33.8317944 Z" id="Path" fill="#C4C3C6"></path>
                <path d="M128.112601,43.2157941 C123.101187,39.5474661 117.667801,36.4686651 111.924021,34.0426165 C107.218599,32.0158379 102.320439,30.4497969 97.300911,29.3673123 C93.445408,28.4770925 89.4982517,28.024627 85.5372704,28.0188374 C85.2083011,28.0198014 84.8889293,27.9102128 84.632375,27.7083333 C84.2794658,27.7704341 83.9265565,27.8147919 83.5736473,27.8502781 L83.627941,27.9744797 C83.5429867,28.0063177 83.4551101,28.0300843 83.3655214,28.045452 C80.765512,28.1722201 78.2040961,28.7146149 75.7824976,29.6512017 C73.5836017,30.6182001 71.5656849,31.8158587 70.5974468,34.1668181 C69.7450798,36.3606469 69.8068332,38.7951001 70.7693769,40.9446785 C71.3475809,39.3196448 72.5668055,37.9900897 74.1536858,37.2541158 C77.0672998,35.6957481 80.3271984,34.8639994 83.6460389,34.832184 C88.2951486,34.8398068 92.9249989,35.4179955 97.4275964,36.5532637 C101.282802,37.519209 105.043631,38.8165205 108.666398,40.4301289 C111.087512,41.4452195 113.439117,42.6127866 115.706484,43.9255177 C118.586923,45.5612781 121.336646,47.4089031 123.931984,49.4524902 C127.269117,51.9536371 130.104139,55.0398984 132.293217,58.5546954 C132.382595,58.7609179 132.55286,58.9232025 132.765643,59.0049781 C132.978426,59.0867537 133.215823,59.0811397 133.424337,58.9894011 C134.858719,58.5121342 136.065608,57.5371553 136.817695,56.2480937 C138.356017,54.0124644 138.039303,52.7793196 136.356198,50.8630659 C133.898819,48.0289077 131.134747,45.4647835 128.112601,43.2157941 L128.112601,43.2157941 Z" id="Path" fill="#C4C3C6"></path>
                <path d="M69.0511676,82.2002427 C65.0360356,82.0190452 61.0379988,82.8299988 57.4084116,84.5618356 C55.0177518,85.707147 53.1153085,87.6739546 52.0460181,90.1056519 C51.8336319,90.6178246 51.3356142,90.9521055 50.7826745,90.953637 C50.2464352,91.0357 50.2827904,90.4703767 50.1555472,90.1785968 C48.8649372,87.2516807 48.3377866,84.2062289 49.4920646,81.1425409 C50.5909808,78.3149262 52.8439262,76.0945412 55.6815391,75.0425193 C60.5804036,72.9818245 65.6792219,72.6900447 70.9598161,73.0456513 C74.9162293,73.3512824 78.8371988,74.0134972 82.6752826,75.0242831 C85.8970948,75.9006052 89.0552747,76.9973476 92.1276372,78.3068059 C94.7633899,79.3736259 97.4173202,80.6957531 100.007629,82.1090616 C103.477434,83.9529121 106.785448,86.0880946 109.896246,88.4917448 C112.165237,90.2610953 114.292474,92.206174 116.258408,94.3091047 C118.287088,96.401662 120.023707,98.7604081 121.420848,101.320938 C121.760053,101.987359 121.856499,102.751738 121.693512,103.481932 C121.211805,106.417967 120.230215,109.11693 117.730794,110.986144 C117.500027,111.142978 117.260276,111.286075 117.012778,111.414696 C116.567427,111.670003 116.276585,111.624413 116.149342,111.040853 C115.240462,106.810046 112.850107,103.408987 110.005312,100.290591 C105.258359,95.1532689 99.5230692,91.034114 93.1455831,88.1817288 C88.8691895,86.1019585 84.3719079,84.5144209 79.7395993,83.449425 C76.2382001,82.6125271 72.6505633,82.1932315 69.0511676,82.2002427 Z" id="Path" fill="#C4C3C6"></path>
                <path d="M50.189116,83.6826506 C51.2772249,80.925757 53.5216402,78.7582903 56.3528014,77.7302843 C61.2619313,75.7105725 66.3983357,75.4258554 71.643832,75.7728544 C75.6006488,76.0754323 79.5221643,76.7215528 83.3621069,77.703592 C86.582343,78.5603787 89.738346,79.6335816 92.8076365,80.9155565 C95.5349309,81.9832456 98.1440426,83.2466776 100.744063,84.5723915 C104.209847,86.374915 107.515357,88.4582527 110.62596,90.8005775 C112.893231,92.5329612 115.020756,94.4337341 116.989647,96.4860216 C119.013363,98.529162 120.749871,100.827122 122.153324,103.319231 L122.262416,103.541667 C122.316962,103.265847 122.380599,102.98113 122.426054,102.651926 C122.58377,101.93917 122.487529,101.195054 122.153324,100.54324 C120.749871,98.051131 119.013363,95.7531705 116.989647,93.7100301 C115.020756,91.6577426 112.893231,89.7569697 110.62596,88.024586 C107.517718,85.6789844 104.211919,83.595464 100.744063,81.7964 C98.1440426,80.4617887 95.5258399,79.2072541 92.8076365,78.1306676 C89.7374119,76.8607918 86.5814268,75.7994864 83.3621069,74.9542928 C79.5295813,73.984102 75.6176592,73.3440128 71.6711049,73.0413499 C66.4256087,72.694351 61.2892042,72.9879655 56.3800743,74.9987798 C53.5489132,76.0267858 51.3044978,78.1942525 50.216389,80.9511462 C49.6333806,82.4874877 49.4490824,84.1414259 49.6800211,85.7646442 C49.7724901,85.0547057 49.943182,84.3566445 50.189116,83.6826506 Z" id="Path" fill="#FFFFFF"></path>
                <path d="M108.388603,80.2083333 C106.45494,78.7005135 104.530312,77.274443 102.515326,75.9755379 C101.10574,75.0672128 99.6419385,74.2678866 98.1781373,73.4503939 C97.7353825,73.2051461 97.5365947,73.0053146 97.8889913,72.4421529 C98.9660705,70.5415985 99.931542,68.5792868 100.780451,66.565289 C102.388825,63.0864035 104.186951,59.7074338 105.84954,56.255798 C106.969981,53.9395688 108.027171,51.5870066 109.039181,49.2253611 C109.734939,47.5903757 110.394553,45.9553904 110.963809,44.2749888 C111.162597,43.6936606 111.433671,43.6209946 111.939677,43.9298252 C114.561418,45.4726521 117.049057,47.2349923 119.376148,49.1981113 C119.963476,49.7158567 120.867057,50.1064365 121.020666,50.8149301 C121.174275,51.5234238 120.442374,52.2137509 120.216479,52.9585776 C119.578018,54.687996 118.747494,56.3394817 117.740667,57.8817001 C116.963587,59.2260214 116.457582,60.7338412 115.807003,62.1599118 C113.295048,67.718862 111.487886,73.5684762 108.930752,79.1092599 C108.768107,79.4635067 108.587391,79.799587 108.388603,80.2083333 Z" id="Path" fill="#FFFFFF"></path>
                <path d="M106.633305,43.4385218 C102.750203,41.8812532 98.7203403,40.6976804 94.6011571,39.9046732 C90.2974897,39.1183919 86.3018743,39.4276036 81.9800862,39.4717767 C79.2108631,39.6874909 76.6961898,41.1300486 75.1576409,43.385514 C73.3999325,46.4422931 71.6875259,49.5167413 69.9569986,52.582355 C68.2264713,55.6479686 66.4053405,58.8991093 64.59327,62.0884077 C63.4788467,64.0850321 62.3916044,66.0904912 61.25,68.1754619 C62.6090529,67.9545963 63.8322004,67.7160616 65.0734687,67.5747076 C66.3181174,67.5216469 67.5568735,67.3769359 68.7791528,67.1418112 C74.5626769,66.7379498 80.3757104,67.1275275 86.0481844,68.2991466 C88.6513704,68.9694229 91.2160679,69.7745154 93.7313632,70.7109982 C94.5105535,70.9760369 95.4800112,68.2638081 95.9149081,67.6277153 C97.2328036,65.7442353 97.9944324,63.5437804 98.1165738,61.2667879 C98.2785634,58.611755 99.6855765,56.1774248 101.930982,54.6673257 C103.249009,53.7835385 103.932006,52.2421716 103.68869,50.7005806 C103.522461,49.4948706 103.847759,48.2736769 104.594726,47.2992514 C105.328614,46.2832699 106.125925,45.2937923 106.968538,44.3396532 C107.349073,43.8360797 107.231288,43.6505527 106.633305,43.4385218 Z" id="Path" fill="#C4C3C6"></path>
                <path d="M155.828312,110.833333 C157.771338,112.427014 159.604898,113.946998 161.474947,115.439347 C162.32331,116.121037 163.208162,116.756667 164.102137,117.383085 C164.510293,117.673938 164.760095,118.140963 164.777179,118.645132 C164.950762,121.738602 163.555592,124.709113 161.07357,126.530627 C160.36204,127.074137 159.69612,127.663707 158.929856,128.151944 C158.400769,128.483577 158.017637,128.363821 157.57065,127.765039 C156.43511,125.921879 155.011928,124.276257 153.356199,122.891877 C150.218166,120.404629 149.789423,120.349357 150.510076,119.695303 C152.50172,117.783688 154.058023,115.457676 155.07117,112.878403 C155.381325,112.251985 155.563769,111.597932 155.828312,110.833333 Z" id="Path" fill="#C4C3C6"></path>
                <path d="M147.322755,101.640221 C149.111871,101.109848 151.049889,101.323192 152.668346,102.228682 C154.240115,103.159151 155.221507,104.786887 155.280922,106.561896 C155.518622,110.088248 154.408183,113.576531 152.158801,116.369583 C151.542411,117.266577 150.828071,118.097529 150.027976,118.848253 C149.087352,119.657446 147.72135,119.814204 146.609392,119.240561 C145.021683,118.371025 143.940961,116.843815 143.681825,115.1035 C143.558055,114.569043 143.758951,114.013185 144.200634,113.668011 C146.529967,111.62978 148.014119,108.849104 148.378903,105.839694 C148.51038,104.366609 148.139624,102.892401 147.322755,101.640221 Z" id="Path" fill="#FFFFFF"></path>
                <path d="M142.893553,104.938636 C142.507593,107.129897 141.738003,109.227335 140.623677,111.124945 C140.240913,111.731446 139.884854,111.684792 139.573303,111.124945 C137.793008,108.241733 135.291693,106.104984 133.244353,103.520357 C132.884864,103.068569 132.488754,102.650234 132.060457,102.270033 C130.280162,100.693131 130.128837,99.6947369 131.170309,97.5113339 C131.446255,96.951487 131.642088,96.7928637 132.202881,97.2314104 C135.280095,99.7963045 138.624645,101.987462 142.172534,103.762958 C142.417999,103.816533 142.632636,103.971241 142.76822,104.192321 C142.903804,104.413401 142.948964,104.682313 142.893553,104.938636 Z" id="Path" fill="#C4C3C6"></path>
                <path d="M143.596847,100.683973 C143.540956,101.125907 143.866987,101.737093 143.336022,102.009776 C142.805058,102.28246 142.451082,101.727691 142.059846,101.473813 C139.035118,99.5498195 136.166365,97.386644 133.480583,95.0046437 C132.549067,94.1959975 132.42797,91.4315558 133.29428,90.6229096 C133.815929,90.1339607 134.225796,90.6229096 134.505251,90.9708155 C135.761485,92.2503083 137.089532,93.4558626 138.482824,94.5815148 C139.814892,95.7850813 141.072439,97.0920792 142.488343,98.1734084 C143.354538,98.6823022 143.80103,99.6935278 143.596847,100.683973 L143.596847,100.683973 Z" id="Path" fill="#FFFFFF"></path>
                <polygon id="Path" fill="#8B613B" points="203.054688 166.574479 203.113021 166.654687 203.032812 166.596354"></polygon>
                <polygon id="Path" fill="#8B613B" points="84.2552083 141.801042 84.1822917 141.859375 84.240625 141.786458"></polygon>
                <path d="M58.482877,188.122819 L56.3027709,188.122819 C49.4308037,188.077711 42.5683146,187.600161 35.7552706,186.692948 C29.0559307,185.877221 22.447263,184.428776 16.0162264,182.366673 C12.4336055,181.205579 8.98115817,179.669584 5.71522489,177.783754 C4.92255199,177.324883 4.16087517,176.813532 3.43519723,176.253059 C0.977358309,174.445668 -0.313371627,171.433671 0.0651165029,168.38877 C0.274043341,166.555602 0.619226811,164.969912 0.973494058,163.384222 C1.08249936,162.852604 1.20058845,162.320985 1.30050998,161.789367 C1.58210702,160.359496 1.88187161,158.938791 2.20888753,157.50892 C2.62674121,155.501602 3.04459488,153.494283 3.41702968,151.477799 C4.24365325,147.105694 7.0505399,143.815159 11.5106737,141.963659 C16.761096,139.791356 22.18411,138.90227 27.280108,138.178168 C31.8219958,137.53656 36.6091455,137.087434 42.3410079,136.766629 C47.5369275,136.482488 52.8781875,136.354167 60.1997106,136.354167 C66.6219399,136.354167 72.081289,136.574147 76.941109,136.904117 C80.701792,137.16076 84.7259046,137.564057 89.2314573,138.123173 C92.7431116,138.532687 96.2259615,139.163305 99.6596316,140.011336 C102.597513,140.650263 105.415582,141.75797 108.007621,143.292706 C110.741726,144.960316 112.745291,147.614365 113.612311,150.717035 C115.056631,155.959894 116.54637,161.111095 117.690926,165.015742 C118.908152,169.177032 117.536502,173.155006 113.939327,175.932254 C111.366483,177.881466 108.558227,179.492321 105.582253,180.725988 C101.960646,182.231368 98.2201199,183.42713 94.4001256,184.300664 C90.6666938,185.217248 86.6970839,185.941349 82.2460339,186.564626 C74.3706848,187.642544 66.4302486,188.163213 58.482877,188.122819 L58.482877,188.122819 Z" id="Path" fill="#000000"></path>
                <path d="M60.6558252,140.729167 C65.4304025,140.729167 71.8085854,140.873891 78.1777083,141.344243 C82.46305,141.651782 86.7302718,142.13118 90.9884337,142.70103 C94.4325312,143.123738 97.8438923,143.77952 101.198962,144.663848 C103.548894,145.20063 105.79516,146.117236 107.848943,147.377422 C109.215436,148.291789 110.186067,149.687235 110.566918,151.284968 C111.998386,156.847794 113.493272,162.392529 115.015339,167.928219 C115.541348,169.506792 114.96663,171.242866 113.601991,172.197575 C111.389177,173.980674 108.952596,175.467623 106.354056,176.6207 C102.908097,178.171966 99.3303353,179.413074 95.6633518,180.32925 C91.6014973,181.358901 87.488787,182.177092 83.3418621,182.780512 C74.4797886,184.049521 65.5302745,184.609094 56.5788617,184.453882 C49.5001848,184.403303 42.4328041,183.880529 35.4239511,182.889055 C28.6811292,182.013426 22.0432437,180.464973 15.6099085,178.266935 C12.2724872,177.115414 9.07297703,175.598639 6.06981388,173.744312 C5.50055671,173.391383 4.95296295,173.004762 4.42996856,172.58652 C3.83297312,172.110915 3.54443186,171.347346 3.67799529,170.596567 C3.94073294,168.226712 4.48432807,165.902084 4.91920418,163.568411 C5.66211752,159.570413 6.47751023,155.581459 7.1841839,151.574416 C7.52319106,149.269385 9.09260966,147.331588 11.2792672,146.518124 C16.0719643,144.401536 21.1636388,143.515102 26.2824929,142.737211 C31.4013471,141.95932 36.6470401,141.498013 41.8111939,141.190474 C47.5189428,140.8558 53.2991711,140.729167 60.6558252,140.729167 Z M80.6963658,157.336237 C81.0678225,157.553323 81.4392791,157.281966 81.8288557,157.25483 C83.8220378,157.137242 85.8061601,156.883975 87.7812224,156.648798 C89.7562847,156.413622 91.7404069,156.142265 93.7154692,155.834726 C96.2887205,155.429484 98.8359205,154.873753 101.343921,154.170401 C103.342113,153.697073 105.234632,152.856634 106.924831,151.692004 C107.196937,151.554711 107.38163,151.289987 107.4163,150.987575 C107.450969,150.685162 107.330965,150.38562 107.096969,150.190493 C106.881644,149.964038 106.648347,149.755318 106.399356,149.566371 C105.248746,148.58044 103.762919,148.272901 102.394872,147.757322 C99.3680484,146.80473 96.2725797,146.085035 93.1356344,145.604554 C90.6350968,145.107065 88.0711398,144.917115 85.5253026,144.700029 C82.1731326,144.374401 78.8209626,144.048772 75.4597327,143.795505 C71.9444841,143.569374 68.4201757,143.406559 64.9049272,143.361333 C60.4655669,143.315963 56.0171467,143.261835 51.5687266,143.433695 C49.3037468,143.524147 47.0387671,143.578419 44.7737874,143.650781 C43.4600991,143.650781 42.1464109,143.78646 40.8327227,143.867867 C39.0207389,143.967364 37.2902944,144.18445 35.5145503,144.33822 C32.6878556,144.573396 29.852101,144.808572 27.052586,145.242744 C23.2526794,145.753673 19.4949937,146.539665 15.8092267,147.594508 C14.2077047,147.978774 12.6782901,148.617034 11.2792672,149.484964 C9.95651908,150.389489 10.0108786,151.384466 11.4242259,152.198538 C11.5691846,152.28899 11.7141433,152.361352 11.868162,152.442759 C13.6939125,153.371674 15.6256725,154.076308 17.6212105,154.541256 C21.3436987,155.457645 25.1200157,156.140389 28.9279892,156.585482 C31.3560475,156.902065 33.7931657,157.182468 36.2393438,157.390508 C39.2593168,157.643775 42.2611699,157.836741 45.2449032,157.969404 C48.6967323,158.114128 52.1395014,158.213626 55.5913305,158.258852 C58.6354633,158.304078 61.6705361,158.258852 64.7146689,158.177445 C67.2967458,158.114128 69.8788226,158.050811 72.4608995,157.951314 C75.1788752,157.797544 77.9240306,157.679956 80.6963658,157.336237 L80.6963658,157.336237 Z M69.0906097,169.574454 C69.9966016,169.574454 70.9025935,169.484001 71.7270461,169.42973 C74.082625,169.294051 76.4382039,169.176463 78.7937828,168.995558 C82.0644136,168.742291 85.3169244,168.416662 88.5694353,167.982491 C92.8928377,167.445754 97.1821068,166.663581 101.4164,165.639772 C104.328634,164.955569 107.161557,163.970351 109.869305,162.700067 C110.167717,162.616712 110.410313,162.399515 110.525703,162.112395 C110.641092,161.825274 110.616144,161.500903 110.458199,161.234738 C110.304181,160.818656 110.204522,160.701068 109.778705,160.94529 C107.778055,162.037714 105.647211,162.873476 103.436762,163.432732 C98.2204601,164.802966 92.9130148,165.800467 87.5547244,166.417663 C83.8461976,166.906106 80.1346508,167.273946 76.4200841,167.521183 C73.412191,167.729224 70.4042979,167.846812 67.3601652,167.982491 C64.7962081,168.091034 62.241311,168.109124 59.677354,168.13626 C53.2085719,168.190531 46.7488497,167.928219 40.2891275,167.530228 C38.341245,167.403595 36.3933624,167.304097 34.4545398,167.077966 C30.6765536,166.634749 26.9076273,166.173442 23.1568209,165.558365 C18.2052076,164.856204 13.344707,163.618784 8.66095068,161.867905 C8.39821303,161.768407 8.07205595,161.551321 7.91803733,161.940267 C7.76401871,162.329212 7.70965919,162.627705 8.22607457,162.844791 C9.40578307,163.397619 10.6156801,163.883814 11.8500421,164.301076 C17.1240855,165.996217 22.55331,167.165746 28.058237,167.792541 C31.9268224,168.317165 35.7954078,168.778472 39.682113,169.058875 C43.5688182,169.339277 47.6276618,169.556363 51.6049662,169.628725 C57.4848536,169.764404 63.3103814,169.800585 69.0906097,169.574454 Z M109.905544,159.326191 L109.905544,159.127196 C109.374029,157.137242 108.836474,155.147288 108.292879,153.157334 C108.292879,153.057836 108.292879,152.867886 108.048261,152.885976 C107.504382,153.116966 107.131861,153.627918 107.07885,154.215627 C107.562045,155.970405 108.036181,157.725183 108.501257,159.47996 C108.564676,159.706091 108.501257,160.104082 108.890833,159.995539 C109.28041,159.886996 109.760586,159.814634 109.905544,159.326191 Z M112.62352,169.149327 L112.451382,168.489024 C112.043685,167.023695 111.654109,165.56741 111.228292,164.111126 C111.173933,163.91213 111.228292,163.432732 110.838716,163.604592 C110.449139,163.776452 109.724346,163.776452 109.932724,164.4458 C110.38572,166.336256 110.920255,168.208622 111.418551,170.080988 C111.418551,170.234757 111.48197,170.478978 111.726588,170.334254 C112.1571,170.066257 112.465893,169.641137 112.58728,169.149327 L112.62352,169.149327 Z M10.5816535,154.070903 L10.5816535,154.070903 C10.5903825,153.998804 10.5903825,153.925917 10.5816535,153.853818 C10.5816535,153.383465 10.1195976,153.229696 9.80250046,153.157334 C9.4854033,153.084972 9.58506241,153.492008 9.54882273,153.709094 C9.38574419,154.613618 9.22266565,155.59955 9.04146727,156.549301 C8.86026889,157.499051 8.63377092,158.711114 8.39821303,159.796544 C8.28043408,160.357349 8.64283084,160.529209 9.04146727,160.646797 C9.4401037,160.764385 9.44916362,160.375439 9.54882273,160.095037 C9.66911256,159.605359 9.74491898,159.105847 9.7753207,158.602571 C10.0833579,157.101061 10.3189158,155.581459 10.5816535,154.070903 Z" id="Shape" fill="#000000"></path>
                <path d="M37.8823887,167.925147 L37.8823887,169.946949 C37.8823887,171.913105 36.9713722,173.888536 37.235567,175.863966 C37.4177703,177.282937 38.6749731,178.247467 40.5061162,178.887395 C45.2251816,180.538224 53.7522959,180.083782 57.5785651,179.926119 C66.1512302,179.56442 79.5705031,179.4995 86.8586349,176.782124 C89.181727,175.919612 89.7465572,170.475586 89.682786,166.979167 C72.7014388,169.288473 54.5631006,170.902204 37.8823887,167.925147 Z" id="Path" fill="#C4C3C6"></path>
                <path d="M25.6843047,154.543673 L25.6843047,155.997227 C25.6843047,157.422827 24.5309008,158.848428 24.8462846,160.274029 C25.0805698,161.298971 26.7025441,161.988477 29.0814397,162.454359 C35.1728541,163.647019 46.2022792,163.320901 51.1402897,163.199772 C62.2237805,162.938877 79.5698942,162.892289 88.9863559,160.935582 C91.9870083,160.3113 92.7168967,156.388568 92.5907432,153.854167 C70.6940906,155.512709 47.2475515,156.686733 25.6843047,154.543673 Z" id="Path" fill="#C4C3C6"></path>
                <path d="M80.5124403,158.028786 C77.7434934,158.38208 75.0016931,158.502944 72.2598927,158.623808 C69.6809716,158.726077 67.1020504,158.791158 64.5231293,158.856238 C61.482717,158.939913 58.4513535,158.9864 55.4109413,158.939913 C51.9633309,158.939913 48.5247694,158.791158 45.077159,158.642402 C42.060877,158.499845 39.0626926,158.301504 36.082606,158.04738 C33.6394176,157.833544 31.205278,157.54533 28.7801872,157.219927 C24.9867632,156.773535 21.2241706,156.084199 17.5143738,155.155944 C15.5166725,154.691335 13.5811747,153.979551 11.7502588,153.036177 C11.5964285,152.952502 11.4516469,152.878124 11.3068654,152.785152 C9.8952454,151.948401 9.84095232,150.925707 11.1620838,149.995984 C12.5626769,149.089035 14.0965806,148.420331 15.7046046,148.015676 C19.3806346,146.941746 23.1276392,146.143188 26.9161249,145.626289 C29.7122183,145.18932 32.5445072,144.947592 35.3677472,144.696567 C37.1775164,144.538514 38.905846,144.315381 40.6794198,144.213111 C41.9915025,144.129436 43.3035852,144.027167 44.6156679,143.989978 C46.8778794,143.9156 49.1400909,143.859817 51.4023024,143.766845 C55.8452859,143.590198 60.2882693,143.645833 64.7222039,143.692467 C68.2331562,143.692467 71.7531573,143.906303 75.2641096,144.138734 C78.6212315,144.35257 81.9693045,144.68727 85.3173776,145.068456 C87.8601034,145.328778 90.4209268,145.52402 92.9184083,145.998178 C96.0515197,146.492044 99.1432052,147.231788 102.166329,148.210918 C103.532705,148.712968 105.016716,149.029073 106.165919,150.070362 C106.414606,150.264573 106.647618,150.479107 106.86268,150.711871 C107.09639,150.912433 107.216248,151.22032 107.18162,151.531157 C107.146993,151.841993 106.962525,152.114092 106.690752,152.25521 C105.002619,153.452284 103.112413,154.316135 101.116663,154.802649 C98.6117277,155.525594 96.0676407,156.096807 93.4975345,156.513338 C91.524886,156.829444 89.5492213,157.10836 87.5705403,157.350088 C85.5978918,157.591816 83.6161945,157.852138 81.6254484,157.973002 C81.2544457,157.945111 80.8562965,158.251919 80.5124403,158.028786 Z" id="Path" fill="#C4C3C6"></path>
                <path d="M75.0502512,148.985064 C73.1549178,149.210225 71.2776352,149.275896 69.4093779,149.341568 C67.5411207,149.40724 65.8804476,149.426004 64.1114698,149.454149 C62.0356284,149.454149 59.959787,149.510439 57.8839457,149.454149 C55.528317,149.397859 53.1726883,149.322805 50.8170596,149.200843 C48.7592691,149.094517 46.7074954,148.947537 44.6617387,148.759903 C42.9920402,148.600414 41.3313671,148.394017 39.6706941,148.159474 C37.0756861,147.8362 34.5017873,147.350598 31.9630048,146.70531 C30.6007834,146.387823 29.2797883,145.902813 28.0279316,145.260528 C27.9286522,145.204238 27.8203475,145.15733 27.7210681,145.091658 C26.764376,144.528756 26.7282744,143.872037 27.6398395,143.215317 C28.6181009,142.621238 29.6814917,142.193659 30.7897032,141.948788 C33.3088288,141.248667 35.8724133,140.734519 38.4612908,140.410189 C40.3837004,140.138119 42.3151354,139.988012 44.2555958,139.837905 C45.4649991,139.744088 46.6744023,139.612744 47.8657547,139.547072 C48.7682945,139.500164 49.6708342,139.434492 50.5733739,139.415728 C52.1257422,139.415728 53.6781106,139.359438 55.2214535,139.31253 C58.2630124,139.218713 61.2955458,139.31253 64.3371047,139.31253 C66.7378604,139.31253 69.138616,139.490782 71.5574225,139.659653 C73.9762289,139.828523 76.1423243,140.063066 78.4257498,140.30699 C80.1676514,140.494624 81.9185785,140.63535 83.6243786,140.991854 C85.7632475,141.337073 87.8748487,141.84505 89.9421566,142.51169 C90.908776,142.757304 91.8256168,143.179817 92.6497758,143.759456 C92.8214075,143.888034 92.9815076,144.032474 93.1281219,144.191014 C93.2786705,144.326851 93.353869,144.531966 93.3284726,144.737501 C93.3030762,144.943036 93.1804523,145.121739 93.0017663,145.21362 C91.8325047,146.003653 90.5363902,146.569257 89.1749979,146.883563 C87.453657,147.350625 85.7091873,147.720183 83.9492929,147.990603 C82.6045087,148.197001 81.2416737,148.365871 79.8968895,148.515979 C78.5521053,148.666086 77.1892704,148.834957 75.8264354,148.900628 C75.5466481,148.928774 75.3029623,149.144553 75.0502512,148.985064 Z" id="Path" fill="#000000"></path>
                <path d="M106.125642,149.266016 C104.972005,148.250903 103.473185,147.934262 102.101537,147.403422 C101.997504,147.360592 101.891386,147.323291 101.783606,147.291667 C99.3601233,148.137493 96.8913487,148.840223 94.3894262,149.396398 C92.4273344,149.834107 90.4561587,150.225252 88.4849831,150.588458 C86.5138074,150.951664 84.533548,151.324182 82.5442049,151.519755 C82.1536033,151.56632 81.7993367,151.873648 81.4087351,151.668762 C78.6836074,152.180976 75.8948935,152.469678 73.1515984,152.749067 C70.5718109,153.00983 67.9829397,153.214715 65.3940685,153.438226 C62.3419256,153.69899 59.2988664,153.931814 56.2376397,154.062195 C52.7767276,154.211203 49.3067318,154.322959 45.8458198,154.369523 C42.8209281,154.416088 39.7869527,154.369523 36.7620611,154.304333 C34.3003625,154.239142 31.8386638,154.090134 29.3769652,153.903875 C25.5222067,153.692393 21.6842809,153.232041 17.8860105,152.525555 C15.8536884,152.185237 13.8703954,151.587749 11.9815673,150.746778 C11.8271434,150.672275 11.6727195,150.607084 11.5182956,150.523267 C10.7643437,150.132122 10.373742,149.675787 10.3464908,149.182199 C9.12018335,150.113496 9.19285342,151.044793 10.5735847,151.920212 L11.0277727,152.16235 C12.8732716,153.132897 14.8291125,153.864902 16.850462,154.341584 C20.5925127,155.286758 24.3875567,155.995874 28.2142441,156.464941 C30.6577752,156.790895 33.1103901,157.08891 35.5630049,157.303109 C38.5788128,157.563872 41.6037044,157.759444 44.6467636,157.899139 C48.1167594,158.057459 51.5776715,158.159902 55.0476673,158.206467 C58.0998102,158.262345 61.1610369,158.206467 64.2222636,158.131963 C66.8202186,158.066772 69.4090898,158.010894 72.0070448,157.899139 C74.7321724,157.787383 77.5208863,157.666315 80.3096003,157.312422 C80.6820344,157.535933 81.0544685,157.256544 81.4450701,157.237918 C83.4525808,157.107536 85.4419239,156.846773 87.4403508,156.604636 C89.4387777,156.362499 91.4190371,156.092423 93.3992965,155.775782 C95.9884677,155.35542 98.5514373,154.780137 101.075073,154.052882 C103.086307,153.572139 104.990922,152.706391 106.688836,151.501129 C106.961657,151.359772 107.146837,151.087213 107.181598,150.77585 C107.216358,150.464486 107.096039,150.156078 106.861427,149.955176 C106.635517,149.704639 106.389382,149.474101 106.125642,149.266016 L106.125642,149.266016 Z" id="Path" fill="#FFFFFF"></path>
                <path d="M68.5111035,169.002599 C62.7289547,169.225044 56.9105542,169.189452 51.0921537,169.082679 C47.1135279,169.011496 43.134902,168.797949 39.165339,168.522118 C35.1957761,168.246286 31.4074717,167.792499 27.537601,167.276426 C22.0308449,166.659849 16.5998165,165.509386 11.3240208,163.841878 C10.0892487,163.431417 8.87894965,162.953148 7.69884918,162.409333 C7.18226222,162.169092 7.25476566,161.822078 7.39070959,161.519553 C7.52665353,161.217028 7.87104484,161.350495 8.13386978,161.448371 C12.8191823,163.170708 17.6812978,164.387957 22.6345563,165.078671 C26.386609,165.674823 30.1567875,166.137509 33.9360289,166.573501 C35.8754958,166.795945 37.8240255,166.893821 39.7725553,167.01839 C46.2344237,167.409893 52.6962922,167.667929 59.1672236,167.614543 C61.7320325,167.614543 64.2877785,167.570054 66.8525874,167.46328 C69.8614799,167.329813 72.8703724,167.214142 75.9155165,167.009493 C79.6373594,166.760354 83.3501394,166.398511 87.0538564,165.923962 C92.4139271,165.316827 97.7231359,164.335586 102.941171,162.987689 C105.152354,162.43755 107.283907,161.615412 109.285222,160.540796 C109.711179,160.300555 109.810871,160.416226 109.964941,160.825525 C110.122938,161.087352 110.147895,161.406435 110.032467,161.688875 C109.917039,161.971315 109.674362,162.184971 109.375851,162.266968 C106.667203,163.516544 103.833339,164.485702 100.920138,165.158751 C96.6844375,166.16587 92.3937433,166.935293 88.0689045,167.46328 C84.8153129,167.890374 81.5617214,168.210695 78.290004,168.459833 C75.9336424,168.637789 73.5772808,168.75346 71.2209193,168.886927 C70.2783746,168.913621 69.4173964,169.029292 68.5111035,169.002599 Z" id="Path" fill="#FFFFFF"></path>
                <path d="M109.375,158.983971 C109.227321,159.483634 108.719673,159.557658 108.304325,159.668694 C107.888977,159.77973 107.972046,159.372598 107.907437,159.141272 C107.427479,157.34619 106.944444,155.551107 106.458333,153.756025 C106.51234,153.154817 106.891852,152.632129 107.445939,152.395833 C107.667458,152.395833 107.667458,152.57164 107.695148,152.673423 C108.248945,154.709084 108.796589,156.744745 109.33808,158.780405 L109.375,158.983971 Z" id="Path" fill="#FFFFFF"></path>
                <path d="M112.291667,168.11345 C112.1499,168.541422 111.800765,168.906748 111.321302,169.128813 C111.059303,169.252827 111.039896,169.043554 110.991378,168.911789 C110.457677,167.307359 109.885162,165.70293 109.399979,164.082998 C109.225314,163.509434 110.011309,163.501683 110.370344,163.362168 C110.729379,163.222652 110.729379,163.625697 110.787601,163.796216 C111.243673,165.044106 111.660929,166.291996 112.097594,167.547636 L112.291667,168.11345 Z" id="Path" fill="#FFFFFF"></path>
                <path d="M10.201878,154.026583 C9.94280975,155.489221 9.71054169,156.960617 9.40680653,158.405738 C9.3768294,158.893049 9.3020817,159.376715 9.18347185,159.85086 C9.0852046,160.122367 9.18347185,160.534008 8.68320218,160.385117 C8.18293251,160.236225 7.93279767,160.104851 8.0489317,159.561835 C8.28119976,158.510838 8.47773428,157.459841 8.68320218,156.417602 C8.88867008,155.375363 9.02267089,154.587115 9.18347185,153.667492 C9.18347185,153.457293 9.18347185,153.063169 9.43360669,153.133235 C9.68374152,153.203302 10.1661444,153.352193 10.201878,153.807625 C10.2104851,153.877438 10.2104851,153.948012 10.201878,154.017825 L10.201878,154.026583 Z" id="Path" fill="#FFFFFF"></path>
                <path d="M7.28574673,164.375822 C7.02698126,165.973912 6.79498462,167.581572 6.49160441,169.160523 C6.45661466,169.692376 6.38201896,170.220376 6.26853073,170.739474 C6.17037831,171.026556 6.26853073,171.476318 5.76884568,171.323208 C5.26916062,171.170097 5.01039515,171.007418 5.13531641,170.366268 C5.3583901,169.227509 5.56361789,168.07918 5.76884568,166.930852 C5.94730462,165.973912 6.10791768,164.930847 6.26853073,163.935629 C6.26853073,163.696394 6.26853073,163.265771 6.51837326,163.342326 C6.76821578,163.418882 7.25005494,163.591131 7.28574673,164.08874 C7.29363998,164.161861 7.29363998,164.235715 7.28574673,164.308836 L7.28574673,164.375822 Z" id="Path" fill="#FFFFFF"></path>
                <path d="M205.91487,153.052329 C205.88794,153.018727 205.863989,152.982848 205.84329,152.945097 C204.873888,150.753037 203.3955,148.823186 201.530579,147.31539 C201.358607,147.182565 201.155185,147.096376 200.940042,147.065181 C200.856447,147.007244 200.766361,146.95926 200.671616,146.922204 L196.519961,143.633741 C194.730454,142.177166 192.878315,140.711655 191.017228,139.29976 C188.440339,137.351703 185.818712,135.457262 183.21498,133.536012 C180.611248,131.614763 177.971726,129.622026 175.314308,127.700777 C173.60533,126.467603 171.851613,125.288045 170.106844,124.12636 L167.673116,122.5 C166.903628,124.948476 162.394071,130.140316 160.416667,131.891781 C161.657313,132.764833 162.851914,133.70139 163.99568,134.697698 C165.785186,136.234697 166.554674,136.43129 168.174177,138.129138 C169.068931,139.022743 170.760014,141.524834 171.663715,142.436311 C172.22741,142.999282 172.826894,143.526508 173.453222,144.035862 L174.956407,145.438821 C177.19329,147.556663 179.832812,149.334936 182.266541,151.282993 C184.476582,153.070201 186.820835,154.660817 189.218774,156.23356 C190.113527,156.841211 191.079861,157.43099 192.019352,158.020769 C193.248146,158.926288 194.476941,159.819892 195.705735,160.701582 C197.021023,161.639866 198.891057,163.561115 200.698458,163.838133 C201.149444,164.176936 201.782507,164.127122 202.174801,163.721964 L202.335857,163.543243 C202.500342,163.447665 202.65343,163.333746 202.792181,163.203674 C202.849388,163.159977 202.900537,163.108894 202.944289,163.051761 C203.141135,162.926656 206.344352,159.816913 206.460669,159.673937 C206.783103,159.233171 206.983687,158.715406 207.042259,158.172682 C207.218662,156.389742 206.823916,154.596891 205.91487,153.052329 L205.91487,153.052329 Z" id="Path" fill="#C4C3C6"></path>
            </g>
        </g>
    </g>
</svg>