<svg xmlns="http://www.w3.org/2000/svg" xmlns:xlink="http://www.w3.org/1999/xlink" viewBox="0 0 689.71 534.45"><defs><style>.cls-1,.cls-2,.cls-3,.cls-5{fill:none;}.cls-2,.cls-3,.cls-4,.cls-5,.cls-6{stroke:#4038ff;}.cls-2,.cls-3{stroke-linecap:square;}.cls-2,.cls-3,.cls-5,.cls-6{stroke-miterlimit:10;}.cls-2{stroke-width:2px;}.cls-3,.cls-4,.cls-5,.cls-6{stroke-width:12px;}.cls-4{stroke-linejoin:bevel;fill:url(#lines);}.cls-6{fill:#fff;}.cls-7{fill:url(#lines-9);}</style><pattern id="lines" data-name="lines" width="16" height="16" patternTransform="translate(0 480)" patternUnits="userSpaceOnUse" viewBox="0 0 16 16"><rect class="cls-1" width="16" height="16"/><line class="cls-2" x1="1.98" y1="78.02" x2="67.98" y2="12.02"/><line class="cls-2" x1="-14.02" y1="78.02" x2="51.98" y2="12.02"/><line class="cls-2" x1="-30.02" y1="78.02" x2="35.98" y2="12.02"/><line class="cls-2" x1="-46.02" y1="78.02" x2="19.98" y2="12.02"/><line class="cls-2" x1="-62.02" y1="78.02" x2="3.98" y2="12.02"/><line class="cls-2" x1="1.98" y1="62.02" x2="67.98" y2="-3.98"/><line class="cls-2" x1="-14.02" y1="62.02" x2="51.98" y2="-3.98"/><line class="cls-2" x1="-30.02" y1="62.02" x2="35.98" y2="-3.98"/><line class="cls-2" x1="-46.02" y1="62.02" x2="19.98" y2="-3.98"/><line class="cls-2" x1="-62.02" y1="62.02" x2="3.98" y2="-3.98"/><line class="cls-2" x1="1.98" y1="46.02" x2="67.98" y2="-19.98"/><line class="cls-2" x1="-14.02" y1="46.02" x2="51.98" y2="-19.98"/><line class="cls-2" x1="-30.02" y1="46.02" x2="35.98" y2="-19.98"/><line class="cls-2" x1="-46.02" y1="46.02" x2="19.98" y2="-19.98"/><line class="cls-2" x1="-62.02" y1="46.02" x2="3.98" y2="-19.98"/><line class="cls-2" x1="1.98" y1="30.02" x2="67.98" y2="-35.98"/><line class="cls-2" x1="-14.02" y1="30.02" x2="51.98" y2="-35.98"/><line class="cls-2" x1="-30.02" y1="30.02" x2="35.98" y2="-35.98"/><line class="cls-2" x1="-46.02" y1="30.02" x2="19.98" y2="-35.98"/><line class="cls-2" x1="-62.02" y1="30.02" x2="3.98" y2="-35.98"/><line class="cls-2" x1="1.98" y1="14.02" x2="67.98" y2="-51.98"/><line class="cls-2" x1="-14.02" y1="14.02" x2="51.98" y2="-51.98"/><line class="cls-2" x1="-30.02" y1="14.02" x2="35.98" y2="-51.98"/><line class="cls-2" x1="-46.02" y1="14.02" x2="19.98" y2="-51.98"/><line class="cls-2" x1="-62.02" y1="14.02" x2="3.98" y2="-51.98"/></pattern><pattern id="lines-9" data-name="lines" width="16" height="16" patternTransform="translate(0 336)" patternUnits="userSpaceOnUse" viewBox="0 0 16 16"><rect class="cls-1" width="16" height="16"/><line class="cls-2" x1="1.98" y1="78.02" x2="67.98" y2="12.02"/><line class="cls-2" x1="-14.02" y1="78.02" x2="51.98" y2="12.02"/><line class="cls-2" x1="-30.02" y1="78.02" x2="35.98" y2="12.02"/><line class="cls-2" x1="-46.02" y1="78.02" x2="19.98" y2="12.02"/><line class="cls-2" x1="-62.02" y1="78.02" x2="3.98" y2="12.02"/><line class="cls-2" x1="1.98" y1="62.02" x2="67.98" y2="-3.98"/><line class="cls-2" x1="-14.02" y1="62.02" x2="51.98" y2="-3.98"/><line class="cls-2" x1="-30.02" y1="62.02" x2="35.98" y2="-3.98"/><line class="cls-2" x1="-46.02" y1="62.02" x2="19.98" y2="-3.98"/><line class="cls-2" x1="-62.02" y1="62.02" x2="3.98" y2="-3.98"/><line class="cls-2" x1="1.98" y1="46.02" x2="67.98" y2="-19.98"/><line class="cls-2" x1="-14.02" y1="46.02" x2="51.98" y2="-19.98"/><line class="cls-2" x1="-30.02" y1="46.02" x2="35.98" y2="-19.98"/><line class="cls-2" x1="-46.02" y1="46.02" x2="19.98" y2="-19.98"/><line class="cls-2" x1="-62.02" y1="46.02" x2="3.98" y2="-19.98"/><line class="cls-2" x1="1.98" y1="30.02" x2="67.98" y2="-35.98"/><line class="cls-2" x1="-14.02" y1="30.02" x2="51.98" y2="-35.98"/><line class="cls-2" x1="-30.02" y1="30.02" x2="35.98" y2="-35.98"/><line class="cls-2" x1="-46.02" y1="30.02" x2="19.98" y2="-35.98"/><line class="cls-2" x1="-62.02" y1="30.02" x2="3.98" y2="-35.98"/><line class="cls-2" x1="1.98" y1="14.02" x2="67.98" y2="-51.98"/><line class="cls-2" x1="-14.02" y1="14.02" x2="51.98" y2="-51.98"/><line class="cls-2" x1="-30.02" y1="14.02" x2="35.98" y2="-51.98"/><line class="cls-2" x1="-46.02" y1="14.02" x2="19.98" y2="-51.98"/><line class="cls-2" x1="-62.02" y1="14.02" x2="3.98" y2="-51.98"/></pattern></defs><title>Builder</title><g id="Layer_2" data-name="Layer 2"><g id="Builder"><polyline class="cls-3" points="6 379.76 6 528.45 208.76 528.45 208.76 379.76"/><line class="cls-4" x1="6" y1="379.76" x2="208.76" y2="379.76"/><polygon class="cls-3" points="208.76 231.07 171.6 201.26 40.38 201.18 6 231.07 6 379.76 208.76 379.76 208.76 231.07"/><polygon class="cls-4" points="6 231.07 208.76 231.07 171.6 201.26 40.38 201.18 6 231.07"/><polygon class="cls-3" points="411.52 379.76 374.36 349.95 208.76 349.87 208.76 379.76 208.76 528.45 411.52 528.45 411.52 379.76"/><polygon class="cls-4" points="208.76 379.76 411.52 379.76 374.36 349.95 208.76 349.87 208.76 379.76"/><circle class="cls-5" cx="105.74" cy="308.72" r="14.74"/><line class="cls-5" x1="460.85" y1="131.21" x2="479.67" y2="98.28"/><line class="cls-5" x1="441.95" y1="99.65" x2="474.26" y2="75.98"/><path class="cls-5" d="M393.48,117.56"/><line class="cls-6" x1="408.98" y1="85.32" x2="445.24" y2="61.16"/><polyline class="cls-3" points="450.34 181.47 462.28 127.12 432.72 89.76 304.83 60.35 264.65 81.81 231.42 226.74 429.05 272.05 433.98 250.57"/><polygon class="cls-4" points="264.65 81.81 462.28 127.12 432.72 89.76 304.83 60.35 264.65 81.81"/><path class="cls-5" d="M685.89,155.15,552.39,44.82c-16.14-11.14-16.14-11.14-41.77-17L431.83,6.24l-87,26.33a20.2,20.2,0,0,0,14.82,37.58l65-18,48.8,27.24,12,50.52c3.17,26.78-5.27,46.22-31.27,54.77l-49.27,15.18c-27.69,9.51-26.35,31.58-18.26,46.26a43.67,43.67,0,0,0,4.11,5.81s28.73-7.06,35-8.43l72.32.44s46.39,25.48,94.36-8.84"/><line class="cls-6" x1="575.2" y1="245.15" x2="602.38" y2="264.79"/><path class="cls-3" d="M510.31,134.81c2.61,21.13-13.44,35.1-31.69,41.81l-32.76,10.43"/><path class="cls-7" d="M593.1,232.76c-9.79,10.19-12.38,7-21.39,7.58L599.47,265l50.31-59.08"/><circle class="cls-5" cx="345.57" cy="179.24" r="14.74"/><circle class="cls-5" cx="105.74" cy="453.9" r="14.74"/><circle class="cls-5" cx="310.14" cy="453.9" r="14.74"/><line class="cls-5" x1="105.74" y1="323.46" x2="105.74" y2="439.16"/><line class="cls-5" x1="120.48" y1="453.9" x2="295.4" y2="453.9"/></g></g></svg>