<svg xmlns="http://www.w3.org/2000/svg" xmlns:xlink="http://www.w3.org/1999/xlink" viewBox="0 0 673.14 513.15"><defs><style>.cls-1,.cls-2,.cls-4,.cls-5{fill:none;}.cls-2,.cls-3,.cls-4,.cls-5{stroke:#4038ff;stroke-miterlimit:10;}.cls-2,.cls-3,.cls-4{stroke-linecap:square;}.cls-2{stroke-width:2px;}.cls-3,.cls-4,.cls-5{stroke-width:12px;}.cls-3{fill:url(#lines);}</style><pattern id="lines" data-name="lines" width="16" height="16" patternTransform="translate(240 672)" patternUnits="userSpaceOnUse" viewBox="0 0 16 16"><rect class="cls-1" width="16" height="16"/><line class="cls-2" x1="1.98" y1="78.02" x2="67.98" y2="12.02"/><line class="cls-2" x1="-14.02" y1="78.02" x2="51.98" y2="12.02"/><line class="cls-2" x1="-30.02" y1="78.02" x2="35.98" y2="12.02"/><line class="cls-2" x1="-46.02" y1="78.02" x2="19.98" y2="12.02"/><line class="cls-2" x1="-62.02" y1="78.02" x2="3.98" y2="12.02"/><line class="cls-2" x1="1.98" y1="62.02" x2="67.98" y2="-3.98"/><line class="cls-2" x1="-14.02" y1="62.02" x2="51.98" y2="-3.98"/><line class="cls-2" x1="-30.02" y1="62.02" x2="35.98" y2="-3.98"/><line class="cls-2" x1="-46.02" y1="62.02" x2="19.98" y2="-3.98"/><line class="cls-2" x1="-62.02" y1="62.02" x2="3.98" y2="-3.98"/><line class="cls-2" x1="1.98" y1="46.02" x2="67.98" y2="-19.98"/><line class="cls-2" x1="-14.02" y1="46.02" x2="51.98" y2="-19.98"/><line class="cls-2" x1="-30.02" y1="46.02" x2="35.98" y2="-19.98"/><line class="cls-2" x1="-46.02" y1="46.02" x2="19.98" y2="-19.98"/><line class="cls-2" x1="-62.02" y1="46.02" x2="3.98" y2="-19.98"/><line class="cls-2" x1="1.98" y1="30.02" x2="67.98" y2="-35.98"/><line class="cls-2" x1="-14.02" y1="30.02" x2="51.98" y2="-35.98"/><line class="cls-2" x1="-30.02" y1="30.02" x2="35.98" y2="-35.98"/><line class="cls-2" x1="-46.02" y1="30.02" x2="19.98" y2="-35.98"/><line class="cls-2" x1="-62.02" y1="30.02" x2="3.98" y2="-35.98"/><line class="cls-2" x1="1.98" y1="14.02" x2="67.98" y2="-51.98"/><line class="cls-2" x1="-14.02" y1="14.02" x2="51.98" y2="-51.98"/><line class="cls-2" x1="-30.02" y1="14.02" x2="35.98" y2="-51.98"/><line class="cls-2" x1="-46.02" y1="14.02" x2="19.98" y2="-51.98"/><line class="cls-2" x1="-62.02" y1="14.02" x2="3.98" y2="-51.98"/></pattern></defs><title>Governance</title><g id="Layer_2" data-name="Layer 2"><g id="Governance"><path class="cls-3" d="M285.81,470.82l0-83.9a34.72,34.72,0,1,0-69.43,0l-.25,83.9"/><path class="cls-3" d="M389.09,470.82l0-83.9a34.72,34.72,0,1,0-69.43,0l-.25,83.9"/><path class="cls-3" d="M182.57,470.82l0-83.9a34.72,34.72,0,1,0-69.43,0l-.25,83.9"/><path class="cls-4" d="M426.72,279.6H67a22.2,22.2,0,0,0-22.14,22.13h0A22.2,22.2,0,0,0,67,323.87H426.72a22.2,22.2,0,0,0,22.13-22.14h0A22.2,22.2,0,0,0,426.72,279.6Z"/><polygon class="cls-3" points="333.95 38.76 395.04 38.58 377.71 73.32 395.04 105.75 300.99 105.75 291.25 82.58 345.46 82.15 333.95 38.76"/><polyline class="cls-5" points="253.37 15.27 325.56 15.27 345.04 82.43 253.37 82.43"/><line class="cls-4" x1="253.01" y1="6" x2="253.01" y2="144.97"/><polygon class="cls-4" points="389.71 323.87 108.41 323.87 70.96 323.87 70.96 477.05 113.72 477.05 384.4 477.05 427.16 477.05 427.16 323.87 389.71 323.87"/><path class="cls-4" d="M251,147.67h-.7c-86.74,0-150.95,56-170.58,131.93H421.55C401.91,203.71,337.7,147.67,251,147.67Z"/><path class="cls-4" d="M380,275.08c-14.56-51.89-62.17-90.22-126.48-90.22"/><polygon class="cls-4" points="379.9 477.05 115.94 477.05 46.1 477.05 46.1 507.15 53.95 507.15 441.88 507.15 449.74 507.15 449.74 477.05 379.9 477.05"/><line class="cls-4" x1="6" y1="507.09" x2="481.98" y2="507.09"/><path class="cls-3" d="M527.31,481.69V422.88a24.33,24.33,0,1,0-48.66,0l-.18,58.81"/><path class="cls-3" d="M602,481.69l0-58.81a24.33,24.33,0,1,0-48.66,0l-.17,58.81"/><path class="cls-3" d="M451.5,481.69V422.88a24.33,24.33,0,0,0-24.33-24.33V477"/><path class="cls-4" d="M427.16,378.69H628.41a15.56,15.56,0,0,0,15.51-15.51h0a15.56,15.56,0,0,0-15.51-15.52H427.16"/><polyline class="cls-4" points="448.85 486.05 598.75 486.05 628.72 486.05 628.72 378.69 602.47 378.69 427.16 378.69"/><path class="cls-4" d="M427.16,347.66H624.79C611,294.48,566,255.2,505.23,255.2h-.49c-30.13,0-54,6.52-74.53,22.73"/><path class="cls-4" d="M595.66,344.5c-10.2-36.37-43.57-63.24-88.65-63.24"/><polygon class="cls-4" points="610.68 486.05 482.71 486.05 448.85 486.05 448.85 507.15 452.66 507.15 640.74 507.15 644.54 507.15 644.54 486.05 610.68 486.05"/><line class="cls-4" x1="333.54" y1="507.11" x2="667.14" y2="507.11"/></g></g></svg>