<?xml version="1.0" encoding="UTF-8"?>
<svg width="882px" height="300px" viewBox="0 0 882 300" version="1.1" xmlns="http://www.w3.org/2000/svg" xmlns:xlink="http://www.w3.org/1999/xlink">
    <!-- Generator: Sketch 61 (89581) - https://sketch.com -->
    <title>github_repo_7</title>
    <desc>Created with Sketch.</desc>
    <g id="Github-Covers" stroke="none" stroke-width="1" fill="none" fill-rule="evenodd">
        <g id="helpdesk">
            <g id="github_repo_7" transform="translate(-1.000000, 0.000000)">
                <rect id="Rectangle" fill="#FFFFFF" fill-rule="nonzero" x="0" y="0" width="882" height="300"></rect>
                <rect id="Rectangle" fill="#000000" fill-rule="nonzero" x="0" y="0" width="882" height="210"></rect>
                <rect id="Rectangle" fill="#1F242C" fill-rule="nonzero" x="620" y="105" width="52.5" height="52.5"></rect>
                <polygon id="Path" fill="#1F242C" fill-rule="nonzero" points="625.837 157.5 620 157.5 620 163.337 625.837 163.337"></polygon>
                <polygon id="Path" fill="#1F242C" fill-rule="nonzero" points="631.673 163.337 625.837 163.337 625.837 169.174 631.673 169.174"></polygon>
                <polygon id="Path" fill="#1F242C" fill-rule="nonzero" points="637.494 157.5 631.658 157.5 631.658 163.337 637.494 163.337"></polygon>
                <polygon id="Path" fill="#1F242C" fill-rule="nonzero" points="625.837 169.158 620 169.158 620 174.995 625.837 174.995"></polygon>
                <polygon id="Path" fill="#1F242C" fill-rule="nonzero" points="637.494 169.158 631.658 169.158 631.658 174.995 637.494 174.995"></polygon>
                <polygon id="Path" fill="#1F242C" fill-rule="nonzero" points="643.332 163.337 637.495 163.337 637.495 169.174 643.332 169.174"></polygon>
                <polygon id="Path" fill="#1F242C" fill-rule="nonzero" points="631.673 174.995 625.837 174.995 625.837 180.832 631.673 180.832"></polygon>
                <polygon id="Path" fill="#1F242C" fill-rule="nonzero" points="625.837 180.832 620 180.832 620 186.669 625.837 186.669"></polygon>
                <polygon id="Path" fill="#1F242C" fill-rule="nonzero" points="637.494 180.832 631.658 180.832 631.658 186.669 637.494 186.669"></polygon>
                <polygon id="Path" fill="#1F242C" fill-rule="nonzero" points="643.332 174.995 637.495 174.995 637.495 180.832 643.332 180.832"></polygon>
                <polygon id="Path" fill="#1F242C" fill-rule="nonzero" points="631.673 186.668 625.837 186.668 625.837 192.505 631.673 192.505"></polygon>
                <polygon id="Path" fill="#1F242C" fill-rule="nonzero" points="625.837 192.489 620 192.489 620 198.326 625.837 198.326"></polygon>
                <polygon id="Path" fill="#1F242C" fill-rule="nonzero" points="637.494 192.489 631.658 192.489 631.658 198.326 637.494 198.326"></polygon>
                <polygon id="Path" fill="#1F242C" fill-rule="nonzero" points="643.332 186.668 637.495 186.668 637.495 192.505 643.332 192.505"></polygon>
                <polygon id="Path" fill="#1F242C" fill-rule="nonzero" points="631.673 198.326 625.837 198.326 625.837 204.163 631.673 204.163"></polygon>
                <polygon id="Path" fill="#1F242C" fill-rule="nonzero" points="625.837 204.164 620 204.164 620 210.001 625.837 210.001"></polygon>
                <polygon id="Path" fill="#1F242C" fill-rule="nonzero" points="637.494 204.164 631.658 204.164 631.658 210.001 637.494 210.001"></polygon>
                <polygon id="Path" fill="#1F242C" fill-rule="nonzero" points="643.332 198.326 637.495 198.326 637.495 204.163 643.332 204.163"></polygon>
                <polygon id="Path" fill="#1F242C" fill-rule="nonzero" points="649.168 157.5 643.331 157.5 643.331 163.337 649.168 163.337"></polygon>
                <polygon id="Path" fill="#1F242C" fill-rule="nonzero" points="655.006 163.337 649.169 163.337 649.169 169.174 655.006 169.174"></polygon>
                <polygon id="Path" fill="#1F242C" fill-rule="nonzero" points="660.826 157.5 654.99 157.5 654.99 163.337 660.826 163.337"></polygon>
                <polygon id="Path" fill="#1F242C" fill-rule="nonzero" points="649.168 169.158 643.331 169.158 643.331 174.995 649.168 174.995"></polygon>
                <polygon id="Path" fill="#1F242C" fill-rule="nonzero" points="660.826 169.158 654.99 169.158 654.99 174.995 660.826 174.995"></polygon>
                <polygon id="Path" fill="#1F242C" fill-rule="nonzero" points="666.663 163.337 660.826 163.337 660.826 169.174 666.663 169.174"></polygon>
                <polygon id="Path" fill="#1F242C" fill-rule="nonzero" points="655.006 174.995 649.169 174.995 649.169 180.832 655.006 180.832"></polygon>
                <polygon id="Path" fill="#1F242C" fill-rule="nonzero" points="649.168 180.832 643.331 180.832 643.331 186.669 649.168 186.669"></polygon>
                <polygon id="Path" fill="#1F242C" fill-rule="nonzero" points="660.826 180.832 654.99 180.832 654.99 186.669 660.826 186.669"></polygon>
                <polygon id="Path" fill="#1F242C" fill-rule="nonzero" points="666.663 174.995 660.826 174.995 660.826 180.832 666.663 180.832"></polygon>
                <polygon id="Path" fill="#1F242C" fill-rule="nonzero" points="655.006 186.668 649.169 186.668 649.169 192.505 655.006 192.505"></polygon>
                <polygon id="Path" fill="#1F242C" fill-rule="nonzero" points="649.168 192.489 643.331 192.489 643.331 198.326 649.168 198.326"></polygon>
                <polygon id="Path" fill="#1F242C" fill-rule="nonzero" points="660.826 192.489 654.99 192.489 654.99 198.326 660.826 198.326"></polygon>
                <polygon id="Path" fill="#1F242C" fill-rule="nonzero" points="666.663 186.668 660.826 186.668 660.826 192.505 666.663 192.505"></polygon>
                <polygon id="Path" fill="#1F242C" fill-rule="nonzero" points="655.006 198.326 649.169 198.326 649.169 204.163 655.006 204.163"></polygon>
                <polygon id="Path" fill="#1F242C" fill-rule="nonzero" points="649.168 204.164 643.331 204.164 643.331 210.001 649.168 210.001"></polygon>
                <polygon id="Path" fill="#1F242C" fill-rule="nonzero" points="660.826 204.164 654.99 204.164 654.99 210.001 660.826 210.001"></polygon>
                <polygon id="Path" fill="#1F242C" fill-rule="nonzero" points="672.5 157.5 666.663 157.5 666.663 163.337 672.5 163.337"></polygon>
                <polygon id="Path" fill="#1F242C" fill-rule="nonzero" points="672.5 169.158 666.663 169.158 666.663 174.995 672.5 174.995"></polygon>
                <polygon id="Path" fill="#1F242C" fill-rule="nonzero" points="672.5 180.832 666.663 180.832 666.663 186.669 672.5 186.669"></polygon>
                <polygon id="Path" fill="#1F242C" fill-rule="nonzero" points="672.5 192.489 666.663 192.489 666.663 198.326 672.5 198.326"></polygon>
                <polygon id="Path" fill="#1F242C" fill-rule="nonzero" points="672.5 204.164 666.663 204.164 666.663 210.001 672.5 210.001"></polygon>
                <polygon id="Path" fill="#1F242C" fill-rule="nonzero" points="666.663 198.326 660.826 198.326 660.826 204.163 666.663 204.163"></polygon>
                <rect id="Rectangle" fill="#1F242C" fill-rule="nonzero" x="631.667" y="52.4995" width="5.83333" height="52.5"></rect>
                <rect id="Rectangle" fill="#1F242C" fill-rule="nonzero" x="643.333" y="52.4995" width="5.83333" height="52.5"></rect>
                <rect id="Rectangle" fill="#1F242C" fill-rule="nonzero" x="655" y="52.4995" width="5.83333" height="52.5"></rect>
                <rect id="Rectangle" fill="#1F242C" fill-rule="nonzero" x="666.667" y="52.4995" width="5.83333" height="52.5"></rect>
                <rect id="Rectangle" fill="#1F242C" fill-rule="nonzero" x="620" y="52.4995" width="5.83668" height="52.5"></rect>
                <rect id="Rectangle" fill="#1F242C" fill-rule="nonzero" transform="translate(552.916335, 131.250000) rotate(-180.000000) translate(-552.916335, -131.250000) " x="549.99967" y="105" width="5.83333" height="52.5"></rect>
                <rect id="Rectangle" fill="#1F242C" fill-rule="nonzero" transform="translate(541.250335, 131.250000) rotate(-180.000000) translate(-541.250335, -131.250000) " x="538.33367" y="105" width="5.83333" height="52.5"></rect>
                <rect id="Rectangle" fill="#1F242C" fill-rule="nonzero" transform="translate(529.583335, 131.250000) rotate(-180.000000) translate(-529.583335, -131.250000) " x="526.66667" y="105" width="5.83333" height="52.5"></rect>
                <rect id="Rectangle" fill="#1F242C" fill-rule="nonzero" transform="translate(517.916335, 131.250000) rotate(-180.000000) translate(-517.916335, -131.250000) " x="514.99967" y="105" width="5.83333" height="52.5"></rect>
                <rect id="Rectangle" fill="#1F242C" fill-rule="nonzero" transform="translate(564.581660, 131.250000) rotate(-180.000000) translate(-564.581660, -131.250000) " x="561.66332" y="105" width="5.83668" height="52.5"></rect>
                <rect id="Rectangle" fill="#1F242C" fill-rule="nonzero" transform="translate(867.588335, 27.234900) rotate(-180.000000) translate(-867.588335, -27.234900) " x="864.67167" y="0.9849" width="5.83333" height="52.5"></rect>
                <rect id="Rectangle" fill="#1F242C" fill-rule="nonzero" transform="translate(855.921335, 27.234400) rotate(-180.000000) translate(-855.921335, -27.234400) " x="853.00467" y="0.9844" width="5.83333" height="52.5"></rect>
                <rect id="Rectangle" fill="#1F242C" fill-rule="nonzero" transform="translate(844.255335, 27.234400) rotate(-180.000000) translate(-844.255335, -27.234400) " x="841.33867" y="0.9844" width="5.83333" height="52.5"></rect>
                <rect id="Rectangle" fill="#1F242C" fill-rule="nonzero" transform="translate(832.588335, 27.234400) rotate(-180.000000) translate(-832.588335, -27.234400) " x="829.67167" y="0.9844" width="5.83333" height="52.5"></rect>
                <rect id="Rectangle" fill="#1F242C" fill-rule="nonzero" transform="translate(879.253660, 27.234900) rotate(-180.000000) translate(-879.253660, -27.234900) " x="876.33532" y="0.9849" width="5.83668" height="52.5"></rect>
                <path d="M567.5,163.333 L567.5,157.5 C596.495,157.5 620,181.005 620,210 L614.167,210 C614.167,184.227 593.273,163.333 567.5,163.333 Z M567.5,175 L567.5,169.166 C590.052,169.166 608.333,187.448 608.333,210 L602.5,210 C602.5,190.67 586.83,175 567.5,175 Z M567.5,180.834 L567.5,186.667 C580.387,186.667 590.833,197.114 590.833,210 L596.667,210 C596.667,193.892 583.608,180.834 567.5,180.834 Z M567.5,198.333 L567.5,192.5 C577.165,192.5 585,200.335 585,210 L579.167,210 C579.167,203.557 573.943,198.333 567.5,198.333 Z M567.5,210 L567.5,204.166 C570.722,204.166 573.333,206.778 573.333,210 L567.5,210 Z" id="Shape" fill="#1F242C"></path>
                <path d="M777,110.833 L777,105 C805.995,105 829.5,128.505 829.5,157.5 L823.667,157.5 C823.667,131.727 802.773,110.833 777,110.833 Z M777,122.5 L777,116.667 C799.552,116.667 817.833,134.949 817.833,157.5 L812,157.5 C812,138.17 796.33,122.5 777,122.5 Z M777,128.333 L777,134.167 C789.887,134.167 800.333,144.613 800.333,157.5 L806.167,157.5 C806.167,141.392 793.108,128.333 777,128.333 Z M777,145.833 L777,140 C786.665,140 794.5,147.835 794.5,157.5 L788.667,157.5 C788.667,151.056 783.443,145.833 777,145.833 Z M777,157.5 L777,151.667 C780.222,151.667 782.833,154.279 782.833,157.5 L777,157.5 Z" id="Shape" fill="#1F242C"></path>
                <path d="M729.112,52.5 L725,52.5 L725,48.3875 L773.387,0 L777.5,0 L777.5,4.1125 L729.112,52.5 Z M765.133,0 L756.879,0 L725,31.8791 L725,40.1333 L765.133,0 Z M748.625,0 L740.371,0 L725,15.3708 L725,23.625 L748.625,0 Z M725,0 L725,7.11666 L732.117,0 L725,0 Z M777.5,20.6208 L777.5,12.3667 L737.367,52.5 L745.621,52.5 L777.5,20.6208 Z M777.5,37.1291 L777.5,28.875 L753.875,52.5 L762.129,52.5 L777.5,37.1291 Z M777.5,45.3833 L770.383,52.5 L777.5,52.5 L777.5,45.3833 Z" id="Shape" fill="#1F242C" fill-rule="nonzero"></path>
                <path d="M672.5,105 L725,105 L725,52.5 C696.005,52.5 672.5,76.0051 672.5,105 Z" id="Path" fill="#1F242C" fill-rule="nonzero"></path>
                <path d="M777.5,157.5 L777.5,105 L725,105 C725,133.995 748.505,157.5 777.5,157.5 Z" id="Path" fill="#1F242C" fill-rule="nonzero"></path>
                <path d="M64.4062,101 L64.4062,68.3516 L68.9766,68.3516 L68.9766,82.1797 L84.375,82.1797 L84.375,68.3516 L88.9453,68.3516 L88.9453,101 L84.375,101 L84.375,86.2578 L68.9766,86.2578 L68.9766,101 L64.4062,101 Z M96.0703,88.7656 C96.0703,86.9062 96.2969,85.1875 96.75,83.6094 C97.2188,82.0156 97.9062,80.6641 98.8125,79.5547 C99.7344,78.4297 100.844,77.5469 102.141,76.9062 C103.438,76.2656 104.93,75.9453 106.617,75.9453 C108.383,75.9453 109.922,76.25 111.234,76.8594 C112.547,77.4688 113.633,78.3047 114.492,79.3672 C115.352,80.4141 116,81.6484 116.438,83.0703 C116.875,84.4922 117.094,86.0234 117.094,87.6641 L117.094,89.9609 L100.617,89.9609 L100.617,92.5625 C100.617,93.4531 100.781,94.2422 101.109,94.9297 C101.453,95.6172 101.914,96.2031 102.492,96.6875 C103.07,97.1562 103.719,97.5156 104.438,97.7656 C105.156,98 105.898,98.1172 106.664,98.1172 C108.195,98.1172 109.523,97.7266 110.648,96.9453 C111.773,96.1641 112.414,94.9219 112.57,93.2188 L116.906,93.2188 C116.812,94.5312 116.469,95.7031 115.875,96.7344 C115.281,97.75 114.508,98.6172 113.555,99.3359 C112.617,100.055 111.555,100.609 110.367,101 C109.18,101.391 107.93,101.586 106.617,101.586 C104.852,101.586 103.305,101.266 101.977,100.625 C100.664,99.9844 99.5625,99.1016 98.6719,97.9766 C97.7969,96.8516 97.1406,95.5078 96.7031,93.9453 C96.2812,92.3828 96.0703,90.6562 96.0703,88.7656 Z M100.617,86.5156 L112.617,86.5156 L112.617,85.1562 C112.617,84.2656 112.453,83.4609 112.125,82.7422 C111.812,82.0234 111.375,81.4141 110.812,80.9141 C110.266,80.4141 109.625,80.0391 108.891,79.7891 C108.172,79.5234 107.414,79.3906 106.617,79.3906 C105.82,79.3906 105.062,79.5234 104.344,79.7891 C103.625,80.0391 102.984,80.4141 102.422,80.9141 C101.859,81.4141 101.414,82.0234 101.086,82.7422 C100.773,83.4609 100.617,84.2656 100.617,85.1562 L100.617,86.5156 Z M123.75,101 L123.75,68.3516 L128.062,68.3516 L128.062,101 L123.75,101 Z M136.125,109.156 L136.125,76.5312 L140.438,76.5312 L140.438,80.5156 C141.203,79.0469 142.234,77.9219 143.531,77.1406 C144.828,76.3438 146.406,75.9453 148.266,75.9453 C149.891,75.9453 151.312,76.2812 152.531,76.9531 C153.75,77.625 154.758,78.5391 155.555,79.6953 C156.367,80.8359 156.969,82.1953 157.359,83.7734 C157.766,85.3359 157.969,87 157.969,88.7656 C157.969,90.5625 157.766,92.2344 157.359,93.7812 C156.969,95.3281 156.367,96.6797 155.555,97.8359 C154.758,98.9922 153.75,99.9062 152.531,100.578 C151.328,101.25 149.906,101.586 148.266,101.586 C146.406,101.586 144.828,101.195 143.531,100.414 C142.234,99.6172 141.203,98.4844 140.438,97.0156 L140.438,109.156 L136.125,109.156 Z M140.438,90.8281 C140.438,92.9375 141.016,94.6797 142.172,96.0547 C143.328,97.4297 144.992,98.1172 147.164,98.1172 C148.992,98.1172 150.484,97.6094 151.641,96.5938 C152.812,95.5625 153.398,94.2188 153.398,92.5625 L153.398,84.9688 C153.398,83.3125 152.812,81.9688 151.641,80.9375 C150.484,79.9062 148.992,79.3906 147.164,79.3906 C144.992,79.3906 143.328,80.0859 142.172,81.4766 C141.016,82.8516 140.438,84.5938 140.438,86.7031 L140.438,90.8281 Z M163.43,88.7656 C163.43,87 163.625,85.3359 164.016,83.7734 C164.422,82.1953 165.023,80.8359 165.82,79.6953 C166.617,78.5391 167.625,77.625 168.844,76.9531 C170.062,76.2812 171.484,75.9453 173.109,75.9453 C174.938,75.9453 176.508,76.3359 177.82,77.1172 C179.133,77.8984 180.172,79.0312 180.938,80.5156 L180.938,68.3516 L185.273,68.3516 L185.273,101 L180.938,101 L180.938,97.0156 C180.172,98.4844 179.148,99.6172 177.867,100.414 C176.586,101.195 175.039,101.586 173.227,101.586 C171.57,101.586 170.125,101.25 168.891,100.578 C167.672,99.9062 166.656,98.9922 165.844,97.8359 C165.031,96.6797 164.422,95.3281 164.016,93.7812 C163.625,92.2188 163.43,90.5469 163.43,88.7656 Z M167.977,92.5625 C167.977,93.3906 168.133,94.1484 168.445,94.8359 C168.773,95.5234 169.219,96.1094 169.781,96.5938 C170.344,97.0625 171,97.4375 171.75,97.7188 C172.5,97.9844 173.328,98.1172 174.234,98.1172 C176.406,98.1172 178.062,97.4297 179.203,96.0547 C180.359,94.6797 180.938,92.9375 180.938,90.8281 L180.938,86.7031 C180.938,84.5938 180.359,82.8516 179.203,81.4766 C178.062,80.0859 176.406,79.3906 174.234,79.3906 C173.344,79.3906 172.516,79.5312 171.75,79.8125 C171,80.0781 170.344,80.4531 169.781,80.9375 C169.219,81.4219 168.773,82.0078 168.445,82.6953 C168.133,83.3828 167.977,84.1406 167.977,84.9688 L167.977,92.5625 Z M191.93,88.7656 C191.93,86.9062 192.156,85.1875 192.609,83.6094 C193.078,82.0156 193.766,80.6641 194.672,79.5547 C195.594,78.4297 196.703,77.5469 198,76.9062 C199.297,76.2656 200.789,75.9453 202.477,75.9453 C204.242,75.9453 205.781,76.25 207.094,76.8594 C208.406,77.4688 209.492,78.3047 210.352,79.3672 C211.211,80.4141 211.859,81.6484 212.297,83.0703 C212.734,84.4922 212.953,86.0234 212.953,87.6641 L212.953,89.9609 L196.477,89.9609 L196.477,92.5625 C196.477,93.4531 196.641,94.2422 196.969,94.9297 C197.312,95.6172 197.773,96.2031 198.352,96.6875 C198.93,97.1562 199.578,97.5156 200.297,97.7656 C201.016,98 201.758,98.1172 202.523,98.1172 C204.055,98.1172 205.383,97.7266 206.508,96.9453 C207.633,96.1641 208.273,94.9219 208.43,93.2188 L212.766,93.2188 C212.672,94.5312 212.328,95.7031 211.734,96.7344 C211.141,97.75 210.367,98.6172 209.414,99.3359 C208.477,100.055 207.414,100.609 206.227,101 C205.039,101.391 203.789,101.586 202.477,101.586 C200.711,101.586 199.164,101.266 197.836,100.625 C196.523,99.9844 195.422,99.1016 194.531,97.9766 C193.656,96.8516 193,95.5078 192.562,93.9453 C192.141,92.3828 191.93,90.6562 191.93,88.7656 Z M196.477,86.5156 L208.477,86.5156 L208.477,85.1562 C208.477,84.2656 208.312,83.4609 207.984,82.7422 C207.672,82.0234 207.234,81.4141 206.672,80.9141 C206.125,80.4141 205.484,80.0391 204.75,79.7891 C204.031,79.5234 203.273,79.3906 202.477,79.3906 C201.68,79.3906 200.922,79.5234 200.203,79.7891 C199.484,80.0391 198.844,80.4141 198.281,80.9141 C197.719,81.4141 197.273,82.0234 196.945,82.7422 C196.633,83.4609 196.477,84.2656 196.477,85.1562 L196.477,86.5156 Z M217.922,93.2656 L222.258,93.2656 C222.32,94.8906 222.898,96.1094 223.992,96.9219 C225.102,97.7188 226.406,98.1172 227.906,98.1172 C229.344,98.1172 230.594,97.7969 231.656,97.1562 C232.719,96.5156 233.25,95.5859 233.25,94.3672 C233.25,93.3828 232.93,92.5938 232.289,92 C231.648,91.4062 230.508,90.9531 228.867,90.6406 L224.836,89.8203 C222.82,89.3984 221.266,88.625 220.172,87.5 C219.094,86.3594 218.555,84.8281 218.555,82.9062 C218.555,81.9531 218.766,81.0547 219.188,80.2109 C219.625,79.3516 220.242,78.6094 221.039,77.9844 C221.852,77.3594 222.797,76.8672 223.875,76.5078 C224.969,76.1328 226.188,75.9453 227.531,75.9453 C228.688,75.9453 229.812,76.1016 230.906,76.4141 C232.016,76.7109 233,77.1797 233.859,77.8203 C234.734,78.4609 235.43,79.2812 235.945,80.2812 C236.477,81.2656 236.758,82.4453 236.789,83.8203 L232.477,83.8203 C232.414,82.1953 231.906,81.0547 230.953,80.3984 C230.016,79.7266 228.891,79.3906 227.578,79.3906 C226.234,79.3906 225.094,79.7109 224.156,80.3516 C223.234,80.9922 222.773,81.8281 222.773,82.8594 C222.773,83.8125 223.047,84.5547 223.594,85.0859 C224.141,85.6172 225.023,86.0078 226.242,86.2578 L230.367,87.125 C232.805,87.6406 234.609,88.4766 235.781,89.6328 C236.969,90.7734 237.562,92.3359 237.562,94.3203 C237.562,95.3516 237.328,96.3125 236.859,97.2031 C236.406,98.0781 235.742,98.8359 234.867,99.4766 C234.008,100.102 232.984,100.609 231.797,101 C230.609,101.391 229.297,101.586 227.859,101.586 C226.484,101.586 225.195,101.406 223.992,101.047 C222.805,100.703 221.758,100.188 220.852,99.5 C219.961,98.7969 219.258,97.9297 218.742,96.8984 C218.227,95.8516 217.953,94.6406 217.922,93.2656 Z M243.938,101 L243.938,68.3516 L248.25,68.3516 L248.25,101 L243.938,101 Z M248.297,87.3125 L257.906,76.5312 L263.133,76.5312 L253.289,87.3125 L263.812,101 L258.867,101 L248.297,87.3125 Z" id="Shape" fill="#FFFFFF" fill-rule="nonzero"></path>
                <path d="M610.4,97.2002 C610.4,97.2002 603.1,97.9002 602.1,101.9 L602.4,105.3 C602.4,105.3 588.1,98.3002 577.1,118.3 L568.5,208.5 C568.5,208.5 567.3,222.9 575.6,230.5 C577.4,232.2 579.8,233.2 582.2,233.5 L586.4,234 L586.4,242.4 C586.4,242.4 581.7,246.1 581.1,249 C580.4,252 581.1,258.3 581.1,258.3 C581.1,258.3 588.4,275.6 633.3,272.6 C678.2,269.6 676.2,253.3 676.2,253.3 L673.9,244.7 C673.9,244.7 672.2,244.2 670.2,241.9 L669.9,233.9 L682.5,221.6 C682.5,221.6 689.8,216.6 688.8,203 C687.8,189.4 677.3,110.5 677.3,110.5 C677.3,110.5 669.1,98.4002 653.6,103.2 L653.3,100.2 C653.3,100.2 651.4,96.9002 646.9,96.9002 C642.4,95.6002 610.4,97.2002 610.4,97.2002 Z M608.4,218.4 C608.4,218.4 601.1,219.1 598.1,220.7 C598.1,220.7 582.1,223.3 583.8,209.2 L591.1,128.3 C591.1,128.3 591.4,121.7 598.4,120.7 L598.4,123.7 C598.4,123.7 595,124.3 594.9,127.2 C594.8,130.2 605.3,132.9 605.3,132.9 L605.3,144.4 C605.3,144.4 600.6,146 600.6,148.7 L600.6,153.7 C600.6,153.7 592.3,160 595,179 C597.7,197.9 599.1,199.3 599.1,199.3 C599.1,199.3 596.3,205.3 601.3,206.9 C606.3,208.6 609.6,209.3 609.6,209.3 L608.4,218.4 Z M667.4,218.8 C664.6,217.2 655,216 655,216 L654.7,207.5 C659.4,206.1 664.5,201.7 664.5,201.7 C665.4,198.4 661.3,195.8 661.3,195.8 C661.3,195.8 665.1,193.7 665.7,175.9 C666.3,159.8 661.9,151.9 660.4,149.2 C660.3,148.8 660.1,148 659.7,146.7 C658,141.3 654,141.7 654,141.7 L653.7,132.1 C659.4,130.3 665.9,127.7 664.9,124.6 C664.6,123.5 660.1,120.7 660.1,120.7 L660.2,114.5 C666.5,114.8 668,123 668,123 C668,123 678.4,192.2 678.8,202.1 C679.1,212.1 667.4,218.8 667.4,218.8 Z" id="Shape" fill="#000000" fill-rule="nonzero"></path>
                <path d="M629.9,241.4 C643.3,241.2 654,241.2 664.4,232.3 C665.2,239.1 666.2,237.5 666.5,243.2 C666.6,244.3 666.9,245.6 666.2,246.4 C665.8,246.9 665.1,247.2 664.5,247.4 C644.3,255.3 625.5,257.5 604.6,251.8 C601.5,250.9 598.3,249.9 595.9,247.7 C595.2,247.1 594.6,246.4 594.4,245.6 C594.2,244.9 594.3,244.2 594.4,243.5 C594.7,241.3 593.4,234.7 595.5,233.9 C596.9,233.4 606.5,238.2 608.4,238.8 C616.6,241.8 621.3,241.4 629.9,241.4 Z" id="Path" fill="#C4C3C6" fill-rule="nonzero"></path>
                <path d="M595.9,256.4 C618.8,262.6 651.3,261.8 671.4,248.7 C672.9,251.2 673,253 672.5,255.9 C672.4,256.7 668.3,259.3 667.7,259.9 C667.2,260.4 663.3,262.8 662.6,263.1 C642.9,269.8 623.1,270.8 602.8,266.3 C596.3,264.9 592,264.5 587.1,260.1 C586.6,259.7 586.1,259.2 586,258.5 C585.9,258 586,257.5 586,257 C586.4,254.9 586.6,254.7 587.2,252.6 C590.8,254.6 591.6,255.7 595.9,256.4 Z" id="Path" fill="#C4C3C6" fill-rule="nonzero"></path>
                <path d="M630.1,109.9 C637.6,109.8 645.4,109.2 652.1,105.7 C652.8,109.2 653.1,112.7 652.8,116.3 C652.8,116.8 652.7,117.3 652.4,117.7 C652.1,118.1 651.6,118.2 651.1,118.3 C636.7,121.1 621.9,121.4 607.4,119.3 C606.8,119.2 606.1,119.1 605.6,118.7 C604.6,118 604.5,116.6 604.5,115.5 C604.4,108.1 605.9,109 612.8,109.5 C618.6,109.9 624.4,110 630.1,109.9 Z" id="Path" fill="#C4C3C6" fill-rule="nonzero"></path>
                <path d="M607.4,262.3 C607.1,263.4 606.2,264.4 606.3,265.6 C606.4,267.4 608.6,268.2 610.4,268.5 C625.6,270.9 641.4,270 656.2,266 C657,265.8 657.9,265.5 658.4,264.8 C658.8,264.2 658.8,263.5 658.8,262.9 C658.8,260.3 658.9,259.7 658.9,257.1 C658.3,255.8 656.5,256.1 655.1,256.4 C645.9,259.1 636.2,260.4 626.6,260.3 C621.8,260.2 617.1,259.6 612.4,259.1 C607.3,258.5 608.6,258 607.4,262.3 Z" id="Path" fill="#FFFFFF" fill-rule="nonzero"></path>
                <path d="M607.1,161.101 C605.1,160.401 602.6,159.701 601.2,161.301 C600.5,162.101 600.4,163.301 600.4,164.301 C600.2,168.101 600,171.901 599.8,175.701 C599.4,183.701 600.2,189.001 603.2,196.401 C604.6,199.801 616.9,202.401 624,202.801 C631.1,203.201 638.3,202.901 645.4,201.701 C649.4,201.101 653.6,200.001 656.3,197.001 C658,195.101 659,192.501 659.7,190.001 C662.3,180.701 664,173.301 661.5,163.901 C661.2,162.801 660,161.401 659.1,160.601 C657.9,159.501 655.4,160.201 653.7,160.301 C646.4,160.901 639.8,163.901 632.6,164.201 C624.9,164.801 615,164.001 607.1,161.101 Z" id="Path" fill="#C4C3C6" fill-rule="nonzero"></path>
                <path d="M625.8,168.4 C620.4,168.5 614.3,168.3 610.8,172.4 C609.1,174.3 608.4,173.9 607.8,176.3 C606.9,180.1 606,183.9 606.2,187.8 C606.4,191.7 607.7,195.6 610.5,198.4 C614.1,202 619.6,202.9 624.6,203 C629.6,203.2 634.5,202.8 639.4,201.9 C645.9,200.7 652.7,198.2 656.2,192.6 C658.1,189.5 658.7,185.9 659,182.3 C659.4,177.8 659.3,176.3 658.7,171.9 C658.4,169.7 658.3,166.9 657.4,164.9 C656.3,162.3 656.5,162.6 653.7,163.3 C644.2,165.6 635.6,168.3 625.8,168.4 Z" id="Path" fill="#FFFFFF" fill-rule="nonzero"></path>
                <path d="M636.8,110 C636.5,110.1 636.1,110.1 635.8,110.4 C635.4,110.7 635.3,111.2 635.2,111.6 C634.6,113.8 635.2,116.6 635,118.9 C635,119.3 635,119.7 635.2,120 C635.5,120.3 635.9,120.3 636.2,120.3 C638.6,120.2 642.3,119.7 644.7,119.5 C645.4,119.5 646.1,119.4 646.6,118.9 C646.9,118.6 647.1,118.1 647.2,117.6 C647.7,115.9 648.1,110.7 646.5,109.2 C645.2,108 638.5,109.7 636.8,110 Z" id="Path" fill="#FFFFFF" fill-rule="nonzero"></path>
                <path d="M629.4,224.4 C635.2,223.5 638.5,222.6 644.2,221.4 C649.9,220.2 657.3,218.9 661.7,222.8 C662.6,223.6 664.6,224.9 664.2,226 C664,226.7 663.3,227.9 662.7,228.4 C644.2,241 618.6,241.3 599.1,230.3 C597.8,229.6 596.4,228.2 597.1,226.9 C597.3,226.5 597.8,226.2 598.2,226 C602.5,223.5 608.2,221.9 613.2,222.6 C618.8,223.4 623.4,225.3 629.4,224.4 Z" id="Path" fill="#C4C3C6" fill-rule="nonzero"></path>
                <path d="M654,152.6 C654.6,152.4 655.3,152.2 656,152.4 C657.3,152.9 656.8,154.5 657.1,155.6 C640.8,161 630.7,162.3 612.6,159.1 C611.6,158.9 608.7,157.5 607.7,157.1 C607.2,156.9 607.3,154.7 608.7,154.5 C611,154.3 615.1,155.6 615.8,155.7 C620.4,156.5 621.1,156.3 625.8,156.4 C635.4,156.7 644.9,155.4 654,152.6 Z" id="Path" fill="#C4C3C6" fill-rule="nonzero"></path>
                <path d="M659.7,148.3 C659.8,148.4 660,148.7 660.4,149.3 C660.6,150.4 659.8,148.5 659.7,148.3 Z" id="Path" fill="#000000" fill-rule="nonzero"></path>
                <path d="M618.4,217.6 C617.8,218.1 617.1,219.1 617.7,219.6 C617.9,219.8 618.2,219.9 618.5,219.9 C627.6,221.7 637,219.6 646.1,217.6 C647.2,217.3 648.4,217.1 649.3,216.3 C651.1,214.8 651.3,211.9 650.8,209.9 C641.2,210.5 626.1,211.4 618.4,217.6 Z" id="Path" fill="#C4C3C6" fill-rule="nonzero"></path>
                <path d="M642.3,210.101 C643,209.901 643.4,210.801 643.5,211.501 C643.8,213.601 643.7,215.801 643.3,217.901 C643.3,218.101 643.2,218.401 643,218.601 C642.8,218.801 642.5,218.801 642.2,218.801 C641.4,218.801 640.7,218.801 639.9,218.901 C639.2,218.901 638.4,218.901 637.8,218.501 C637.4,218.201 637.2,217.801 637.1,217.301 C636.6,215.701 636.9,213.801 637.9,212.501 C638.9,211.201 639.6,210.101 641.3,210.201 L642.3,210.101 Z" id="Path" fill="#FFFFFF" fill-rule="nonzero"></path>
                <path d="M660.2,198.401 C660.5,198.301 662.1,199.701 662.1,200.001 C662.1,200.201 661.9,200.401 661.7,200.501 C658.5,203.201 654.5,204.801 650.5,205.701 C646.4,206.601 642.1,207.801 637.9,208.101 C625.5,208.801 617.9,209.601 606.3,205.401 C606.3,204.201 606.5,203.001 607,201.801 C618.2,205.601 625.1,205.701 636.9,205.001 C641.3,204.801 645.7,204.201 649.9,202.901 C652,202.301 654.1,201.501 656,200.501 C658.1,199.601 658.9,198.901 660.2,198.401 Z" id="Path" fill="#C4C3C6" fill-rule="nonzero"></path>
                <path d="M590.1,124.1 C588.4,127.4 587.7,131.2 587.1,134.9 C584.6,150.7 583.6,163.8 582.6,179.8 C582,190.4 581.4,201 580.8,211.6 C580.7,213.2 580.6,214.8 581,216.3 C581.7,218.9 583.9,221 586.3,222.2 C588.7,223.4 591.4,224 594.1,224.5 C594.1,226.2 593.8,227.9 593.2,229.5 C587.4,229.2 581.9,225.7 578.7,220.9 C575.5,216 574.4,209.9 575,204.1 C575.2,202.2 575.6,200.3 575.6,198.3 C575.6,195.7 575.7,192.7 576,190.1 C576.5,186 575.7,185.5 576.1,183.4 C576.8,180.3 577.2,180.4 577.2,177.2 C577.1,170.4 577.3,165 578,158.9 C579,149.3 580.3,139.7 581.5,130.2 C581.9,126.9 582.4,123.6 583.8,120.6 C586.4,115 592.6,111.3 598.8,111.5 C598.6,115 598.9,116 596.1,117.7 C593.6,119.5 591.5,121.3 590.1,124.1 Z" id="Path" fill="#C4C3C6" fill-rule="nonzero"></path>
                <path d="M598,126.701 C599.9,129.001 602.9,129.801 605.8,130.401 C608.2,130.901 610.5,131.301 612.9,131.501 C620.6,132.301 628.5,131.901 636.2,131.501 C640.2,131.301 644.1,131.101 648,130.301 C652.7,129.301 657.3,127.501 661.4,124.901 C660.4,124.101 659.3,123.401 658.3,122.701 C658,122.501 657.6,122.301 657.3,122.201 C656.8,122.101 656.3,122.401 655.8,122.601 C649,125.801 641.4,126.901 633.9,127.201 C627.4,127.501 620.8,127.301 614.4,126.501 C611.1,126.101 607.8,125.601 604.6,124.901 C601.5,124.401 599.5,123.401 598,126.701 Z" id="Path" fill="#C4C3C6" fill-rule="nonzero"></path>
                <path d="M630.7,134.6 C637.4,134.6 644.3,134.5 650.3,131.8 C650.1,136 650.2,140.2 650.6,144.4 C641.1,148.9 634.2,149.6 621.4,148.9 C619,148.8 618.1,148.1 616,147.1 C615.4,146.8 614.4,145.4 614.2,144.8 C614.1,144.4 613.8,143.8 613.8,143.3 C613.9,141.2 613.9,140.8 613.8,139.5 C613.7,138.5 613.8,136.6 614.2,135.7 C614.9,134 616.7,134.9 618.2,135 C623.8,135.3 625.1,134.6 630.7,134.6 Z" id="Path" fill="#C4C3C6" fill-rule="nonzero"></path>
                <path d="M643.4,134 C643.7,133.9 644,133.9 644.3,134 C644.8,134.2 644.9,134.8 644.9,135.3 C645.2,138.9 645.5,142.5 645.6,146.2 C645.6,146.3 645.6,146.5 645.6,146.6 C645.5,146.8 645.3,146.8 645.2,146.9 C642.3,148.2 639.2,148.8 636.1,148.7 C635,146.1 634.7,143.3 634.4,140.5 C634.2,138.5 632.8,135 635.4,134.4 C636.3,134.2 637.6,134.6 638.5,134.6 C640.1,134.5 641.8,134.3 643.4,134 Z" id="Path" fill="#FFFFFF" fill-rule="nonzero"></path>
                <path d="M637.1,131.2 C637.4,131.5 638,131.5 638.4,131.5 C641.2,131.4 644.1,131.1 646.9,130.5 C647.3,130.4 647.8,130.3 647.9,129.9 C648.1,129.5 647.9,129 647.7,128.6 C647.3,127.9 646.8,127.2 646.3,126.5 C646.2,126.4 646.1,126.3 646,126.2 C645.9,126.1 645.7,126.1 645.6,126.1 C644.1,126.1 642.9,126 641.5,126.4 C640.1,126.8 636.7,126.6 636.3,127.6 C635.8,128.7 636.1,129.9 637.1,131.2 Z" id="Path" fill="#FFFFFF" fill-rule="nonzero"></path>
                <path d="M659.1,112.1 C661,113 663.1,113.1 664.9,114.1 C668.5,116.1 669.4,120.7 670,124.8 C671.5,135 673,145.2 674.5,155.4 C675.3,160.9 676.1,166.3 676.9,171.8 C677.9,178.4 678.8,182 679.6,188.6 C679.9,191.3 680.2,194.1 680.6,196.8 C680.9,198.6 681.2,200.3 681.2,202.1 C681.5,209 677.7,215.9 671.8,219.5 C670.3,220.4 668.5,221.4 668.3,223.2 C668.1,224.8 669.6,226.3 669.6,227.9 C675.4,222.6 682.1,216.8 683.6,209.1 C685,201.7 683.2,195.2 682.6,187.5 C682.4,185.4 681.9,183 681.6,180.2 C680.6,172.4 679.7,167.6 678.2,159.8 C676.7,151.6 675.8,143.4 674.9,135.1 C674.2,129.2 672.9,123.4 671.7,117.5 C671.5,116.7 671.3,115.9 670.9,115.2 C670.4,114.4 669,112.7 668.1,112.2 C665.1,110.4 662.2,109.5 658.8,108.5 C654.4,107.3 656.7,111 659.1,112.1 Z" id="Path" fill="#C4C3C6" fill-rule="nonzero"></path>
                <path d="M637.1,205 C636.8,205 636.6,205 636.3,205.2 C635.7,205.5 635.7,206.4 635.8,207 C635.8,207.2 635.9,207.5 636,207.7 C636.2,208 636.7,208 637.1,208 C639.7,208 642.3,207.7 644.8,207.2 C646.2,207 650.5,206.6 648.2,204.4 C647.2,203.4 645.6,204 644.4,204.2 C642,204.7 639.6,204.8 637.1,205 Z" id="Path" fill="#FFFFFF" fill-rule="nonzero"></path>
                <path d="M636.4,156.1 C635.3,156.2 634.1,156.4 633.4,157.2 C632.9,157.9 632.8,158.8 632.9,159.6 C632.9,159.8 633,160 633.1,160.2 C633.4,160.8 634.2,160.8 634.9,160.8 C638.4,160.6 641.9,160 645.3,159 C645.8,158.8 646.4,158.7 646.8,158.3 C648.7,156.6 646.3,154.8 644.6,155.2 C641.9,155.8 639.1,155.9 636.4,156.1 Z" id="Path" fill="#FFFFFF" fill-rule="nonzero"></path>
                <path d="M653.9,221.6 C650.3,220.4 646.3,221 642.7,221.9 C639,222.9 635.5,224.3 631.7,224.9 C629.7,225.2 621.6,225.5 619.9,226.5 C614.6,229.6 615.7,233.1 617,234.7 C618.3,236.2 620.4,237 622.4,237.2 C624.4,237.4 626.5,237.3 628.5,237.3 C630.2,237.4 632,237.6 633.7,237.6 C638.8,237.6 653.4,233.4 658.1,231.4 C661.3,230 662.4,229.1 660.1,226 C658.6,224 656.4,222.4 653.9,221.6 Z" id="Path" fill="#FFFFFF" fill-rule="nonzero"></path>
                <path d="M603.1,105.801 C603.1,105.801 599.4,93.4006 604.9,92.1006 C610.4,90.8006 653.5,85.7006 654.7,91.7006 C656,97.8006 653.5,103.101 653.5,103.101 L657,103.601 C657,103.601 661.6,88.3006 658.1,86.5006 C654.5,84.7006 641.9,81.3006 631.1,81.4006 C620.3,81.5006 595.3,83.9006 597.5,94.9006 C599.6,106.001 600.5,106.501 600.5,106.501 L603.1,105.801 Z" id="Path" fill="#C4C3C6" fill-rule="nonzero"></path>
                <path d="M603.4,95.7004 C603.8,96.0004 604.2,96.4004 604.7,96.4004 C605.1,96.4004 605.5,96.2004 605.9,96.0004 C607.9,94.8004 611.1,91.5004 610.9,89.2004 C610.8,88.3004 610.2,87.4004 609.9,86.6004 C608.4,82.4004 607.5,80.9004 605.6,77.6004 C605,76.5004 605.5,76.2004 605.3,75.0004 C605.1,73.8004 604.9,71.7004 604.8,70.5004 C604.7,68.8004 604.2,68.5004 603.9,67.0004 C603.8,66.6004 604,66.2004 604.3,65.9004 C604.7,65.5004 605.3,65.5004 605.8,65.4004 C610.4,65.2004 615.1,64.9004 619.7,64.6004 C621.3,64.5004 622.9,64.4004 624.5,64.3004 C635.3,63.6004 646,62.9004 656.8,62.2004 C657.2,62.2004 657.7,62.1004 658,61.8004 C658.2,61.5004 658.2,61.0004 658.1,60.7004 C657.1,56.5004 655.1,52.4004 655.8,48.2004 C656.1,46.6004 656.8,45.1004 657.4,43.5004 C658.4,40.9004 659.1,38.2004 659.5,35.5004 C659.6,35.1004 659.6,34.7004 659.5,34.4004 C659.4,33.9004 659,33.5004 658.6,33.2004 C655.4,30.4004 651.4,30.9004 647.4,29.6004 C645,28.8004 641.9,27.7004 639.5,27.3004 C638.3,27.1004 637.2,26.5004 635.9,26.2004 C634.4,25.9004 633.1,25.4004 631.6,25.1004 C627.9,24.3004 624.1,23.5004 620.5,22.4004 C618.6,27.2004 617.1,31.0004 615.2,35.8004 C614.6,37.4004 613.9,39.1004 612.7,40.4004 C611.6,41.6004 610.1,42.4004 608.7,43.2004 C602.8,46.6004 597.2,50.5004 591.6,54.5004 C590.7,55.2004 589.7,55.8004 589.1,56.8004 C588.4,57.9004 588.3,59.3004 588.2,60.6004 C587.7,66.3004 586.1,72.3004 585.6,78.0004 C585.3,81.5004 590.2,84.2004 592.6,86.4004 C596.4,89.4004 599.9,92.5004 603.4,95.7004 Z" id="Path" fill="#000000" fill-rule="nonzero"></path>
                <path d="M605.6,85.0006 C604,82.8006 602.5,80.5006 601.6,77.8006 C600.6,75.0006 600.7,74.3006 599.5,71.4006 C600.4,71.0006 600.5,69.3006 601.3,69.0006 C604.5,67.6006 607.3,68.0006 611.4,66.6006 C615.2,65.3006 619.1,64.1006 623.1,63.7006 C625.6,63.4006 628.2,63.5006 630.7,63.1006 C633.9,62.6006 637,61.5006 640.2,61.1006 C644.2,60.6006 647,61.0006 651.1,60.8006 C649.3,57.9006 650,55.3006 650.8,52.1006 C651.2,50.5006 651.9,46.7006 652.3,45.1006 C652.8,43.5006 652.9,42.4006 653.1,40.7006 C653.2,40.0006 655,37.4006 654.5,36.9006 C653.4,35.8006 650.4,35.8006 648.1,35.4006 C640.4,34.0006 633,31.8006 625.3,29.9006 C624.7,29.8006 624.1,29.6006 623.6,29.9006 C623.2,30.2006 622.9,30.6006 622.7,31.1006 C621.5,33.9006 619.4,38.1006 618.2,40.8006 C617.7,41.9006 617.2,43.0006 616.4,43.9006 C615.7,44.6006 614.7,45.1006 613.8,45.6006 C607.1,48.9006 600.8,52.9006 594.9,57.5006 C594.2,58.0006 593.5,58.6006 593,59.4006 C592.6,60.0006 592.5,60.8006 592.3,61.5006 C591.2,66.2006 590.4,71.0006 589.9,75.7006 C589.8,76.6006 589.7,77.5006 590.1,78.2006 C590.5,79.0006 591.2,79.5006 591.9,80.0006 C595.8,82.8006 598,86.4006 601.6,89.5006 C603.7,91.3006 604.2,91.9006 605,90.8006 C606.1,89.4006 606.3,86.1006 605.6,85.0006 Z" id="Path" fill="#C4C3C6" fill-rule="nonzero"></path>
                <path d="M613.5,67.2004 C613.5,67.2004 620.9,62.2004 625.4,55.9004 C625.4,55.9004 623.2,62.0004 616.4,66.9004 L613.5,67.2004 Z" id="Path" fill="#000000" fill-rule="nonzero"></path>
                <path d="M597.2,85.1005 C596.9,84.8005 597.1,84.4005 597.5,84.5005 C598.1,84.7005 599.6,85.6005 600.9,86.6005 C600.9,86.6005 604.3,89.8005 604.5,91.2005 C604.5,91.4005 604.3,91.5005 604.1,91.4005 C603.6,91.3005 602.5,90.7005 600.3,88.5005 L597.2,85.1005 Z" id="Path" fill="#FFFFFF" fill-rule="nonzero"></path>
                <path d="M628.8,30.6005 C627.9,30.4005 626.1,30.2005 625.3,29.9005 C624.2,29.6005 623.9,29.5005 623.1,30.4005 C620.9,34.2005 619.5,38.8005 617.5,42.6005 C618.1,42.4005 620.1,41.0005 620.7,40.9005 C623.5,40.4005 622.1,40.6005 624.9,40.2005 C626.5,37.3005 629.2,34.2005 630.6,31.3005 C630.7,31.2005 630.7,31.1005 630.7,31.0005 L628.8,30.6005 Z" id="Path" fill="#FFFFFF" fill-rule="nonzero"></path>
                <path d="M600.1,72.7003 C600.1,72.7003 598.4,70.4003 597,69.1003 C597,69.1003 599.5,70.5003 599.9,71.0003 C599.9,71.0003 600.2,69.5003 599.4,68.8003 L601.7,71.1003 L600.1,72.7003 Z" id="Path" fill="#000000" fill-rule="nonzero"></path>
                <path d="M592.8,73.2002 C593.2,72.5002 593.3,71.8002 593.5,71.0002 C594,68.5002 594.6,66.0002 595.1,63.6002 C595.4,62.2002 595.7,60.9002 596.4,59.7002 C597.4,58.0002 599.2,56.9002 600.9,55.9002 C603.6,54.1002 606.2,52.1002 608.8,50.2002 C610.3,49.0002 611.9,47.8002 612.9,46.2002 C606.6,49.6002 600.3,53.0002 594.9,57.7002 C594.2,58.3002 593.6,58.9002 593.2,59.6002 C592.8,60.2002 592.7,60.9002 592.5,61.6002 C591.9,64.1002 591.4,66.5002 590.9,69.0002 C590.4,71.3002 589.7,74.0002 589.7,76.4002 C590.3,76.5002 592.4,73.9002 592.8,73.2002 Z" id="Path" fill="#FFFFFF" fill-rule="nonzero"></path>
                <path d="M597.2,85.1006 C597.2,85.1006 597.4,84.2006 598.9,85.2006 C598.9,85.2006 601.1,86.7006 602.1,87.8006 C602.1,87.8006 600,84.6006 597.2,83.6006 C597.2,83.6006 595.1,83.6006 595.4,85.4006 L597.2,85.1006 Z" id="Path" fill="#000000" fill-rule="nonzero"></path>
                <path d="M604.9,88.6004 C605.2,85.9004 609.9,80.7004 613.4,82.5004 C615.2,83.5004 617.4,85.4004 618.3,87.3004 C619.7,84.9004 622.3,83.5004 625,83.1004 C627.7,82.7004 630.2,85.4004 630.7,88.2004 C632.6,84.1004 639.3,83.4004 642,87.0004 C642.4,84.4004 645.2,82.6004 647.7,82.9004 C650.3,83.2004 652.4,85.3004 653.2,87.8004 C654,90.3004 653.5,93.0004 652.4,95.3004 C652.1,96.0004 649.3,97.6004 648.1,97.7004 C646.5,97.8004 645.1,97.5004 643.9,95.1004 C644.3,98.1004 642.2,101.2 639.3,101.9 C636.4,102.6 633,100.8 632,98.0004 C631.2,100.7 630.3,103.7 627.7,104.4 C627,104.6 623.8,104.7 623.1,104.5 C621,104.1 619.8,101.4 618.7,99.6004 C619.2,100.9 618,103.3 616.6,103.9 C609.9,106.5 607.8,103.4 606.1,97.6004 C605.2,94.2004 604.7,91.1004 604.9,88.6004 Z" id="Path" fill="#000000" fill-rule="nonzero"></path>
                <path d="M614.2,86.9004 C614.5,87.1004 614.8,87.3004 615,87.6004 C615.2,88.0004 615.3,88.4004 615.3,88.8004 C615.7,91.6004 615.9,94.3004 616,97.1004 C616,97.9004 616,98.8004 615.6,99.6004 C615.3,100 614.9,100.1 614.6,100.4 C613.6,101.2 612.6,101.2 611.4,101 C609.9,100.7 609,98.4004 608.7,96.9004 C607.8,93.6004 607,82.8004 614.2,86.9004 Z" id="Path" fill="#C4C3C6" fill-rule="nonzero"></path>
                <path d="M622,88.6004 C622.6,87.7004 623.6,87.1004 624.7,87.0004 C625.8,86.9004 626.7,87.3003 627.3,88.2003 C628.3,89.7003 628.2,92.6004 628.1,94.4004 C628,95.7004 628.3,97.6004 627.5,98.6004 C626.7,99.6004 625.5,100.2 624.2,100.1 C623.9,100.1 623,99.9004 622.8,99.8004 C621.8,99.4004 621.1,96.4004 621,95.3004 C620.8,93.3004 620.8,90.5003 622,88.6004 Z" id="Path" fill="#C4C3C6" fill-rule="nonzero"></path>
                <path d="M634.9,89.6006 C635.4,88.8006 636.2,88.2006 637.1,88.0006 C638.1,87.9006 639.1,88.3006 639.7,89.0006 C640.7,90.3006 640.7,91.9006 640.8,93.5006 C640.9,94.6006 640.9,96.2006 640.2,97.1006 C639.6,98.0006 638.7,98.5006 637.5,98.5006 C637.2,98.5006 636.5,98.1006 636.2,98.0006 C635.3,97.7006 634.8,96.6006 634.6,95.7006 C634.4,93.8006 633.9,91.3006 634.9,89.6006 Z" id="Path" fill="#C4C3C6" fill-rule="nonzero"></path>
                <path d="M645.7,88.0004 C646.1,87.4004 646.9,86.9004 647.6,86.9004 C648.4,86.9004 649.2,87.3004 649.7,87.9004 C650.5,89.1004 650.2,89.2004 650.2,90.5004 C650.2,91.5004 650.4,92.5004 649.8,93.2004 C649.2,93.9004 648.1,93.9004 647.1,93.8004 C646.9,93.8004 646.7,93.7004 646.5,93.7004 C645.7,93.4004 645.5,92.5004 645.4,91.7004 C645.3,90.1004 644.8,89.3004 645.7,88.0004 Z" id="Path" fill="#C4C3C6" fill-rule="nonzero"></path>
                <path d="M611.9,85.7006 C612.7,85.5006 614,86.5006 614.1,86.7006 C614.2,86.9006 614.2,87.1006 614.2,87.3006 C614.3,88.8006 614.5,89.9006 614.5,91.4006 C614.5,91.9006 614.2,92.7006 614,93.1006 C613.8,93.3006 613.6,93.5006 613.4,93.7006 C612.8,94.2006 612.2,94.7006 611.5,94.6006 C610.7,94.5006 609.5,93.1006 609.4,92.3006 C609.1,90.6006 607.8,86.8006 611.9,85.7006 Z" id="Path" fill="#FFFFFF" fill-rule="nonzero"></path>
                <path d="M636.9,87.1006 C637.5,86.9006 638.6,87.5006 638.7,87.6006 C638.8,87.7006 639.1,88.1006 639.1,88.3006 C639.2,89.4006 639.4,90.3006 639.4,91.5006 C639.4,91.8006 638.8,92.6006 638.6,92.9006 C638.5,93.1006 638.3,93.2006 638.2,93.4006 C637.8,93.8006 637.3,94.2006 636.8,94.1006 C636.2,94.0006 635.2,92.9006 635.1,92.3006 C634.8,90.9006 633.8,87.9006 636.9,87.1006 Z" id="Path" fill="#FFFFFF" fill-rule="nonzero"></path>
                <path d="M624.9,86.8004 C625.7,86.6004 626.8,87.4004 626.8,87.6004 C626.9,87.8004 626.9,88.0004 626.9,88.2004 C626.9,89.5004 627.1,90.1004 627,91.5004 C627,91.9004 626.6,93.2004 626.4,93.5004 C626.2,93.7004 626,93.9004 625.8,94.1004 C625.3,94.6004 624.5,94.6004 623.9,94.6004 C623.2,94.6004 622.3,93.3004 622.2,92.6004 C622,91.0004 620.4,87.9004 624.9,86.8004 Z" id="Path" fill="#FFFFFF" fill-rule="nonzero"></path>
                <path d="M610.3,93.9004 C610.3,93.9004 613.3,94.1004 613.7,91.6004 L613.8,86.4004 L614.2,86.6004 L614.5,91.4004 C614.5,91.4004 614.3,93.6004 612.4,94.4004 C611,95.0004 610.3,93.9004 610.3,93.9004 Z" id="Path" fill="#000000" fill-rule="nonzero"></path>
                <path d="M623,94.0005 C623,94.0005 626,94.2005 626.4,91.7005 L626.5,86.5005 L626.9,86.7005 L627.2,91.5005 C627.2,91.5005 627,93.7005 625.1,94.5005 C623.7,95.0005 623,94.0005 623,94.0005 Z" id="Path" fill="#000000" fill-rule="nonzero"></path>
                <path d="M635.7,93.3003 C635.7,93.3003 638.7,93.5003 639.1,91.0003 L639.2,85.8003 L639.6,86.0003 L639.9,90.8003 C639.9,90.8003 639.7,93.0003 637.8,93.8003 C636.4,94.4003 635.7,93.3003 635.7,93.3003 Z" id="Path" fill="#000000" fill-rule="nonzero"></path>
                <path d="M646.6,91.1004 C646.6,91.1004 648.6,91.3004 649.3,90.4004 C649.3,90.4004 650.1,87.7004 649.3,87.1004 C648.5,86.5004 646.1,86.6004 645.4,88.5004 C645.4,88.5004 645.7,90.2004 646.6,91.1004 Z" id="Path" fill="#FFFFFF" fill-rule="nonzero"></path>
                <path d="M646.4,91.0002 C646.4,91.0002 649.2,91.0002 649.5,89.1002 L649.5,85.2002 L649.8,85.4002 L650,89.0002 C650,89.0002 649.7,90.9002 647.9,91.4002 C646.9,91.7002 646.4,91.0002 646.4,91.0002 Z" id="Path" fill="#000000" fill-rule="nonzero"></path>
                <path d="M595.5,116.9 C595.1,117.6 594.3,118 593.7,118.4 C590.5,120.5 588.3,123.9 587.1,127.5 C585.9,131.1 585.4,134.9 585,138.7 C584.5,143.1 584,147.4 583.5,151.8 C582.1,151.1 581.8,149.3 581.8,147.7 C581.7,141 583,134.3 584.5,127.8 C585.1,125.2 585.8,122.5 587.4,120.4 C588.6,118.7 597.6,113.6 595.5,116.9 Z" id="Path" fill="#FFFFFF" fill-rule="nonzero"></path>
                <path d="M71.2273,139.182 C71.2273,135.5 69.0682,133.205 66.0909,133.205 C63.1136,133.205 60.9545,135.5 60.9545,139.182 C60.9545,142.864 63.1136,145.159 66.0909,145.159 C69.0682,145.159 71.2273,142.864 71.2273,139.182 Z M69.8636,139.182 C69.8636,142.205 68.2045,143.841 66.0909,143.841 C63.9773,143.841 62.3182,142.205 62.3182,139.182 C62.3182,136.159 63.9773,134.523 66.0909,134.523 C68.2045,134.523 69.8636,136.159 69.8636,139.182 Z M78.9148,141.432 C78.9148,143.068 77.6648,143.818 76.6648,143.818 C75.5511,143.818 74.7557,143 74.7557,141.727 L74.7557,136.273 L73.4148,136.273 L73.4148,141.818 C73.4148,144.045 74.5966,145.114 76.233,145.114 C77.5511,145.114 78.4148,144.409 78.8239,143.523 L78.9148,143.523 L78.9148,145 L80.2557,145 L80.2557,136.273 L78.9148,136.273 L78.9148,141.432 Z M82.7116,145 L84.0526,145 L84.0526,139.477 C84.0526,138.295 84.9844,137.432 86.2571,137.432 C86.6151,137.432 86.9844,137.5 87.0753,137.523 L87.0753,136.159 C86.9219,136.148 86.5696,136.136 86.3707,136.136 C85.3253,136.136 84.4162,136.727 84.098,137.591 L84.0071,137.591 L84.0071,136.273 L82.7116,136.273 L82.7116,145 Z M99.3466,138.227 C98.9261,136.989 97.983,136.159 96.2557,136.159 C94.4148,136.159 93.0511,137.205 93.0511,138.682 C93.0511,139.886 93.767,140.693 95.3693,141.068 L96.8239,141.409 C97.7045,141.614 98.1193,142.034 98.1193,142.636 C98.1193,143.386 97.3239,144 96.0739,144 C94.9773,144 94.2898,143.528 94.0511,142.591 L92.7784,142.909 C93.0909,144.392 94.3125,145.182 96.0966,145.182 C98.125,145.182 99.5057,144.074 99.5057,142.568 C99.5057,141.352 98.7443,140.585 97.1875,140.205 L95.892,139.886 C94.858,139.631 94.392,139.284 94.392,138.614 C94.392,137.864 95.1875,137.318 96.2557,137.318 C97.4261,137.318 97.9091,137.966 98.142,138.568 L99.3466,138.227 Z M102.388,148.25 C103.598,148.25 104.456,147.608 104.956,146.273 L108.672,136.295 L107.206,136.273 L104.797,143.227 L104.706,143.227 L102.297,136.273 L100.842,136.273 L104.07,145.045 L103.82,145.727 C103.342,147.034 102.729,147.159 101.751,146.909 L101.411,148.091 C101.547,148.159 101.933,148.25 102.388,148.25 Z M116.628,138.227 C116.207,136.989 115.264,136.159 113.537,136.159 C111.696,136.159 110.332,137.205 110.332,138.682 C110.332,139.886 111.048,140.693 112.651,141.068 L114.105,141.409 C114.986,141.614 115.401,142.034 115.401,142.636 C115.401,143.386 114.605,144 113.355,144 C112.259,144 111.571,143.528 111.332,142.591 L110.06,142.909 C110.372,144.392 111.594,145.182 113.378,145.182 C115.406,145.182 116.787,144.074 116.787,142.568 C116.787,141.352 116.026,140.585 114.469,140.205 L113.173,139.886 C112.139,139.631 111.673,139.284 111.673,138.614 C111.673,137.864 112.469,137.318 113.537,137.318 C114.707,137.318 115.19,137.966 115.423,138.568 L116.628,138.227 Z M122.601,136.273 L120.737,136.273 L120.737,134.182 L119.396,134.182 L119.396,136.273 L118.078,136.273 L118.078,137.409 L119.396,137.409 L119.396,142.864 C119.396,144.386 120.624,145.114 121.76,145.114 C122.26,145.114 122.578,145.023 122.76,144.955 L122.487,143.75 C122.374,143.773 122.192,143.818 121.896,143.818 C121.305,143.818 120.737,143.636 120.737,142.5 L120.737,137.409 L122.601,137.409 L122.601,136.273 Z M128.183,145.182 C129.956,145.182 131.251,144.295 131.661,142.977 L130.365,142.614 C130.024,143.523 129.234,143.977 128.183,143.977 C126.609,143.977 125.524,142.96 125.462,141.091 L131.797,141.091 L131.797,140.523 C131.797,137.273 129.865,136.159 128.047,136.159 C125.683,136.159 124.115,138.023 124.115,140.705 C124.115,143.386 125.661,145.182 128.183,145.182 Z M125.462,139.932 C125.553,138.574 126.513,137.364 128.047,137.364 C129.501,137.364 130.433,138.455 130.433,139.932 L125.462,139.932 Z M133.837,145 L135.178,145 L135.178,139.545 C135.178,138.267 136.109,137.364 137.155,137.364 C138.172,137.364 138.882,138.028 138.882,139.023 L138.882,145 L140.246,145 L140.246,139.318 C140.246,138.193 140.95,137.364 142.178,137.364 C143.132,137.364 143.95,137.869 143.95,139.159 L143.95,145 L145.291,145 L145.291,139.159 C145.291,137.108 144.189,136.159 142.632,136.159 C141.382,136.159 140.467,136.733 140.018,137.636 L139.928,137.636 C139.496,136.705 138.734,136.159 137.587,136.159 C136.45,136.159 135.609,136.705 135.246,137.636 L135.132,137.636 L135.132,136.273 L133.837,136.273 L133.837,145 Z M153.925,138.227 C153.504,136.989 152.561,136.159 150.834,136.159 C148.993,136.159 147.629,137.205 147.629,138.682 C147.629,139.886 148.345,140.693 149.947,141.068 L151.402,141.409 C152.283,141.614 152.697,142.034 152.697,142.636 C152.697,143.386 151.902,144 150.652,144 C149.555,144 148.868,143.528 148.629,142.591 L147.357,142.909 C147.669,144.392 148.891,145.182 150.675,145.182 C152.703,145.182 154.084,144.074 154.084,142.568 C154.084,141.352 153.322,140.585 151.766,140.205 L150.47,139.886 C149.436,139.631 148.97,139.284 148.97,138.614 C148.97,137.864 149.766,137.318 150.834,137.318 C152.004,137.318 152.487,137.966 152.72,138.568 L153.925,138.227 Z M164.489,136.273 L162.534,136.273 L162.534,135.386 C162.534,134.523 162.898,134.068 163.784,134.068 C164.17,134.068 164.398,134.159 164.534,134.205 L164.92,133.045 C164.716,132.955 164.307,132.818 163.648,132.818 C162.398,132.818 161.193,133.568 161.193,135.068 L161.193,136.273 L159.784,136.273 L159.784,137.409 L161.193,137.409 L161.193,145 L162.534,145 L162.534,137.409 L164.489,137.409 L164.489,136.273 Z M169.554,145.182 C171.918,145.182 173.509,143.386 173.509,140.682 C173.509,137.955 171.918,136.159 169.554,136.159 C167.19,136.159 165.599,137.955 165.599,140.682 C165.599,143.386 167.19,145.182 169.554,145.182 Z M169.554,143.977 C167.759,143.977 166.94,142.432 166.94,140.682 C166.94,138.932 167.759,137.364 169.554,137.364 C171.349,137.364 172.168,138.932 172.168,140.682 C172.168,142.432 171.349,143.977 169.554,143.977 Z M175.555,145 L176.896,145 L176.896,139.477 C176.896,138.295 177.828,137.432 179.101,137.432 C179.459,137.432 179.828,137.5 179.919,137.523 L179.919,136.159 C179.766,136.148 179.413,136.136 179.214,136.136 C178.169,136.136 177.26,136.727 176.942,137.591 L176.851,137.591 L176.851,136.273 L175.555,136.273 L175.555,145 Z M186.19,145 L187.486,145 L187.486,143.659 L187.645,143.659 C187.94,144.136 188.509,145.182 190.19,145.182 C192.372,145.182 193.895,143.432 193.895,140.659 C193.895,137.909 192.372,136.159 190.168,136.159 C188.463,136.159 187.94,137.205 187.645,137.659 L187.531,137.659 L187.531,133.364 L186.19,133.364 L186.19,145 Z M187.509,140.636 C187.509,138.682 188.372,137.364 190.009,137.364 C191.713,137.364 192.554,138.795 192.554,140.636 C192.554,142.5 191.69,143.977 190.009,143.977 C188.395,143.977 187.509,142.614 187.509,140.636 Z M201.446,141.432 C201.446,143.068 200.196,143.818 199.196,143.818 C198.082,143.818 197.287,143 197.287,141.727 L197.287,136.273 L195.946,136.273 L195.946,141.818 C195.946,144.045 197.128,145.114 198.764,145.114 C200.082,145.114 200.946,144.409 201.355,143.523 L201.446,143.523 L201.446,145 L202.787,145 L202.787,136.273 L201.446,136.273 L201.446,141.432 Z M205.243,145 L206.584,145 L206.584,136.273 L205.243,136.273 L205.243,145 Z M205.925,134.818 C206.447,134.818 206.879,134.409 206.879,133.909 C206.879,133.409 206.447,133 205.925,133 C205.402,133 204.97,133.409 204.97,133.909 C204.97,134.409 205.402,134.818 205.925,134.818 Z M210.381,133.364 L209.04,133.364 L209.04,145 L210.381,145 L210.381,133.364 Z M216.132,145.182 C217.814,145.182 218.382,144.136 218.678,143.659 L218.837,143.659 L218.837,145 L220.132,145 L220.132,133.364 L218.791,133.364 L218.791,137.659 L218.678,137.659 C218.382,137.205 217.859,136.159 216.155,136.159 C213.95,136.159 212.428,137.909 212.428,140.659 C212.428,143.432 213.95,145.182 216.132,145.182 Z M216.314,143.977 C214.632,143.977 213.768,142.5 213.768,140.636 C213.768,138.795 214.609,137.364 216.314,137.364 C217.95,137.364 218.814,138.682 218.814,140.636 C218.814,142.614 217.928,143.977 216.314,143.977 Z M222.774,145 L224.115,145 L224.115,136.273 L222.774,136.273 L222.774,145 Z M223.456,134.818 C223.979,134.818 224.411,134.409 224.411,133.909 C224.411,133.409 223.979,133 223.456,133 C222.933,133 222.501,133.409 222.501,133.909 C222.501,134.409 222.933,134.818 223.456,134.818 Z M227.912,139.75 C227.912,138.227 228.855,137.364 230.139,137.364 C231.384,137.364 232.139,138.176 232.139,139.545 L232.139,145 L233.48,145 L233.48,139.455 C233.48,137.227 232.293,136.159 230.526,136.159 C229.207,136.159 228.389,136.75 227.98,137.636 L227.866,137.636 L227.866,136.273 L226.571,136.273 L226.571,145 L227.912,145 L227.912,139.75 Z M239.453,148.455 C241.544,148.455 243.226,147.5 243.226,145.25 L243.226,136.273 L241.93,136.273 L241.93,137.659 L241.794,137.659 C241.499,137.205 240.953,136.159 239.249,136.159 C237.044,136.159 235.521,137.909 235.521,140.591 C235.521,143.318 237.112,144.864 239.226,144.864 C240.93,144.864 241.476,143.864 241.771,143.386 L241.885,143.386 L241.885,145.159 C241.885,146.614 240.862,147.273 239.453,147.273 C237.868,147.273 237.311,146.438 236.953,145.955 L235.885,146.705 C236.43,147.619 237.504,148.455 239.453,148.455 Z M239.408,143.659 C237.726,143.659 236.862,142.386 236.862,140.568 C236.862,138.795 237.703,137.364 239.408,137.364 C241.044,137.364 241.908,138.682 241.908,140.568 C241.908,142.5 241.021,143.659 239.408,143.659 Z M247.68,143.409 L246.226,143.409 L246.158,144.045 C245.993,145.585 245.669,147.119 245.521,147.841 L246.544,147.841 C246.817,147.068 247.396,145.318 247.589,144.023 L247.68,143.409 Z M256.642,145 L257.96,145 L259.869,138.295 L260.006,138.295 L261.915,145 L263.233,145 L265.892,136.273 L264.483,136.273 L262.597,142.932 L262.506,142.932 L260.665,136.273 L259.233,136.273 L257.369,142.955 L257.278,142.955 L255.392,136.273 L253.983,136.273 L256.642,145 Z M267.665,145 L269.006,145 L269.006,139.477 C269.006,138.295 269.938,137.432 271.21,137.432 C271.568,137.432 271.938,137.5 272.028,137.523 L272.028,136.159 C271.875,136.148 271.523,136.136 271.324,136.136 C270.278,136.136 269.369,136.727 269.051,137.591 L268.96,137.591 L268.96,136.273 L267.665,136.273 L267.665,145 Z M273.618,145 L274.959,145 L274.959,136.273 L273.618,136.273 L273.618,145 Z M274.3,134.818 C274.822,134.818 275.254,134.409 275.254,133.909 C275.254,133.409 274.822,133 274.3,133 C273.777,133 273.345,133.409 273.345,133.909 C273.345,134.409 273.777,134.818 274.3,134.818 Z M281.21,136.273 L279.347,136.273 L279.347,134.182 L278.006,134.182 L278.006,136.273 L276.688,136.273 L276.688,137.409 L278.006,137.409 L278.006,142.864 C278.006,144.386 279.233,145.114 280.369,145.114 C280.869,145.114 281.188,145.023 281.369,144.955 L281.097,143.75 C280.983,143.773 280.801,143.818 280.506,143.818 C279.915,143.818 279.347,143.636 279.347,142.5 L279.347,137.409 L281.21,137.409 L281.21,136.273 Z M283.227,145 L284.568,145 L284.568,136.273 L283.227,136.273 L283.227,145 Z M283.909,134.818 C284.432,134.818 284.864,134.409 284.864,133.909 C284.864,133.409 284.432,133 283.909,133 C283.386,133 282.955,133.409 282.955,133.909 C282.955,134.409 283.386,134.818 283.909,134.818 Z M288.365,139.75 C288.365,138.227 289.308,137.364 290.592,137.364 C291.837,137.364 292.592,138.176 292.592,139.545 L292.592,145 L293.933,145 L293.933,139.455 C293.933,137.227 292.746,136.159 290.979,136.159 C289.661,136.159 288.842,136.75 288.433,137.636 L288.32,137.636 L288.32,136.273 L287.024,136.273 L287.024,145 L288.365,145 L288.365,139.75 Z M299.906,148.455 C301.997,148.455 303.679,147.5 303.679,145.25 L303.679,136.273 L302.384,136.273 L302.384,137.659 L302.247,137.659 C301.952,137.205 301.406,136.159 299.702,136.159 C297.497,136.159 295.974,137.909 295.974,140.591 C295.974,143.318 297.565,144.864 299.679,144.864 C301.384,144.864 301.929,143.864 302.224,143.386 L302.338,143.386 L302.338,145.159 C302.338,146.614 301.315,147.273 299.906,147.273 C298.321,147.273 297.764,146.438 297.406,145.955 L296.338,146.705 C296.884,147.619 297.957,148.455 299.906,148.455 Z M299.861,143.659 C298.179,143.659 297.315,142.386 297.315,140.568 C297.315,138.795 298.156,137.364 299.861,137.364 C301.497,137.364 302.361,138.682 302.361,140.568 C302.361,142.5 301.474,143.659 299.861,143.659 Z M313.202,145.205 C314.724,145.205 315.52,144.386 315.793,143.818 L315.861,143.818 L315.861,145 L317.202,145 L317.202,139.25 C317.202,136.477 315.088,136.159 313.974,136.159 C312.656,136.159 311.156,136.614 310.474,138.205 L311.747,138.659 C312.043,138.023 312.741,137.341 314.02,137.341 C315.253,137.341 315.861,137.994 315.861,139.114 L315.861,139.159 C315.861,139.807 315.202,139.75 313.611,139.955 C311.991,140.165 310.224,140.523 310.224,142.523 C310.224,144.227 311.543,145.205 313.202,145.205 Z M313.406,144 C312.338,144 311.565,143.523 311.565,142.591 C311.565,141.568 312.497,141.25 313.543,141.114 C314.111,141.045 315.634,140.886 315.861,140.614 L315.861,141.841 C315.861,142.932 314.997,144 313.406,144 Z M320.99,139.75 C320.99,138.227 321.933,137.364 323.217,137.364 C324.462,137.364 325.217,138.176 325.217,139.545 L325.217,145 L326.558,145 L326.558,139.455 C326.558,137.227 325.371,136.159 323.604,136.159 C322.286,136.159 321.467,136.75 321.058,137.636 L320.945,137.636 L320.945,136.273 L319.649,136.273 L319.649,145 L320.99,145 L320.99,139.75 Z M332.304,145.182 C333.986,145.182 334.554,144.136 334.849,143.659 L335.009,143.659 L335.009,145 L336.304,145 L336.304,133.364 L334.963,133.364 L334.963,137.659 L334.849,137.659 C334.554,137.205 334.031,136.159 332.327,136.159 C330.122,136.159 328.599,137.909 328.599,140.659 C328.599,143.432 330.122,145.182 332.304,145.182 Z M332.486,143.977 C330.804,143.977 329.94,142.5 329.94,140.636 C329.94,138.795 330.781,137.364 332.486,137.364 C334.122,137.364 334.986,138.682 334.986,140.636 C334.986,142.614 334.099,143.977 332.486,143.977 Z M346.991,145.182 C348.923,145.182 350.196,144 350.423,142.455 L349.082,142.455 C348.832,143.409 348.037,143.977 346.991,143.977 C345.401,143.977 344.378,142.659 344.378,140.636 C344.378,138.659 345.423,137.364 346.991,137.364 C348.173,137.364 348.878,138.091 349.082,138.886 L350.423,138.886 C350.196,137.25 348.81,136.159 346.969,136.159 C344.605,136.159 343.037,138.023 343.037,140.682 C343.037,143.295 344.537,145.182 346.991,145.182 Z M355.929,145.182 C358.293,145.182 359.884,143.386 359.884,140.682 C359.884,137.955 358.293,136.159 355.929,136.159 C353.565,136.159 351.974,137.955 351.974,140.682 C351.974,143.386 353.565,145.182 355.929,145.182 Z M355.929,143.977 C354.134,143.977 353.315,142.432 353.315,140.682 C353.315,138.932 354.134,137.364 355.929,137.364 C357.724,137.364 358.543,138.932 358.543,140.682 C358.543,142.432 357.724,143.977 355.929,143.977 Z M361.93,145 L363.271,145 L363.271,139.545 C363.271,138.267 364.203,137.364 365.249,137.364 C366.266,137.364 366.976,138.028 366.976,139.023 L366.976,145 L368.339,145 L368.339,139.318 C368.339,138.193 369.044,137.364 370.271,137.364 C371.226,137.364 372.044,137.869 372.044,139.159 L372.044,145 L373.385,145 L373.385,139.159 C373.385,137.108 372.283,136.159 370.726,136.159 C369.476,136.159 368.561,136.733 368.112,137.636 L368.021,137.636 C367.589,136.705 366.828,136.159 365.68,136.159 C364.544,136.159 363.703,136.705 363.339,137.636 L363.226,137.636 L363.226,136.273 L361.93,136.273 L361.93,145 Z M375.837,145 L377.178,145 L377.178,139.545 C377.178,138.267 378.109,137.364 379.155,137.364 C380.172,137.364 380.882,138.028 380.882,139.023 L380.882,145 L382.246,145 L382.246,139.318 C382.246,138.193 382.95,137.364 384.178,137.364 C385.132,137.364 385.95,137.869 385.95,139.159 L385.95,145 L387.291,145 L387.291,139.159 C387.291,137.108 386.189,136.159 384.632,136.159 C383.382,136.159 382.467,136.733 382.018,137.636 L381.928,137.636 C381.496,136.705 380.734,136.159 379.587,136.159 C378.45,136.159 377.609,136.705 377.246,137.636 L377.132,137.636 L377.132,136.273 L375.837,136.273 L375.837,145 Z M395.243,141.432 C395.243,143.068 393.993,143.818 392.993,143.818 C391.879,143.818 391.084,143 391.084,141.727 L391.084,136.273 L389.743,136.273 L389.743,141.818 C389.743,144.045 390.925,145.114 392.561,145.114 C393.879,145.114 394.743,144.409 395.152,143.523 L395.243,143.523 L395.243,145 L396.584,145 L396.584,136.273 L395.243,136.273 L395.243,141.432 Z M400.381,139.75 C400.381,138.227 401.324,137.364 402.608,137.364 C403.852,137.364 404.608,138.176 404.608,139.545 L404.608,145 L405.949,145 L405.949,139.455 C405.949,137.227 404.761,136.159 402.994,136.159 C401.676,136.159 400.858,136.75 400.449,137.636 L400.335,137.636 L400.335,136.273 L399.04,136.273 L399.04,145 L400.381,145 L400.381,139.75 Z M408.399,145 L409.74,145 L409.74,136.273 L408.399,136.273 L408.399,145 Z M409.081,134.818 C409.604,134.818 410.036,134.409 410.036,133.909 C410.036,133.409 409.604,133 409.081,133 C408.558,133 408.126,133.409 408.126,133.909 C408.126,134.409 408.558,134.818 409.081,134.818 Z M415.741,145.182 C417.673,145.182 418.946,144 419.173,142.455 L417.832,142.455 C417.582,143.409 416.787,143.977 415.741,143.977 C414.151,143.977 413.128,142.659 413.128,140.636 C413.128,138.659 414.173,137.364 415.741,137.364 C416.923,137.364 417.628,138.091 417.832,138.886 L419.173,138.886 C418.946,137.25 417.56,136.159 415.719,136.159 C413.355,136.159 411.787,138.023 411.787,140.682 C411.787,143.295 413.287,145.182 415.741,145.182 Z M423.702,145.205 C425.224,145.205 426.02,144.386 426.293,143.818 L426.361,143.818 L426.361,145 L427.702,145 L427.702,139.25 C427.702,136.477 425.588,136.159 424.474,136.159 C423.156,136.159 421.656,136.614 420.974,138.205 L422.247,138.659 C422.543,138.023 423.241,137.341 424.52,137.341 C425.753,137.341 426.361,137.994 426.361,139.114 L426.361,139.159 C426.361,139.807 425.702,139.75 424.111,139.955 C422.491,140.165 420.724,140.523 420.724,142.523 C420.724,144.227 422.043,145.205 423.702,145.205 Z M423.906,144 C422.838,144 422.065,143.523 422.065,142.591 C422.065,141.568 422.997,141.25 424.043,141.114 C424.611,141.045 426.134,140.886 426.361,140.614 L426.361,141.841 C426.361,142.932 425.497,144 423.906,144 Z M433.945,136.273 L432.081,136.273 L432.081,134.182 L430.74,134.182 L430.74,136.273 L429.422,136.273 L429.422,137.409 L430.74,137.409 L430.74,142.864 C430.74,144.386 431.967,145.114 433.104,145.114 C433.604,145.114 433.922,145.023 434.104,144.955 L433.831,143.75 C433.717,143.773 433.536,143.818 433.24,143.818 C432.649,143.818 432.081,143.636 432.081,142.5 L432.081,137.409 L433.945,137.409 L433.945,136.273 Z M435.962,145 L437.303,145 L437.303,136.273 L435.962,136.273 L435.962,145 Z M436.643,134.818 C437.166,134.818 437.598,134.409 437.598,133.909 C437.598,133.409 437.166,133 436.643,133 C436.121,133 435.689,133.409 435.689,133.909 C435.689,134.409 436.121,134.818 436.643,134.818 Z M441.099,139.75 C441.099,138.227 442.043,137.364 443.327,137.364 C444.571,137.364 445.327,138.176 445.327,139.545 L445.327,145 L446.668,145 L446.668,139.455 C446.668,137.227 445.48,136.159 443.713,136.159 C442.395,136.159 441.577,136.75 441.168,137.636 L441.054,137.636 L441.054,136.273 L439.759,136.273 L439.759,145 L441.099,145 L441.099,139.75 Z M452.641,148.455 C454.732,148.455 456.413,147.5 456.413,145.25 L456.413,136.273 L455.118,136.273 L455.118,137.659 L454.982,137.659 C454.686,137.205 454.141,136.159 452.436,136.159 C450.232,136.159 448.709,137.909 448.709,140.591 C448.709,143.318 450.3,144.864 452.413,144.864 C454.118,144.864 454.663,143.864 454.959,143.386 L455.072,143.386 L455.072,145.159 C455.072,146.614 454.05,147.273 452.641,147.273 C451.055,147.273 450.499,146.438 450.141,145.955 L449.072,146.705 C449.618,147.619 450.692,148.455 452.641,148.455 Z M452.595,143.659 C450.913,143.659 450.05,142.386 450.05,140.568 C450.05,138.795 450.891,137.364 452.595,137.364 C454.232,137.364 455.095,138.682 455.095,140.568 C455.095,142.5 454.209,143.659 452.595,143.659 Z" id="Shape" fill="#C4C3C6" fill-rule="nonzero"></path>
            </g>
        </g>
    </g>
</svg>