<svg xmlns="http://www.w3.org/2000/svg" xmlns:xlink="http://www.w3.org/1999/xlink" viewBox="0 0 682.44 522.46"><defs><style>.cls-1,.cls-2,.cls-3,.cls-5,.cls-7{fill:none;}.cls-2,.cls-3,.cls-4,.cls-5,.cls-6,.cls-7{stroke:#4038ff;}.cls-2,.cls-3,.cls-4,.cls-7{stroke-linecap:square;}.cls-2,.cls-5,.cls-6,.cls-7{stroke-miterlimit:10;}.cls-2{stroke-width:2px;}.cls-3,.cls-4,.cls-5,.cls-6,.cls-7{stroke-width:12px;}.cls-4{fill:url(#lines);}.cls-6{fill:#fff;}.cls-8{fill:url(#lines-7);}</style><pattern id="lines" data-name="lines" width="16" height="16" patternTransform="translate(509.39 576)" patternUnits="userSpaceOnUse" viewBox="0 0 16 16"><rect class="cls-1" width="16" height="16"/><line class="cls-2" x1="1.98" y1="78.02" x2="67.98" y2="12.02"/><line class="cls-2" x1="-14.02" y1="78.02" x2="51.98" y2="12.02"/><line class="cls-2" x1="-30.02" y1="78.02" x2="35.98" y2="12.02"/><line class="cls-2" x1="-46.02" y1="78.02" x2="19.98" y2="12.02"/><line class="cls-2" x1="-62.02" y1="78.02" x2="3.98" y2="12.02"/><line class="cls-2" x1="1.98" y1="62.02" x2="67.98" y2="-3.98"/><line class="cls-2" x1="-14.02" y1="62.02" x2="51.98" y2="-3.98"/><line class="cls-2" x1="-30.02" y1="62.02" x2="35.98" y2="-3.98"/><line class="cls-2" x1="-46.02" y1="62.02" x2="19.98" y2="-3.98"/><line class="cls-2" x1="-62.02" y1="62.02" x2="3.98" y2="-3.98"/><line class="cls-2" x1="1.98" y1="46.02" x2="67.98" y2="-19.98"/><line class="cls-2" x1="-14.02" y1="46.02" x2="51.98" y2="-19.98"/><line class="cls-2" x1="-30.02" y1="46.02" x2="35.98" y2="-19.98"/><line class="cls-2" x1="-46.02" y1="46.02" x2="19.98" y2="-19.98"/><line class="cls-2" x1="-62.02" y1="46.02" x2="3.98" y2="-19.98"/><line class="cls-2" x1="1.98" y1="30.02" x2="67.98" y2="-35.98"/><line class="cls-2" x1="-14.02" y1="30.02" x2="51.98" y2="-35.98"/><line class="cls-2" x1="-30.02" y1="30.02" x2="35.98" y2="-35.98"/><line class="cls-2" x1="-46.02" y1="30.02" x2="19.98" y2="-35.98"/><line class="cls-2" x1="-62.02" y1="30.02" x2="3.98" y2="-35.98"/><line class="cls-2" x1="1.98" y1="14.02" x2="67.98" y2="-51.98"/><line class="cls-2" x1="-14.02" y1="14.02" x2="51.98" y2="-51.98"/><line class="cls-2" x1="-30.02" y1="14.02" x2="35.98" y2="-51.98"/><line class="cls-2" x1="-46.02" y1="14.02" x2="19.98" y2="-51.98"/><line class="cls-2" x1="-62.02" y1="14.02" x2="3.98" y2="-51.98"/></pattern><pattern id="lines-7" data-name="lines" width="16" height="16" patternTransform="translate(125.39 109.33)" patternUnits="userSpaceOnUse" viewBox="0 0 16 16"><rect class="cls-1" width="16" height="16"/><line class="cls-2" x1="1.98" y1="78.02" x2="67.98" y2="12.02"/><line class="cls-2" x1="-14.02" y1="78.02" x2="51.98" y2="12.02"/><line class="cls-2" x1="-30.02" y1="78.02" x2="35.98" y2="12.02"/><line class="cls-2" x1="-46.02" y1="78.02" x2="19.98" y2="12.02"/><line class="cls-2" x1="-62.02" y1="78.02" x2="3.98" y2="12.02"/><line class="cls-2" x1="1.98" y1="62.02" x2="67.98" y2="-3.98"/><line class="cls-2" x1="-14.02" y1="62.02" x2="51.98" y2="-3.98"/><line class="cls-2" x1="-30.02" y1="62.02" x2="35.98" y2="-3.98"/><line class="cls-2" x1="-46.02" y1="62.02" x2="19.98" y2="-3.98"/><line class="cls-2" x1="-62.02" y1="62.02" x2="3.98" y2="-3.98"/><line class="cls-2" x1="1.98" y1="46.02" x2="67.98" y2="-19.98"/><line class="cls-2" x1="-14.02" y1="46.02" x2="51.98" y2="-19.98"/><line class="cls-2" x1="-30.02" y1="46.02" x2="35.98" y2="-19.98"/><line class="cls-2" x1="-46.02" y1="46.02" x2="19.98" y2="-19.98"/><line class="cls-2" x1="-62.02" y1="46.02" x2="3.98" y2="-19.98"/><line class="cls-2" x1="1.98" y1="30.02" x2="67.98" y2="-35.98"/><line class="cls-2" x1="-14.02" y1="30.02" x2="51.98" y2="-35.98"/><line class="cls-2" x1="-30.02" y1="30.02" x2="35.98" y2="-35.98"/><line class="cls-2" x1="-46.02" y1="30.02" x2="19.98" y2="-35.98"/><line class="cls-2" x1="-62.02" y1="30.02" x2="3.98" y2="-35.98"/><line class="cls-2" x1="1.98" y1="14.02" x2="67.98" y2="-51.98"/><line class="cls-2" x1="-14.02" y1="14.02" x2="51.98" y2="-51.98"/><line class="cls-2" x1="-30.02" y1="14.02" x2="35.98" y2="-51.98"/><line class="cls-2" x1="-46.02" y1="14.02" x2="19.98" y2="-51.98"/><line class="cls-2" x1="-62.02" y1="14.02" x2="3.98" y2="-51.98"/></pattern></defs><title>Storage-provider</title><g id="Layer_2" data-name="Layer 2"><g id="Storage-provider"><path class="cls-3" d="M136.66,73.74V147"/><path class="cls-3" d="M234.28,73.74V147"/><path class="cls-3" d="M87.85,6.63V348.3h97.62V6.63Z"/><path class="cls-3" d="M185.47,6.63V348.3h97.62V6.63Z"/><path class="cls-4" d="M87.85,274.36V348.3h97.62V274.36Z"/><path class="cls-4" d="M185.47,274.36V348.3h97.62V274.36Z"/><path class="cls-3" d="M331.9,73.74V147"/><path class="cls-3" d="M6,348.24H459.05"/><path class="cls-3" d="M283.09,6.63V348.3h97.62V6.63Z"/><path class="cls-4" d="M283.09,274.36V348.3h97.62V274.36Z"/><circle class="cls-3" cx="136.66" cy="165.9" r="18.94"/><circle class="cls-3" cx="234.28" cy="165.9" r="18.94"/><circle class="cls-3" cx="331.9" cy="165.9" r="18.94"/><path class="cls-3" d="M517.7,73.11v73.22"/><path class="cls-3" d="M566.51,321.66V6H468.89V248.49"/><line class="cls-5" x1="566.51" y1="299.33" x2="599.27" y2="305.17"/><line class="cls-5" x1="566.51" y1="260.49" x2="617.5" y2="291.75"/><path class="cls-5" d="M597.62,188.77a20.06,20.06,0,0,0-26.09,3.48h0a20,20,0,0,0,1.76,28.29l52.44,46.9"/><path class="cls-5" d="M602.7,520.08,671,362.21c6.16-18.48,6.16-18.48,4.62-44.53l-1.2-81.14-49.21-75.71a20.06,20.06,0,0,0-31.73,24.54l35.18,57L616.15,296.5l-44.87,25.39c-24.67,10.44-45.54,7.77-60.89-14.65l-28.12-42.8c-16.75-23.77-37.42-16.38-49.19-4.6a43.77,43.77,0,0,0-4.4,5.53s14.69,25.44,17.72,31L466,365.48s-11.46,51.3,34.55,87.54"/><line class="cls-6" x1="486.22" y1="439.43" x2="475.01" y2="470.8"/><path class="cls-7" d="M573.49,347c-19.43,8.34-37.2-3.1-48.66-18.64l-19-28.37"/><path class="cls-8" d="M504.6,454.74c-13.56-6.17-11.28-9.87-15-18.63l-14.81,36.27,76.43,29.35"/><circle class="cls-3" cx="517.7" cy="171.48" r="18.94"/><path class="cls-4" d="M510.39,307.24c14.35,21,33.53,24.66,56.12,16.52V274.55h-77.6Z"/></g></g></svg>