<?xml version="1.0" encoding="UTF-8"?>
<svg width="882px" height="300px" viewBox="0 0 882 300" version="1.1" xmlns="http://www.w3.org/2000/svg" xmlns:xlink="http://www.w3.org/1999/xlink">
    <!-- Generator: Sketch 61 (89581) - https://sketch.com -->
    <title>council-members</title>
    <desc>Created with Sketch.</desc>
    <g id="council-members" stroke="none" stroke-width="1" fill="none" fill-rule="evenodd">
        <rect id="Rectangle" fill="#000000" fill-rule="nonzero" x="0" y="0" width="882" height="210"></rect>
        <g id="Group-2" transform="translate(514.999670, 0.000000)" fill="#1F232C">
            <rect id="Rectangle" fill-rule="nonzero" x="105.00033" y="105" width="52.5" height="52.5"></rect>
            <path d="M122.50066,52.5 L122.50066,105 L116.66733,105 L116.66733,52.5 L122.50066,52.5 Z M134.16666,52.5 L134.16666,105 L128.33333,105 L128.33333,52.5 L134.16666,52.5 Z M145.83366,52.5 L145.83366,105 L140.00033,105 L140.00033,52.5 L145.83366,52.5 Z M157.50066,52.5 L157.50066,105 L151.66733,105 L151.66733,52.5 L157.50066,52.5 Z M110.83701,52.5 L110.83701,105 L105.00033,105 L105.00033,52.5 L110.83701,52.5 Z" id="Shape" fill-rule="nonzero"></path>
            <path d="M40.83333,105 L40.83333,157.5 L35,157.5 L35,105 L40.83333,105 Z M29.16733,105 L29.16733,157.5 L23.334,157.5 L23.334,105 L29.16733,105 Z M17.50033,105 L17.50033,157.5 L11.667,157.5 L11.667,105 L17.50033,105 Z M5.83333,105 L5.83333,157.5 L-6.92779167e-14,157.5 L-6.92779167e-14,105 L5.83333,105 Z M52.50033,105 L52.50033,157.5 L46.66365,157.5 L46.66365,105 L52.50033,105 Z" id="Shape" fill-rule="nonzero"></path>
            <path d="M355.50533,0.9844 L355.50533,53.4844 L349.672,53.4844 L349.672,0.9844 L355.50533,0.9844 Z M343.83833,0.9844 L343.83833,53.4844 L338.005,53.4844 L338.005,0.9844 L343.83833,0.9844 Z M332.17233,0.9844 L332.17233,53.4844 L326.339,53.4844 L326.339,0.9844 L332.17233,0.9844 Z M320.50533,0.9844 L320.50533,53.4844 L314.672,53.4844 L314.672,0.9844 L320.50533,0.9844 Z M367.17233,0.9844 L367.17233,53.4844 L361.33565,53.4844 L361.33565,0.9844 L367.17233,0.9844 Z" id="Shape" fill-rule="nonzero"></path>
            <path d="M52.50033,163.333 L52.50033,157.5 C81.49533,157.5 105.00033,181.005 105.00033,210 L99.16733,210 C99.16733,184.227 78.27333,163.333 52.50033,163.333 Z M52.50033,175 L52.50033,169.166 C75.05233,169.166 93.33333,187.448 93.33333,210 L87.50033,210 C87.50033,190.67 71.83033,175 52.50033,175 Z M52.50033,180.834 L52.50033,186.667 C65.38733,186.667 75.83333,197.114 75.83333,210 L81.66733,210 C81.66733,193.892 68.60833,180.834 52.50033,180.834 Z M52.50033,198.333 L52.50033,192.5 C62.16533,192.5 70.00033,200.335 70.00033,210 L64.16733,210 C64.16733,203.557 58.94333,198.333 52.50033,198.333 Z M52.50033,210 L52.50033,204.166 C55.72233,204.166 58.33333,206.778 58.33333,210 L52.50033,210 Z" id="Shape"></path>
            <path d="M262.00033,110.833 L262.00033,105 C290.99533,105 314.50033,128.505 314.50033,157.5 L308.66733,157.5 C308.66733,131.727 287.77333,110.833 262.00033,110.833 Z M262.00033,122.5 L262.00033,116.667 C284.55233,116.667 302.83333,134.949 302.83333,157.5 L297.00033,157.5 C297.00033,138.17 281.33033,122.5 262.00033,122.5 Z M262.00033,128.333 L262.00033,134.167 C274.88733,134.167 285.33333,144.613 285.33333,157.5 L291.16733,157.5 C291.16733,141.392 278.10833,128.333 262.00033,128.333 Z M262.00033,145.833 L262.00033,140 C271.66533,140 279.50033,147.835 279.50033,157.5 L273.66733,157.5 C273.66733,151.056 268.44333,145.833 262.00033,145.833 Z M262.00033,157.5 L262.00033,151.667 C265.22233,151.667 267.83333,154.279 267.83333,157.5 L262.00033,157.5 Z" id="Shape"></path>
            <path d="M214.11233,52.5 L210.00033,52.5 L210.00033,48.3875 L258.38733,0 L262.50033,0 L262.50033,4.1125 L214.11233,52.5 Z M250.13333,0 L241.87933,0 L210.00033,31.8791 L210.00033,40.1333 L250.13333,0 Z M233.62533,0 L225.37133,0 L210.00033,15.3708 L210.00033,23.625 L233.62533,0 Z M210.00033,0 L210.00033,7.11666 L217.11633,0 L210.00033,0 Z M262.50033,20.6208 L262.50033,12.3667 L222.36633,52.5 L230.62133,52.5 L262.50033,20.6208 Z M262.50033,37.1291 L262.50033,28.875 L238.87533,52.5 L247.12933,52.5 L262.50033,37.1291 Z M262.50033,45.3833 L255.38333,52.5 L262.50033,52.5 L262.50033,45.3833 Z" id="Shape" fill-rule="nonzero"></path>
            <path d="M157.50033,105 L210.00033,105 L210.00033,52.5 C181.00533,52.5 157.50033,76.0051 157.50033,105 Z" id="Path" fill-rule="nonzero"></path>
            <path d="M262.50033,157.5 L262.50033,105 L210.00033,105 C210.00033,133.995 233.50533,157.5 262.50033,157.5 Z" id="Path" fill-rule="nonzero"></path>
            <path d="M110.83733,204.164 L110.83733,210.001 L105.00033,210.001 L105.00033,204.164 L110.83733,204.164 Z M122.49433,204.164 L122.49433,210.001 L116.65833,210.001 L116.65833,204.164 L122.49433,204.164 Z M134.16833,204.164 L134.16833,210.001 L128.33133,210.001 L128.33133,204.164 L134.16833,204.164 Z M145.82633,204.164 L145.82633,210.001 L139.99033,210.001 L139.99033,204.164 L145.82633,204.164 Z M157.50033,204.164 L157.50033,210.001 L151.66333,210.001 L151.66333,204.164 L157.50033,204.164 Z M151.66333,198.326 L151.66333,204.163 L145.82633,204.163 L145.82633,198.326 L140.00533,198.326 L140.00633,204.163 L134.16933,204.163 L134.16833,198.326 L128.33133,198.326 L128.33233,204.163 L122.49533,204.163 L122.49533,198.326 L128.33233,198.326 L128.33233,192.505 L122.49533,192.505 L122.49533,186.668 L128.33233,186.668 L128.33133,180.832 L134.16833,180.832 L134.16933,186.668 L139.99033,186.668 L139.99033,180.832 L145.82633,180.832 L145.82633,186.668 L151.66333,186.668 L151.66333,180.832 L157.50033,180.832 L157.50033,186.669 L151.66333,186.669 L151.66333,192.489 L157.50033,192.489 L157.50033,198.326 L151.66333,198.326 Z M110.83733,180.832 L110.83733,186.668 L116.65833,186.668 L116.65833,180.832 L122.49433,180.832 L122.49433,186.669 L116.67333,186.669 L116.67333,192.489 L122.49433,192.489 L122.49433,198.326 L116.67333,198.326 L116.67333,204.163 L110.83733,204.163 L110.83733,198.326 L105.00033,198.326 L105.00033,192.489 L110.83733,192.489 L110.83733,186.669 L105.00033,186.669 L105.00033,180.832 L110.83733,180.832 Z M139.99033,192.505 L134.16933,192.505 L134.16933,198.326 L139.99033,198.325 L139.99033,192.505 Z M116.65833,192.505 L110.83733,192.505 L110.83733,198.326 L116.65833,198.325 L116.65833,192.505 Z M134.16833,186.669 L128.33133,186.669 L128.33133,192.489 L134.16833,192.489 L134.16833,186.669 Z M145.82633,186.669 L140.00533,186.669 L140.00533,192.489 L145.82633,192.489 L145.82633,186.669 Z M116.67333,163.337 L116.67333,169.158 L122.49433,169.158 L122.49433,174.995 L116.67333,174.995 L116.67333,180.832 L110.83733,180.832 L110.83733,174.995 L105.00033,174.995 L105.00033,169.158 L110.83733,169.158 L110.83733,163.337 L116.67333,163.337 Z M128.33233,163.337 L128.33133,169.158 L134.16833,169.158 L134.16933,163.337 L140.00633,163.337 L140.00533,169.158 L145.82633,169.158 L145.82633,163.337 L151.66333,163.337 L151.66333,169.158 L157.50033,169.158 L157.50033,174.995 L151.66333,174.995 L151.66333,180.832 L145.82633,180.832 L145.82633,174.995 L140.00533,174.995 L140.00633,180.832 L134.16933,180.832 L134.16833,174.995 L128.33133,174.995 L128.33233,180.832 L122.49533,180.832 L122.49533,174.995 L128.33233,174.995 L128.33233,169.174 L122.49533,169.174 L122.49533,163.337 L128.33233,163.337 Z M139.99033,169.174 L134.16933,169.174 L134.16933,174.995 L139.99033,174.994 L139.99033,169.174 Z M116.65833,169.174 L110.83733,169.174 L110.83733,174.995 L116.65833,174.994 L116.65833,169.174 Z M151.66333,169.174 L145.82633,169.174 L145.82633,174.995 L151.66333,174.995 L151.66333,169.174 Z M110.83733,157.5 L110.83733,163.337 L105.00033,163.337 L105.00033,157.5 L110.83733,157.5 Z M122.49433,157.5 L122.49433,163.337 L116.65833,163.337 L116.65833,157.5 L122.49433,157.5 Z M134.16833,157.5 L134.16833,163.337 L128.33133,163.337 L128.33133,157.5 L134.16833,157.5 Z M145.82633,157.5 L145.82633,163.337 L139.99033,163.337 L139.99033,157.5 L145.82633,157.5 Z M157.50033,157.5 L157.50033,163.337 L151.66333,163.337 L151.66333,157.5 L157.50033,157.5 Z M151.66333,192.505 L145.82633,192.505 L145.82633,198.326 L151.66333,198.326 L151.66333,192.505 Z" id="Combined-Shape" fill-rule="nonzero"></path>
        </g>
        <path d="M62.4296875,84.96875 C62.4296875,82.3124867 62.7031223,79.9140732 63.25,77.7734375 C63.7968777,75.6328018 64.6289007,73.8086013 65.7460938,72.3007812 C66.8632868,70.7929612 68.2695228,69.640629 69.9648438,68.84375 C71.6601647,68.046871 73.6406137,67.6484375 75.90625,67.6484375 C77.4687578,67.6484375 78.9335869,67.8789039 80.3007812,68.3398438 C81.6679756,68.8007836 82.8632761,69.4648394 83.8867188,70.3320312 C84.9101614,71.1992231 85.7343719,72.2460876 86.359375,73.4726562 C86.9843781,74.6992249 87.3437495,76.0859298 87.4375,77.6328125 L82.8671875,77.6328125 C82.6484364,75.7109279 81.8984439,74.2304739 80.6171875,73.1914062 C79.3359311,72.1523386 77.6250107,71.6328125 75.484375,71.6328125 C74.3281192,71.6328125 73.2617236,71.8320293 72.2851562,72.2304688 C71.3085889,72.6289082 70.4609411,73.179684 69.7421875,73.8828125 C69.0234339,74.585941 68.4648457,75.4257764 68.0664062,76.4023438 C67.6679668,77.3789111 67.46875,78.4609316 67.46875,79.6484375 L67.46875,89.7265625 C67.46875,90.8828183 67.6835916,91.9453077 68.1132812,92.9140625 C68.5429709,93.8828173 69.136715,94.7304651 69.8945312,95.4570312 C70.6523475,96.1835974 71.5351512,96.7460918 72.5429688,97.1445312 C73.5507863,97.5429707 74.6249943,97.7421875 75.765625,97.7421875 C77.9375109,97.7421875 79.699212,97.2539111 81.0507812,96.2773438 C82.4023505,95.3007764 83.1874989,93.7031361 83.40625,91.484375 L87.953125,91.484375 C87.8593745,93.0156327 87.4843783,94.4179624 86.828125,95.6914062 C86.1718717,96.9648501 85.3085991,98.0390581 84.2382812,98.9140625 C83.1679634,99.7890669 81.9101635,100.47656 80.4648438,100.976562 C79.019524,101.476565 77.4687583,101.726562 75.8125,101.726562 C73.6406141,101.726562 71.7226646,101.332035 70.0585938,100.542969 C68.3945229,99.7539023 67.0039118,98.6250073 65.8867188,97.15625 C64.7695257,95.6874927 63.9140655,93.9296977 63.3203125,91.8828125 C62.7265595,89.8359273 62.4296875,87.5312628 62.4296875,84.96875 Z M92.9921875,88.765625 C92.9921875,86.9062407 93.2148415,85.1836017 93.6601562,83.5976562 C94.105471,82.0117108 94.7851517,80.6601618 95.6992188,79.5429688 C96.6132858,78.4257757 97.7578056,77.5468782 99.1328125,76.90625 C100.507819,76.2656218 102.124991,75.9453125 103.984375,75.9453125 C105.843759,75.9453125 107.460931,76.2656218 108.835938,76.90625 C110.210944,77.5468782 111.351558,78.4257757 112.257812,79.5429688 C113.164067,80.6601618 113.843748,82.0117108 114.296875,83.5976562 C114.750002,85.1836017 114.976562,86.9062407 114.976562,88.765625 C114.976562,90.6562595 114.750002,92.3828047 114.296875,93.9453125 C113.843748,95.5078203 113.164067,96.8515569 112.257812,97.9765625 C111.351558,99.1015681 110.207038,99.9843718 108.824219,100.625 C107.441399,101.265628 105.828134,101.585938 103.984375,101.585938 C102.124991,101.585938 100.507819,101.265628 99.1328125,100.625 C97.7578056,99.9843718 96.6132858,99.1015681 95.6992188,97.9765625 C94.7851517,96.8515569 94.105471,95.5078203 93.6601562,93.9453125 C93.2148415,92.3828047 92.9921875,90.6562595 92.9921875,88.765625 Z M97.5390625,92.5625 C97.5390625,93.390625 97.714842,94.1484341 98.0664062,94.8359375 C98.4179705,95.5234409 98.8828096,96.1054664 99.4609375,96.5820312 C100.039062,97.0585961 100.718746,97.4335924 101.5,97.7070312 C102.281254,97.9804701 103.109371,98.1171875 103.984375,98.1171875 C104.843754,98.1171875 105.664059,97.9804701 106.445312,97.7070312 C107.226566,97.4335924 107.906247,97.0585961 108.484375,96.5820312 C109.062503,96.1054664 109.527342,95.5234409 109.878906,94.8359375 C110.230471,94.1484341 110.40625,93.390625 110.40625,92.5625 L110.40625,84.96875 C110.40625,84.1406209 110.230471,83.3828159 109.878906,82.6953125 C109.527342,82.0078091 109.062503,81.4218774 108.484375,80.9375 C107.906247,80.4531226 107.226566,80.0742201 106.445312,79.8007812 C105.664059,79.5273424 104.843754,79.390625 103.984375,79.390625 C103.124996,79.390625 102.300785,79.5273424 101.511719,79.8007812 C100.722652,80.0742201 100.039062,80.4531226 99.4609375,80.9375 C98.8828096,81.4218774 98.4179705,82.0078091 98.0664062,82.6953125 C97.714842,83.3828159 97.5390625,84.1406209 97.5390625,84.96875 L97.5390625,92.5625 Z M121.445312,92.84375 L121.445312,76.53125 L125.757812,76.53125 L125.757812,92.3515625 C125.757812,94.1171963 126.101559,95.5195261 126.789062,96.5585938 C127.476566,97.5976614 128.734366,98.1171875 130.5625,98.1171875 C132.390634,98.1171875 133.839838,97.4375068 134.910156,96.078125 C135.980474,94.7187432 136.515625,92.9687607 136.515625,90.828125 L136.515625,76.53125 L140.828125,76.53125 L140.828125,101 L136.515625,101 L136.515625,96.96875 C135.843747,98.4062572 134.945312,99.5351521 133.820312,100.355469 C132.695307,101.175785 131.210947,101.585938 129.367188,101.585938 C128.242182,101.585938 127.191411,101.425783 126.214844,101.105469 C125.238276,100.785155 124.398441,100.273441 123.695312,99.5703125 C122.992184,98.867184 122.441408,97.960943 122.042969,96.8515625 C121.644529,95.742182 121.445312,94.4062578 121.445312,92.84375 Z M148.796875,101 L148.796875,76.53125 L153.109375,76.53125 L153.109375,80.5625 C153.781253,79.1249928 154.703119,77.9960979 155.875,77.1757812 C157.046881,76.3554646 158.562491,75.9453125 160.421875,75.9453125 C161.609381,75.9453125 162.687495,76.1054671 163.65625,76.4257812 C164.625005,76.7460954 165.460934,77.257809 166.164062,77.9609375 C166.867191,78.664066 167.414061,79.5664007 167.804688,80.6679688 C168.195314,81.7695368 168.390625,83.1093671 168.390625,84.6875 L168.390625,101 L164.054688,101 L164.054688,85.15625 C164.054688,83.359366 163.710941,81.9492239 163.023438,80.9257812 C162.335934,79.9023386 161.062509,79.390625 159.203125,79.390625 C158.312496,79.390625 157.500004,79.5664045 156.765625,79.9179688 C156.031246,80.269533 155.390628,80.7734342 154.84375,81.4296875 C154.296875,82.0859408 153.871095,82.8632768 153.566406,83.7617188 C153.261717,84.6601607 153.109375,85.6406197 153.109375,86.703125 L153.109375,101 L148.796875,101 Z M174.90625,88.953125 C174.90625,86.9999902 175.136716,85.2148518 175.597656,83.5976562 C176.058596,81.9804607 176.738277,80.6132868 177.636719,79.4960938 C178.535161,78.3789007 179.640618,77.5078156 180.953125,76.8828125 C182.265632,76.2578094 183.749992,75.9453125 185.40625,75.9453125 C186.687506,75.9453125 187.898432,76.1132796 189.039062,76.4492188 C190.179693,76.7851579 191.179683,77.304684 192.039062,78.0078125 C192.898442,78.710941 193.60156,79.6054633 194.148438,80.6914062 C194.695315,81.7773492 195.031249,83.0624926 195.15625,84.546875 L190.84375,84.546875 C190.75,83.5624951 190.54297,82.7382846 190.222656,82.0742188 C189.902342,81.4101529 189.484378,80.8789082 188.96875,80.4804688 C188.453122,80.0820293 187.867191,79.8007821 187.210938,79.6367188 C186.554684,79.4726554 185.875004,79.390625 185.171875,79.390625 C184.437496,79.390625 183.734378,79.5117175 183.0625,79.7539062 C182.390622,79.996095 181.781253,80.3593726 181.234375,80.84375 C180.687497,81.3281274 180.253908,81.9296839 179.933594,82.6484375 C179.61328,83.3671911 179.453125,84.2031202 179.453125,85.15625 L179.453125,92.3515625 C179.453125,93.2109418 179.605467,94.0039026 179.910156,94.7304688 C180.214845,95.4570349 180.63281,96.0664038 181.164062,96.5585938 C181.695315,97.0507837 182.304684,97.4335924 182.992188,97.7070312 C183.679691,97.9804701 184.421871,98.1171875 185.21875,98.1171875 C186.812508,98.1171875 188.14062,97.6875043 189.203125,96.828125 C190.26563,95.9687457 190.874999,94.6250091 191.03125,92.796875 L195.34375,92.796875 C195.187499,94.2968825 194.804691,95.5976507 194.195312,96.6992188 C193.585934,97.8007868 192.832036,98.7148401 191.933594,99.4414062 C191.035152,100.167972 190.019537,100.707029 188.886719,101.058594 C187.753901,101.410158 186.562506,101.585938 185.3125,101.585938 C183.515616,101.585938 181.972663,101.273441 180.683594,100.648438 C179.394525,100.023434 178.316411,99.1406307 177.449219,98 C176.582027,96.8593693 175.941408,95.5234452 175.527344,93.9921875 C175.113279,92.4609298 174.90625,90.7812591 174.90625,88.953125 Z M201.671875,72.875 L201.671875,68.3515625 L206.171875,68.3515625 L206.171875,72.875 L201.671875,72.875 Z M201.765625,101 L201.765625,76.53125 L206.078125,76.53125 L206.078125,101 L201.765625,101 Z M214.140625,101 L214.140625,68.3515625 L218.453125,68.3515625 L218.453125,101 L214.140625,101 Z M239.125,101 L239.125,68.3515625 L246.34375,68.3515625 L254.6875,93.5703125 L254.875,93.5703125 L263.171875,68.3515625 L270.296875,68.3515625 L270.296875,101 L266.007812,101 L266.007812,73.203125 L265.820312,73.203125 L256.5625,101 L252.90625,101 L243.601562,73.203125 L243.414062,73.203125 L243.414062,101 L239.125,101 Z M277.375,88.765625 C277.375,86.9062407 277.605466,85.1836017 278.066406,83.5976562 C278.527346,82.0117108 279.214839,80.6601618 280.128906,79.5429688 C281.042973,78.4257757 282.148431,77.5468782 283.445312,76.90625 C284.742194,76.2656218 286.234367,75.9453125 287.921875,75.9453125 C289.687509,75.9453125 291.226556,76.249997 292.539062,76.859375 C293.851569,77.468753 294.937496,78.300776 295.796875,79.3554688 C296.656254,80.4101615 297.304685,81.6484304 297.742188,83.0703125 C298.17969,84.4921946 298.398438,86.0234293 298.398438,87.6640625 L298.398438,89.9609375 L281.921875,89.9609375 L281.921875,92.5625 C281.921875,93.4531295 282.089842,94.2421841 282.425781,94.9296875 C282.76172,95.6171909 283.218747,96.1992164 283.796875,96.6757812 C284.375,97.1523461 285.023434,97.5117175 285.742188,97.7539062 C286.460941,97.996095 287.203121,98.1171875 287.96875,98.1171875 C289.500008,98.1171875 290.828119,97.7265664 291.953125,96.9453125 C293.078131,96.1640586 293.718749,94.9218835 293.875,93.21875 L298.210938,93.21875 C298.117187,94.5312566 297.77344,95.6992136 297.179688,96.7226562 C296.585935,97.7460989 295.816411,98.6171839 294.871094,99.3359375 C293.925777,100.054691 292.859381,100.609373 291.671875,101 C290.484369,101.390627 289.234382,101.585938 287.921875,101.585938 C286.156241,101.585938 284.613288,101.265628 283.292969,100.625 C281.97265,99.9843718 280.871098,99.1015681 279.988281,97.9765625 C279.105464,96.8515569 278.449221,95.5078203 278.019531,93.9453125 C277.589842,92.3828047 277.375,90.6562595 277.375,88.765625 Z M281.921875,86.515625 L293.921875,86.515625 L293.921875,85.15625 C293.921875,84.2656205 293.76172,83.4609411 293.441406,82.7421875 C293.121092,82.0234339 292.683597,81.414065 292.128906,80.9140625 C291.574216,80.41406 290.933597,80.0351575 290.207031,79.7773438 C289.480465,79.51953 288.718754,79.390625 287.921875,79.390625 C287.124996,79.390625 286.367191,79.51953 285.648438,79.7773438 C284.929684,80.0351575 284.289065,80.41406 283.726562,80.9140625 C283.16406,81.414065 282.722658,82.0234339 282.402344,82.7421875 C282.08203,83.4609411 281.921875,84.2656205 281.921875,85.15625 L281.921875,86.515625 Z M304.960938,101 L304.960938,76.53125 L309.273438,76.53125 L309.273438,80.5625 C309.820315,79.2187433 310.664057,78.1132856 311.804688,77.2460938 C312.945318,76.3789019 314.374991,75.9453125 316.09375,75.9453125 C317.718758,75.9453125 319.156244,76.3515584 320.40625,77.1640625 C321.656256,77.9765666 322.554685,79.2499913 323.101562,80.984375 C323.61719,79.5468678 324.492181,78.3476611 325.726562,77.3867188 C326.960938,76.4257764 328.484366,75.9453125 330.296875,75.9453125 C331.35938,75.9453125 332.355464,76.1054671 333.285156,76.4257812 C334.214848,76.7460954 335.023434,77.257809 335.710938,77.9609375 C336.398441,78.664066 336.933592,79.5664007 337.316406,80.6679688 C337.699221,81.7695368 337.890625,83.1093671 337.890625,84.6875 L337.890625,101 L333.578125,101 L333.578125,85.15625 C333.578125,83.359366 333.234378,81.9492239 332.546875,80.9257812 C331.859372,79.9023386 330.710946,79.390625 329.101562,79.390625 C328.335934,79.390625 327.625003,79.5664045 326.96875,79.9179688 C326.312497,80.269533 325.726565,80.7734342 325.210938,81.4296875 C324.69531,82.0859408 324.296876,82.8632768 324.015625,83.7617188 C323.734374,84.6601607 323.59375,85.6406197 323.59375,86.703125 L323.59375,101 L319.257812,101 L319.257812,85.15625 C319.257812,83.359366 318.914066,81.9492239 318.226562,80.9257812 C317.539059,79.9023386 316.398445,79.390625 314.804688,79.390625 C314.039059,79.390625 313.328128,79.5664045 312.671875,79.9179688 C312.015622,80.269533 311.42969,80.7734342 310.914062,81.4296875 C310.398435,82.0859408 309.996095,82.8632768 309.707031,83.7617188 C309.417967,84.6601607 309.273438,85.6406197 309.273438,86.703125 L309.273438,101 L304.960938,101 Z M345.648438,101 L345.648438,68.3515625 L349.960938,68.3515625 L349.960938,80.515625 C350.726566,79.0468677 351.757806,77.9179727 353.054688,77.1289062 C354.351569,76.3398398 355.929678,75.9453125 357.789062,75.9453125 C359.414071,75.9453125 360.835931,76.2812466 362.054688,76.953125 C363.273444,77.6250034 364.285152,78.5351505 365.089844,79.6835938 C365.894535,80.832037 366.496092,82.1913984 366.894531,83.7617188 C367.292971,85.3320391 367.492188,86.9999912 367.492188,88.765625 C367.492188,90.562509 367.292971,92.2343673 366.894531,93.78125 C366.496092,95.3281327 365.894535,96.6796817 365.089844,97.8359375 C364.285152,98.9921933 363.27735,99.9062466 362.066406,100.578125 C360.855463,101.250003 359.429696,101.585938 357.789062,101.585938 C355.929678,101.585938 354.351569,101.19141 353.054688,100.402344 C351.757806,99.6132773 350.726566,98.4843823 349.960938,97.015625 L349.960938,101 L345.648438,101 Z M349.960938,90.828125 C349.960938,92.9375105 350.539057,94.6796806 351.695312,96.0546875 C352.851568,97.4296944 354.515614,98.1171875 356.6875,98.1171875 C358.515634,98.1171875 360.011713,97.6054739 361.175781,96.5820312 C362.33985,95.5585886 362.921875,94.2187583 362.921875,92.5625 L362.921875,84.96875 C362.921875,83.3124917 362.33985,81.9687552 361.175781,80.9375 C360.011713,79.9062448 358.515634,79.390625 356.6875,79.390625 C354.515614,79.390625 352.851568,80.0820243 351.695312,81.4648438 C350.539057,82.8476632 349.960938,84.5937395 349.960938,86.703125 L349.960938,90.828125 Z M372.90625,88.765625 C372.90625,86.9062407 373.136716,85.1836017 373.597656,83.5976562 C374.058596,82.0117108 374.746089,80.6601618 375.660156,79.5429688 C376.574223,78.4257757 377.679681,77.5468782 378.976562,76.90625 C380.273444,76.2656218 381.765617,75.9453125 383.453125,75.9453125 C385.218759,75.9453125 386.757806,76.249997 388.070312,76.859375 C389.382819,77.468753 390.468746,78.300776 391.328125,79.3554688 C392.187504,80.4101615 392.835935,81.6484304 393.273438,83.0703125 C393.71094,84.4921946 393.929688,86.0234293 393.929688,87.6640625 L393.929688,89.9609375 L377.453125,89.9609375 L377.453125,92.5625 C377.453125,93.4531295 377.621092,94.2421841 377.957031,94.9296875 C378.29297,95.6171909 378.749997,96.1992164 379.328125,96.6757812 C379.90625,97.1523461 380.554684,97.5117175 381.273438,97.7539062 C381.992191,97.996095 382.734371,98.1171875 383.5,98.1171875 C385.031258,98.1171875 386.359369,97.7265664 387.484375,96.9453125 C388.609381,96.1640586 389.249999,94.9218835 389.40625,93.21875 L393.742188,93.21875 C393.648437,94.5312566 393.30469,95.6992136 392.710938,96.7226562 C392.117185,97.7460989 391.347661,98.6171839 390.402344,99.3359375 C389.457027,100.054691 388.390631,100.609373 387.203125,101 C386.015619,101.390627 384.765632,101.585938 383.453125,101.585938 C381.687491,101.585938 380.144538,101.265628 378.824219,100.625 C377.5039,99.9843718 376.402348,99.1015681 375.519531,97.9765625 C374.636714,96.8515569 373.980471,95.5078203 373.550781,93.9453125 C373.121092,92.3828047 372.90625,90.6562595 372.90625,88.765625 Z M377.453125,86.515625 L389.453125,86.515625 L389.453125,85.15625 C389.453125,84.2656205 389.29297,83.4609411 388.972656,82.7421875 C388.652342,82.0234339 388.214847,81.414065 387.660156,80.9140625 C387.105466,80.41406 386.464847,80.0351575 385.738281,79.7773438 C385.011715,79.51953 384.250004,79.390625 383.453125,79.390625 C382.656246,79.390625 381.898441,79.51953 381.179688,79.7773438 C380.460934,80.0351575 379.820315,80.41406 379.257812,80.9140625 C378.69531,81.414065 378.253908,82.0234339 377.933594,82.7421875 C377.61328,83.4609411 377.453125,84.2656205 377.453125,85.15625 L377.453125,86.515625 Z M400.492188,101 L400.492188,76.53125 L412.257812,76.53125 L412.257812,80.2578125 L404.804688,80.2578125 L404.804688,101 L400.492188,101 Z M416.03125,93.265625 L420.367188,93.265625 C420.429688,94.8906331 421.011713,96.1054647 422.113281,96.9101562 C423.214849,97.7148478 424.515618,98.1171875 426.015625,98.1171875 C427.453132,98.1171875 428.70312,97.7968782 429.765625,97.15625 C430.82813,96.5156218 431.359375,95.5859436 431.359375,94.3671875 C431.359375,93.3828076 431.039066,92.593753 430.398438,92 C429.800518,91.4458306 428.767055,91.0141677 427.298022,90.7050002 L422.945312,89.8203125 C420.929677,89.3984354 419.378912,88.6210994 418.292969,87.4882812 C417.207026,86.3554631 416.664062,84.8281346 416.664062,82.90625 C416.664062,81.9531202 416.878904,81.0507855 417.308594,80.1992188 C417.738283,79.347652 418.355465,78.6093781 419.160156,77.984375 C419.964848,77.3593719 420.910151,76.8632831 421.996094,76.4960938 C423.082037,76.1289044 424.296868,75.9453125 425.640625,75.9453125 C426.796881,75.9453125 427.925776,76.0976547 429.027344,76.4023438 C430.128912,76.7070328 431.113277,77.1796843 431.980469,77.8203125 C432.847661,78.4609407 433.542966,79.2773388 434.066406,80.2695312 C434.589846,81.2617237 434.867187,82.4453125 434.898438,83.8203125 L430.585938,83.8203125 C430.523437,82.1953044 430.019536,81.0507846 429.074219,80.3867188 C428.128902,79.7226529 427.000007,79.390625 425.6875,79.390625 C424.343743,79.390625 423.207036,79.7109343 422.277344,80.3515625 C421.347652,80.9921907 420.882812,81.8281198 420.882812,82.859375 C420.882812,83.8125048 421.156247,84.5546848 421.703125,85.0859375 C422.250003,85.6171902 423.132806,86.0078113 424.351562,86.2578125 L428.476562,87.125 C430.914075,87.6406276 432.72265,88.4726505 433.902344,89.6210938 C435.082037,90.769537 435.671875,92.3359276 435.671875,94.3203125 C435.671875,95.3515677 435.441409,96.3085893 434.980469,97.1914062 C434.519529,98.0742232 433.855473,98.8320281 432.988281,99.4648438 C432.121089,100.097659 431.093756,100.609373 429.90625,101 C428.718744,101.390627 427.406257,101.585938 425.96875,101.585938 C424.593743,101.585938 423.3086,101.410158 422.113281,101.058594 C420.917963,100.707029 419.871098,100.183597 418.972656,99.4882812 C418.074214,98.7929653 417.36719,97.9257864 416.851562,96.8867188 C416.335935,95.8476511 416.0625,94.6406319 416.03125,93.265625 Z" id="CouncilMembers" fill="#FFFFFF" fill-rule="nonzero"></path>
        <g id="council-member" transform="translate(515.000000, 38.000000)" fill-rule="nonzero">
            <path d="M66.0416056,186.819944 C69.4530713,186.747867 72.8310399,186.133145 76.0476713,184.999042 L76.0476713,184.999042 C76.3070878,184.925222 76.5541511,184.826795 76.8012145,184.740671 C78.0365312,185.405054 79.1853758,186.069437 80.4083394,186.709213 C82.2489613,187.693484 83.7560477,189.046857 85.621376,189.994218 C86.6590421,190.523264 87.9931842,191.335287 89.1420288,190.301803 C89.6485086,189.834274 89.5867428,189.071464 90.0932226,188.653149 C93.9721172,184.962132 94.3550654,185.884886 96.7145204,182.26769 C96.9615837,181.898588 97.1468813,176.669648 97.1962939,176.263636 C97.2352299,175.663069 96.9653997,175.083881 96.4798102,174.725713 C95.1456681,173.655318 93.1321018,173.360037 91.5385432,172.535709 L91.3903052,172.461889 C93.220541,168.646374 92.7732281,164.134397 90.2291075,160.749063 C87.4960605,156.976499 83.855948,153.94754 79.642443,151.939837 C78.1406159,151.204482 76.5160215,150.749928 74.849414,150.598767 C73.0924176,147.947083 70.8902225,145.616419 68.3392948,143.70887 C66.7971925,142.446159 64.9554327,141.59889 62.9903733,141.248192 C61.4971138,138.048623 59.2614874,135.248483 56.4679009,133.078742 C55.3482651,132.138869 54.0561142,131.424364 52.6631253,130.974863 C51.7379491,128.342388 50.3398921,125.899394 48.5371674,123.765077 C47.3104088,122.200646 45.6972916,120.979787 43.8553169,120.221701 C43.3228941,118.291288 42.4891791,116.456203 41.3846834,114.783603 C39.845846,113.482286 38.4540661,112.01773 37.2340191,110.4159 L37.0610748,110.280563 L37.0610748,110.071405 C35.121855,107.419823 33.6935303,104.432845 32.8486447,101.262179 C30.8950139,99.0347095 28.0333336,97.8086931 25.0661492,97.9279605 C21.8474343,98.056816 18.7807892,99.326527 16.418932,101.508247 L14.6400759,103.00926 L14.4918379,103.575216 C13.2533705,103.210077 11.9661002,103.035814 10.6747091,103.058474 C9.89520675,103.068667 9.11810139,103.146888 8.35231366,103.292238 L7.78406795,103.366058 L7.21582225,103.550609 C1.76807541,105.29769 -1.04844677,109.57927 0.359814318,113.996186 C1.15711498,116.763381 2.50104765,119.34421 4.3128279,121.587377 C4.62725102,121.95753 4.96126035,122.310728 5.31343446,122.645468 C5.16166726,123.763505 5.27591897,124.901418 5.64696999,125.967383 C6.53166781,128.803983 8.03797365,131.409435 10.0570508,133.595484 C10.4647053,134.0138 10.8723598,134.407508 11.2923675,134.825823 C11.0708966,136.325799 11.3257244,137.857208 12.0212044,139.20583 C13.7818209,142.800233 16.4298835,145.890596 19.7172277,148.187303 C19.7005415,149.80223 20.1836205,151.383093 21.1007825,152.71495 C23.2876918,156.050679 26.2550953,158.807688 29.7479997,160.749063 C29.8226854,162.728315 30.6482008,164.605719 32.058042,166.00261 L32.1815737,166.137947 C33.062137,167.168957 34.024681,168.127622 35.0598617,169.004637 C37.0434262,170.647565 39.2315276,172.028743 41.5699809,173.113969 C41.8015278,174.902833 42.6227131,176.56455 43.9047296,177.83847 C45.9729763,179.922534 48.3471769,181.68149 50.946035,183.055107 C55.5670164,185.587371 60.7677425,186.884433 66.0416056,186.819944 Z" id="Path" fill="#040404"></path>
            <path d="M29.7768988,114.85883 C28.3403416,114.662632 28.7123073,115.905222 28.1094663,116.389179 C26.416381,117.788728 24.890039,117.697169 24.4667676,115.970622 C23.3893497,111.758893 21.5166948,107.625644 22.6967239,103.073838 C25.1593935,100.928734 26.1342001,100.994134 27.622063,103.335436 C28.7088615,105.381309 29.56924,107.544058 30.1873437,109.783828 C30.5080038,111.510375 29.2381898,113.210762 29.751246,114.937309 L29.7768988,114.85883 Z" id="Path" fill="#FFFFFF"></path>
            <path d="M19.4071248,111.662259 C20.4025464,111.320685 20.6514018,112.467395 21.0495704,113.089546 C23.2519407,116.749258 25.2676694,120.408971 27.6317956,124.068683 C34.3112867,134.034812 42.0572844,143.273074 50.7380192,151.626315 C55.2174164,155.956974 60.3811658,159.714279 65.0720901,163.825355 C65.3085027,164.02054 65.5822436,164.313317 66.0675117,164.105933 C70.081942,167.62209 74.4850386,170.686848 79.1946338,173.243015 C80.376697,173.913962 80.9117361,175.560832 82.9896786,175.133866 C82.9896786,176.35377 84.5325821,176.622149 85.403576,177.097911 C87.6308318,178.317815 89.8954159,179.53772 92.16,180.757624 C91.5775382,181.672148 91.053922,182.621456 90.592211,183.6 C87.1994824,181.81894 83.8814105,179.948421 80.6379951,177.988441 C66.4828861,169.458613 53.6553017,158.973555 42.5506767,146.85649 C34.0767425,137.529782 26.6975912,127.29985 20.5518596,116.358889 C20.0891806,115.554791 19.7058632,114.709221 19.4071248,113.833688 C19.1458266,113.077347 18.0010918,112.138021 19.4071248,111.662259 Z" id="Path" fill="#C4C3C6"></path>
            <path d="M78.7082426,181.010675 C80.5614564,181.791956 79.1590243,182.013513 78.2198957,182.316697 C71.9313651,184.464252 64.9429443,183.895923 59.149324,180.765796 C57.0121205,179.721569 55.0608028,178.376388 53.3642917,176.777766 C51.8742076,175.343474 52.4877717,173.967487 54.9295061,173.372781 C57.3699676,172.683453 59.9640767,172.615006 62.442535,173.174546 C68.3446059,174.715334 74.0123175,176.948821 79.3092849,179.821262 C80.5614564,180.532578 79.609806,180.497595 78.9211117,180.649187 C78.1554107,180.139974 77.1393867,180.098836 76.3291167,180.544239 L78.7082426,181.010675 Z" id="Path" fill="#C4C3C6"></path>
            <path d="M82.7662964,175.148608 C80.4468971,172.733191 78.0382902,170.402313 75.8208426,167.902356 C74.1522895,166.276544 73.0684438,164.192696 72.7240623,161.948352 C72.6510118,160.556512 73.5695387,159.290385 74.9669978,158.856618 C76.264855,158.219053 77.8158023,158.250906 79.0832943,158.941158 C82.6290452,160.5643 85.6942632,162.99605 88.0040606,166.018331 C90.2087643,168.892677 89.5333349,172.52788 86.1561876,175.68 L83.4162379,172.431264 C84.1298993,174.991606 84.1298993,174.991606 82.6898327,175.027837 L82.7662964,175.148608 Z" id="Path" fill="#FFFFFF"></path>
            <path d="M60.0152141,170.134751 C52.6507845,171.640826 47.0493168,169.64039 42.2605621,165.984421 C41.4306404,165.34778 40.66484,164.643626 39.9724626,163.880514 C39.2847824,163.156218 38.3345334,162.408928 39.2722791,161.37422 C40.1008382,160.423284 41.3481418,159.862486 42.6731702,159.845151 C44.4997325,159.797354 46.3185097,160.082594 48.0245724,160.684414 C52.8133271,162.213483 56.7768656,164.6393 60.9279533,166.927155 C62.0907579,167.58247 61.9032088,168.467721 61.9157121,169.226507 C61.9282153,169.985293 60.5903648,169.812841 60.0152141,170.134751 Z" id="Path" fill="#C4C3C6"></path>
            <path d="M48.2490108,157.153771 C41.0142719,158.744591 36.1080979,156.581076 32.123388,152.64857 C31.0509716,151.581061 30.0986887,150.394363 29.2842821,149.110587 C28.0390603,147.176151 29.2842821,145.610784 31.9988658,145.445339 C33.6995247,145.388713 35.3855324,145.783328 36.8925876,146.590729 C41.1095344,148.787644 45.0381562,151.520015 48.5852207,154.722999 C50.0670347,155.995655 50.1292958,156.848334 48.2490108,157.153771 Z" id="Path" fill="#C4C3C6"></path>
            <path d="M66.5302277,164.613273 C65.6489788,162.146455 63.6208991,160.345678 62.3171336,158.137875 C61.1944466,156.238426 59.902753,154.437648 59.7820339,152.155842 C59.6975306,150.922433 59.7820339,149.590351 61.3996689,148.86264 C62.8587594,148.010936 64.6818599,148.173123 65.9749202,149.269665 C68.7152422,151.588474 71.3710608,153.931951 72.3730288,157.262155 C73.2422058,160.173 72.5420354,162.837164 69.5482035,165.6 C69.6327068,163.305859 65.8059135,162.257462 68.6186669,159.704305 C66.4819401,160.197668 66.4698682,160.210003 66.98896,161.517416 C67.2666138,162.220459 67.6046271,162.898834 67.9305685,163.589543 C68.7514579,165.32865 67.2786857,164.600939 66.4577963,164.576271 L66.5302277,164.613273 Z" id="Path" fill="#FFFFFF"></path>
            <path d="M19.6921758,136.09488 C18.8546956,134.337912 20.2347686,133.654647 21.8979335,133.288612 C23.3175493,133.032159 24.7784948,133.33701 25.9909706,134.142694 C29.6403331,136.54124 33.0294422,139.339228 36.0997105,142.488289 C36.6688691,143.044917 36.8676539,143.896093 36.6069169,144.660096 C36.4535754,145.392166 35.3330033,145.245752 34.6252736,145.33116 C27.1469292,146.221845 22.3461623,141.512196 19.6921758,136.09488 Z" id="Path" fill="#C4C3C6"></path>
            <path d="M53.6408613,153.36 C51.5797532,150.559652 49.8201611,147.532423 48.3936739,144.332658 C47.7044222,142.821198 47.4146325,141.145934 47.5541239,139.479248 C47.6400782,138.241495 48.5076178,137.214754 49.6763197,136.967608 C50.7447541,136.590068 51.9262853,136.861206 52.7430093,137.671352 C54.9027643,139.407255 56.623689,141.664432 57.7569883,144.247723 C58.8430517,146.892173 58.3313092,149.954082 56.4510217,152.061713 C55.8563405,152.826125 55.3549425,154.354949 54.4221092,152.316517 C54.2705238,152.061713 54.0606363,152.146648 53.6408613,153.36 Z M50.3759447,140.838202 C50.7840593,146.031351 50.7840593,146.031351 53.3376905,148.809928 C51.5303259,146.189087 51.6702509,143.592513 50.3759447,140.838202 Z" id="Shape" fill="#FFFFFF"></path>
            <path d="M44.0522767,141.84 C42.4633767,139.390563 43.2265492,136.475733 40.8369436,134.491689 C41.9603687,136.552636 42.5732074,138.84322 42.62602,141.178652 C39.7359735,137.333036 37.5340333,133.254723 37.4589671,128.551804 C37.2800128,127.003694 38.3867195,125.595316 39.9611719,125.367536 C41.4098904,125.033152 42.9098307,125.677409 43.639413,126.947423 C46.3918382,130.327646 48.4311351,133.854835 47.1049666,138.22708 C46.5059813,139.718645 45.4365877,140.984294 44.0522767,141.84 L44.0522767,141.84 Z M41.5500719,133.18124 L40.3865467,129.752028 C39.8610837,130.903264 40.3615247,132.127982 41.562583,133.18124 L41.5500719,133.18124 Z" id="Shape" fill="#FFFFFF"></path>
            <path d="M13.1324602,119.565075 C14.2224459,119.429102 15.3298454,119.602319 16.3196909,120.063615 C21.1069888,122.307047 23.881299,126.021174 27.0040108,129.44864 C27.7653331,130.283695 27.3782201,131.592364 25.1329645,131.716999 C21.3583442,132.030828 17.6503104,130.613911 15.1196405,127.890701 C13.5159377,126.178504 12.3259487,124.143661 11.6356231,121.933142 C11.2485101,120.736645 11.8549872,120.001297 13.1324602,119.565075 Z" id="Path" fill="#C4C3C6"></path>
            <path d="M28.4503579,115.32606 C31.3857869,113.715036 33.1004066,114.552261 34.5406872,116.594583 C36.6393817,119.613667 38.2716997,122.645437 36.9823057,126.324153 C36.4781028,127.534158 35.7441398,128.651101 34.8150263,129.622312 C34.4012096,129.921395 33.9380608,130.156967 33.4433305,130.32 C33.4433305,129.317867 31.3857869,129.876017 31.4818056,129.051477 C31.9344652,125.245909 28.2171696,122.594696 28.08,118.903295 C28.08,117.634772 28.9030175,116.44236 28.4640748,115.224578 L28.4503579,115.32606 Z" id="Path" fill="#FFFFFF"></path>
            <path d="M8.09233395,108.048108 C9.28834715,107.867336 10.5060157,108.20115 11.4297991,108.96305 C14.7309364,111.459592 17.5607555,114.497052 19.7924971,117.93937 C20.6300359,119.175778 20.0716767,120.276181 17.74941,120.239088 C14.6108889,120.244089 11.6496809,118.822086 9.74203157,116.39386 C8.28806218,114.590346 7.21812883,112.522249 6.5949161,110.310734 C6.22690663,109.160875 6.74719588,108.517943 8.09233395,108.048108 Z" id="Path" fill="#C4C3C6"></path>
            <path d="M33.1744113,134.314285 C33.472527,129.007577 40.4161402,128.312215 40.4161402,128.312215 C40.4161402,128.312215 57.0609374,123.725267 59.0483759,123.725267 C69.5321138,123.725267 68.1781714,105.426273 60.4520043,93.9467046 C45.5462158,79.0513237 47.5088112,51.6150324 56.973987,39.2693112 C62.0295336,32.6694742 69.308527,28.6314962 77.158909,26.399019 C87.6942289,6.3250711 110.896809,-4.00477255 133.212456,1.44384679 C155.528103,6.89246613 171.104238,26.6905747 170.84179,49.2727612 C170.850778,55.0677693 169.824961,60.8194332 167.810946,66.2664267 C175.574179,78.2605105 175.116625,93.6888962 166.655748,105.218885 L148.495529,116.857045 C149.625884,116.979038 171.127484,123.66427 172.220575,124.018051 C175.549535,125.103791 185.76,128.312215 185.76,128.312215 C185.76,128.312215 182.580098,137.083533 181.362792,141.255703 C172.667749,171.009867 156.209274,192.932061 129.105582,200.324855 C120.656327,202.707596 111.897372,203.862515 103.107403,203.752866 C82.5948505,203.46937 63.3701251,193.880293 51.0365145,177.780495 C41.7328182,165.556767 32.3173284,149.478051 33.1744113,134.314285 Z" id="Path" fill="#000000"></path>
            <path d="M157.408322,29.52 L157.68,29.069226 C157.03036,28.5502753 156.535988,27.8747781 156.247517,27.1119178 C155.671809,26.7870036 155.281055,26.2283304 155.185503,25.5935212 C143.157584,12.0228511 129.635436,7.289724 115.026577,8.96233282 C112.496708,9.26432337 110.083331,10.1606767 108,11.5720771 C120.497181,9.74525609 132.055839,13.5886976 143.145235,23.0786767 C148.060134,24.4547237 152.950336,25.9493954 157.408322,29.52 Z" id="Path" fill="#C4C3C6"></path>
            <path d="M64.4628687,84.24 L63.8826784,84.24 C63.7639016,83.4210364 63.4050411,82.6519539 62.8484262,82.0234688 C62.8634437,81.3666259 62.5602709,80.7406157 62.028592,80.3306236 C56.075335,63.2803837 59.3042202,50.2247715 69.1548425,39.9337339 C70.9249884,38.1182959 73.1422295,36.7650261 75.6,36 C66.7710171,44.5251199 63.8700656,55.6808483 66.480922,69.61333 C65.0052205,74.156001 63.6304218,78.7717445 64.4628687,84.24 Z" id="Path" fill="#C4C3C6"></path>
            <path d="M157.522993,147.267473 C155.506,139.563163 156.975168,131.445036 152.629916,123.12 C151.223001,134.073995 149.143754,143.944761 145.084866,153.304341 C135.722031,174.920223 114.879762,186.872249 92.7924364,183.293944 C90.1265015,182.812104 87.5358675,181.993854 85.0855284,180.859723 C114.780158,176.42944 136.456615,163.588925 145.035063,133.392413 C113.659606,165.487617 80.8647824,162.907343 46.8,141.145407 C49.6013801,152.330652 60.620142,159.268182 87.3888854,166.875123 C80.0803959,171.256721 74.9383071,170.416915 49.2029616,160.594833 C70.0078781,195.124258 104.533332,209.157542 140.527954,185.655138 C161.918047,171.682709 168.516854,150.030313 166.773773,126.442712 C166.71152,125.554221 166.562113,124.215399 165.142747,124.203228 C163.324963,124.203228 163.188006,125.700274 163.138204,126.844358 C162.852457,133.976907 160.933612,140.95595 157.522993,147.267473 Z" id="Path" fill="#C4C3C6"></path>
            <path d="M104.4,184.134145 C121.97548,182.715024 137.439418,171.325033 145.140335,153.283682 C147.577053,147.450813 149.420373,141.390405 150.642764,135.19297 C151.84157,131.815829 152.853313,128.375993 153.673447,124.888916 C156.766235,132.589191 155.710464,140.042663 157.548748,147.16295 C160.270293,142.018387 162.02148,136.422536 162.715814,130.651782 C163.714965,128.446425 164.545373,126.169381 165.199981,123.84 C166.553852,123.84 166.702902,125.222101 166.765006,126.098254 C167.306325,132.867356 167.047868,139.676151 165.994914,146.385518 C161.662062,157.12652 154.091301,166.273135 144.32056,172.571391 C130.545855,181.666108 117.019567,185.207741 104.4,184.134145 Z" id="Path" fill="#FFFFFF"></path>
            <path d="M88.2980902,167.376441 C75.3402072,163.707268 66.0898908,160.038095 59.6791487,156.136541 C57.6951666,153.462122 55.8021171,150.608321 54,147.575138 C67.7514758,152.870977 75.6006049,155.561704 81.0441557,156.246617 C102.123965,160.99208 122.62098,155.855238 142.56,136.8 C131.685298,155.512782 113.234265,164.39218 89.7488771,167.926817 C92.1820808,169.073507 94.7590265,169.896083 97.4120078,170.372932 C106.524023,171.899634 115.891138,170.671718 124.282565,166.850526 C114.970249,173.956491 103.388754,178.286115 90.0588743,180.72 C82.8238364,177.774232 76.1996237,173.541381 70.5166508,168.232581 C79.7173677,170.886617 83.5489331,170.250627 88.2980902,167.376441 Z" id="Path" fill="#FFFFFF"></path>
            <path d="M115.478732,72.3932123 C117.402239,72.6384917 120.712168,72.9328269 123.984626,73.4724414 C127.257085,74.0120559 128.568566,72.9205629 127.819148,69.7932515 C127.182012,66.2204751 124.63257,63.2625212 121.149328,62.0546888 C113.792542,59.4302001 106.498207,56.5236401 99.0040274,54.3897099 C89.349026,51.6671094 72.1373933,63.7839081 72,72.883771 C72,75.6308994 73.0741658,78.4516116 74.6354532,77.9855809 C78.0702855,76.9554078 83.6534494,75.8271229 87.1257526,76.8327681 C90.5980559,77.8384133 91.5972799,79.788384 92.1218724,83.749645 C92.6714456,87.9929774 89.93607,86.4722455 86.7135728,87.9439215 C84.4153577,88.9740947 80.8806029,88.4467441 78.382543,88.3486324 C72.7619083,88.127881 72.1373933,91.4268879 73.1116367,96.1730428 C75.1850264,106.634206 78.5574072,116.641602 85.4520525,125.32449 C94.1952621,136.263948 106.685562,137.796944 117.739477,128.709345 C130.641956,118.076486 136.150178,103.960661 137.47415,88.4222162 C137.936291,83.0138071 134.876167,79.9723435 129.592771,82.5968322 C123.047854,85.8467833 116.490447,88.3363684 109.308524,86.8033726 C108.281722,86.6485655 107.234117,86.6902101 106.223421,86.9260123 C103.875244,87.3429871 101.327223,89.5382371 99.8283872,85.6996157 C98.3295513,81.8609943 98.2046483,78.4516116 101.789364,75.778067 C105.37408,73.1045224 109.608292,72.3196285 115.478732,72.3932123 Z M104.699604,105.7512 C101.564539,110.031325 97.9173714,111.012442 93.4583345,109.945477 C91.0477067,109.36907 89.4739289,107.934186 89.7112446,105.420073 C90.1109342,100.759766 90.5730753,96.099459 90.9602746,91.4268879 C91.8161665,92.9664844 92.1898546,94.7200045 92.0344403,96.467378 C92.1843239,107.517212 92.1843239,107.517212 104.699604,105.7512 Z M86.9758691,115.942556 C90.7229589,117.953847 98.067255,112.52091 100.715198,113.931266 C104.462288,115.942556 111.656701,114.65484 113.205498,113.931266 C105.711318,121.964164 94.4700487,125.974481 86.9758691,115.942556 Z" id="Shape" fill="#C4C3C6"></path>
            <path d="M70.6612486,46.8242133 C72.4725851,42.6635921 75.4033979,39.0819064 79.1303124,36.4743457 C79.5754019,34.3945269 80.5273988,32.5731471 80.9972155,30.5302482 C89.3920977,10.5319904 112.598569,8.37833181 130.093058,23.8354468 C124.183259,24.2784851 118.817458,25.9275722 114.502563,30.0625966 C113.352299,31.168969 112.266646,32.3400159 111.250937,33.5699834 C111.968025,33.7915025 112.685114,34.0376349 113.402202,34.296074 L116.456011,36.4374259 C120.715202,31.5928789 127.003618,29.0071625 133.455956,29.4472656 C139.563799,29.5144289 145.375418,32.0775565 149.528632,36.5358788 C159.543145,47.0334259 162.634045,66.7486315 150.567174,72.9019416 L150.567174,72.9019416 C147.726425,73.5751408 144.771566,73.6171586 141.912656,73.0250078 C132.887231,70.9821088 124.739621,64.8657186 122.526537,53.2359625 C121.376722,47.1564921 123.330171,42.1600043 127.991247,40.744743 C132.621048,39.3664687 137.623162,40.0438005 141.714839,42.6030426 C145.313738,44.572305 147.674614,48.2129484 147.995546,52.2883527 C148.391181,56.4479903 146.994095,59.4754189 143.95265,60.9891332 C140.911205,62.5028475 137.770852,62.3305548 134.605771,59.4508057 C132.497095,57.504547 131.736555,54.5053392 132.664686,51.7960879 C133.122922,50.5312896 134.080957,49.5081014 135.316255,48.964193 C136.551552,48.4202846 137.9566,48.4029945 139.205029,48.9163388 C141.677748,49.9993214 142.011565,52.3868057 142.172292,54.77429 C142.172292,55.291168 141.937384,55.8695792 142.506109,56.361844 C144.805738,54.0851193 144.509012,49.7901088 141.714839,46.9103597 C138.599213,43.6983318 135.533041,44.3259694 132.639959,45.4335653 C129.746877,46.5411611 128.028337,50.1962273 128.461063,53.1498161 C129.586151,60.8537604 140.218844,68.3607987 145.695917,65.3210635 C151.877715,61.9121297 152.137351,50.1100809 146.005007,43.8706245 C139.464664,37.2250496 132.405051,35.5144294 125.295983,37.5942482 C119.584001,39.2925618 117.618189,44.4736489 118.186914,51.599182 C118.186914,52.3991123 118.632004,53.285189 118.186914,54.1220391 C115.912013,51.6607151 113.698929,49.199391 111.424027,46.83652 C110.570939,45.9381367 110.880029,45.4458719 111.238573,44.6705548 C111.386936,44.3259694 111.560027,43.9936907 111.720753,43.6614119 C109.37167,45.3597255 106.478588,45.1751262 103.066236,44.4490356 C90.5790029,41.7784991 78.9324948,42.4184433 70.1667048,51.759168 C69.1281627,49.4455234 70.9208842,48.5717534 70.6612486,46.8242133 Z" id="Path" fill="#C4C3C6"></path>
            <path d="M141.832177,42.5710691 C145.429441,44.4891324 147.789245,48.0351223 148.110031,52.0045697 C148.29286,53.877678 148.092678,55.515074 147.524139,56.8800378 C147.25845,56.8457961 146.985386,56.7702394 146.70891,56.6461963 C145.603338,56.1436997 144.429429,55.6834133 143.279552,55.1842202 C144.827553,52.8604266 144.321137,49.2660317 141.832177,46.7663998 C140.286347,45.2134685 138.752697,44.5820045 137.246341,44.4717851 C134.584928,43.1758938 130.559946,41.9302612 128.1689,42.8244522 C126.998221,43.2622568 126.080375,42.7988726 125.60265,42.022454 C126.324263,41.4698452 127.163069,41.0426817 128.114818,40.7610836 C132.742516,39.4186432 137.742358,40.078365 141.832177,42.5710691 Z M139.323507,48.7202252 C141.795103,49.7750512 142.128768,52.100463 142.289422,54.4258748 C142.289422,54.5234805 142.280596,54.623339 142.270509,54.724402 C142.136043,54.6670491 142.005409,54.6045438 141.875619,54.5410569 C140.956205,55.0560703 139.794377,54.9027383 139.050002,54.1681464 C137.698901,52.860186 135.909115,52.0662527 134.006029,51.930684 C133.523653,51.8936705 133.113436,51.7578597 132.776324,51.5550085 L132.786135,51.5251034 L132.786135,51.5251034 C133.244163,50.2931887 134.201763,49.2966025 135.436499,48.7668352 C136.671235,48.237068 138.075645,48.2202274 139.323507,48.7202252 Z M133.577046,29.7573307 C139.682114,29.8227478 145.491093,32.3192363 149.64242,36.6616462 C153.518809,40.6211612 156.35737,45.9270621 157.680128,51.2908354 C154.356997,48.0235168 149.957039,45.3417145 145.344737,43.0620445 C140.129866,38.2299474 134.600929,36.39104 128.991405,36.9898678 C127.142078,36.9854052 125.298642,37.2481138 123.521504,37.7721176 C122.745559,38.0247907 121.88937,37.844727 121.290755,37.3029722 C119.866097,37.9665512 118.344519,38.4128748 116.779683,38.6262027 C116.175598,38.7128451 115.558608,38.6379846 114.995083,38.4096741 C114.478991,38.4412574 113.966162,38.3104847 113.532702,38.0367637 C108.327619,34.8730399 100.817428,34.6444819 94.7324382,34.6685406 C87.891472,34.6685406 81.4099043,36.2564172 76.4031102,40.6832247 C75.7020186,41.3085649 74.8873596,41.4445983 74.1597045,41.2739711 C75.6204246,39.4965046 77.3408807,37.9210849 79.2760794,36.6017129 C79.5746918,35.2420145 80.101573,33.9957213 80.5577649,32.7214702 C84.2120148,31.2157972 88.2134981,30.4485759 92.42733,30.2297037 C98.6038778,29.9088855 106.424586,30.1228228 112.539076,32.4662086 C112.142798,32.8943971 111.757672,33.3297027 111.382113,33.7728614 C112.098876,33.9886213 112.815638,34.2283545 113.532401,34.4800743 L116.584822,36.565753 C120.842078,31.8471599 127.127638,29.3286698 133.577046,29.7573307 Z M130.215675,24.2914142 C128.777381,24.3964827 127.371324,24.5711929 126.004817,24.8335394 L126.533017,24.9728698 C115.119013,21.9895865 101.536225,17.4785734 90.5931579,21.3640594 C89.6259222,21.7074107 88.7819345,21.399968 88.2249944,20.8130696 C99.0534613,11.2113025 116.413133,12.407954 130.215675,24.2914142 Z" id="Combined-Shape" fill="#FFFFFF"></path>
            <path d="M163.372085,88.935918 C163.85198,84.2057522 161.766671,79.5644027 157.812924,76.5626853 C157.351796,76.1928008 157.018759,76.2405278 156.532012,76.7416617 C156.492592,76.7843739 156.449773,76.8242592 156.403921,76.8609792 C155.494473,78.054155 153.445012,78.841651 153.176021,79.8916457 C152.907029,80.9416404 154.866825,81.3592519 155.609755,82.2779972 C158.334083,85.2378509 159.1054,89.3474036 157.620788,92.9927156 C155.763464,97.6938281 150.614196,101.022788 144.414579,101.344946 C142.543555,101.464982 140.670439,101.140651 138.9707,100.402337 C136.874269,99.6270557 135.400218,97.8466229 135.127962,95.7608834 C135.031474,95.311974 134.9031,94.8695262 134.743688,94.4364583 L134.295369,94.4364583 C133.39873,96.1307678 134.295369,97.3478071 135.038298,98.5290511 C137.741024,102.52619 144.184014,104.029591 150.25554,102.168237 C150.429636,102.144055 150.606619,102.144055 150.780714,102.168237 L153.521867,100.975061 C154.542701,100.122234 155.649403,99.3630462 156.826622,98.7080275 L157.672024,98.0517808 C159.756466,96.0493207 161.470465,93.7390931 162.744438,91.2148837 L163.372085,88.935918 Z" id="Path" fill="#FFFFFF"></path>
            <path d="M146.31721,101.154997 C144.227804,100.467009 142.344526,99.2466398 140.845128,97.6090727 C137.323855,93.6621961 140.145781,89.1765395 145.004401,86.7081754 C147.544135,85.4551987 150.145214,84.8788295 152.096024,86.6455266 C153.470914,87.555668 153.991614,89.3530063 153.322949,90.8805878 C152.460163,93.1744213 150.577874,94.9105028 148.255751,95.5541909 C147.690592,95.7996858 147.064984,95.8609494 146.464441,95.7296077 C147.682166,94.4879794 148.719248,93.0744351 149.544021,91.5321357 C150.464215,89.364486 149.384521,87.8734438 146.992019,88.1490986 C144.622785,88.5383557 142.638405,90.1920693 141.789859,92.484398 C141.370661,93.5668408 141.414736,94.7791345 141.911381,95.826851 C142.408025,96.8745675 143.311801,97.6618512 144.403208,97.9974955 C147.543614,98.8233783 150.87981,97.9645411 153.261602,95.7170779 C155.760854,93.7988814 156.823698,90.4926252 155.924028,87.4349019 C155.351412,85.3356968 154.256693,83.4235039 152.746294,81.8842151 C152.16964,81.245197 151.617524,81.1700184 150.635984,81.7714472 C149.570771,82.3896235 148.408273,82.8136174 147.200596,83.0244239 C143.298976,83.77621 137.385201,89.2893074 136.415931,92.8477613 C135.593891,96.0303221 136.231892,98.5738648 138.869779,100.265383 C140.55315,101.120406 142.412958,101.550111 144.292785,101.51836 C144.949557,101.521259 145.60566,101.475194 146.255864,101.380533 C146.267937,101.303236 146.288516,101.227578 146.31721,101.154997 L146.31721,101.154997 Z" id="Path" fill="#C4C3C6"></path>
            <path d="M135.28741,93.5113043 C136.620058,88.8283404 139.740671,84.8300634 144,82.348323 C143.883832,81.6640994 142.709246,82.2089441 142.851229,81.36 L142.851229,81.36 C141.448243,81.6723669 140.179985,82.4078459 139.22421,83.463354 C136.139308,86.5423602 134.061194,89.7987578 134.784016,93.6 L135.28741,93.5113043 Z" id="Path" fill="#C4C3C6"></path>
            <path d="M114.048826,91.6071414 C116.788857,91.490985 118.045752,91.4651724 120.056784,91.4522662 C121.296271,91.489083 122.534947,91.3545114 123.739487,91.052172 C124.032917,90.9771911 124.322387,90.8867272 124.606745,90.7811404 C126.479519,90.3810462 127.698707,88.9226384 129.181843,89.3614514 C129.520609,89.4722494 129.836107,89.6473657 130.111946,89.8777019 C130.275755,90.9358782 130.343081,92.0074377 130.313049,93.0784555 C130.313049,93.3882058 130.313049,93.6721436 130.212497,93.9560814 C129.194412,96.1501464 127.887241,98.1506173 126.743467,100.538276 C126.605208,100.809308 126.454381,101.067433 126.303553,101.325558 C125.731031,102.319404 125.043082,103.238173 124.254814,104.061686 C123.990866,104.319812 123.714349,104.577937 123.412694,104.823156 C122.683695,104.9135 121.866713,105.029656 120.999456,105.12 L120.132198,105.12 L118.988424,104.874781 C115.623637,103.343533 112.835425,100.729651 111.044846,97.4278665 C111.044846,97.1181162 110.99457,96.8212721 110.894019,96.5373343 C110.875327,96.1977403 110.875327,95.8573334 110.894019,95.5177394 C110.905601,94.0249256 111.647043,92.6380268 112.867344,91.8265478 C113.255398,91.7237558 113.650291,91.6504223 114.048826,91.6071414 L114.048826,91.6071414 Z" id="Path" fill="#FFFFFF"></path>
            <path d="M77.2016975,93.5287056 C78.9985691,93.4136142 79.8278945,93.3752504 81.1472757,93.3240987 C81.9659397,93.306349 82.7815566,93.2164981 83.5849896,93.0555523 L84.1504387,92.9148851 C85.4069923,92.6974903 86.2363176,92.0197302 87.1912983,92.1859733 C87.4035739,92.2133162 87.6085031,92.2828349 87.794444,92.3905801 C87.8551853,92.8574333 87.8551853,93.3303988 87.794444,93.797252 C87.7724701,93.9309715 87.7431039,94.0633236 87.7064853,94.1936777 C86.9776842,95.191136 86.0729656,96.0990788 85.1933782,97.1860525 L84.8918053,97.5441144 C84.4636916,98.0196808 83.9877914,98.4482852 83.4718998,98.8229071 L82.9064507,99.1681811 C82.4163948,99.1681811 81.8760768,99.3088483 81.3106277,99.36 L80.732613,99.36 L79.9912464,99.2832724 C78.0300446,98.8195302 76.2676815,97.7254621 74.9650322,96.1630184 C74.9532648,96.0327912 74.9279931,95.9041963 74.889639,95.7793806 C74.876787,95.6304748 74.876787,95.480709 74.889639,95.3318032 C74.889639,94.7307706 75.2917361,94.155314 76.2844134,93.6437969 L77.2016975,93.5287056 Z" id="Path" fill="#FFFFFF"></path>
            <path d="M96.0467122,73.1803631 L94.6269226,70.6154668 C94.1335475,69.5559349 93.4488309,68.6027862 92.6093269,67.8069053 C91.2536883,66.8416695 89.5978142,66.430253 87.9638749,66.652702 C86.3323623,66.7681223 84.713304,67.1785057 83.0817914,67.2041547 C82.4217138,67.2041547 81.6370932,67.0759099 81.3880073,66.4346858 C80.9396527,65.1522376 86.0085507,62.2795537 86.9924399,61.4972604 C95.062823,55.0850196 104.82699,59.8300778 112.872464,63.0874961 C115.93036,64.140313 118.818404,65.6575138 121.441019,67.5888891 C121.991265,67.9161132 122.349888,68.5012111 122.4,69.1534759 C122.32461,69.7852138 121.870354,70.2992337 121.266659,70.435924 C120.681437,70.5125197 120.087085,70.460061 119.523058,70.2820303 C116.941322,69.6373003 114.313219,69.2084222 111.664398,68.9995821 C109.510825,68.9549602 107.377381,69.4338753 105.437251,70.3974506 C103.394746,71.4105846 101.887776,73.1547141 99.9449065,74.2447951 C99.1453013,74.9142686 98.0494912,75.0676889 97.1053273,74.642354 C96.758294,74.3390828 96.4780661,73.963084 96.2833438,73.5394486 L96.0467122,73.1803631 Z" id="Path" fill="#FFFFFF"></path>
            <path d="M99.6852378,92.2802624 C99.8337934,94.7990705 99.813986,97.3301058 100.051675,99.9222772 C100.408209,103.896125 97.2885402,102.074269 96.8923918,99.5554605 C96.6077675,97.693388 96.4717657,95.8013374 96.4863397,93.9064832 C96.4536304,93.0770716 96.5477037,92.2474721 96.7636436,91.4610384 C97.3182513,89.7247727 99.0613041,89.3579559 99.5564895,91.3387662 C99.6261849,91.6461127 99.6693413,91.961702 99.6852378,92.2802624 L99.6852378,92.2802624 Z" id="Path" fill="#FFFFFF"></path>
            <path d="M164.205666,192.511167 C160.778065,192.562977 157.364034,192.073025 154.092012,191.059745 L154.092012,191.059745 L153.322629,190.813741 C152.168556,191.527152 151.002073,192.228263 149.810771,192.929373 C148.01141,193.974889 146.57192,195.389411 144.73533,196.398026 C143.730169,196.963835 142.427183,197.812548 141.235881,196.828533 C140.702278,196.385726 140.727096,195.598514 140.205902,195.204908 C136.135621,191.736255 135.800568,192.609569 133.244233,189.054815 C132.996045,188.698109 132.561716,183.49513 132.48726,183.089224 C132.432485,182.494417 132.690346,181.913526 133.169776,181.551701 C134.410716,180.432384 136.470675,180.063378 137.972211,179.190065 L138.121124,179.103963 C136.100702,175.387505 136.330205,170.866259 138.716775,167.369585 C141.276776,163.507414 144.781742,160.350661 148.904886,158.193646 C150.371106,157.397385 151.974689,156.880077 153.632864,156.668423 C155.27294,153.962338 157.371991,151.557189 159.83756,149.558915 C161.322348,148.225485 163.131147,147.297255 165.086733,146.865174 C166.424632,143.620132 168.526583,140.739568 171.216973,138.464146 C172.297615,137.485908 173.562849,136.729268 174.939791,136.237813 C175.73129,133.567407 177.014517,131.065241 178.724655,128.857701 C179.877811,127.256339 181.435588,125.983755 183.241674,125.167645 C183.671186,123.222145 184.41276,121.357532 185.438137,119.644861 C186.920806,118.296743 188.244641,116.786492 189.384323,115.142992 L189.570464,115.01999 L189.570464,114.810887 C191.393746,112.089652 192.682085,109.051558 193.367738,105.856351 C195.226089,103.558523 198.040816,102.226952 201.011924,102.24 C204.237247,102.274505 207.347505,103.432764 209.797773,105.511946 L211.659182,106.951068 L211.832914,107.504576 C213.811932,106.859858 215.916498,106.687074 217.975563,107.000269 L218.583623,107.08637 L219.166865,107.246272 C224.713863,108.759195 227.741755,112.928959 226.538044,117.393927 C225.87436,120.182312 224.650408,122.809476 222.93932,125.118444 C222.641494,125.49975 222.31885,125.856455 221.996206,126.21316 C222.19135,127.31902 222.131961,128.454287 221.822475,129.534211 C221.075699,132.394516 219.688779,135.051456 217.764603,137.307929 C217.379912,137.750736 216.982812,138.156642 216.585711,138.537948 C216.883906,140.023557 216.701513,141.564554 216.064517,142.941414 C214.473032,146.587135 211.970278,149.770596 208.792613,152.191155 C208.890613,153.795373 208.482969,155.390104 207.62613,156.754524 C206.693022,158.323371 205.585843,159.783868 204.325232,161.10879 C202.849823,162.646122 201.181636,163.989596 199.361475,165.106351 C199.371881,167.074721 198.636779,168.975314 197.301516,170.432332 L197.189831,170.567634 C196.353434,171.631372 195.427698,172.623026 194.422537,173.531979 C192.521695,175.251836 190.397419,176.712093 188.106156,177.873945 C187.972326,179.667513 187.2286,181.36303 185.996559,182.683318 C184.026528,184.839463 181.732783,186.681544 179.196212,188.144601 C174.670334,190.87389 169.501683,192.379456 164.205666,192.511167 Z" id="Path" fill="#040404"></path>
            <path d="M197.894039,119.345148 C199.234668,119.096082 198.947391,120.354522 199.521946,120.813328 C201.161822,122.124202 202.574271,121.953789 202.897458,120.26276 C203.711411,116.002418 205.291438,111.794511 203.974749,107.285103 C201.580769,105.240138 200.683026,105.345008 199.402247,107.7308 C198.490091,109.826414 197.787755,112.024006 197.307514,114.285173 C197.080086,116.015527 198.348896,117.680338 197.953889,119.423801 L197.894039,119.345148 Z" id="Path" fill="#FFFFFF"></path>
            <path d="M206.626464,115.973292 C205.608367,115.65722 205.384882,116.824255 205.049655,117.444242 C203.038292,121.152009 201.213166,124.932715 199.027981,128.555386 C192.871109,138.709179 185.611202,148.18153 177.374788,156.807352 C173.116161,161.280986 168.174664,165.207571 163.717384,169.498856 C163.493899,169.705518 163.220751,170.009433 162.736534,169.814927 C158.907992,173.461827 154.672364,176.675193 150.109643,179.394338 C148.967388,180.087265 148.520418,181.752721 146.384897,181.400179 C146.384897,182.61584 144.907414,182.931912 144.075554,183.44249 C141.915201,184.755404 139.730016,186.056161 137.52,187.320449 C138.147763,188.205422 138.719948,189.126975 139.233383,190.08 C142.51116,188.195725 145.739274,186.214197 148.880477,184.147573 C162.549659,175.150778 174.808449,164.253607 185.271251,151.798828 C193.260812,142.196459 200.108714,131.735291 205.682862,120.617118 C206.109169,119.804694 206.454278,118.953827 206.713375,118.076386 C206.949276,117.371303 208.091531,116.41093 206.626464,115.973292 Z" id="Path" fill="#C4C3C6"></path>
            <path d="M152.456187,186.839819 C150.669072,187.754538 152.061789,187.945105 152.998485,188.237307 C159.250991,190.340492 166.087664,189.460176 171.646115,185.836168 C173.69087,184.61549 175.540804,183.077118 177.130712,181.275274 C178.511105,179.66181 177.845559,178.188095 175.405221,177.629099 C172.984215,176.9503 170.431265,176.9503 168.010259,177.629099 C162.299538,179.529825 156.848617,182.176962 151.790641,185.505852 C150.558147,186.331641 151.531817,186.255414 152.209689,186.382459 C152.941988,185.801644 153.938105,185.721893 154.748626,186.179188 L152.456187,186.839819 Z" id="Path" fill="#C4C3C6"></path>
            <path d="M146.619995,181.380282 C148.887375,178.958429 151.233392,176.583833 153.382816,174.114725 C155.002922,172.466881 156.003043,170.399211 156.24,168.207768 C156.245616,166.843247 155.24446,165.641605 153.789109,165.266104 C152.434099,164.684041 150.843499,164.764189 149.5689,165.478754 C146.020144,167.183811 143.0082,169.671165 140.813931,172.708869 C138.69072,175.57965 139.581944,179.123824 143.212373,182.16 L145.833621,178.89936 C145.217628,181.415723 145.217628,181.415723 146.698633,181.40391 L146.619995,181.380282 Z" id="Path" fill="#FFFFFF"></path>
            <path d="M168.294453,175.989438 C174.742364,177.317343 181.437739,175.379068 186.126654,170.827111 C186.927563,170.096277 187.668623,169.304437 188.342942,168.458957 C188.992543,167.631982 189.922365,166.792477 188.91612,165.689845 C188.023668,164.690259 186.727196,164.130567 185.375154,164.161194 C183.518715,164.175408 181.683403,164.55012 179.974545,165.263827 C175.198062,167.105725 171.274978,169.899897 167.237258,172.54371 C166.090903,173.295506 166.332911,174.260309 166.358386,175.049694 C166.38386,175.839079 167.708538,175.626071 168.294453,175.989438 Z" id="Path" fill="#C4C3C6"></path>
            <path d="M181.455381,163.099843 C188.651926,164.334252 193.380032,162.099972 197.125674,158.16221 C198.127664,157.093148 199.005256,155.912853 199.741484,154.644146 C200.883597,152.718468 199.606395,151.249522 196.90462,151.200146 C195.236883,151.190949 193.595226,151.616237 192.139672,152.434554 C188.092711,154.714122 184.353394,157.506097 181.013273,160.742123 C179.613262,162.013564 179.57642,162.87765 181.455381,163.099843 Z" id="Path" fill="#C4C3C6"></path>
            <path d="M162.880635,170.264096 C163.662796,167.828753 165.661652,165.953539 166.890763,163.7252 C167.958475,161.801279 169.162754,159.950418 169.2,157.734256 C169.2,156.455701 169.113093,155.213676 167.387373,154.543957 C165.858398,153.757479 163.992117,153.985675 162.706822,155.116263 C160.012712,157.551606 157.393093,159.926065 156.499194,163.238131 C155.741864,166.148366 156.586101,168.742006 159.801652,171.36 C159.603008,169.095131 163.526229,167.91399 160.459661,165.503 C162.681991,165.917009 162.694407,165.917009 162.222627,167.232094 C161.974322,167.938343 161.651525,168.620239 161.353559,169.314312 C160.596228,171.055582 162.073644,170.288449 162.917881,170.239742 L162.880635,170.264096 Z" id="Path" fill="#FFFFFF"></path>
            <path d="M207.865725,139.660668 C208.638842,137.818908 207.201328,137.154872 205.449735,136.854177 C203.991816,136.651353 202.513531,137.022369 201.306312,137.894082 C197.693106,140.498011 194.363629,143.501741 191.376592,146.852303 C190.810899,147.442151 190.643974,148.327589 190.953794,149.09499 C191.147073,149.8342 192.282588,149.646266 193.019465,149.708911 C200.702314,150.322831 205.353095,145.311238 207.865725,139.660668 Z" id="Path" fill="#C4C3C6"></path>
            <path d="M174.679,159.065867 C176.539008,156.084065 178.09787,152.881747 179.327151,149.517322 C179.921559,147.930792 180.127422,146.196365 179.923645,144.491773 C179.788573,143.213112 178.912,142.188456 177.774016,141.978998 C176.732316,141.62642 175.601504,141.956576 174.847819,142.833341 C172.852814,144.715502 171.306201,147.1197 170.345978,149.831419 C169.413869,152.621197 170.040086,155.762072 171.944131,157.847171 C172.563135,158.626132 173.069592,160.171488 173.913687,158.03563 C174.014978,157.696405 174.217561,157.80948 174.679,159.065867 Z M177.256304,145.986874 C177.09874,151.376776 177.09874,151.376776 174.769037,154.354414 C176.3897,151.527542 176.142098,148.826309 177.256304,145.924054 L177.256304,145.986874 Z" id="Shape" fill="#FFFFFF"></path>
            <path d="M183.57486,146.16 C185.001091,143.727088 184.118762,140.807594 186.330629,138.727454 C185.347831,140.823421 184.879437,143.126246 184.964831,145.442291 C187.57556,141.525303 189.497346,137.401517 189.352306,132.742491 C189.44089,131.204837 188.332093,129.860396 186.814097,129.664857 C185.408004,129.376616 183.983689,130.068474 183.333126,131.355731 C180.843264,134.810466 179.054432,138.386846 180.541096,142.668771 C181.167055,144.121687 182.227511,145.34205 183.57486,146.16 L183.57486,146.16 Z M185.569166,137.474504 L186.536103,134.068428 C187.104178,135.151073 186.681144,136.391858 185.569166,137.474504 Z" id="Shape" fill="#FFFFFF"></path>
            <path d="M212.30112,124.584766 C211.274269,124.485205 210.240636,124.687198 209.327366,125.165897 C204.94563,127.514636 202.505938,131.219349 199.738526,134.645602 C199.058811,135.480978 199.483633,136.740096 201.595605,136.788524 C205.12289,136.947592 208.520471,135.445879 210.771761,132.732711 C212.19346,131.008206 213.213325,128.990205 213.757653,126.824543 C214.061097,125.650173 213.514897,124.96008 212.30112,124.584766 Z" id="Path" fill="#C4C3C6"></path>
            <path d="M197.555828,118.862591 C194.907896,117.290136 193.458123,118.228323 192.295909,120.421832 C190.606505,123.646027 189.312493,126.857007 190.606505,130.636185 C191.109997,131.86435 191.803271,132.986625 192.655357,133.952877 C193.018234,134.2522 193.422927,134.484284 193.853516,134.64 C193.853516,133.596101 195.626791,134.111444 195.494994,133.226112 C194.943841,129.354436 198.059054,126.39452 197.999146,122.654983 C197.999146,121.333592 197.172417,120.117913 197.49592,118.836163 L197.555828,118.862591 Z" id="Path" fill="#FFFFFF"></path>
            <path d="M87.44967,56.7085385 L87.0273912,56.7102074 C86.9435298,56.0663787 86.6847712,55.4624754 86.281637,54.9697304 C86.2946427,54.4530358 86.075963,53.9615083 85.6902877,53.6405511 C81.4112144,40.2465065 83.8025399,29.9680956 91.0046163,21.8451633 C92.2987144,20.4121067 93.9167608,19.3412907 95.7080124,18.7324763 C89.2550937,25.4634562 87.1084506,34.2465364 88.9646822,45.1978671 C87.8762717,48.7752303 86.86107,52.4097796 87.44967,56.7085385 Z" id="Path-Copy-12" fill="#000000" transform="translate(89.636815, 37.721342) rotate(13.000000) translate(-89.636815, -37.721342) "></path>
            <path d="M121.350397,24.9780884 C124.2348,23.3111708 127.844359,22.0628437 131.842795,21.3494059 C117.458158,29.1804074 112.701172,39.3722419 116.89464,52.0608568 C116.17538,53.2971031 107.670958,53.6867988 106.596858,51.3343788 C104.063484,45.7859551 110.077766,31.6129795 121.350397,24.9780884 Z" id="Path-Copy-23" fill="#000000" transform="translate(118.932663, 37.197881) rotate(13.000000) translate(-118.932663, -37.197881) "></path>
            <path d="M217.944596,111.628273 C216.767127,111.490189 215.586764,111.862413 214.716777,112.646157 C211.607719,115.183314 208.979916,118.230533 206.952566,121.649589 C206.192346,122.861357 206.790552,123.951947 209.058748,123.830771 C212.124953,123.724892 214.962478,122.226516 216.723259,119.783467 C218.067187,117.969073 219.017029,115.907574 219.514886,113.72463 C219.826451,112.609804 219.278096,111.991803 217.944596,111.628273 Z" id="Path" fill="#C4C3C6"></path>
            <path d="M136.41171,132.664276 L135.234511,132.655361 C126.348555,132.588063 118.467624,129.823712 112.282405,125.321417 L111.674003,125.20814 C111.199326,125.204545 110.78161,125.201382 110.345451,125.270525 C110.972167,126.846353 110.591764,133.524063 116.703586,136.059957 C121.348309,137.987127 132.464773,136.222718 134.800638,135.562003 C136.082687,135.207444 137.274848,134.736638 138.34054,134.164035 C138.680769,133.961347 140.227028,132.548279 140.530821,132.55058 C139.16357,132.516076 137.77878,132.67463 136.41171,132.664276 Z" id="Path" fill="#C4C3C6" transform="translate(125.438136, 131.070399) rotate(-62.000000) translate(-125.438136, -131.070399) "></path>
        </g>
    </g>
</svg>