<?xml version="1.0" encoding="UTF-8"?>
<svg width="882px" height="300px" viewBox="0 0 882 300" version="1.1" xmlns="http://www.w3.org/2000/svg" xmlns:xlink="http://www.w3.org/1999/xlink">
    <!-- Generator: Sketch 61 (89581) - https://sketch.com -->
    <title>builders</title>
    <desc>Created with Sketch.</desc>
    <g id="builders" stroke="none" stroke-width="1" fill="none" fill-rule="evenodd">
        <rect id="Rectangle" fill="#000000" fill-rule="nonzero" x="0" y="0" width="882" height="210"></rect>
        <g id="Group-2" transform="translate(514.999670, 0.000000)" fill="#1F232C">
            <rect id="Rectangle" fill-rule="nonzero" x="105.00033" y="105" width="52.5" height="52.5"></rect>
            <path d="M122.50066,52.5 L122.50066,105 L116.66733,105 L116.66733,52.5 L122.50066,52.5 Z M134.16666,52.5 L134.16666,105 L128.33333,105 L128.33333,52.5 L134.16666,52.5 Z M145.83366,52.5 L145.83366,105 L140.00033,105 L140.00033,52.5 L145.83366,52.5 Z M157.50066,52.5 L157.50066,105 L151.66733,105 L151.66733,52.5 L157.50066,52.5 Z M110.83701,52.5 L110.83701,105 L105.00033,105 L105.00033,52.5 L110.83701,52.5 Z" id="Shape" fill-rule="nonzero"></path>
            <path d="M40.83333,105 L40.83333,157.5 L35,157.5 L35,105 L40.83333,105 Z M29.16733,105 L29.16733,157.5 L23.334,157.5 L23.334,105 L29.16733,105 Z M17.50033,105 L17.50033,157.5 L11.667,157.5 L11.667,105 L17.50033,105 Z M5.83333,105 L5.83333,157.5 L-6.92779167e-14,157.5 L-6.92779167e-14,105 L5.83333,105 Z M52.50033,105 L52.50033,157.5 L46.66365,157.5 L46.66365,105 L52.50033,105 Z" id="Shape" fill-rule="nonzero"></path>
            <path d="M355.50533,0.9844 L355.50533,53.4844 L349.672,53.4844 L349.672,0.9844 L355.50533,0.9844 Z M343.83833,0.9844 L343.83833,53.4844 L338.005,53.4844 L338.005,0.9844 L343.83833,0.9844 Z M332.17233,0.9844 L332.17233,53.4844 L326.339,53.4844 L326.339,0.9844 L332.17233,0.9844 Z M320.50533,0.9844 L320.50533,53.4844 L314.672,53.4844 L314.672,0.9844 L320.50533,0.9844 Z M367.17233,0.9844 L367.17233,53.4844 L361.33565,53.4844 L361.33565,0.9844 L367.17233,0.9844 Z" id="Shape" fill-rule="nonzero"></path>
            <path d="M52.50033,163.333 L52.50033,157.5 C81.49533,157.5 105.00033,181.005 105.00033,210 L99.16733,210 C99.16733,184.227 78.27333,163.333 52.50033,163.333 Z M52.50033,175 L52.50033,169.166 C75.05233,169.166 93.33333,187.448 93.33333,210 L87.50033,210 C87.50033,190.67 71.83033,175 52.50033,175 Z M52.50033,180.834 L52.50033,186.667 C65.38733,186.667 75.83333,197.114 75.83333,210 L81.66733,210 C81.66733,193.892 68.60833,180.834 52.50033,180.834 Z M52.50033,198.333 L52.50033,192.5 C62.16533,192.5 70.00033,200.335 70.00033,210 L64.16733,210 C64.16733,203.557 58.94333,198.333 52.50033,198.333 Z M52.50033,210 L52.50033,204.166 C55.72233,204.166 58.33333,206.778 58.33333,210 L52.50033,210 Z" id="Shape"></path>
            <path d="M262.00033,110.833 L262.00033,105 C290.99533,105 314.50033,128.505 314.50033,157.5 L308.66733,157.5 C308.66733,131.727 287.77333,110.833 262.00033,110.833 Z M262.00033,122.5 L262.00033,116.667 C284.55233,116.667 302.83333,134.949 302.83333,157.5 L297.00033,157.5 C297.00033,138.17 281.33033,122.5 262.00033,122.5 Z M262.00033,128.333 L262.00033,134.167 C274.88733,134.167 285.33333,144.613 285.33333,157.5 L291.16733,157.5 C291.16733,141.392 278.10833,128.333 262.00033,128.333 Z M262.00033,145.833 L262.00033,140 C271.66533,140 279.50033,147.835 279.50033,157.5 L273.66733,157.5 C273.66733,151.056 268.44333,145.833 262.00033,145.833 Z M262.00033,157.5 L262.00033,151.667 C265.22233,151.667 267.83333,154.279 267.83333,157.5 L262.00033,157.5 Z" id="Shape"></path>
            <path d="M214.11233,52.5 L210.00033,52.5 L210.00033,48.3875 L258.38733,0 L262.50033,0 L262.50033,4.1125 L214.11233,52.5 Z M250.13333,0 L241.87933,0 L210.00033,31.8791 L210.00033,40.1333 L250.13333,0 Z M233.62533,0 L225.37133,0 L210.00033,15.3708 L210.00033,23.625 L233.62533,0 Z M210.00033,0 L210.00033,7.11666 L217.11633,0 L210.00033,0 Z M262.50033,20.6208 L262.50033,12.3667 L222.36633,52.5 L230.62133,52.5 L262.50033,20.6208 Z M262.50033,37.1291 L262.50033,28.875 L238.87533,52.5 L247.12933,52.5 L262.50033,37.1291 Z M262.50033,45.3833 L255.38333,52.5 L262.50033,52.5 L262.50033,45.3833 Z" id="Shape" fill-rule="nonzero"></path>
            <path d="M157.50033,105 L210.00033,105 L210.00033,52.5 C181.00533,52.5 157.50033,76.0051 157.50033,105 Z" id="Path" fill-rule="nonzero"></path>
            <path d="M262.50033,157.5 L262.50033,105 L210.00033,105 C210.00033,133.995 233.50533,157.5 262.50033,157.5 Z" id="Path" fill-rule="nonzero"></path>
            <path d="M110.83733,204.164 L110.83733,210.001 L105.00033,210.001 L105.00033,204.164 L110.83733,204.164 Z M122.49433,204.164 L122.49433,210.001 L116.65833,210.001 L116.65833,204.164 L122.49433,204.164 Z M134.16833,204.164 L134.16833,210.001 L128.33133,210.001 L128.33133,204.164 L134.16833,204.164 Z M145.82633,204.164 L145.82633,210.001 L139.99033,210.001 L139.99033,204.164 L145.82633,204.164 Z M157.50033,204.164 L157.50033,210.001 L151.66333,210.001 L151.66333,204.164 L157.50033,204.164 Z M151.66333,198.326 L151.66333,204.163 L145.82633,204.163 L145.82633,198.326 L140.00533,198.326 L140.00633,204.163 L134.16933,204.163 L134.16833,198.326 L128.33133,198.326 L128.33233,204.163 L122.49533,204.163 L122.49533,198.326 L128.33233,198.326 L128.33233,192.505 L122.49533,192.505 L122.49533,186.668 L128.33233,186.668 L128.33133,180.832 L134.16833,180.832 L134.16933,186.668 L139.99033,186.668 L139.99033,180.832 L145.82633,180.832 L145.82633,186.668 L151.66333,186.668 L151.66333,180.832 L157.50033,180.832 L157.50033,186.669 L151.66333,186.669 L151.66333,192.489 L157.50033,192.489 L157.50033,198.326 L151.66333,198.326 Z M110.83733,180.832 L110.83733,186.668 L116.65833,186.668 L116.65833,180.832 L122.49433,180.832 L122.49433,186.669 L116.67333,186.669 L116.67333,192.489 L122.49433,192.489 L122.49433,198.326 L116.67333,198.326 L116.67333,204.163 L110.83733,204.163 L110.83733,198.326 L105.00033,198.326 L105.00033,192.489 L110.83733,192.489 L110.83733,186.669 L105.00033,186.669 L105.00033,180.832 L110.83733,180.832 Z M139.99033,192.505 L134.16933,192.505 L134.16933,198.326 L139.99033,198.325 L139.99033,192.505 Z M116.65833,192.505 L110.83733,192.505 L110.83733,198.326 L116.65833,198.325 L116.65833,192.505 Z M134.16833,186.669 L128.33133,186.669 L128.33133,192.489 L134.16833,192.489 L134.16833,186.669 Z M145.82633,186.669 L140.00533,186.669 L140.00533,192.489 L145.82633,192.489 L145.82633,186.669 Z M116.67333,163.337 L116.67333,169.158 L122.49433,169.158 L122.49433,174.995 L116.67333,174.995 L116.67333,180.832 L110.83733,180.832 L110.83733,174.995 L105.00033,174.995 L105.00033,169.158 L110.83733,169.158 L110.83733,163.337 L116.67333,163.337 Z M128.33233,163.337 L128.33133,169.158 L134.16833,169.158 L134.16933,163.337 L140.00633,163.337 L140.00533,169.158 L145.82633,169.158 L145.82633,163.337 L151.66333,163.337 L151.66333,169.158 L157.50033,169.158 L157.50033,174.995 L151.66333,174.995 L151.66333,180.832 L145.82633,180.832 L145.82633,174.995 L140.00533,174.995 L140.00633,180.832 L134.16933,180.832 L134.16833,174.995 L128.33133,174.995 L128.33233,180.832 L122.49533,180.832 L122.49533,174.995 L128.33233,174.995 L128.33233,169.174 L122.49533,169.174 L122.49533,163.337 L128.33233,163.337 Z M139.99033,169.174 L134.16933,169.174 L134.16933,174.995 L139.99033,174.994 L139.99033,169.174 Z M116.65833,169.174 L110.83733,169.174 L110.83733,174.995 L116.65833,174.994 L116.65833,169.174 Z M151.66333,169.174 L145.82633,169.174 L145.82633,174.995 L151.66333,174.995 L151.66333,169.174 Z M110.83733,157.5 L110.83733,163.337 L105.00033,163.337 L105.00033,157.5 L110.83733,157.5 Z M122.49433,157.5 L122.49433,163.337 L116.65833,163.337 L116.65833,157.5 L122.49433,157.5 Z M134.16833,157.5 L134.16833,163.337 L128.33133,163.337 L128.33133,157.5 L134.16833,157.5 Z M145.82633,157.5 L145.82633,163.337 L139.99033,163.337 L139.99033,157.5 L145.82633,157.5 Z M157.50033,157.5 L157.50033,163.337 L151.66333,163.337 L151.66333,157.5 L157.50033,157.5 Z M151.66333,192.505 L145.82633,192.505 L145.82633,198.326 L151.66333,198.326 L151.66333,192.505 Z" id="Combined-Shape" fill-rule="nonzero"></path>
        </g>
        <path d="M63.90625,101 L63.90625,68.3515625 L76.6328125,68.3515625 C78.2578206,68.3515625 79.6640566,68.4648426 80.8515625,68.6914062 C82.0390684,68.9179699 83.1015578,69.3671841 84.0390625,70.0390625 C85.9140719,71.3671941 86.8515625,73.4218611 86.8515625,76.203125 C86.8515625,78.1093845 86.4101607,79.7421807 85.5273438,81.1015625 C84.6445268,82.4609443 83.4375077,83.4296846 81.90625,84.0078125 C83.6406337,84.4921899 85.0195261,85.3671812 86.0429688,86.6328125 C87.0664114,87.8984438 87.578125,89.5156152 87.578125,91.484375 C87.578125,94.6562659 86.7500083,97.0156173 85.09375,98.5625 C84.1718704,99.3906291 83.0273506,100.003904 81.6601562,100.402344 C80.2929619,100.800783 78.6953216,101 76.8671875,101 L63.90625,101 Z M68.4765625,96.921875 L78.7421875,96.921875 C79.9609436,96.921875 80.9374963,96.6328154 81.671875,96.0546875 C82.4062537,95.4765596 82.7734375,94.5781311 82.7734375,93.359375 L82.7734375,89.421875 C82.7734375,88.3281195 82.4375034,87.5117214 81.765625,86.9726562 C81.0937466,86.4335911 80.1875057,86.1640625 79.046875,86.1640625 L68.4765625,86.1640625 L68.4765625,96.921875 Z M68.4765625,82.0859375 L78.5078125,82.0859375 C79.7265686,82.0859375 80.6249971,81.7656282 81.203125,81.125 C81.7812529,80.4843718 82.0703125,79.6562551 82.0703125,78.640625 L82.0703125,75.7109375 C82.0703125,73.5390516 80.8828244,72.4453126 78.5078125,72.4296875 L68.4765625,72.4296875 L68.4765625,82.0859375 Z M94.3984375,92.84375 L94.3984375,76.53125 L98.7109375,76.53125 L98.7109375,92.3515625 C98.7109375,94.1171963 99.0546841,95.5195261 99.7421875,96.5585938 C100.429691,97.5976614 101.687491,98.1171875 103.515625,98.1171875 C105.343759,98.1171875 106.792963,97.4375068 107.863281,96.078125 C108.933599,94.7187432 109.46875,92.9687607 109.46875,90.828125 L109.46875,76.53125 L113.78125,76.53125 L113.78125,101 L109.46875,101 L109.46875,96.96875 C108.796872,98.4062572 107.898438,99.5351521 106.773438,100.355469 C105.648432,101.175785 104.164072,101.585938 102.320312,101.585938 C101.195307,101.585938 100.144536,101.425783 99.1679688,101.105469 C98.1914014,100.785155 97.351566,100.273441 96.6484375,99.5703125 C95.945309,98.867184 95.3945332,97.960943 94.9960938,96.8515625 C94.5976543,95.742182 94.3984375,94.4062578 94.3984375,92.84375 Z M121.65625,72.875 L121.65625,68.3515625 L126.15625,68.3515625 L126.15625,72.875 L121.65625,72.875 Z M121.75,101 L121.75,76.53125 L126.0625,76.53125 L126.0625,101 L121.75,101 Z M134.125,101 L134.125,68.3515625 L138.4375,68.3515625 L138.4375,101 L134.125,101 Z M145.257812,88.765625 C145.257812,86.9999912 145.457029,85.3320391 145.855469,83.7617188 C146.253908,82.1913984 146.851559,80.832037 147.648438,79.6835938 C148.445316,78.5351505 149.453119,77.6250034 150.671875,76.953125 C151.890631,76.2812466 153.312492,75.9453125 154.9375,75.9453125 C156.765634,75.9453125 158.335931,76.3359336 159.648438,77.1171875 C160.960944,77.8984414 161.999996,79.0312426 162.765625,80.515625 L162.765625,68.3515625 L167.101562,68.3515625 L167.101562,101 L162.765625,101 L162.765625,97.015625 C161.999996,98.4843823 160.976569,99.6132773 159.695312,100.402344 C158.414056,101.19141 156.867197,101.585938 155.054688,101.585938 C153.398429,101.585938 151.957037,101.250003 150.730469,100.578125 C149.5039,99.9062466 148.484379,98.9921933 147.671875,97.8359375 C146.859371,96.6796817 146.253908,95.3242265 145.855469,93.7695312 C145.457029,92.214836 145.257812,90.5468839 145.257812,88.765625 Z M149.804688,92.5625 C149.804688,93.390625 149.964842,94.1484341 150.285156,94.8359375 C150.60547,95.5234409 151.046872,96.1054664 151.609375,96.5820312 C152.171878,97.0585961 152.828121,97.4335924 153.578125,97.7070312 C154.328129,97.9804701 155.156245,98.1171875 156.0625,98.1171875 C158.234386,98.1171875 159.894526,97.4296944 161.042969,96.0546875 C162.191412,94.6796806 162.765625,92.9375105 162.765625,90.828125 L162.765625,86.703125 C162.765625,84.5937395 162.191412,82.8476632 161.042969,81.4648438 C159.894526,80.0820243 158.234386,79.390625 156.0625,79.390625 C155.171871,79.390625 154.34766,79.5273424 153.589844,79.8007812 C152.832027,80.0742201 152.171878,80.4531226 151.609375,80.9375 C151.046872,81.4218774 150.60547,82.0078091 150.285156,82.6953125 C149.964842,83.3828159 149.804688,84.1406209 149.804688,84.96875 L149.804688,92.5625 Z M173.757812,88.765625 C173.757812,86.9062407 173.988279,85.1836017 174.449219,83.5976562 C174.910159,82.0117108 175.597652,80.6601618 176.511719,79.5429688 C177.425786,78.4257757 178.531244,77.5468782 179.828125,76.90625 C181.125006,76.2656218 182.617179,75.9453125 184.304688,75.9453125 C186.070321,75.9453125 187.609368,76.249997 188.921875,76.859375 C190.234382,77.468753 191.320308,78.300776 192.179688,79.3554688 C193.039067,80.4101615 193.687498,81.6484304 194.125,83.0703125 C194.562502,84.4921946 194.78125,86.0234293 194.78125,87.6640625 L194.78125,89.9609375 L178.304688,89.9609375 L178.304688,92.5625 C178.304688,93.4531295 178.472655,94.2421841 178.808594,94.9296875 C179.144533,95.6171909 179.60156,96.1992164 180.179688,96.6757812 C180.757812,97.1523461 181.406246,97.5117175 182.125,97.7539062 C182.843754,97.996095 183.585934,98.1171875 184.351562,98.1171875 C185.88282,98.1171875 187.210932,97.7265664 188.335938,96.9453125 C189.460943,96.1640586 190.101562,94.9218835 190.257812,93.21875 L194.59375,93.21875 C194.5,94.5312566 194.156253,95.6992136 193.5625,96.7226562 C192.968747,97.7460989 192.199223,98.6171839 191.253906,99.3359375 C190.308589,100.054691 189.242193,100.609373 188.054688,101 C186.867182,101.390627 185.617194,101.585938 184.304688,101.585938 C182.539054,101.585938 180.9961,101.265628 179.675781,100.625 C178.355462,99.9843718 177.253911,99.1015681 176.371094,97.9765625 C175.488277,96.8515569 174.832033,95.5078203 174.402344,93.9453125 C173.972654,92.3828047 173.757812,90.6562595 173.757812,88.765625 Z M178.304688,86.515625 L190.304688,86.515625 L190.304688,85.15625 C190.304688,84.2656205 190.144533,83.4609411 189.824219,82.7421875 C189.503905,82.0234339 189.066409,81.414065 188.511719,80.9140625 C187.957028,80.41406 187.31641,80.0351575 186.589844,79.7773438 C185.863278,79.51953 185.101566,79.390625 184.304688,79.390625 C183.507809,79.390625 182.750004,79.51953 182.03125,79.7773438 C181.312496,80.0351575 180.671878,80.41406 180.109375,80.9140625 C179.546872,81.414065 179.10547,82.0234339 178.785156,82.7421875 C178.464842,83.4609411 178.304688,84.2656205 178.304688,85.15625 L178.304688,86.515625 Z M201.34375,101 L201.34375,76.53125 L213.109375,76.53125 L213.109375,80.2578125 L205.65625,80.2578125 L205.65625,101 L201.34375,101 Z M216.882812,93.265625 L221.21875,93.265625 C221.28125,94.8906331 221.863276,96.1054647 222.964844,96.9101562 C224.066412,97.7148478 225.36718,98.1171875 226.867188,98.1171875 C228.304695,98.1171875 229.554682,97.7968782 230.617188,97.15625 C231.679693,96.5156218 232.210938,95.5859436 232.210938,94.3671875 C232.210938,93.3828076 231.890628,92.593753 231.25,92 C230.65208,91.4458306 229.618618,91.0141677 228.149585,90.7050002 L223.796875,89.8203125 C221.78124,89.3984354 220.230474,88.6210994 219.144531,87.4882812 C218.058588,86.3554631 217.515625,84.8281346 217.515625,82.90625 C217.515625,81.9531202 217.730467,81.0507855 218.160156,80.1992188 C218.589846,79.347652 219.207027,78.6093781 220.011719,77.984375 C220.81641,77.3593719 221.761713,76.8632831 222.847656,76.4960938 C223.933599,76.1289044 225.148431,75.9453125 226.492188,75.9453125 C227.648443,75.9453125 228.777338,76.0976547 229.878906,76.4023438 C230.980474,76.7070328 231.964839,77.1796843 232.832031,77.8203125 C233.699223,78.4609407 234.394529,79.2773388 234.917969,80.2695312 C235.441409,81.2617237 235.71875,82.4453125 235.75,83.8203125 L231.4375,83.8203125 C231.375,82.1953044 230.871098,81.0507846 229.925781,80.3867188 C228.980464,79.7226529 227.851569,79.390625 226.539062,79.390625 C225.195306,79.390625 224.058598,79.7109343 223.128906,80.3515625 C222.199214,80.9921907 221.734375,81.8281198 221.734375,82.859375 C221.734375,83.8125048 222.00781,84.5546848 222.554688,85.0859375 C223.101565,85.6171902 223.984369,86.0078113 225.203125,86.2578125 L229.328125,87.125 C231.765637,87.6406276 233.574213,88.4726505 234.753906,89.6210938 C235.9336,90.769537 236.523438,92.3359276 236.523438,94.3203125 C236.523438,95.3515677 236.292971,96.3085893 235.832031,97.1914062 C235.371091,98.0742232 234.707036,98.8320281 233.839844,99.4648438 C232.972652,100.097659 231.945318,100.609373 230.757812,101 C229.570307,101.390627 228.25782,101.585938 226.820312,101.585938 C225.445306,101.585938 224.160162,101.410158 222.964844,101.058594 C221.769525,100.707029 220.722661,100.183597 219.824219,99.4882812 C218.925777,98.7929653 218.218753,97.9257864 217.703125,96.8867188 C217.187497,95.8476511 216.914063,94.6406319 216.882812,93.265625 Z" id="Builders" fill="#FFFFFF" fill-rule="nonzero"></path>
        <g id="Group-43" transform="translate(515.000000, 42.000000)">
            <g id="Group-Copy-2" transform="translate(165.404244, 151.770016) scale(1, -1) rotate(-60.000000) translate(-165.404244, -151.770016) translate(111.904244, 88.270016)">
                <g id="Group-9" transform="translate(0.341271, 0.060206)">
                    <path d="M59.4865919,10.0898533 L99.4978693,33.082286 C103.455157,35.3563367 105.892094,39.5533047 105.892094,44.0946187 L105.892094,90.1234192 C105.892094,94.6647331 103.455157,98.8617011 99.4978693,101.135752 L59.4865919,124.128185 C55.5190475,126.408129 50.6274025,126.408129 46.6598581,124.128185 L6.64858072,101.135752 C2.69129284,98.8617011 0.254356367,94.6647331 0.254356367,90.1234192 L0.254356367,44.0946187 C0.254356367,39.5533047 2.69129284,35.3563367 6.64858072,33.082286 L44.13166,5.83761106 C48.0992043,3.55766644 55.5190475,7.8099087 59.4865919,10.0898533 Z" id="Polygon" fill="#000000" transform="translate(53.073225, 65.511803) rotate(-360.000000) translate(-53.073225, -65.511803) "></path>
                    <path d="M40.830895,38.8930062 C42.0220421,39.3554095 42.9998596,40.023111 43.9425224,40.8258409 C44.4269725,41.6484117 45.0021391,41.9068946 45.7150096,41.8280821 C46.3584279,41.7564344 47.0100776,41.3904799 47.730665,41.6541986 C47.0436891,42.7404881 46.7683591,42.5035899 46.4209269,43.9065072 C46.2988283,44.3992229 44.4106188,44.5117759 44.0590709,44.6757389 C42.6689992,45.323324 41.6462847,44.9440393 40.268217,44.9782097 C39.2737653,45.0030109 35.9318175,48.7878515 35.0433445,50.0637319 C37.0348204,48.941343 42.4111456,45.6744618 44.3969623,46.7431149 C44.5218047,46.8100779 44.7210723,46.8122825 44.8126462,46.6959927 C45.3653481,45.9941208 47.1040414,46.9467992 47.6582866,46.2283931 C49.5851119,43.7309193 50.0531147,42.8395279 52.7248785,42.8571642 C54.0537294,42.8657068 54.5653103,41.7997421 55.8535189,42.3208414 C56.0692493,42.4081965 57.3839703,41.7451153 57.5633455,42.1805129 C57.9433601,43.1025638 58.6204176,41.975511 59.2158197,41.5877867 C60.5100303,40.7448239 61.6285013,42.4135791 63.0132569,42.7037523 C64.2314989,42.959204 73.0201652,41.4493483 74.2269176,41.0450899 C72.8327302,40.8723087 70.5852692,39.8934528 69.1929682,39.7270097 C67.8447392,39.5655268 60.0027725,39.7544321 58.6382523,40.1030257 C59.3488934,39.7921849 60.842584,38.5063326 63.119324,36.2454688 L70.7685076,34.3670487 C74.9745267,33.826372 77.2819485,33.5097381 77.690773,33.4171473 C77.5147132,33.3348443 75.0388333,32.7735307 70.2631331,31.7332066 L62.0128703,34.0437405 L58.7360385,38.3143873 C57.8224326,38.6325523 57.2693112,38.8284691 57.0766744,38.9021377 C55.792067,39.3934756 56.2075612,38.7291793 54.8920862,38.0485261 C52.7728527,36.9520406 52.6665998,39.4505101 50.4875175,39.2449363 C50.2193122,39.219584 48.4318744,38.4468614 48.2176875,38.7306966 C47.0148793,40.3237558 45.5649587,40.4629177 44.0997757,40.494608 C43.1977554,39.309114 42.2225101,38.4824097 40.830895,38.8930062 Z M68.771114,16.4242507 C69.1373364,16.9543769 69.5813467,16.6152823 69.9876677,16.699577 C70.6794977,16.7201033 71.3714998,16.7403559 72.0633298,16.7603349 C72.1158193,16.8317664 72.1683089,16.903198 72.2207985,16.9746296 C72.6816743,16.986398 73.1446153,16.7094296 73.6030817,17.0017243 C73.7075446,17.294019 73.8144168,17.299219 73.9238705,17.0085664 C74.0474362,17.0145875 74.171346,17.0203348 74.2952559,17.0266296 C74.448078,17.7461452 74.7046747,17.5693453 74.9803741,17.2269664 C77.6688735,17.5781031 81.1732429,20.6623728 83.8589888,21.2174043 C85.0246018,21.4585201 86.2674864,21.9281621 87.4645932,21.4002253 C87.8931148,21.2111096 88.0104849,21.7707937 88.2524533,21.9626463 C88.478933,22.1419094 88.1306086,22.4331094 88.0450764,22.6594462 C86.6008383,26.4830876 84.5961223,27.4630278 83.7621402,31.7604165 C83.2711475,34.2898055 81.8506588,36.0090894 80.7989739,38.0425628 C78.9929879,41.5342253 76.3172236,43.155804 74.23158,46.034414 C73.1416896,47.5385822 70.8560449,45.8613667 70.214123,47.9457453 L70.0714546,48.2303769 C70.0848782,48.3242505 70.0743802,48.410461 70.0404771,48.4898294 C69.6308862,48.6575978 69.7098788,48.9808188 69.9317118,49.3502924 C69.91433,49.5180608 69.8972924,49.6861029 69.8799106,49.854145 C69.7561729,49.9266713 69.7272606,50.0046713 69.8749198,50.0917028 C69.9172557,52.2609235 69.0302677,53.6734075 68.1813131,55.0295125 C67.1991555,56.5985438 65.9271865,57.5931121 64.8144073,58.9092592 C64.3249634,59.4881012 63.6930231,59.8597643 63.5353823,60.9892589 C63.4689528,61.465743 63.1669226,61.3215114 62.9550712,61.372143 C58.5246058,62.4269218 54.175026,61.6786693 49.8674378,59.9084801 C46.9842967,58.7234277 45.4116986,60.6773378 42.6034196,59.0973592 C42.511864,58.8116329 42.3136082,58.9840539 42.1862564,58.8518645 L42.1318738,58.8959276 L42.0893658,58.8261382 C42.0554627,58.6742434 42.0086523,58.6490645 41.9453206,58.7897382 C41.7955962,58.8406434 41.6766772,58.7596329 41.5820238,58.5746224 C41.3049477,57.6000331 39.7388649,57.0770227 39.0143365,57.7168962 C38.8907708,57.7152541 38.7673773,57.7133383 38.6439837,57.7114226 C38.2805148,57.0425385 37.97401,56.8624543 37.8146482,57.9544541 C37.5661401,57.9941383 37.2907849,58.2582435 37.10819,57.7423489 C36.726823,56.785549 36.2306673,57.1692542 35.7436328,57.44677 C34.1352142,57.6120752 32.5366051,57.2718858 30.9379959,57.123549 C29.066441,56.9503069 23.0076841,61.9510679 21.1610832,61.2753417 C19.3318641,60.6061839 17.7771397,59.1408789 16.3089802,57.3627529 C15.9942147,56.9815109 15.9689165,56.6377635 16.138432,56.0920373 C17.2193733,52.6137853 22.7091775,44.2817407 24.2575342,41.2911938 C24.6404501,40.5514255 25.2076818,39.9810677 25.8363522,40.2646045 C26.4810276,40.5549834 26.9904347,40.3056571 27.3991651,39.6230888 C28.4312309,37.900247 29.5946067,37.3646471 31.0760177,37.9662049 C32.3268188,38.4741627 35.6558182,39.0153123 36.8006075,37.7569125 C35.6821491,37.3157336 34.6986147,38.0456493 33.5713793,38.1534808 C34.0023102,36.9517337 34.3986496,35.845776 34.8192547,34.673313 C33.9580812,34.5403025 33.5634628,35.4908076 33.1179036,36.2809338 C32.5129827,37.3532283 29.8422543,37.4292366 28.7093397,36.7056156 C28.4749435,36.5559104 28.2951022,36.8476577 28.1090653,37.0890472 C27.6645387,37.6659734 27.1656295,38.1213838 26.5928907,38.2823101 C26.1387266,38.4098469 25.8017607,38.1295943 25.9624993,37.3211313 C26.6620737,33.8034688 29.0512513,31.2139452 30.7228296,28.322472 C31.0601397,28.3947246 31.2207062,28.1848089 31.1621932,27.6256721 L31.4788517,27.2329354 C33.1518068,26.9017775 34.7309689,25.9504514 36.3648579,25.3592936 C36.6617253,25.2517357 36.9487831,25.0754831 37.2110589,24.6964305 C35.7544298,24.9777778 34.2978007,25.2593988 32.5909426,25.5891883 C34.4442553,22.3583467 36.0590415,19.1975683 38.8898652,19.0437578 C41.749257,18.8880315 44.5936764,19.3346841 47.4337933,19.8240314 C47.7137952,19.8724735 48.0024018,19.7933787 48.2872224,19.7728524 C48.2872224,19.7720314 48.2201046,19.8007682 48.2201046,19.8007682 C48.2932458,19.9044945 48.366387,20.0084945 48.4393562,20.1122208 C48.9933364,21.4406837 47.204261,21.6921235 47.6243498,23.1262285 C48.1671438,24.9777019 48.2919764,27.6916282 49.5648059,28.4757333 C50.8286863,29.2543647 51.920986,30.5581961 53.074036,31.6649748 C54.0381234,32.5900273 54.9628007,33.6360482 55.5419071,35.2658374 C55.8931571,36.2543846 56.1029434,37.5004686 57.049649,37.5188054 C57.1498095,37.5207212 57.2916174,37.7878369 57.3391162,37.9791422 C57.6234204,39.118763 57.9283763,38.5664684 58.2352253,38.0273106 C58.3880474,37.7588264 58.538116,37.4848686 58.678203,37.199416 C60.3041755,33.8785324 61.6741775,28.9630907 61.3196577,24.7907756 C61.0458513,21.5684182 60.5025411,18.404082 60.0790104,15.2137457 C60.4476421,14.9849457 60.830558,15.0454299 61.2117529,15.0719773 C61.2083109,15.1962299 61.2046969,15.3202088 61.201427,15.4444614 C61.2477211,15.7041877 61.3394488,15.735114 61.4685216,15.579114 C61.7791567,15.5840403 62.0899639,15.589514 62.4007711,15.5944403 C62.7422116,16.3580191 62.9602585,16.3708823 63.2550607,15.6450719 C63.7613701,15.9756824 64.3062292,15.6973456 64.8207992,15.897135 C65.088238,16.7666296 65.4758005,16.3905876 65.8504556,16.1483771 C66.1368251,16.1508402 66.4228503,16.1533034 66.7088755,16.1557665 C66.7656675,16.340777 66.8226316,16.3760823 66.8795958,16.1560402 C66.9974822,16.1642508 67.1151966,16.1730087 67.233083,16.1812192 C67.2284364,16.3673244 67.2564882,16.548777 67.3886587,16.5586296 C67.5256479,16.5690296 67.5538718,16.3859349 67.5554207,16.2014718 C67.6810515,16.2053034 67.8070265,16.2085876 67.9326574,16.2121455 C67.9866958,16.2838507 68.0403901,16.3552823 68.0944285,16.4267139 C68.3198756,16.4256191 68.5456669,16.4247981 68.771114,16.4242507 Z" id="Fill-3" fill="#C4C3C6" transform="translate(52.181174, 38.450549) rotate(-150.000000) translate(-52.181174, -38.450549) "></path>
                    <path d="M12.4860599,46.0750103 L46.8484389,66.0712698 C49.5988473,67.6717958 51.8284938,71.2124666 51.8284938,73.9795795 L51.8284938,114.312503 C51.8284938,117.079616 49.5988473,118.025322 46.8484389,116.424796 L12.4860599,96.4285361 C9.73565152,94.8280102 7.50600498,91.2873393 7.50600498,88.5202264 L7.50600498,48.1873028 C7.50600498,45.4201899 9.73565152,44.4744844 12.4860599,46.0750103 Z" id="Rectangle" fill="#FFFFFF"></path>
                    <path d="M59.1277487,46.1591608 L93.4901277,66.1075823 C96.2405361,67.7042793 98.4701826,71.2364797 98.4701826,73.9969726 L98.4701826,114.233406 C98.4701826,116.993899 96.2405361,117.937342 93.4901277,116.340645 L59.1277487,96.3922236 C56.3773403,94.7955267 54.1476938,91.2633263 54.1476938,88.5028333 L54.1476938,48.2663999 C54.1476938,45.5059069 56.3773403,44.5624638 59.1277487,46.1591608 Z" id="Rectangle-Copy-6" fill="#C4C3C6" transform="translate(76.308938, 81.249903) scale(-1, 1) translate(-76.308938, -81.249903) "></path>
                </g>
            </g>
            <g id="Group-40" transform="translate(145.467731, 103.609568) rotate(-8.000000) translate(-145.467731, -103.609568) translate(10.967731, 18.109568)">
                <g id="Group-39" transform="translate(183.998339, 55.832712) rotate(9.000000) translate(-183.998339, -55.832712) translate(104.998339, 11.832712)">
                    <g id="Group-9" transform="translate(-0.000000, -0.000000)" fill-rule="nonzero">
                        <g id="Group-42" transform="translate(53.508752, 44.884571) rotate(10.000000) translate(-53.508752, -44.884571) translate(16.008752, 7.884571)">
                            <g id="Group-41-Copy" transform="translate(47.452792, 32.952731) rotate(22.000000) translate(-47.452792, -32.952731) translate(29.952792, 4.952731)">
                                <path d="M23.9662485,16.1108366 L22.237811,19.8360265 L20.5002011,24.2749899 L21.1303806,25.1941097 L21.2508409,25.4317553 C23.0615547,29.0039534 23.0978212,33.0659191 21.3508747,36.6621683 L21.1491835,37.0773681 L21.0476251,37.2032376 L22.0362131,39.0532661 C24.5875955,43.8736828 22.1656792,50.4648441 16.8673093,53.0390272 L12.0870408,55.3614938 L3.59376849,35.9169065 L0.230844394,24.1357112 L1.67630145,10.9594811 L9.6288686,6.96206513 L34.3204758,0.169955437 L23.9662485,16.1108366 Z" id="Path" fill="#000000"></path>
                                <path d="M21.2426153,7.349655 L10.1111289,10.8205075 L5.38102094,13.5155816 L4.38548022,23.8022011 L7.11419027,34.6379103 L12.7882565,49.3625864 C15.5324413,47.8513299 16.8787425,43.6449992 15.568549,40.8390996 L13.649683,36.7687821 L14.908294,35.0006119 C15.987328,32.4827438 15.9649638,29.6434371 14.8463951,27.142078 L13.4020873,24.7542927 L15.6201314,18.3314524 L17.2965601,14.2359472 L21.2426153,7.349655 Z" id="Path" fill="#C4C3C7"></path>
                                <path d="M8.06854579,37.9504675 L13.5736753,45.8425763 C14.0182665,46.5652834 13.8850107,47.5213969 13.261784,48.0804045 L11.9102549,49.2797974 L8.06854579,37.9504675 Z" id="Path" fill="#FFFFFF"></path>
                            </g>
                            <g id="Group-41" transform="translate(34.743391, 37.038229) rotate(37.000000) translate(-34.743391, -37.038229) translate(17.243391, 4.038229)">
                                <path d="M24.4557279,17.6968158 L22.5422201,22.3994062 L20.4830628,28.3977451 L21.3898061,29.9057557 L21.4947251,30.1417775 C23.340565,34.2941081 23.3774786,39.0085478 21.5968467,43.1883576 L21.4210393,43.6010435 L21.0182677,44.1702578 L22.3544575,47.0215518 C24.8922011,52.4888022 22.454841,60.052509 17.1425583,62.9955108 L12.8075361,65.3971108 L3.98350309,42.3613274 L0.393113283,28.0187873 L1.89343341,12.4239052 L10.0150486,7.76883118 L34.4827447,0.0941456181 L24.4557279,17.6968158 Z" id="Path" fill="#000000"></path>
                                <path d="M25.4931382,7.44317385 L12.0181811,11.7329915 L6.29226089,15.063982 L5.08713265,27.7777813 L8.39030798,41.170231 L15.2589145,59.3692689 C18.5808224,57.5014238 20.2105554,52.3025881 18.6245317,48.8346223 L16.3016939,43.8038927 L17.8252757,41.6185139 C19.1314747,38.506542 19.1044023,34.9972866 17.7503454,31.9057191 L16.0019729,28.9545238 L18.6869736,21.0161819 L20.7163346,15.9543216 L25.4931382,7.44317385 Z" id="Path" fill="#C4C3C7"></path>
                                <path d="M9.99184693,46.0058494 L16.7673909,55.5421475 C17.3145801,56.4154186 17.150573,57.5707224 16.3835247,58.24619 L14.7201043,59.6954563 L9.99184693,46.0058494 Z" id="Path" fill="#FFFFFF"></path>
                            </g>
                        </g>
                        <path d="M89.6766208,2.60202234 L147.366497,0.268490275 L157.483706,46.5024766 L125.620594,42.8305187 L117.056583,46.0883609 C116.411669,47.1789208 115.62289,48.1625971 114.714795,49.0075341 L107.430113,55.7912309 L100.757862,63.6545666 C99.8571899,64.7155991 98.8491044,65.6632183 97.7525478,66.4788702 L91.3364452,71.2552346 L86.9181656,77.7847545 L86.8753727,77.8456095 C85.5394965,79.6744065 83.5042935,80.7627466 81.3345463,80.809494 L80.6655103,80.824011 C78.3780119,80.873042 76.3834958,79.1700285 75.9213054,76.7713795 L75.7845266,76.0575784 C74.5847444,69.822718 76.0952673,63.3424707 79.891259,58.4396661 L85.9762677,50.580065 C87.3239803,48.5031406 87.579273,45.8335362 86.657617,43.5113469 L82.588238,37.212583 C73.765218,35.8339958 66.2592446,35.5978336 60.0703177,36.5040965 C53.8813908,37.4103594 45.2669338,40.0070839 34.2269465,44.29427 L20.7835631,51.9910583 C15.2434125,54.5826342 3.30191308,49.1048541 0.42271498,43.4185403 C-0.417008295,41.7601467 0.179485955,39.6899121 1.7403459,38.8227117 C25.9508261,23.2848352 43.6048285,13.0597055 54.7023532,8.14732251 C62.3932453,4.74290498 74.0513345,2.89447159 89.6766208,2.60202234 Z" id="Stroke-3" fill="#000000"></path>
                    </g>
                    <g id="Group-18" transform="translate(7.154614, 4.634404)" fill="#C4C3C7">
                        <path d="M40.813402,26.9838244 L29.285086,33.271218 L15.9369436,41.2284174 C14.2607239,42.2274023 12.3506583,42.6911797 10.4338004,42.5648832 C8.50820969,42.4370338 2.79984479,38.6715854 1.37639225,37.2823235 L0.115952678,36.0519675 L41.1166256,13.4966483 L51.0017127,8.76917227 L83.7304477,3.06305334 L136.892082,0.111648209 L139.341158,31.3814284 L130.117341,31.1479869 L113.51088,25.4636075 L106.967073,38.7195677 L92.7752417,53.8653176 L81.3944136,63.6869437 L74.6026917,72.3750067 L72.5179692,69.0545465 L73.2922808,62.9115658 L84.8385477,44.7160652 L82.9668095,35.5238513 L77.0148955,28.661912 L65.5520757,25.542284 L54.3376567,25.4636075 L40.813402,26.9838244 Z" id="Fill-10"></path>
                    </g>
                    <polyline id="Fill-19" fill="#FFFFFF" points="49.8700017 18.1163065 50.082298 18.4062467 47.8035207 20.4882144 14.6273479 40.8670169 12.2049298 38.6558987"></polyline>
                    <polygon id="Fill-20" fill="#FFFFFF" points="144.199543 4.63440398 145.196578 16.0356152 135.866965 14.7602431 118.578057 16.2628576 105.614167 24.0146388 84.5618614 18.9949787 70.2397893 14.6987417 65.654105 11.8436178 86.6729169 8.25047728 97.6990436 6.97614761"></polygon>
                </g>
                <g id="Group-38" transform="translate(-0.000000, 30.707062)">
                    <g id="Group-36" transform="translate(0.000000, -0.000000)">
                        <g id="Group-11-Copy" transform="translate(80.829425, 91.010257) scale(-1, 1) rotate(-300.000000) translate(-80.829425, -91.010257) translate(41.329425, 62.010257)">
                            <g id="Group-7" transform="translate(39.598816, 28.977074) rotate(-98.000000) translate(-39.598816, -28.977074) translate(15.598816, -7.022926)">
                                <path d="M34.1940861,5.12264847 C34.8501341,5.41682186 36.5957706,7.37063388 36.9185562,7.92092589 C37.4364101,8.80469786 38.5192634,9.67119497 38.3281863,10.5634792 C38.1555684,11.3688884 37.0083575,11.9672496 36.2842102,12.6497318 C35.3759703,13.5057138 34.4804523,14.3767174 33.5400337,15.1961468 C33.0945198,15.5842053 33.0301622,15.8495872 33.4824113,16.2832113 C33.9162012,16.6988095 34.2484658,17.2190582 34.6468341,17.674714 C35.2527431,18.3684625 35.5737825,19.1090284 35.7246985,20.0766711 C36.2358173,23.3551396 37.4955292,26.4415818 38.4825946,29.594119 C40.2998226,35.3974715 43.9929734,44.6066173 45.1746082,50.5802148 C45.7884995,53.4986651 46.5757571,56.3933313 46.9728782,59.3410738 C47.4864914,63.1578171 41.0473331,71.0975744 40.8260728,71.3431779 C40.3810577,71.8363878 29.2967407,67.0585538 27.8993335,66.2123359 C26.2280325,65.1998787 12.6794534,29.8529916 11.2019735,27.4908419 C10.5317069,26.418799 10.0056213,25.2558752 9.43014496,24.1648049 C10.2692877,23.2950531 10.3328969,23.2822847 9.40420238,23.0549576 C8.60397348,22.8586751 7.77331195,22.7402546 6.95038329,22.6934372 C4.59135442,22.5599952 3.14580378,21.2343372 2.33659477,19.1395723 C1.86563711,17.9195664 1.03422723,14.21874 0.192839434,14.1899486 C1.21258249,11.6540488 3.10564267,9.83092486 5.17281749,8.24939865 C7.60393682,6.38972211 9.818206,4.05755688 12.3810338,2.389406 C13.0973393,1.9233177 15.6875796,0.0921297125 17.7346848,0.156235179 C19.869385,0.223083695 30.5940539,3.50707325 34.1940861,5.12264847 Z" id="Path" fill="#000000"></path>
                                <path d="M32.3636863,6.77846447 C30.1037306,9.39355926 27.6630576,11.8795267 24.6239458,13.4796854 C21.516471,15.1156276 18.0113968,15.4385493 14.5292449,15.3008798 C11.3246108,15.1736621 8.27985113,14.1655576 5.22632496,13.2605239 C5.94754925,12.0041572 7.21681035,11.3155566 8.22887004,10.3705591 C10.2184989,8.51360069 12.2915061,6.73694136 14.4316578,5.06015931 C16.1383303,3.72309623 18.0630887,3.07699167 20.3231424,3.59346225 C24.3741054,4.51903277 28.3994448,5.52548251 32.3636863,6.77846447 Z" id="Fill-15-Copy" fill="#C4C3C6"></path>
                                <path d="M2.97566066,15.8257875 C8.0993293,17.6593764 13.2098484,17.8764703 18.3652306,17.5776614 C19.4785559,17.5130211 19.8183806,17.880617 20.0323824,18.8375373 C20.5106637,20.9750576 20.5658401,20.917979 18.1940291,20.986766 C13.8330322,21.1136073 9.608687,20.0603365 5.3026086,19.7278658 C4.8240695,19.6910331 4.68509721,19.3783204 4.52369339,19.0346292 C4.0552098,18.0359976 3.56609953,17.0456595 2.97566066,15.8257875" id="Fill-77-Copy" fill="#C4C3C6"></path>
                                <path d="M33.2623133,7.90092137 C33.5536589,8.96812079 33.8076347,9.95852175 34.0996724,10.9357074 C34.2020931,11.278059 34.1077461,11.495239 33.8786834,11.6887313 C31.5250816,13.6755175 29.5511749,16.1684754 26.9251432,17.7917156 C26.5609035,18.0168748 26.1825926,18.2188447 25.798976,18.4033605 C23.9752403,19.2813066 23.4499878,19.0436802 22.6566882,17.1030229 C22.5175897,16.7624167 22.6243933,16.6340037 22.8354632,16.5247903 C26.8377164,14.4522292 29.7684731,10.8551687 33.2623133,7.90092137" id="Fill-79-Copy" fill="#C4C3C6"></path>
                                <path d="M31.4310552,20.1758658 C31.6372316,24.1044168 33.0518162,27.5747325 34.1144174,31.1346065 C34.9549825,33.95086 35.8564285,36.7483142 36.7212947,39.5572568 C38.2146663,44.4077613 39.7333623,49.2504328 41.1676437,54.1186923 C41.5503234,55.4179392 41.6695271,56.7986502 41.8954002,58.1443734 C41.9209804,58.2963352 41.8895167,58.4838069 41.8212176,58.6221913 C40.9113302,60.4757593 40.063091,62.3645761 38.9232377,64.0899426 C38.7434089,64.3620116 38.5899278,64.8570623 38.2568737,64.7701151 C37.932261,64.6852567 37.7219919,64.2839419 37.5912771,63.8789716 C36.9870729,62.0037322 36.3478239,60.1402423 35.7026915,58.2791024 C32.0355152,47.7007884 26.9683349,37.770009 22.1313764,27.7326997 C21.9812207,27.4214653 21.8635518,27.0854261 21.6678634,26.8065684 C21.1989784,26.1381456 21.2752074,25.7561524 22.0495198,25.3430879 C25.1375606,23.69553 28.1867195,21.9717301 31.4310552,20.1758658" id="Fill-73-Copy" fill="#FFFFFF"></path>
                                <path d="M38.3173056,64.9228612 C35.0618684,63.1088168 32.7991637,62.4263288 29.704931,60.7186997 C29.3638639,60.5305415 26.1020183,53.2377784 26.0331083,52.9050748 C24.5546532,45.7862153 21.0337757,39.5435999 17.6472353,33.239428 C16.1827115,30.5137509 14.7985411,27.7449594 13.2991892,24.8435849 C15.6946198,25.1336725 17.9549669,25.5284309 20.2294941,25.6420735 C21.852486,25.723318 22.5137234,26.5213081 23.1115238,27.9057038 C26.2716811,35.2291698 29.8639564,42.3642283 32.6273216,49.8608995 C33.7234133,52.8342974 34.8152759,55.8086922 35.9700779,58.9488158 L38.3173056,64.9228612 Z" id="Fill-75-Copy" fill="#B1B2B7"></path>
                            </g>
                        </g>
                        <path d="M102.831731,65.9848375 C101.939277,66.3719825 101.109753,66.7464588 100.253806,67.1537322 C100.635067,67.8766293 101.435053,68.8674368 102.601529,69.9679526 C105.648671,72.8427911 110.279811,75.6302212 113.964911,76.8328368 C129.720278,81.9745294 140.518211,87.1440733 146.49439,92.285334 C153.287883,98.1297243 154.160852,104.639201 148.418408,108.433229 C146.180865,109.911572 143.530117,110.061409 140.168122,109.628138 C138.54554,109.419031 137.567515,109.22403 134.067446,108.47135 C132.957803,108.232724 132.269839,108.088857 131.573125,107.952504 C131.303509,107.899738 131.044464,107.850719 130.795653,107.805398 C129.117858,109.156372 126.61249,109.923566 123.642203,110.167843 C120.413799,110.433347 116.541363,110.131333 111.751832,109.406376 C109.692303,109.09464 107.635746,108.73296 104.974147,108.230561 C104.414125,108.124852 99.6229541,106.51586 99.1155373,106.419672 C98.2280025,107.153473 86.5893102,107.508917 82.5376544,105.826725 C80.7161527,105.070462 72.7578171,103.159569 64.7530804,101.755326 C62.1760919,101.303254 58.2882319,99.9384603 53.0895006,97.6609442 C32.7267028,89.3922097 20.0120795,84.7246477 14.9456305,83.6582581 C11.3551895,82.9025397 9.54606502,82.4144379 7.43679408,81.406251 C3.93271717,79.7313763 1.58254678,77.1714297 0.825933831,74.0349245 C0.282252433,71.91436 0.138153466,67.4692498 0.0561132146,58.5537916 C0.0377221722,56.5552047 0.0269154608,54.448156 0.0214469525,52.13252 C0.0201448412,51.5811419 0.0156491686,44.640798 0.00508547038,44.2038736 C-0.0537282054,41.7712854 0.387067259,39.9449558 1.87816556,38.4826154 C4.02811056,36.3741351 7.42118205,36.037576 10.8311714,36.9538914 C12.4969315,37.4015062 13.9753991,38.0481354 16.1377976,39.1436572 C16.2290826,39.1899042 19.7231969,41.0000494 20.8130232,41.5362146 C25.0043306,43.5982249 28.4723127,44.828916 32.0897043,45.3499369 C32.1097833,45.3528289 32.129807,45.3557455 32.149776,45.3586868 C32.7746834,45.2157476 33.4714183,45.0618538 34.2804335,44.8892801 C36.6697659,44.3796038 39.7790768,43.7624082 43.8140701,43.007787 C55.5825338,40.8068585 61.0076871,40.7312494 67.3936647,42.2006367 C67.5397666,42.2342541 67.6888931,42.2689408 67.8690971,42.3111356 C67.9613301,42.332732 68.0965458,42.3644739 68.3146523,42.415659 C69.8914726,42.7852767 70.7038625,42.9445118 71.8341767,43.0804961 C77.4090937,43.7511954 82.0982389,43.2791147 87.6031707,41.852439 C88.7975717,41.5428942 92.6278374,40.4525536 92.8006474,40.4053568 C93.4297054,40.2335525 94.0441905,40.0486222 94.6500411,39.8499754 C96.8378715,39.1326277 102.479304,36.6608478 102.773518,36.5533424 C107.58966,34.7935297 112.787111,35.4904311 116.567995,39.8345727 C121.362191,45.3429854 120.041162,52.9686934 113.420089,59.3883515 C111.56468,61.1873182 110.021408,62.4078646 108.334645,63.4019075 C107.629198,63.8176414 106.909564,64.1883949 106.085562,64.5698439 C105.620679,64.7850489 105.15196,64.9910842 104.485413,65.2764831 C104.30893,65.3520484 103.671916,65.623688 103.675656,65.622091 C103.347559,65.7621763 103.089975,65.8728116 102.831731,65.9848375 Z" id="Path" fill="#000000" fill-rule="nonzero"></path>
                        <g id="Group-11" transform="translate(120.509364, 69.615931) scale(-1, 1) rotate(-300.000000) translate(-120.509364, -69.615931) translate(64.009364, 28.615931)">
                            <g id="Group-7" transform="translate(56.726373, 40.962192) rotate(-98.000000) translate(-56.726373, -40.962192) translate(22.726373, -10.537808)">
                                <path d="M49.0610801,7.34497391 C50.0023664,7.76676664 52.5069752,10.5681883 52.9701024,11.3572099 C53.7131101,12.624383 55.2667693,13.8667869 54.9926152,15.146165 C54.744946,16.3009797 53.0989477,17.158924 52.0599537,18.1374831 C50.756827,19.3648102 49.4719534,20.6136757 48.1226571,21.7885928 C47.4834414,22.3450002 47.3911023,22.7255111 48.0399814,23.3472515 C48.6623756,23.9431459 49.1391031,24.6890908 49.710675,25.3424209 C50.5800227,26.3371338 51.0406445,27.3989745 51.2571761,28.7864033 C51.9905204,33.4871487 53.7979332,37.9125621 55.2141575,42.4327442 C57.8214846,50.7537275 63.1203532,63.9580174 64.8157422,72.5231021 C65.6965427,76.7076449 66.8260862,80.8580853 67.3958687,85.0846279 C68.132792,90.5571642 58.8939996,101.941375 58.5765392,102.293527 C57.9380393,103.000703 42.034454,96.1501323 40.0294785,94.9368051 C37.6315249,93.4851202 18.1922593,42.8039218 16.0723967,39.417016 C15.1107099,37.8798956 14.3558914,36.2124682 13.530208,34.6480658 C14.7341954,33.4009953 14.8254608,33.3826877 13.492986,33.0567406 C12.3448315,32.7753061 11.1530128,32.6055121 9.97228907,32.5383843 C6.58759547,32.3470519 4.51354456,30.4462923 3.35250553,27.4427692 C2.67678368,25.693496 1.48389125,20.387164 0.276682666,20.3458822 C1.73979226,16.7098494 4.45592209,14.0958114 7.42186858,11.8281819 C10.9099963,9.1617339 14.0869912,5.81782053 17.764092,3.42598654 C18.7918347,2.75769818 22.5082664,0.13209775 25.4454174,0.224013675 C28.508248,0.319862651 43.8958165,5.02852415 49.0610801,7.34497391 Z" id="Path" fill="#000000"></path>
                                <path d="M46.4348542,9.71912185 C43.1923091,13.4687063 39.6904739,17.0331449 35.3300091,19.3274901 C30.8714584,21.6731424 25.8424388,22.1361553 20.8463079,21.9387615 C16.2483546,21.7563538 11.8797864,20.3109098 7.49864016,19.0132511 C8.53344023,17.211843 10.354554,16.2245113 11.8066396,14.8695517 C14.6613245,12.207001 17.6356392,9.65958504 20.7062917,7.25537548 C23.1549956,5.33826297 25.9166055,4.41186305 29.1592912,5.15239072 C34.9715426,6.47949552 40.7470295,7.92256683 46.4348542,9.71912185 Z" id="Fill-15-Copy" fill="#C4C3C6"></path>
                                <path d="M4.26942616,22.6913864 C11.6207768,25.3204295 18.9532608,25.6317037 26.3501135,25.2032644 C27.9474933,25.1105817 28.4350678,25.6376494 28.7421139,27.0097042 C29.4283436,30.0745311 29.5075097,29.9926905 26.1044765,30.0913189 C19.847394,30.273187 13.786377,28.7629824 7.6080906,28.2862782 C6.92149102,28.2334665 6.72209599,27.7850917 6.49051661,27.2922992 C5.8183445,25.8604378 5.11657758,24.4404677 4.26942616,22.6913864" id="Fill-77-Copy" fill="#C4C3C6"></path>
                                <path d="M47.7241887,11.328527 C48.1422062,12.8587026 48.5066064,14.2787628 48.9256169,15.6798746 C49.0725684,16.1707463 48.9372009,16.4821442 48.6085457,16.7595779 C45.2316389,19.6082787 42.3995119,23.1827404 38.6317272,25.5101805 C38.1091224,25.833019 37.5663284,26.1226083 37.0159221,26.3871713 C34.3992578,27.6459911 33.6456347,27.3052767 32.5074221,24.5227167 C32.307846,24.0343475 32.4610861,23.8502259 32.7639254,23.6936332 C38.5062888,20.7219463 42.7112875,15.5643964 47.7241887,11.328527" id="Fill-79-Copy" fill="#C4C3C6"></path>
                                <path d="M45.0967314,28.9286312 C45.3925497,34.56148 47.4221711,39.5373003 48.9467728,44.6415314 C50.152801,48.679542 51.44618,52.6905975 52.6870751,56.7181256 C54.8297387,63.6728931 57.0087373,70.6164293 59.0666192,77.5966544 C59.6156814,79.4595452 59.7867128,81.4392411 60.1107916,83.3687707 C60.1474936,83.5866571 60.1023501,83.8554584 60.0043557,84.0538773 C58.6988651,86.7115666 57.4818263,89.4197966 55.8463845,91.8936677 C55.5883693,92.2837666 55.3681572,92.9935819 54.890297,92.868915 C54.4245484,92.7472431 54.1228579,92.1718284 53.9353106,91.5911726 C53.068409,88.9024101 52.1512257,86.2304945 51.2256008,83.5619483 C45.964,68.3945127 38.693698,54.1555275 31.753714,39.7637973 C31.5382732,39.3175421 31.3694439,38.8357213 31.0886735,38.4358886 C30.4159256,37.4774881 30.5252976,36.9297773 31.6362676,36.3375158 C36.0669348,33.9752084 40.4418149,31.5035836 45.0967314,28.9286312" id="Fill-73-Copy" fill="#FFFFFF"></path>
                                <path d="M54.9770037,93.087926 C50.306159,90.4869065 47.0596696,89.5083391 42.6201184,87.0599003 C42.1307612,86.7901147 37.4507219,76.3335793 37.351851,75.8565411 C35.2305893,65.6493529 30.1788955,56.6985439 25.3199463,47.659474 C23.218673,43.751334 21.2326895,39.7813756 19.0814453,35.6213166 C22.5183675,36.0372511 25.7614743,36.6032649 29.0249263,36.7662083 C31.3535669,36.8826986 32.3022988,38.0268756 33.1600124,40.0118548 C37.6941512,50.5124126 42.8482852,60.7428274 46.8131135,71.4917309 C48.3857669,75.7550588 49.9523524,80.0198161 51.6092423,84.5221991 L54.9770037,93.087926 Z" id="Fill-75-Copy" fill="#B1B2B7"></path>
                            </g>
                        </g>
                        <path d="M126.104914,103.677413 C124.553795,108.41156 110.034178,103.972915 101.446781,101.552551 C101.866422,101.151877 102.415289,100.725375 103.093383,100.273044 C101.990129,100.260471 101.143857,100.426246 100.554564,100.770369 C100.246142,100.950475 99.9839983,101.047136 99.7371144,101.077782 C99.3792704,100.980528 99.0372424,100.889382 98.7129544,100.805483 C98.6095181,100.776722 98.5042035,100.747036 98.3970106,100.716423 C98.3693466,100.702263 98.3413219,100.687784 98.3129096,100.673 C98.308192,100.670545 98.3057205,100.676616 98.3053999,100.690167 C95.5908731,99.9093966 91.6953847,98.5462842 86.6189349,96.6008293 C81.8439598,94.9924804 78.4120839,93.6143825 76.3233072,92.4665358 C73.1901421,90.7447657 90.9174706,100.274658 95.7857908,101.9985 C93.4070261,103.311843 88.3828756,101.584287 81.9011461,100.002829 C78.6033699,98.7478081 66.6690079,94.2646173 64.5613216,92.7945445 C65.7531358,93.8704002 69.6053793,95.6794091 71.0057349,96.7845047 C71.6783515,97.3153026 69.3106302,97.808303 66.0553464,96.9975077 C58.224774,95.0471425 51.4344348,91.9635396 46.1169791,87.3030264 C32.734987,75.574306 9.04413329,81.2415673 7.45828058,74.6007625 C6.61363626,72.3963486 6.43307415,47.7246539 6.79863199,45.5019532 C7.4559597,41.5052047 3.03490691,45.2009186 22.1198034,52.9114393 L37.4565086,55.3489194 C42.0859647,52.3997533 44.1032746,51.6908661 48.8197191,50.6545995 C57.0125013,48.8545346 68.634687,50.1684636 72.7059591,50.6545995 C83.7709223,51.9758271 91.3254623,49.2372987 96.8002574,47.7276046 C106.169655,45.14396 108.309551,39.2428536 111.208136,42.5898201 C113.489415,45.2239891 113.5879,50.4348555 107.873158,56.0023319 C103.178532,60.5759795 101.855997,59.9252137 94.3353863,63.736738 C92.9260051,65.0047629 92.9405823,66.7706254 93.9156302,68.7266865 C96.394426,73.6994432 105.080678,79.9014401 112.359164,82.2780884 C144.150089,92.6587984 148.859093,101.217051 143.559002,104.739631 C143.084649,105.054899 142.310756,105.147592 141.327477,105.097066 C141.31375,105.09476 141.299995,105.092431 141.28621,105.090078 C139.147456,104.724958 136.979579,103.693921 134.073852,102.875366 C129.119178,101.479615 120.664031,98.9872862 112.8557,96.2796243 C113.162791,95.4049578 113.794003,94.4058062 114.749339,93.2821695 C113.241369,93.4681284 112.18079,93.8697772 111.567602,94.4871159 C110.882746,95.1766077 110.276374,95.2659644 109.431169,95.0611629 C105.96025,93.7916243 102.758096,92.5041315 100.231771,91.2851803 C97.5088616,89.9713778 93.2857665,88.8386732 87.5624851,87.8870665 C92.5207695,90.8976209 95.6777319,92.2668508 101.358532,94.4549653 C107.039332,96.6430798 117.106172,100.633471 126.104914,103.677413 Z" id="Path" fill="#C4C3C6"></path>
                        <path d="M102.801474,50.590631 C105.141005,50.4413914 106.370964,47.1404888 105.548665,43.2178587 C104.726366,39.2952287 103.220565,36.8525582 100.881034,37.0017978 C98.5415037,37.1510374 94.9046691,43.4170907 98.1849266,46.7834988 C101.465184,50.149907 100.461944,50.7398706 102.801474,50.590631 Z" id="Oval" fill="#000000" transform="translate(101.339800, 43.803402) scale(-1, 1) rotate(-445.000000) translate(-101.339800, -43.803402) "></path>
                        <path d="M103.612453,49.6431091 C104.1008,48.9764748 104.95761,46.2073235 106.182881,41.3356554 C105.87066,40.6568144 105.153945,40.353155 104.032736,40.4246774 C102.350923,40.531961 99.732807,45.0187182 102.088679,47.4282279 C104.444551,49.8377376 102.879932,50.6430607 103.612453,49.6431091 Z" id="Oval-Copy-3" fill="#FFFFFF" transform="translate(103.666254, 45.238672) scale(-1, 1) rotate(-445.000000) translate(-103.666254, -45.238672) "></path>
                        <path d="M134.720237,107.875879 C134.029644,106.81172 132.543867,102.770318 130.262904,95.7516719 C130.674217,94.3591004 131.547625,93.892771 132.883127,94.3526837 C134.88638,95.0425527 138.745204,101.988528 136.377757,104.501813 C134.01031,107.015099 135.756125,109.472118 134.720237,107.875879 Z" id="Oval-Copy-5" fill="#000000" transform="translate(133.692619, 101.282422) scale(-1, 1) rotate(-445.000000) translate(-133.692619, -101.282422) "></path>
                        <path d="M136.414534,106.992159 C136.070109,106.78893 134.791302,103.586922 132.578111,97.3861333 C133.108247,96.6555735 133.95226,96.4896673 135.110149,96.8884148 C136.846984,97.486536 140.232255,102.835239 138.203155,104.615169 C136.174055,106.3951 136.931172,107.297003 136.414534,106.992159 Z" id="Oval-Copy-4" fill="#FFFFFF" transform="translate(135.704768, 101.863910) scale(-1, 1) rotate(-445.000000) translate(-135.704768, -101.863910) "></path>
                        <path d="M6.60186011,60.3042121 C6.49597776,56.1142001 6.43758006,51.58883 6.42299243,47.432258 C15.5474636,50.2435678 25.4883862,52.9559039 37.5666063,55.5047727 C34.0041712,58.7193951 32.2793556,61.6685612 30.123336,62.5111801 C19.7891623,60.8282832 15.6987334,62.5150036 6.60186011,60.3042121 Z" id="Path" fill="#FFFFFF"></path>
                        <path d="M113.307616,83.377868 C133.239152,89.8754345 142.04515,95.6267803 144.321294,99.7676913 C139.282171,100.791225 133.362986,95.6479728 124.077889,92.101324 C115.329276,88.759597 108.824026,85.1288696 104.562137,81.2091416 C102.633913,79.0474022 101.90451,77.8271537 102.373928,77.5483963 C105.699184,80.0274222 109.685348,82.1970291 113.307616,83.377868 Z" id="Path" fill="#FFFFFF"></path>
                        <path d="M95.8867876,59.0757946 C100.155893,58.1164178 104.592188,54.2824113 109.195672,47.573775 C110.212997,47.1007643 112.108834,45.9820103 112.224414,48.3965532 C112.339995,50.8110961 106.593906,60.6746277 97.1122181,62.5231534 C95.3890584,62.8590963 93.7732514,64.3409387 92.6410229,66.4323385 C92.2785424,65.9239977 92.2319235,64.7613555 92.6550416,62.6229638 C94.5152598,62.4600419 94.5293857,60.9202153 95.8867876,59.0757946 Z" id="Path" fill="#FFFFFF"></path>
                        <path d="M101.478162,94.3994758 C112.513352,98.9959542 118.938743,101.589784 120.754335,102.180964 C117.858633,102.793861 112.545191,101.788514 107.200788,99.7002099 C99.6473751,96.7487441 84.9414517,89.9001595 86.0327693,87.3779609 C86.1945105,87.0041526 94.1423986,90.7203593 94.5465764,90.4717724 C95.8238662,91.4476862 98.1343948,92.7569206 101.478162,94.3994758 Z" id="Path-Copy-18" fill="#FFFFFF"></path>
                        <path d="M105.797998,77.5363514 C102.331324,77.7677229 96.0727151,72.2734181 89.8512286,69.6215467 C84.3689505,67.2847586 78.4293092,64.4052696 80.9600526,64.2012235 C82.7337839,64.0582129 88.5079977,62.7002868 92.8772583,62.717305 C97.246519,62.7343232 98.7638456,62.0895448 100.587187,61.4896689 C102.562276,61.3166863 97.4529547,66.0937189 98.7831317,67.8730666 C102.264513,72.5300311 109.484025,77.2903399 105.797998,77.5363514 Z" id="Path-Copy-24" fill="#000000"></path>
                        <path d="M11.5748488,47.6209337 C13.8645263,53.3325313 11.5741877,54.7451263 8.87190576,56.0583065 C8.60546886,56.1877821 16.1228656,59.5149549 18.9680121,58.1358005 C22.3959147,56.4741614 23.4702108,54.3514991 20.3842572,51.6695435 C14.7369734,46.7615746 8.52854594,34.6496356 7.91528851,34.9065227 C7.30203109,35.1634098 9.28517128,41.9093361 11.5748488,47.6209337 Z" id="Oval" fill="#000000" transform="translate(15.004568, 46.686237) scale(-1, 1) rotate(-445.000000) translate(-15.004568, -46.686237) "></path>
                    </g>
                </g>
            </g>
        </g>
    </g>
</svg>