<?xml version="1.0" encoding="UTF-8"?>
<svg width="882px" height="300px" viewBox="0 0 882 300" version="1.1" xmlns="http://www.w3.org/2000/svg" xmlns:xlink="http://www.w3.org/1999/xlink">
    <!-- Generator: Sketch 61 (89581) - https://sketch.com -->
    <title>roles</title>
    <desc>Created with Sketch.</desc>
    <g id="roles" stroke="none" stroke-width="1" fill="none" fill-rule="evenodd">
        <rect id="Rectangle" fill="#000000" fill-rule="nonzero" x="0" y="0" width="882" height="210"></rect>
        <g id="Group-2" transform="translate(514.999670, 0.000000)" fill="#1F232C">
            <rect id="Rectangle" fill-rule="nonzero" x="105.00033" y="105" width="52.5" height="52.5"></rect>
            <path d="M122.50066,52.5 L122.50066,105 L116.66733,105 L116.66733,52.5 L122.50066,52.5 Z M134.16666,52.5 L134.16666,105 L128.33333,105 L128.33333,52.5 L134.16666,52.5 Z M145.83366,52.5 L145.83366,105 L140.00033,105 L140.00033,52.5 L145.83366,52.5 Z M157.50066,52.5 L157.50066,105 L151.66733,105 L151.66733,52.5 L157.50066,52.5 Z M110.83701,52.5 L110.83701,105 L105.00033,105 L105.00033,52.5 L110.83701,52.5 Z" id="Shape" fill-rule="nonzero"></path>
            <path d="M40.83333,105 L40.83333,157.5 L35,157.5 L35,105 L40.83333,105 Z M29.16733,105 L29.16733,157.5 L23.334,157.5 L23.334,105 L29.16733,105 Z M17.50033,105 L17.50033,157.5 L11.667,157.5 L11.667,105 L17.50033,105 Z M5.83333,105 L5.83333,157.5 L-6.92779167e-14,157.5 L-6.92779167e-14,105 L5.83333,105 Z M52.50033,105 L52.50033,157.5 L46.66365,157.5 L46.66365,105 L52.50033,105 Z" id="Shape" fill-rule="nonzero"></path>
            <path d="M355.50533,0.9844 L355.50533,53.4844 L349.672,53.4844 L349.672,0.9844 L355.50533,0.9844 Z M343.83833,0.9844 L343.83833,53.4844 L338.005,53.4844 L338.005,0.9844 L343.83833,0.9844 Z M332.17233,0.9844 L332.17233,53.4844 L326.339,53.4844 L326.339,0.9844 L332.17233,0.9844 Z M320.50533,0.9844 L320.50533,53.4844 L314.672,53.4844 L314.672,0.9844 L320.50533,0.9844 Z M367.17233,0.9844 L367.17233,53.4844 L361.33565,53.4844 L361.33565,0.9844 L367.17233,0.9844 Z" id="Shape" fill-rule="nonzero"></path>
            <path d="M52.50033,163.333 L52.50033,157.5 C81.49533,157.5 105.00033,181.005 105.00033,210 L99.16733,210 C99.16733,184.227 78.27333,163.333 52.50033,163.333 Z M52.50033,175 L52.50033,169.166 C75.05233,169.166 93.33333,187.448 93.33333,210 L87.50033,210 C87.50033,190.67 71.83033,175 52.50033,175 Z M52.50033,180.834 L52.50033,186.667 C65.38733,186.667 75.83333,197.114 75.83333,210 L81.66733,210 C81.66733,193.892 68.60833,180.834 52.50033,180.834 Z M52.50033,198.333 L52.50033,192.5 C62.16533,192.5 70.00033,200.335 70.00033,210 L64.16733,210 C64.16733,203.557 58.94333,198.333 52.50033,198.333 Z M52.50033,210 L52.50033,204.166 C55.72233,204.166 58.33333,206.778 58.33333,210 L52.50033,210 Z" id="Shape"></path>
            <path d="M262.00033,110.833 L262.00033,105 C290.99533,105 314.50033,128.505 314.50033,157.5 L308.66733,157.5 C308.66733,131.727 287.77333,110.833 262.00033,110.833 Z M262.00033,122.5 L262.00033,116.667 C284.55233,116.667 302.83333,134.949 302.83333,157.5 L297.00033,157.5 C297.00033,138.17 281.33033,122.5 262.00033,122.5 Z M262.00033,128.333 L262.00033,134.167 C274.88733,134.167 285.33333,144.613 285.33333,157.5 L291.16733,157.5 C291.16733,141.392 278.10833,128.333 262.00033,128.333 Z M262.00033,145.833 L262.00033,140 C271.66533,140 279.50033,147.835 279.50033,157.5 L273.66733,157.5 C273.66733,151.056 268.44333,145.833 262.00033,145.833 Z M262.00033,157.5 L262.00033,151.667 C265.22233,151.667 267.83333,154.279 267.83333,157.5 L262.00033,157.5 Z" id="Shape"></path>
            <path d="M214.11233,52.5 L210.00033,52.5 L210.00033,48.3875 L258.38733,0 L262.50033,0 L262.50033,4.1125 L214.11233,52.5 Z M250.13333,0 L241.87933,0 L210.00033,31.8791 L210.00033,40.1333 L250.13333,0 Z M233.62533,0 L225.37133,0 L210.00033,15.3708 L210.00033,23.625 L233.62533,0 Z M210.00033,0 L210.00033,7.11666 L217.11633,0 L210.00033,0 Z M262.50033,20.6208 L262.50033,12.3667 L222.36633,52.5 L230.62133,52.5 L262.50033,20.6208 Z M262.50033,37.1291 L262.50033,28.875 L238.87533,52.5 L247.12933,52.5 L262.50033,37.1291 Z M262.50033,45.3833 L255.38333,52.5 L262.50033,52.5 L262.50033,45.3833 Z" id="Shape" fill-rule="nonzero"></path>
            <path d="M157.50033,105 L210.00033,105 L210.00033,52.5 C181.00533,52.5 157.50033,76.0051 157.50033,105 Z" id="Path" fill-rule="nonzero"></path>
            <path d="M262.50033,157.5 L262.50033,105 L210.00033,105 C210.00033,133.995 233.50533,157.5 262.50033,157.5 Z" id="Path" fill-rule="nonzero"></path>
            <path d="M110.83733,204.164 L110.83733,210.001 L105.00033,210.001 L105.00033,204.164 L110.83733,204.164 Z M122.49433,204.164 L122.49433,210.001 L116.65833,210.001 L116.65833,204.164 L122.49433,204.164 Z M134.16833,204.164 L134.16833,210.001 L128.33133,210.001 L128.33133,204.164 L134.16833,204.164 Z M145.82633,204.164 L145.82633,210.001 L139.99033,210.001 L139.99033,204.164 L145.82633,204.164 Z M157.50033,204.164 L157.50033,210.001 L151.66333,210.001 L151.66333,204.164 L157.50033,204.164 Z M151.66333,198.326 L151.66333,204.163 L145.82633,204.163 L145.82633,198.326 L140.00533,198.326 L140.00633,204.163 L134.16933,204.163 L134.16833,198.326 L128.33133,198.326 L128.33233,204.163 L122.49533,204.163 L122.49533,198.326 L128.33233,198.326 L128.33233,192.505 L122.49533,192.505 L122.49533,186.668 L128.33233,186.668 L128.33133,180.832 L134.16833,180.832 L134.16933,186.668 L139.99033,186.668 L139.99033,180.832 L145.82633,180.832 L145.82633,186.668 L151.66333,186.668 L151.66333,180.832 L157.50033,180.832 L157.50033,186.669 L151.66333,186.669 L151.66333,192.489 L157.50033,192.489 L157.50033,198.326 L151.66333,198.326 Z M110.83733,180.832 L110.83733,186.668 L116.65833,186.668 L116.65833,180.832 L122.49433,180.832 L122.49433,186.669 L116.67333,186.669 L116.67333,192.489 L122.49433,192.489 L122.49433,198.326 L116.67333,198.326 L116.67333,204.163 L110.83733,204.163 L110.83733,198.326 L105.00033,198.326 L105.00033,192.489 L110.83733,192.489 L110.83733,186.669 L105.00033,186.669 L105.00033,180.832 L110.83733,180.832 Z M139.99033,192.505 L134.16933,192.505 L134.16933,198.326 L139.99033,198.325 L139.99033,192.505 Z M116.65833,192.505 L110.83733,192.505 L110.83733,198.326 L116.65833,198.325 L116.65833,192.505 Z M134.16833,186.669 L128.33133,186.669 L128.33133,192.489 L134.16833,192.489 L134.16833,186.669 Z M145.82633,186.669 L140.00533,186.669 L140.00533,192.489 L145.82633,192.489 L145.82633,186.669 Z M116.67333,163.337 L116.67333,169.158 L122.49433,169.158 L122.49433,174.995 L116.67333,174.995 L116.67333,180.832 L110.83733,180.832 L110.83733,174.995 L105.00033,174.995 L105.00033,169.158 L110.83733,169.158 L110.83733,163.337 L116.67333,163.337 Z M128.33233,163.337 L128.33133,169.158 L134.16833,169.158 L134.16933,163.337 L140.00633,163.337 L140.00533,169.158 L145.82633,169.158 L145.82633,163.337 L151.66333,163.337 L151.66333,169.158 L157.50033,169.158 L157.50033,174.995 L151.66333,174.995 L151.66333,180.832 L145.82633,180.832 L145.82633,174.995 L140.00533,174.995 L140.00633,180.832 L134.16933,180.832 L134.16833,174.995 L128.33133,174.995 L128.33233,180.832 L122.49533,180.832 L122.49533,174.995 L128.33233,174.995 L128.33233,169.174 L122.49533,169.174 L122.49533,163.337 L128.33233,163.337 Z M139.99033,169.174 L134.16933,169.174 L134.16933,174.995 L139.99033,174.994 L139.99033,169.174 Z M116.65833,169.174 L110.83733,169.174 L110.83733,174.995 L116.65833,174.994 L116.65833,169.174 Z M151.66333,169.174 L145.82633,169.174 L145.82633,174.995 L151.66333,174.995 L151.66333,169.174 Z M110.83733,157.5 L110.83733,163.337 L105.00033,163.337 L105.00033,157.5 L110.83733,157.5 Z M122.49433,157.5 L122.49433,163.337 L116.65833,163.337 L116.65833,157.5 L122.49433,157.5 Z M134.16833,157.5 L134.16833,163.337 L128.33133,163.337 L128.33133,157.5 L134.16833,157.5 Z M145.82633,157.5 L145.82633,163.337 L139.99033,163.337 L139.99033,157.5 L145.82633,157.5 Z M157.50033,157.5 L157.50033,163.337 L151.66333,163.337 L151.66333,157.5 L157.50033,157.5 Z M151.66333,192.505 L145.82633,192.505 L145.82633,198.326 L151.66333,198.326 L151.66333,192.505 Z" id="Combined-Shape" fill-rule="nonzero"></path>
        </g>
        <path d="M63.90625,101 L63.90625,68.3515625 L76.2109375,68.3515625 C77.914071,68.3515625 79.4179622,68.546873 80.7226562,68.9375 C82.0273503,69.328127 83.1093707,69.921871 83.96875,70.71875 C84.8281293,71.515629 85.453123,72.4960879 85.84375,73.6601562 C86.234377,74.8242246 86.4296875,76.1796798 86.4296875,77.7265625 C86.4296875,79.1640697 86.2460956,80.4648379 85.8789062,81.6289062 C85.5117169,82.7929746 84.9140666,83.7968708 84.0859375,84.640625 C83.4453093,85.2812532 82.699223,85.8085917 81.8476562,86.2226562 C80.9960895,86.6367208 79.9296939,86.9218742 78.6484375,87.078125 L86.7109375,101 L81.484375,101 L73.84375,87.21875 L68.4765625,87.21875 L68.4765625,101 L63.90625,101 Z M68.4765625,83.328125 L77.875,83.328125 C79.0937561,83.328125 80.0234343,82.9609412 80.6640625,82.2265625 C81.3046907,81.4921838 81.625,80.6171926 81.625,79.6015625 L81.625,75.9921875 C81.625,74.8671819 81.2890659,73.9921906 80.6171875,73.3671875 C79.9453091,72.7421844 79.0312558,72.4296875 77.875,72.4296875 L68.4765625,72.4296875 L68.4765625,83.328125 Z M92.078125,88.765625 C92.078125,86.9062407 92.300779,85.1836017 92.7460938,83.5976562 C93.1914085,82.0117108 93.8710892,80.6601618 94.7851562,79.5429688 C95.6992233,78.4257757 96.8437431,77.5468782 98.21875,76.90625 C99.5937569,76.2656218 101.210928,75.9453125 103.070312,75.9453125 C104.929697,75.9453125 106.546868,76.2656218 107.921875,76.90625 C109.296882,77.5468782 110.437495,78.4257757 111.34375,79.5429688 C112.250005,80.6601618 112.929685,82.0117108 113.382812,83.5976562 C113.83594,85.1836017 114.0625,86.9062407 114.0625,88.765625 C114.0625,90.6562595 113.83594,92.3828047 113.382812,93.9453125 C112.929685,95.5078203 112.250005,96.8515569 111.34375,97.9765625 C110.437495,99.1015681 109.292976,99.9843718 107.910156,100.625 C106.527337,101.265628 104.914072,101.585938 103.070312,101.585938 C101.210928,101.585938 99.5937569,101.265628 98.21875,100.625 C96.8437431,99.9843718 95.6992233,99.1015681 94.7851562,97.9765625 C93.8710892,96.8515569 93.1914085,95.5078203 92.7460938,93.9453125 C92.300779,92.3828047 92.078125,90.6562595 92.078125,88.765625 Z M96.625,92.5625 C96.625,93.390625 96.8007795,94.1484341 97.1523438,94.8359375 C97.503908,95.5234409 97.9687471,96.1054664 98.546875,96.5820312 C99.125,97.0585961 99.8046836,97.4335924 100.585938,97.7070312 C101.367191,97.9804701 102.195308,98.1171875 103.070312,98.1171875 C103.929692,98.1171875 104.749996,97.9804701 105.53125,97.7070312 C106.312504,97.4335924 106.992185,97.0585961 107.570312,96.5820312 C108.14844,96.1054664 108.613279,95.5234409 108.964844,94.8359375 C109.316408,94.1484341 109.492188,93.390625 109.492188,92.5625 L109.492188,84.96875 C109.492188,84.1406209 109.316408,83.3828159 108.964844,82.6953125 C108.613279,82.0078091 108.14844,81.4218774 107.570312,80.9375 C106.992185,80.4531226 106.312504,80.0742201 105.53125,79.8007812 C104.749996,79.5273424 103.929692,79.390625 103.070312,79.390625 C102.210933,79.390625 101.386723,79.5273424 100.597656,79.8007812 C99.8085898,80.0742201 99.125,80.4531226 98.546875,80.9375 C97.9687471,81.4218774 97.503908,82.0078091 97.1523438,82.6953125 C96.8007795,83.3828159 96.625,84.1406209 96.625,84.96875 L96.625,92.5625 Z M120.8125,101 L120.8125,68.3515625 L125.125,68.3515625 L125.125,101 L120.8125,101 Z M131.898438,88.765625 C131.898438,86.9062407 132.128904,85.1836017 132.589844,83.5976562 C133.050784,82.0117108 133.738277,80.6601618 134.652344,79.5429688 C135.566411,78.4257757 136.671869,77.5468782 137.96875,76.90625 C139.265631,76.2656218 140.757804,75.9453125 142.445312,75.9453125 C144.210946,75.9453125 145.749993,76.249997 147.0625,76.859375 C148.375007,77.468753 149.460933,78.300776 150.320312,79.3554688 C151.179692,80.4101615 151.828123,81.6484304 152.265625,83.0703125 C152.703127,84.4921946 152.921875,86.0234293 152.921875,87.6640625 L152.921875,89.9609375 L136.445312,89.9609375 L136.445312,92.5625 C136.445312,93.4531295 136.61328,94.2421841 136.949219,94.9296875 C137.285158,95.6171909 137.742185,96.1992164 138.320312,96.6757812 C138.898438,97.1523461 139.546871,97.5117175 140.265625,97.7539062 C140.984379,97.996095 141.726559,98.1171875 142.492188,98.1171875 C144.023445,98.1171875 145.351557,97.7265664 146.476562,96.9453125 C147.601568,96.1640586 148.242187,94.9218835 148.398438,93.21875 L152.734375,93.21875 C152.640625,94.5312566 152.296878,95.6992136 151.703125,96.7226562 C151.109372,97.7460989 150.339848,98.6171839 149.394531,99.3359375 C148.449214,100.054691 147.382818,100.609373 146.195312,101 C145.007807,101.390627 143.757819,101.585938 142.445312,101.585938 C140.679679,101.585938 139.136725,101.265628 137.816406,100.625 C136.496087,99.9843718 135.394536,99.1015681 134.511719,97.9765625 C133.628902,96.8515569 132.972658,95.5078203 132.542969,93.9453125 C132.113279,92.3828047 131.898438,90.6562595 131.898438,88.765625 Z M136.445312,86.515625 L148.445312,86.515625 L148.445312,85.15625 C148.445312,84.2656205 148.285158,83.4609411 147.964844,82.7421875 C147.64453,82.0234339 147.207034,81.414065 146.652344,80.9140625 C146.097653,80.41406 145.457035,80.0351575 144.730469,79.7773438 C144.003903,79.51953 143.242191,79.390625 142.445312,79.390625 C141.648434,79.390625 140.890629,79.51953 140.171875,79.7773438 C139.453121,80.0351575 138.812503,80.41406 138.25,80.9140625 C137.687497,81.414065 137.246095,82.0234339 136.925781,82.7421875 C136.605467,83.4609411 136.445312,84.2656205 136.445312,85.15625 L136.445312,86.515625 Z M157.890625,93.265625 L162.226562,93.265625 C162.289063,94.8906331 162.871088,96.1054647 163.972656,96.9101562 C165.074224,97.7148478 166.374993,98.1171875 167.875,98.1171875 C169.312507,98.1171875 170.562495,97.7968782 171.625,97.15625 C172.687505,96.5156218 173.21875,95.5859436 173.21875,94.3671875 C173.21875,93.3828076 172.898441,92.593753 172.257812,92 C171.659893,91.4458306 170.62643,91.0141677 169.157397,90.7050002 L164.804688,89.8203125 C162.789052,89.3984354 161.238287,88.6210994 160.152344,87.4882812 C159.066401,86.3554631 158.523438,84.8281346 158.523438,82.90625 C158.523438,81.9531202 158.738279,81.0507855 159.167969,80.1992188 C159.597658,79.347652 160.21484,78.6093781 161.019531,77.984375 C161.824223,77.3593719 162.769526,76.8632831 163.855469,76.4960938 C164.941412,76.1289044 166.156243,75.9453125 167.5,75.9453125 C168.656256,75.9453125 169.785151,76.0976547 170.886719,76.4023438 C171.988287,76.7070328 172.972652,77.1796843 173.839844,77.8203125 C174.707036,78.4609407 175.402341,79.2773388 175.925781,80.2695312 C176.449221,81.2617237 176.726562,82.4453125 176.757812,83.8203125 L172.445312,83.8203125 C172.382812,82.1953044 171.878911,81.0507846 170.933594,80.3867188 C169.988277,79.7226529 168.859382,79.390625 167.546875,79.390625 C166.203118,79.390625 165.066411,79.7109343 164.136719,80.3515625 C163.207027,80.9921907 162.742188,81.8281198 162.742188,82.859375 C162.742188,83.8125048 163.015622,84.5546848 163.5625,85.0859375 C164.109378,85.6171902 164.992181,86.0078113 166.210938,86.2578125 L170.335938,87.125 C172.77345,87.6406276 174.582025,88.4726505 175.761719,89.6210938 C176.941412,90.769537 177.53125,92.3359276 177.53125,94.3203125 C177.53125,95.3515677 177.300784,96.3085893 176.839844,97.1914062 C176.378904,98.0742232 175.714848,98.8320281 174.847656,99.4648438 C173.980464,100.097659 172.953131,100.609373 171.765625,101 C170.578119,101.390627 169.265632,101.585938 167.828125,101.585938 C166.453118,101.585938 165.167975,101.410158 163.972656,101.058594 C162.777338,100.707029 161.730473,100.183597 160.832031,99.4882812 C159.933589,98.7929653 159.226565,97.9257864 158.710938,96.8867188 C158.19531,95.8476511 157.921875,94.6406319 157.890625,93.265625 Z" id="Roles" fill="#FFFFFF" fill-rule="nonzero"></path>
        <g id="Group-36" transform="translate(643.500000, 156.500000) rotate(-4.000000) translate(-643.500000, -156.500000) translate(477.000000, 30.000000)">
            <g id="Group-35" transform="translate(260.137404, 72.383707) rotate(19.000000) translate(-260.137404, -72.383707) translate(202.637404, 15.883707)">
                <g id="Group-3" transform="translate(57.482269, 56.190560) scale(-1, -1) rotate(131.000000) translate(-57.482269, -56.190560) translate(23.482269, 9.690560)" fill="#000000" stroke="#000000" stroke-width="2.23354397">
                    <path d="M34.195511,29.6323308 C39.3587487,29.698305 50.4100138,37.1461551 53.2036913,39.8292996 C57.4211528,43.8796402 61.9166887,48.7475889 61.8681873,55.2737268 C61.8358531,59.6333212 58.8739085,63.5348958 56.8880478,66.9095906 C55.7741336,68.8022236 54.7194988,70.5941282 54.0539525,72.4661443 C54.2436467,72.5203373 54.4403466,72.5674617 54.5594443,72.5963254 C61.1809559,74.1826499 66.4686804,80.4148495 67.4187679,87.7515268 C67.7523493,90.3286414 66.4918533,91.4130913 65.9346267,91.7594555 C65.4830253,92.0416127 64.9775335,92.184753 64.4337795,92.184753 C63.8830197,92.184753 63.4017786,92.0363112 63.0035287,91.8908147 C56.6714085,89.5787747 51.3766782,86.4774013 46.8180906,82.4082109 C41.8844259,78.0062045 38.6698645,73.1900926 37.2638643,68.0947688 C35.8416971,62.9411285 36.4840705,57.4163838 38.8110573,53.3071376 C37.0138129,52.934855 35.0834594,52.8535655 33.0808927,52.7687416 C29.4524531,52.6155873 25.7000656,52.4571316 22.2478476,50.5209085 C19.1771735,48.7991014 16.9374891,45.9787071 14.7258277,42.9951447 C9.89778818,36.4843222 4.47479878,28.7889106 1.22143627,19.8329217 C0.527867024,17.9226171 -0.0665439166,15.8479661 0.282665775,13.6213391 C0.684688043,11.0571836 2.23888673,9.12154963 3.37435713,7.70781816 C6.30707186,4.05508948 9.91664981,0.320482179 14.4509868,0.320482179 C14.8061244,0.320482179 15.1655733,0.34404437 15.5185553,0.391168752 C17.1379613,0.604406582 18.5983908,1.31303948 19.8869098,1.9380266 C21.1253109,2.53886248 22.2952711,3.10671128 23.321883,3.10671128 C23.4490643,3.10671128 23.5746289,3.09846452 23.6958822,3.08079287 C24.5799312,2.95771281 25.4725488,2.33860595 26.4305898,1.52852412 C29.2154334,5.78232054 31.8037404,15.1502561 34.195511,29.6323308 Z" id="Shape"></path>
                </g>
                <path d="M38.6001565,12.5796207 C34.5038389,12.0347442 31.0670442,15.7157556 28.3483127,19.1095984 C27.2218733,20.5154504 26.0545897,22.0244453 25.7668292,23.8689705 C25.506401,25.5425431 26.0143433,27.2390947 26.5878869,28.8177829 C29.6142344,37.1493878 34.6099445,44.4295096 39.7685666,51.3955166 C41.7374779,54.0547389 43.818416,56.7559041 46.5995501,58.3191488 C52.4408485,61.60385 59.8398264,59.1025734 65.8552777,61.9847339 C62.1369245,65.7262592 61.2316894,72.0386154 62.6953677,77.3375197 C64.1590469,82.6376032 67.6336502,87.021834 71.5512674,90.5244112 C76.1849502,94.6672002 81.4067412,97.5487661 87.0500592,99.6164621 C87.4356881,99.758246 87.8778487,99.8941766 88.2309001,99.6739447 C88.7082732,99.3765733 88.7227963,98.6378625 88.645353,98.0417569 C87.8238057,91.7204428 83.1546383,86.2098425 77.4585367,84.8389697 C76.5322537,84.6160108 75.4023888,84.3239205 75.1388835,83.3267731 C75.0082093,82.8302637 75.1499609,82.3009428 75.3122067,81.816444 C77.2113569,76.1639632 82.1066767,71.6203356 82.1463155,65.5944478 C82.1835986,60.0178049 78.0402322,55.6053637 74.2118605,51.9218576 C71.090431,48.9186466 67.5865825,45.7459446 63.4351717,45.6897741 C60.7806381,45.6541804 58.2821498,46.9198679 55.7462014,47.7746023 C50.1074713,49.6758439 42.7873074,48.8520475 39.9605544,43.173623 C37.4125929,38.0537229 39.8538285,31.5178942 43.5821048,27.3660408 C44.0657591,26.8281326 44.6522452,26.2767416 45.3414751,26.3132212 C46.2961669,26.3646388 46.8569621,27.4569285 47.4455566,28.2827568 C49.1450422,30.6670412 41.6237955,12.9816092 38.6001565,12.5796207 Z" id="Fill-4" fill="#000000" transform="translate(57.188703, 56.157797) scale(-1, -1) rotate(131.000000) translate(-57.188703, -56.157797) "></path>
                <path d="M85.4585999,48.8348767 C85.5008102,49.1178983 85.6086946,49.3803344 85.4635221,49.6555513 L85.4710223,49.6048546 C85.3076112,55.7226213 81.7594988,60.3085275 79.4275818,65.4271302 C78.664253,67.1032739 77.797892,68.5252389 77.9496586,70.5841046 C78.0301713,71.6836988 79.2524978,75.4651275 78.7352819,75.7648273 C78.6287172,75.8266516 75.4242572,73.6440544 74.3446794,72.7390341 C67.195544,66.7458458 67.1374484,61.4973332 67.1374484,61.4973332 C66.1843433,55.656414 69.1405133,52.4758834 69.9266569,52.0583129 C73.6381202,50.08692 83.1753173,52.5919851 83.6919975,52.2958223 C84.0773548,52.075025 82.7115474,48.1321239 79.7079519,45.8072927 C78.7456506,44.9416837 77.6982026,45.4160864 76.898899,45.7886806 C72.8760065,47.6640128 71.8748041,47.2587378 67.8425185,46.6573113 C65.2760285,46.2739417 62.8698519,34.9373251 65.7656017,32.8099949 C68.278731,30.9630099 68.3974613,31.3893247 70.7353641,32.8248919 C72.2378718,33.7478271 76.3437977,36.0438112 79.4742849,39.2862626 C82.85685,42.7898077 85.2261688,47.2737446 85.4585999,48.8348767 Z" id="Fill-10" fill="#C4C3C6" transform="translate(74.991336, 53.673544) scale(-1, -1) rotate(131.000000) translate(-74.991336, -53.673544) "></path>
                <path d="M77.7287908,46.8727232 C80.2309612,46.8745977 81.567192,50.0342086 79.9991136,55.1970364 C78.4310352,60.3598641 83.1031513,52.0982952 83.1025525,51.2988028 C83.101203,49.4970266 84.2933201,40.8377326 79.7952417,40.8343571 C75.2971633,40.8309933 71.6518443,42.2888899 71.6531934,44.0906661 C71.6545433,45.8924423 73.2307124,46.8693536 77.7287908,46.8727232 Z" id="Oval" fill="#000000" transform="translate(77.448922, 48.859083) scale(-1, -1) rotate(131.000000) translate(-77.448922, -48.859083) "></path>
                <path d="M73.8689234,45.1619907 C69.2235334,49.227401 68.3545006,51.7854652 65.5296621,54.2550288 C63.7313019,55.8265203 61.3891007,41.8334551 63.2702883,41.166723 C64.4794518,40.7383872 69.3068088,39.1007406 73.2808706,39.3637375 C77.2549324,39.6267344 78.1091594,41.0244812 80.464303,42.7089319 C77.1903113,42.8768777 74.9612127,44.2060743 73.8689234,45.1619907 Z" id="Path" fill="#FFFFFF"></path>
                <path d="M102.876029,66.7370954 C98.4586984,65.3353442 96.4588693,59.4501622 95.3954082,55.7982055 C95.0196879,54.5079615 95.7742604,54.081094 96.967901,54.6933644 C101.395038,56.9670858 105.577504,60.950748 106.562128,66.4591776 C106.67027,67.0659184 103.707578,67.0012527 102.876029,66.7370954 Z" id="Fill-14" fill="#C4C3C6" transform="translate(100.931654, 60.673930) scale(-1, -1) rotate(131.000000) translate(-100.931654, -60.673930) "></path>
                <path d="M26.5696306,49.2895762 C26.4575359,49.3966854 26.3454413,49.5037946 26.2333466,49.6109038 C26.1661085,49.7001811 26.098857,49.7715928 26.0316323,49.8787356 L26.5696306,49.2895762 Z" id="Fill-16" fill="#D796A0" transform="translate(26.300631, 49.584156) scale(-1, -1) rotate(131.000000) translate(-26.300631, -49.584156) "></path>
                <path d="M42.4882283,44.4269181 C42.1579501,41.983524 40.7645654,38.5182114 38.3092514,37.0406974 C36.9329181,36.2125103 36.3598396,36.6925743 32.8582889,35.1500142 C31.9491035,34.7501993 31.5554165,34.633171 30.7307834,34.2564125 C27.3175227,32.6950525 24.4950938,33.5088925 21.9412064,36.2926617 C20.3600228,38.0153576 18.5810703,39.5221256 17.2450769,41.5120771 C15.970426,43.4490138 16.1286146,45.4554132 16.7979001,47.6190191 C18.4125364,52.8346392 29.6813867,70.6556745 34.7112019,76.8156693 C35.9546205,78.3384793 37.4377763,78.400523 37.5776879,78.2529202 C38.3954704,77.391003 37.3638649,76.731689 36.992357,76.0333688 C34.5266081,71.4069941 31.7298872,67.0055842 29.3965229,62.2837996 C28.4711591,60.4124248 28.1037085,58.6611492 28.2004598,56.9992452 C28.2706313,55.7942322 29.2196613,54.0374576 31.0347967,50.5173611 C31.9730102,48.6969057 32.5876521,47.6361538 33.470358,46.470071 C33.7086502,46.1542441 34.4622714,45.176135 35.622351,44.1134335 C35.622351,44.1134335 37.2559319,42.6159896 39.0007315,42.238208 C39.3813462,42.1553649 39.733473,42.1385314 39.8768543,42.3473439 C39.9188985,42.4086898 40.0030206,42.5761886 39.8520594,43.0306281 C39.5947248,43.8021725 39.0032841,44.2085275 38.8677443,44.4047503 C37.816769,45.9209071 37.5001281,47.3073206 37.8746359,48.4165681 C38.2933938,49.6567316 39.5154909,50.1611334 41.0203426,50.7642039 C42.2865935,51.2709971 44.0540374,51.6519993 44.2426871,51.1946402 C44.337817,50.9624239 43.9945571,50.596638 43.8285697,50.3990103 C42.4828883,48.7996985 42.7535333,46.3891805 42.4882283,44.4269181 Z" id="Fill-18" fill="#C4C3C6" transform="translate(30.273749, 55.889109) scale(-1, -1) rotate(131.000000) translate(-30.273749, -55.889109) "></path>
                <path d="M28.7061453,47.3564155 C26.0117228,45.9357565 19.9462633,54.372647 19.0058761,56.1922372 C17.7317579,58.6562571 7.87387222,56.4044695 7.19935511,54.2246175 C6.53111434,52.0633756 6.37429332,50.0588221 7.65149543,48.1225991 C8.99013258,46.1333611 10.7717487,44.626559 12.3555871,42.9041628 C14.9137636,40.120879 17.7392365,39.3056272 21.1542702,40.863088 C21.979332,41.2389049 22.3732707,41.3555378 23.2829404,41.7543279 C26.7863543,43.292939 27.3602868,42.8128593 28.7371862,43.6393032 C28.7499755,43.6469799 28.762736,43.6547106 28.7754676,43.6624947 C29.4197675,45.2437439 29.7772279,45.5489233 29.783953,47.3564155 L28.7061453,47.3564155 Z" id="Shape" fill="#FFFFFF" transform="translate(18.237791, 48.674120) scale(-1, -1) rotate(131.000000) translate(-18.237791, -48.674120) "></path>
            </g>
            <g id="Group-35-Copy" transform="translate(212.204338, 138.363354) rotate(-42.000000) translate(-212.204338, -138.363354) translate(158.704338, 85.363354)">
                <g id="Group-3" transform="translate(53.121888, 52.986848) scale(-1, -1) rotate(131.000000) translate(-53.121888, -52.986848) translate(21.121888, 10.486848)" fill="#000000" stroke="#000000" stroke-width="2.23354397">
                    <path d="M25.4628519,22.8239506 C31.2055506,43.2552863 48.3804009,33.9043088 50.926412,36.353288 C54.7699851,40.0501444 58.8669805,44.4932539 58.822779,50.4498379 C58.7933112,54.4289587 56.0939504,57.9900321 54.2841412,61.0702081 C53.2689782,62.7976659 52.3078394,64.4331861 51.7012954,66.1418263 C51.8741727,66.1912897 52.0534347,66.2343014 52.1619742,66.2606461 C58.1964723,67.7085278 63.0154269,73.3968263 63.8812867,80.0932117 C64.1852954,82.4454145 63.0365454,83.4352215 62.5287184,83.7513575 C62.1171525,84.0088901 61.6564738,84.1395382 61.160925,84.1395382 C60.6589915,84.1395382 60.2204136,84.0040513 59.8574695,83.8712527 C54.0867075,81.7609907 49.2613682,78.9302826 45.1069106,75.2162215 C40.6106276,71.1983903 37.681045,66.8025936 36.3996903,62.1519526 C35.1036017,57.4480846 35.6890271,52.4054994 37.8097207,48.6548783 C36.1718065,48.3150858 34.4125836,48.2408906 32.5875494,48.1634696 C31.2661697,48.1076105 32.5031639,55.4440029 30.9784961,56.2632248 C28.6876638,57.494116 23.6031514,52.2831084 21.7141857,51.2220525 C18.9157345,49.6505122 14.9500155,44.4396756 12.9344234,41.7164968 C8.5344015,35.7738916 4.07846829,26.2338511 1.11352444,18.0594759 C0.481441829,16.3158887 -0.060273107,14.4222982 0.257978278,12.389995 C0.624360275,10.0496204 2.04077539,8.28291441 3.07558352,6.99256314 C5.74830581,3.65861806 11.4768742,0.292512825 15.6092309,0.292512825 C15.9328847,0.292512825 16.2604675,0.31401868 16.5821568,0.357030389 C18.0579985,0.551658371 19.3889572,1.19844694 20.5632459,1.76888973 C21.6918596,2.31728902 22.7581,2.83558012 23.6937001,2.83558012 C23.8096065,2.83558012 23.9240395,2.82805307 24.0345434,2.81192368 C24.8402193,2.69958515 25.6537041,2.13450943 26.5268124,1.39512565 C29.0647727,5.27768166 28.7101192,12.4206233 25.4628519,22.8239506 Z" id="Shape"></path>
                </g>
                <path d="M36.8179658,12.1191982 C33.0819499,11.6251012 29.9446199,14.9843157 27.4624556,18.0811587 C26.4340321,19.3639829 25.3682829,20.7408953 25.1045468,22.4231907 C24.8658582,23.9495688 25.3280103,25.4963773 25.8500801,26.9356567 C28.6048209,34.5315245 33.1566015,41.1671558 37.8571941,47.5162217 C39.6512872,49.9399315 41.547535,52.4018142 44.0832324,53.8255018 C49.4090318,56.8169661 56.1595956,54.5308938 61.6445207,57.1551457 C58.2503304,60.5697377 57.4203229,66.326855 58.7517727,71.1581452 C60.0832226,75.9905107 63.2495292,79.9862985 66.8205258,83.1777673 C71.0442325,86.9525824 75.8052339,89.5768342 80.9512803,91.4585965 C81.3029284,91.5876316 81.706145,91.7112903 82.0283255,91.5102106 C82.4639566,91.2386992 82.4777082,90.5650283 82.4074768,90.0214678 C81.6624346,84.2573611 77.4072957,79.2352065 72.2126276,77.9889422 C71.3678863,77.7862495 70.3374983,77.5206522 70.0978275,76.6114922 C69.9789744,76.158794 70.1086324,75.6759876 70.2569532,75.2340423 C71.9930931,70.0780137 76.4613819,65.9311473 76.5016544,60.4358638 C76.5394713,55.3502669 72.7631829,51.3292097 69.2737136,47.9726835 C66.4286052,45.2360635 63.2347953,42.345139 59.4481932,42.2967509 C57.0269288,42.266105 54.7471095,43.4220447 52.4334023,44.2032449 C47.2888293,45.9409179 40.612426,45.1946647 38.0379295,40.0182056 C35.7173465,35.3508975 37.9485441,29.388937 41.3520658,25.6001431 C41.7935905,25.109272 42.3289208,24.606035 42.9575655,24.6388314 C43.8283366,24.685069 44.3391105,25.68079 44.875423,26.433495 C46.4239517,28.6066615 39.5756534,12.4837225 36.8179658,12.1191982 Z" id="Fill-4" fill="#000000" transform="translate(53.739660, 51.843413) scale(-1, -1) rotate(131.000000) translate(-53.739660, -51.843413) "></path>
                <path d="M79.5625313,45.2465774 C79.6008393,45.5046477 79.6990651,45.7439003 79.5664603,45.9949812 L79.5733361,45.9487436 C79.420104,51.5278999 76.1806192,55.7124015 74.050103,60.3818602 C73.3527002,61.9109264 72.5614919,63.2082671 72.6985168,65.0857282 C72.7712039,66.0884387 73.8835455,69.536045 73.4115708,69.809707 C73.3143273,69.8661598 70.3929233,67.8779483 69.4088226,67.0533604 C62.8919518,61.592808 62.8425465,56.8065119 62.8425465,56.8065119 C61.9771777,51.480587 64.675772,48.57811 65.393125,48.1967731 C68.7798215,46.3964428 77.4773063,48.6743999 77.9487898,48.4039638 C78.3004379,48.2023464 77.057333,44.6075847 74.3192415,42.4895269 C73.4420857,41.7007997 72.4863492,42.1341427 71.7570231,42.4744728 C68.0863274,44.1874141 66.2946517,43.5160178 62.6170801,42.9703067 C60.2763608,42.6224495 58.9680739,32.5882568 61.6108374,30.6462781 C63.9044083,28.9602191 64.012415,29.3489122 66.1439134,30.6564681 C67.5137704,31.4971044 71.2573541,33.5881023 74.1105609,36.5428893 C77.1935181,39.7356062 79.3515896,43.8230752 79.5625313,45.2465774 Z" id="Fill-10" fill="#C4C3C6" transform="translate(69.891062, 49.667356) scale(-1, -1) rotate(131.000000) translate(-69.891062, -49.667356) "></path>
                <path d="M72.4638432,43.3687042 C74.7461552,43.3687042 75.9628174,46.2491713 74.5289936,50.9584388 C73.0951699,55.6677064 77.3624071,48.1304479 77.3624071,47.4013581 C77.3624071,45.7582448 78.4556926,37.8606618 74.3528473,37.8606618 C70.2500021,37.8606618 66.9239888,39.1926684 66.9239888,40.8357818 C66.9239888,42.4788951 68.360998,43.3687042 72.4638432,43.3687042 Z" id="Oval" fill="#000000" transform="translate(72.209269, 45.178742) scale(-1, -1) rotate(131.000000) translate(-72.209269, -45.178742) "></path>
                <path d="M68.4736034,42.2625602 C63.8286757,46.24223 62.9597295,48.746344 60.1351721,51.1638238 C58.3369909,52.7021723 55.9950228,39.0042243 57.8760232,38.3515537 C59.0850664,37.9322516 63.9119429,36.3291434 67.8856092,36.5865937 C71.8592755,36.8440439 72.7134175,38.2123119 75.0683267,39.8612371 C71.7946608,40.0256408 69.565784,41.3268044 68.4736034,42.2625602 Z" id="Path" fill="#FFFFFF"></path>
                <path d="M95.3797614,61.4929612 C91.351524,60.2176641 89.5314335,54.8520893 88.56391,51.5224453 C88.2220845,50.3460751 88.9106469,49.9562815 89.9989881,50.5138208 C94.0355747,52.5842969 97.8478194,56.214306 98.7421647,61.2369983 C98.8403905,61.7902364 96.1380641,61.7332891 95.3797614,61.4929612 Z" id="Fill-14" fill="#C4C3C6" transform="translate(93.610257, 55.965411) scale(-1, -1) rotate(131.000000) translate(-93.610257, -55.965411) "></path>
                <path d="M25.6011488,45.8342675 C25.5986931,45.8374934 25.5962375,45.8407193 25.5937818,45.8439452 C25.5923084,45.8466334 25.5908351,45.848784 25.5893617,45.8520098 L25.6011488,45.8342675 Z" id="Fill-16" fill="#D796A0" transform="translate(25.595255, 45.843139) scale(-1, -1) rotate(131.000000) translate(-25.595255, -45.843139) "></path>
                <path d="M43.0483185,40.8753551 C42.74873,38.6473486 41.4801446,35.4881386 39.2415801,34.1424097 C37.9867463,33.3880919 37.4636943,33.8262736 34.2708667,32.4219414 C33.4418415,32.0579548 33.0828264,31.9515008 32.3309084,31.6084824 C29.218626,30.1869454 22.1721594,30.852998 19.8407716,33.3933771 C18.3973444,34.9654551 16.773673,36.3407545 15.5537093,38.1563862 C14.3897343,39.9236298 14.5326528,41.7532404 15.1416524,43.7258649 C16.610853,48.4811017 24.4383846,64.68257 29.0220388,70.2966881 C30.1551621,71.684552 31.5079557,71.740119 31.6356746,71.6054183 C32.3821901,70.8188417 33.2592669,63.9145684 35.0129773,56.6259848 C35.1916722,55.8833123 33.4579395,52.5326222 32.2881135,49.6658493 C31.1182874,46.7990764 34.0154798,43.8087536 34.821422,42.7447515 C35.038992,42.456573 35.7270633,41.5640801 36.7859367,40.5941661 C36.7859367,40.5941661 38.2770034,39.227469 39.8687514,38.8817624 C40.2159794,38.8059543 40.5371776,38.7903625 40.6678178,38.9806893 C40.7061258,39.0366045 40.7827419,39.1892961 40.6447347,39.6038215 C40.4094841,40.3076005 39.8697337,40.6785765 39.7459693,40.8576128 C38.7863038,42.2409769 38.4965379,43.5055211 38.8373812,44.5168339 C39.2184971,45.6475042 37.4873815,46.056986 38.859595,46.605923 C40.0142385,47.0672236 41.6261229,47.4134678 41.798509,46.9962542 C41.8854388,46.7844216 44.4180764,46.500749 44.2668088,46.3206374 C43.0404605,44.8630782 43.2889716,42.6646422 43.0483185,40.8753551 Z" id="Fill-18" fill="#C4C3C6" transform="translate(29.476130, 51.264205) scale(-1, -1) rotate(131.000000) translate(-29.476130, -51.264205) "></path>
                <path d="M32.8935641,45.706108 C28.423018,51.7119006 25.9020718,55.2683934 25.3307254,56.3755865 C25.01278,56.9913928 25.1844618,59.7289868 25.845771,64.5883686 C23.7083983,60.4373111 21.5499818,57.1196078 19.3705214,54.6352589 C17.4742168,52.4736769 18.135702,52.3532649 19.8056823,52.2231165 C21.0147142,52.1288918 22.6319226,52.311542 24.7675924,50.3579292 C29.8531649,45.7058807 31.2277521,40.1743895 32.4825859,40.9287074 C32.4942414,40.9357142 34.8039553,42.0766664 34.8155583,42.0837711 C34.8271612,42.0908759 40.7525992,42.5971607 40.7587282,44.2469081 L32.8935641,45.706108 Z" id="Shape" fill="#FFFFFF" transform="translate(29.489265, 52.723776) scale(-1, -1) rotate(251.000000) translate(-29.489265, -52.723776) "></path>
            </g>
            <g id="Group-99" transform="translate(209.384034, 86.105957) scale(-1, 1) rotate(1.000000) translate(-209.384034, -86.105957) translate(128.884034, 5.605957)">
                <g id="Group-93">
                    <g id="Group-94" transform="translate(0.174860, 0.285440)">
                        <g id="Group-22" transform="translate(24.497892, 122.570009)">
                            <path d="M17.1722234,29.4832049 C26.3739565,28.8224407 33.6081164,22.3957165 33.3301717,15.1287146 C33.052227,7.86171262 25.3674297,2.50629874 16.1656966,3.16706288 C6.96396349,3.82782701 -0.270196352,10.2545512 0.00774834664,17.5215532 C0.285693046,24.7885551 7.97049029,30.143969 17.1722234,29.4832049 Z" id="Oval" fill="#000000"></path>
                            <path d="M17.27246,24.7591956 C25.687641,24.2074617 32.277657,18.2268284 31.9916728,11.4010774 C31.7056885,4.57532628 24.6520003,-0.510769553 16.2368193,0.040964368 C7.82163827,0.592698289 1.23162223,6.57333155 1.5176065,13.3990826 C1.80359077,20.2248337 8.85727892,25.3109296 17.27246,24.7591956 Z" id="Oval-Copy" fill="#C4C3C6"></path>
                        </g>
                        <path d="M97.2105173,123.804488 C113.092801,112.519488 117.857489,101.084348 124.111599,92.0280156 C141.587148,66.7223532 122.4455,83.1845606 143.50419,52.288578 C155.062276,35.3312829 131.711061,15.383187 104.692075,15.3873705 C95.5153327,15.3887914 83.4496257,10.0557111 73.1774183,13.9945453 C53.2052734,21.6527792 38.6625951,34.5800183 38.6604572,48.3968701 C38.6601684,50.2633544 25.8986569,56.4705636 24.2999673,69.3975126 C21.7736224,89.8254504 24.5868114,108.027919 17.2685416,117.99254 C11.5149572,125.826671 11.6750689,129.5683 16.8989642,134.923331 C34.425554,127.898235 42.017065,138.372655 56.6043677,145.76532 C71.1916704,153.157985 81.3282339,135.089489 97.2105173,123.804488 Z" id="Oval" fill="#000000" transform="translate(79.750698, 80.017499) rotate(-12.000000) translate(-79.750698, -80.017499) "></path>
                        <path d="M101.814265,19.3896742 C110.051188,18.4669376 138.074499,26.4917371 127.702643,46.9052527 C117.330786,67.3187695 128.348626,55.6808003 117.798649,80.9839338 C114.023048,90.0393608 112.274623,88.6494611 98.5926923,107.298662 C84.9107618,125.947864 90.3919725,143.566541 71.4862415,141.24521 C63.4156502,140.254266 54.2914432,137.387284 45.7594438,137.26713 C37.2274444,137.146975 29.8580663,142.007822 28.7483383,140.64334 C24.9648846,135.991341 36.4752046,122.543323 34.4623587,116.770136 C29.9409322,103.801911 29.0910365,89.5354438 28.3386777,80.8461694 C27.3371302,69.2789224 37.315617,61.5013936 36.9699599,59.8739666 C35.0147896,50.66861 42.2185116,39.6219334 52.8629994,30.2919963 C56.3559727,27.2303909 65.2206858,25.6952442 72.479473,23.0532617 C96.7587654,22.0040601 93.577341,20.3124109 101.814265,19.3896742 Z" id="Path" fill="#C4C3C6"></path>
                        <g id="Group-28" transform="translate(34.654268, 41.447464)">
                            <g id="Group-29" transform="translate(45.971556, 63.412292) scale(1, -1) rotate(-11.000000) translate(-45.971556, -63.412292) translate(3.971556, 38.912292)">
                                <g id="Group-32" transform="translate(24.036156, 21.549649) rotate(-2.000000) translate(-24.036156, -21.549649) translate(1.036156, 3.049649)">
                                    <path d="M8.25892105,30.9894742 C8.80321488,31.1534024 7.68764789,37.0772332 8.92427714,36.4471392 C10.9734591,35.4030288 12.5633923,36.1448783 13.6800898,36.2824665 C14.2842155,36.3569007 15.7875259,32.5094609 16.4244114,32.5514296 C22.3844646,32.9441782 28.1425139,31.3762512 31.7001887,25.5985125 C34.151493,21.6175428 42.5253949,4.85512327 45.1406088,3.97062926 C40.4162349,2.67785615 39.0940204,0.747638469 22.6866954,3.30036153 C14.1199967,4.63320582 20.1659588,7.94218849 17.8540472,10.2797886 C12.8966985,15.2922202 7.53603599,19.9296809 5.16070682,21.4333303 C4.23111255,22.0217894 4.90858717,1.10225243 2.37864147,8.4459982 C-0.151304225,15.789744 -2.8929785,27.6307912 8.25892105,30.9894742 Z" id="Path-Copy-69" fill="#FFFFFF"></path>
                                    <path d="M10.502418,28.2130345 C21.0289198,30.1282032 25.6798778,30.258096 31.2379247,23.9731513 C34.4983187,20.2863534 42.2635597,4.90023692 44.9323735,4.48994619 C32.3325265,2.24693367 24.7442469,9.76303617 15.6570183,8.96075617 C6.56978977,8.15847617 5.44327619,3.41006124 1.73946803,0.370603621 C3.93248933,4.45267134 0.454412522,14.2672705 1.47851339,19.3006539 C2.50261426,24.3340373 5.51058246,27.3048308 10.502418,28.2130345 Z" id="Path-Copy-10" fill="#000000"></path>
                                </g>
                                <path d="M53.2415117,21.9223991 C57.6176056,20.3030787 54.5859639,17.1343268 47.5811624,13.8209181 C44.6733802,12.44548 42.7115934,10.1290989 41.3079563,8.64283699 C43.3911897,19.5334632 46.1609176,33.044064 46.9968604,35.5756685 C47.2327256,29.1542288 48.8654178,23.5417195 53.2415117,21.9223991 Z" id="Path-Copy-70" fill="#000000" transform="translate(48.293713, 22.109253) rotate(48.000000) translate(-48.293713, -22.109253) "></path>
                                <path d="M76.9064634,40.4138079 C59.1053655,22.2755052 47.8698827,11.5312416 43.200015,8.18101723 C40.2922327,6.09493607 40.9627059,13.7956202 47.771086,24.0451347 C52.2856722,30.8415117 58.1763963,35.808964 65.4432583,38.9474915 L76.9064634,40.4138079 Z" id="Path-Copy-94" fill="#000000" transform="translate(59.238361, 24.126004) rotate(42.000000) translate(-59.238361, -24.126004) "></path>
                            </g>
                            <path d="M87.1741184,7.76600786 C96.2065171,9.05131563 101.781371,14.8681269 102.5454,18.3280019 C97.0354779,15.4215767 95.3288795,14.4498845 89.0895591,14.0731785 C82.8502387,13.6964726 80.1004835,15.1837494 75.3058795,16.6833853 C77.0700189,13.5915305 85.2897871,7.49786804 87.1741184,7.76600786 Z" id="Path-Copy-90" fill="#000000" transform="translate(88.925640, 13.042722) scale(-1, 1) rotate(-138.000000) translate(-88.925640, -13.042722) "></path>
                        </g>
                        <path d="M54.9721434,83.0413873 C58.7662199,84.5977119 54.0566934,89.7672724 51.2339724,90.9386127 C50.8344061,88.0971436 51.1780668,81.4850627 54.9721434,83.0413873 Z" id="Path-Copy-79" fill="#000000" transform="translate(53.747696, 86.873013) scale(-1, 1) rotate(-198.000000) translate(-53.747696, -86.873013) "></path>
                        <path d="M72.4216955,82.6976025 C74.9545731,93.3951284 74.8131563,97.3561869 71.3077223,96.8908399 C72.687168,92.2707165 71.4897016,86.6909474 72.4216955,82.6976025 Z" id="Path-Copy-92" fill="#000000" transform="translate(72.730682, 89.812403) scale(-1, 1) rotate(-151.000000) translate(-72.730682, -89.812403) "></path>
                        <path d="M31.9626535,98.5695671 C35.6216935,98.5695671 35.6216935,90.1507172 42.8180494,88.5100896 C40.5969896,90.7780401 37.3545494,95.0955567 35.6216935,100.100267 C33.7526611,105.498272 33.5051164,111.642136 34.3366634,115.34305 C34.2894418,114.523356 29.9823434,110.869487 29.5232935,110.049817 C28.7407436,108.652511 27.1846169,102.769713 27.8970535,103.544342 C28.3662445,104.054491 30.6801405,105.01249 31.1495335,105.075042 C31.0817897,103.444251 28.3036135,98.5695671 31.9626535,98.5695671 Z" id="Path" fill="#000000" transform="translate(35.266568, 101.926570) rotate(4.000000) translate(-35.266568, -101.926570) "></path>
                        <path d="M61.8450479,77.0209563 C66.7762051,79.1430967 60.0937089,85.5861231 56.8437412,86.834922 C56.3244253,82.9604115 56.9138907,74.898816 61.8450479,77.0209563 Z" id="Path-Copy-81" fill="#000000" transform="translate(60.145593, 81.752922) rotate(-95.000000) translate(-60.145593, -81.752922) "></path>
                        <g id="Group-24" transform="translate(52.031382, 64.966776) rotate(6.000000) translate(-52.031382, -64.966776) translate(39.531382, 42.966776)" fill="#000000">
                            <g id="Group-25" transform="translate(12.419805, 21.742950) rotate(5.000000) translate(-12.419805, -21.742950) translate(1.919805, 1.242950)">
                                <path d="M12.5175031,33.454706 C16.3115797,34.8553982 11.6020532,39.5080027 8.77933219,40.5622089 C8.37976585,38.0048868 8.72342655,32.0540139 12.5175031,33.454706 Z" id="Path-Copy-86" transform="translate(11.293056, 36.903169) rotate(-103.000000) translate(-11.293056, -36.903169) "></path>
                                <path d="M7.21962246,22.6564848 C11.6273726,17.002967 5.72510842,20.4997589 0.660195668,17.9495271 C8.05697392,16.6094612 10.6078936,15.4537467 13.0199955,13.6296145 C15.4320973,11.8054823 19.5688921,4.03108362 20.5558889,0.38443431 C21.1540637,7.72321118 19.2699676,11.1316511 15.2225829,18.1425953 C11.8063598,24.0602314 6.95819127,26.0033266 4.90231913,29.6942702 C2.00638013,39.0730321 8.09961844,39.3351807 11.7882957,39.22594 C6.33654665,40.0316515 3.10949901,38.8635324 2.08057273,37.8516072 C1.30276592,37.0866523 -0.643539354,35.4573715 0.631520613,32.0647042 C1.81312483,28.920703 6.15120601,24.0268691 7.21962246,22.6564848 Z" id="Path"></path>
                            </g>
                        </g>
                        <path d="M93.0489545,60.0479719 C98.1609274,59.9871467 104.249813,60.1831487 108.96983,63.7590286 C113.689847,67.3349085 109.639517,72.514829 106.79642,74.6721754 C101.546725,78.6556503 98.1563201,72.0573788 85.2403601,73.4984328 C73.1071905,74.8521497 82.0049029,60.1793805 93.0489545,60.0479719 Z" id="Path-Copy-74" fill="#FFFFFF" transform="translate(95.275886, 68.004569) scale(-1, 1) rotate(179.000000) translate(-95.275886, -68.004569) "></path>
                        <g id="Group-33" transform="translate(92.695415, 27.418928) rotate(5.000000) translate(-92.695415, -27.418928) translate(50.695415, 10.918928)" fill="#FFFFFF">
                            <path d="M36.2055528,13.9221318 C29.6889696,15.4343523 19.4354546,21.3189475 12.3106762,24.3444377 C-10.6898278,34.11145 4.65501863,19.227384 14.2670411,14.8622806 C21.769369,11.4552518 33.1635776,9.55857841 42.681067,9.08046659 C42.9443202,10.5285598 39.9397011,10.89783 36.2055528,13.9221318 Z" id="Shape"></path>
                            <path d="M66.4589832,38.4264137 C58.683078,40.5257016 46.8247941,19.9400261 52.1062136,6.85376952 C53.7909057,2.67945364 56.2739446,-0.1889483 61.7960013,-5.73978632 C61.8182819,-1.99166254 61.6992711,-8.14204193 61.9495144,6.98284164 C62.1997577,22.1077252 71.8712634,35.2749629 66.4589832,38.4264137 Z" id="Path-Copy-88" transform="translate(59.448077, 16.417734) rotate(112.000000) translate(-59.448077, -16.417734) "></path>
                        </g>
                        <path d="M41.2194351,60.8105349 C44.2790089,60.7754219 47.842237,62.8225508 49.8429463,65.7906237 C51.016578,67.5317186 51.3966183,70.424916 38.658798,68.9353651 C37.8591032,68.8418495 34.725746,68.9805025 33.3211305,68.1399433 C30.3105542,66.3926512 36.0999036,60.8692888 41.2194351,60.8105349 Z" id="Path-Copy-84" fill="#FFFFFF" transform="translate(41.437493, 65.078970) scale(-1, -1) rotate(157.000000) translate(-41.437493, -65.078970) "></path>
                        <path d="M60.7686169,65.3866785 C61.3862774,66.5048061 62.0923928,67.6397815 58.9336672,69.3889955 C55.7749415,71.1382094 54.5792287,71.4368496 51.7176079,70.3988742 C50.8833774,69.8104381 51.7402622,67.7085701 54.5197346,65.8450241 C60.0626671,62.1286678 64.6785972,47.2607678 66.3444486,47.5158845 C67.9792112,47.7662401 69.3999703,53.9522713 62.2703228,61.9763389 C62.1521178,62.1093728 60.1509564,64.2685509 60.7686169,65.3866785 Z" id="Path" fill="#FFFFFF" transform="translate(59.542885, 59.254775) rotate(2.000000) translate(-59.542885, -59.254775) "></path>
                        <path d="M48.50571,123.100362 C54.0393258,123.042614 60.6814114,125.343525 67.2773371,130.408506 C73.8732627,135.473486 60.3284812,135.135146 49.4649953,134.234154 C38.6015094,133.333162 38.705023,138.93552 36.1639684,137.498327 C30.7176509,134.51073 39.2464071,123.19699 48.50571,123.100362 Z" id="Path-Copy-76" fill="#FFFFFF" transform="translate(51.736094, 130.417382) scale(-1, -1) rotate(186.000000) translate(-51.736094, -130.417382) "></path>
                        <path d="M46.570383,119.30267 C48.8318209,119.289595 53.7411506,120.691017 59.0096212,125.0577 C54.7597349,122.27899 43.2896463,122.912273 37.0614877,128.707022 C38.8385515,123.163854 42.7863585,119.324791 46.570383,119.30267 Z" id="Path-Copy-83" fill="#000000" transform="translate(48.035554, 124.004846) scale(-1, 1) rotate(12.000000) translate(-48.035554, -124.004846) "></path>
                        <g id="Group-30" transform="translate(90.187839, 54.144092) scale(1, -1) rotate(-17.000000) translate(-90.187839, -54.144092) translate(75.187839, 43.644092)">
                            <path d="M28.0326259,15.280435 C22.2898307,15.1253714 17.8820989,15.2364777 14.8094304,15.6137539 C9.57710871,16.2562023 7.35023517,18.6847986 3.33642583,20.0065227 C0.660552937,20.887672 -0.118153642,19.3366769 1.00030609,15.3535372 C5.46273199,5.37577856 10.0783556,0.386899259 14.8471769,0.386899259 C19.2554345,0.386899259 26.0502852,5.34001855 29.081563,14.2564651 C29.2316646,14.697986 28.8820189,15.0393093 28.0326259,15.280435 Z" id="Path" fill="#FFFFFF"></path>
                            <path d="M14.5236336,3.60384201 C21.6345975,3.60384201 27.4767082,8.59739484 28.1259937,14.9776569 C24.2505289,13.5499171 19.7896804,12.7370471 15.0424559,12.7370471 C9.85097471,12.7370471 5.00197685,13.7091767 0.887041323,15.3938345 C1.31876304,8.81545387 7.25906752,3.60384201 14.5236336,3.60384201 Z" id="Combined-Shape-Copy-19" fill="#000000"></path>
                        </g>
                        <g id="Group-31" transform="translate(53.865398, 51.006185) rotate(-187.000000) translate(-53.865398, -51.006185) translate(40.365398, 40.506185)">
                            <path d="M14.2495573,9.65542456 C9.89595725,9.35312878 5.75459487,10.0733884 2.16256691,11.5745486 C3.3066829,4.77021259 8.53685345,-0.210576902 14.4286323,0.198523586 C20.1807732,0.597928195 25.0864419,6.47286301 26.050813,8.72550048 C27.0151842,10.978138 25.1602811,15.9273752 20.8482414,15.1938418 C17.873681,15.1390455 14.5154669,15.4288435 11.0127567,16.1049207 C7.13745454,16.852914 2.03281414,22.467447 0.535323777,18.9454117 C-0.962166586,15.4233764 4.39347983,13.2415115 9.7972491,12.1985005 C12.6368729,11.6504092 17.0002204,9.84641911 14.2495573,9.65542456 Z" id="Path" fill="#FFFFFF"></path>
                            <path d="M14.8838634,2.6143964 C19.3287829,2.61463558 25.0979057,8.15124018 24.1674808,11.312387 C23.4947873,13.5978834 17.0483434,13.1757519 14.8741297,13.1756349 C9.69268826,13.1753561 4.84179456,14.2167462 0.686782544,16.0308764 C2.87744633,7.08616497 7.60980662,2.61400497 14.8838634,2.6143964 Z" id="Path-Copy-73" fill="#000000" transform="translate(12.477023, 9.322636) rotate(4.000000) translate(-12.477023, -9.322636) "></path>
                        </g>
                        <path d="M83.8084282,58.3148137 C87.2155271,59.4360495 91.3955091,60.2221384 96.3483742,60.6730805 C93.9137186,61.2100982 92.2313071,61.4896314 91.3011398,61.51168 C80.7815899,61.7610348 75.7571759,63.1710347 75.0212708,67.4321642 C74.5614017,71.2299007 84.0365855,77.8092871 80.5324398,80.9139638 C77.0282941,84.0186405 68.5130109,84.3876167 67.803414,84.4748119 C70.3035387,81.8342325 71.5279275,78.7972852 70.2670219,75.7903939 C69.0061163,72.7835026 68.0773082,70.962907 63.9436768,70.3041652 C64.1696181,70.5857695 68.0648482,68.591714 70.229102,64.9878927 C72.6732813,60.9179517 72.3122151,56.3465741 75.0387398,55.00672 C77.7652645,53.666866 78.6977798,56.63296 83.8084282,58.3148137 Z" id="Path-2" fill="#000000"></path>
                        <path d="M68.9760345,77.4883567 C67.9170585,71.4826051 63.2362282,70.9397156 61.7746283,69.8256827 C65.7033461,70.6344468 69.2396159,70.9669942 71.2139314,73.7911004 C73.3089338,76.7878398 74.2274332,81.5163755 67.63271,83.9176987 C68.2216816,82.5753516 69.6114202,81.0918077 68.9760345,77.4883567 Z" id="Path" fill="#FFFFFF"></path>
                        <path d="M85.3956866,44.4021004 C78.6314956,43.818644 77.5223084,40.5168991 78.6287368,38.7246208 C79.7351653,36.9323424 83.0437504,41.0042691 87.3861638,41.2071078 C91.7789126,41.3921187 93.5922139,40.5066296 96.670935,39.6753993 C95.6257574,41.8764916 92.4045534,44.8805133 85.3956866,44.4021004 Z" id="Path-Copy-70" fill="#000000" transform="translate(87.463725, 41.361451) rotate(39.000000) translate(-87.463725, -41.361451) "></path>
                        <path d="M58.2468547,43.9613401 C64.4836912,42.6086747 68.0627792,37.3585749 66.2807895,36.0998585 C64.4987999,34.8411421 61.1610689,39.7491917 56.8773564,40.4438544 C52.5936439,41.1080159 50.7850428,40.2558739 47.5790295,39.5898183 C48.9156924,42.0503001 52.0100182,45.1731785 58.2468547,43.9613401 Z" id="Path-Copy-93" fill="#000000" transform="translate(57.158662, 40.062732) rotate(-17.000000) translate(-57.158662, -40.062732) "></path>
                    </g>
                </g>
            </g>
            <g id="Group-34" transform="translate(123.869998, 138.229731) rotate(-6.000000) translate(-123.869998, -138.229731) translate(10.369998, 35.229731)">
                <g id="Group-88" transform="translate(96.968901, 104.750017) rotate(-5.000000) translate(-96.968901, -104.750017) translate(7.968901, 14.250017)">
                    <g id="Group-26" transform="translate(88.958550, 90.317313) scale(1, -1) rotate(142.000000) translate(-88.958550, -90.317313) translate(31.458550, 20.817313)">
                        <g id="Group-3" transform="translate(1.788681, 7.292293)" fill="#000000" stroke="#000000" stroke-width="2.23354397">
                            <path d="M106.205309,129.812533 C100.434547,127.702271 95.6092082,124.871563 91.4547506,121.157502 C86.9584676,117.13967 84.028885,112.743874 82.7475303,108.093233 C81.4514417,103.389365 82.0368671,98.3467794 84.1575607,94.5961583 C82.5196465,94.2563658 80.7604236,94.1821706 78.9353894,94.1047496 C75.62862,93.9649615 72.208891,93.8203346 69.0627207,92.0530911 C66.2642694,90.4815507 64.2231386,87.9073 62.2075465,85.1841211 C57.8075247,79.2415159 52.8652968,72.2177038 49.9003529,64.0433286 C49.2682703,62.2997414 48.7265554,60.4061509 49.0448068,58.3738477 C49.4111887,56.0334731 50.8276039,54.2667671 51.862412,52.9764158 C54.5351343,49.6424708 57.8247142,46.2337928 61.9570709,46.2337928 C62.2807247,46.2337928 62.6083075,46.2552987 62.9299968,46.2983104 C64.4058385,46.4929384 65.7367972,47.1397269 66.9110859,47.7101697 C68.0396996,48.258569 69.10594,48.7768601 70.0415401,48.7768601 C70.1574465,48.7768601 70.2718795,48.7693331 70.3823834,48.7532037 C71.3926351,48.6123403 72.4151651,47.7596332 73.552128,46.7440192 L74.3551233,46.0257237 C81.296245,39.8137576 72.7405478,44.6784354 81.6275213,42.2025739 C82.5695061,41.9396648 72.0146486,42.1434782 72.1781945,42.0192819 C72.1516735,41.9397102 83.0571969,41.3998678 82.9786163,41.2262081 C82.3440781,39.8288652 81.4237029,38.4938893 80.4488125,37.0809546 C78.756383,34.6276743 94.099462,21.8951274 92.2572549,17.1960505 C92.230734,17.2455139 92.2037219,17.2949774 92.1776921,17.3433656 C92.0863421,17.5137995 91.9949922,17.6831581 91.9006955,17.8487532 C89.6189116,21.8794879 85.8583393,23.9311465 82.2210403,25.9150615 C80.8144478,26.6822829 79.4859447,27.4070302 78.2487915,28.2360809 C77.323014,28.8570624 76.4345622,29.5506262 75.4930685,30.2845135 C73.9234212,31.5087343 72.2997498,32.7754291 70.4447568,33.7216867 C67.567725,35.1905366 64.3852111,35.8459275 60.1256521,35.8459275 C58.2986534,35.8459275 56.4412047,35.7271076 54.644656,35.6131266 C52.8873976,35.5012962 51.0702214,35.3851645 49.3237678,35.3851645 C47.8710092,35.3851645 46.5980037,35.4652738 45.431573,35.6281807 C44.8201178,35.7136665 44.2096449,35.8260346 43.5638107,35.945392 C42.1783367,36.2007741 40.7457143,36.4642208 39.2389315,36.4642208 L39.0950308,36.4636831 C32.9284191,36.3954021 16.8075262,39.1908312 12.2984737,34.8794451 C7.13229114,29.9395503 7.48484941,33.7152184 3.36035075,27.7145473 C0.509348753,23.566068 -0.207059483,22.9754214 0.730996298,16.9505563 C1.00701062,15.175248 1.85666324,14.4187795 2.55259258,14.097267 C2.40596723,13.3768762 20.3268009,8.11731335 22.6503307,15.8078069 L29.9115143,21.2944297 C30.223381,22.3256354 37.1938717,20.9192515 37.7350955,21.5853954 C39.1696824,23.3504884 43.7337412,24.3031977 47.2998265,24.3031977 C47.7089367,24.3031977 48.0920171,24.2897566 48.4372806,24.2644872 C48.5836369,24.2537343 48.755532,24.2015826 48.8036626,24.1843779 C49.0094455,24.1053439 49.1572752,23.9628676 49.2132639,23.909103 C49.3571646,23.7714655 64.315962,10.2803053 76.6089129,3.8204843 C81.3070498,1.35214985 86.924305,-1.82194253 96.4551433,1.88434535 C105.985982,5.59063322 111.527038,10.0867115 112.904163,17.9347354 C113.468961,21.158463 111.420114,25.1860131 110.247299,27.7285427 C105.454374,38.1190963 97.2579271,52.6549033 85.4276195,62.8981418 C83.4208677,64.6352772 80.9686622,66.5014477 77.9958603,67.1649033 C77.3293986,67.314369 76.6432919,67.3896395 75.9576762,67.3896395 C73.1680653,67.3896395 70.7060372,66.1799352 69.2026923,64.0702109 C69.1064311,63.9352616 69.0111522,63.793323 68.9148909,63.6503091 C68.8530087,63.5583715 68.777866,63.4465411 68.7037056,63.3411624 C68.6801314,63.3658941 68.655575,63.3933141 68.629054,63.4228847 C65.8708754,66.4928454 63.7585309,71.5203765 65.6400449,75.303794 C67.3928832,78.8286035 71.5267133,79.2087195 73.2225806,79.2087195 C74.7264166,79.2087195 76.2852591,78.9501116 77.7311419,78.4619287 C78.2615609,78.2828924 78.7895242,78.082888 79.3184698,77.8834212 C81.1729717,77.1834056 81.1495453,74.4360031 83.289393,74.4360031 L83.4057905,74.4365407 C88.1112944,74.4967571 94.7282409,79.8455888 97.274252,82.294568 C101.117825,85.9914244 105.214821,90.4345339 105.170619,96.3911179 C105.141151,100.370239 102.44179,103.931312 100.631981,107.011488 C99.6168182,108.738946 98.6556794,110.374466 98.0491354,112.083106 C98.2220127,112.13257 98.4012747,112.175581 98.5098142,112.201926 C104.544312,113.649808 109.363267,119.338106 110.229127,126.034492 C110.533135,128.386695 109.384385,129.376501 108.876558,129.692638 C108.464993,129.95017 108.004314,130.080818 107.508765,130.080818 C107.006831,130.080818 106.568254,129.945331 106.205309,129.812533 Z" id="Fill-1"></path>
                        </g>
                        <path d="M51.2201533,33.5141889 C51.2201533,33.5141889 50.8154633,33.6684934 50.3582225,33.7023651 C47.0224765,33.9491448 40.3956772,33.1867623 38.0559401,30.307666 C37.2573649,29.3243108 36.8605329,28.0377231 36.482855,26.7887706 C35.8880981,24.8209849 35.2933413,22.8521239 34.6990756,20.8838006 C32.7144246,14.3159126 20.9892185,28.4925719 26.0586487,33.3394539 C30.1379635,37.2400782 35.2422639,41.542862 40.9039954,41.605229 C42.9436528,41.6283478 44.9474578,41.0708085 46.9704168,40.7874689 C55.1364134,39.6433574 63.9423507,42.8740744 71.4030865,39.0653876 C74.1411289,37.6675071 76.4351909,35.4217582 79.011652,33.6943005 C83.5398584,30.6587491 89.2227084,28.9490337 92.0196863,24.0080636 C92.4759448,23.203207 92.8634453,22.301574 93.5736174,21.7607018 C94.2832984,21.2198296 95.4585693,21.261766 95.8283892,22.1182366 C95.9938996,22.5010408 95.9609939,22.9451367 95.957556,23.3682644 C95.9236682,28.3248262 100.245109,31.834044 102.26021,36.2728524 C102.493005,36.7852294 102.700262,37.3443816 102.643291,37.9137491 C102.49939,39.3524908 100.916482,39.9336865 99.6351276,40.2906837 C90.8345928,42.7423511 83.6179479,49.4156177 76.5830207,55.7023166 C75.3424296,56.8109434 74.0090153,57.9561302 72.4207051,58.1787158 C69.6654732,58.5652835 67.2407709,56.0899596 64.4830834,55.7254354 C60.7470675,55.2313384 57.6097375,58.5905529 55.1275731,61.6873959 C54.0991496,62.9702201 53.0334004,64.3471325 52.7696643,66.0294279 C52.5309758,67.555806 52.9931279,69.1026145 53.5151976,70.5418938 C56.2699384,78.1377616 60.821719,84.773393 65.5223116,91.1224589 C67.3164047,93.5461687 69.2126526,96.0080514 71.7483499,97.431739 C77.0741494,100.423203 83.8247131,98.137131 89.3096382,100.761383 C85.9154479,104.175975 85.0854404,109.933092 86.4168903,114.764382 C87.7483401,119.596748 90.9146467,123.592536 94.4856434,126.784004 C98.70935,130.55882 103.470351,133.183071 108.616398,135.064834 C108.968046,135.193869 109.371263,135.317527 109.693443,135.116448 C110.129074,134.844936 110.142826,134.171265 110.072594,133.627705 C109.327552,127.863598 105.072413,122.841444 99.8777452,121.595179 C99.0330038,121.392487 98.0026159,121.126889 97.7629451,120.217729 C97.6440919,119.765031 97.7737499,119.282225 97.9220708,118.840279 C99.6582106,113.684251 104.126499,109.537384 104.166772,104.042101 C104.204589,98.9565041 100.4283,94.9354469 96.9388311,91.5789207 C94.0937227,88.8423007 90.8999129,85.9513762 87.1133107,85.902988 C84.6920463,85.8723422 82.412227,87.0282819 80.0985198,87.809482 C74.9539468,89.5471551 68.2775435,88.8009019 65.703047,83.6244428 C63.382464,78.9571347 65.6136616,72.9951742 69.0171833,69.2063803 C69.458708,68.7155092 69.9940383,68.2122722 70.622683,68.2450686 C71.4934542,68.2913062 72.004228,69.2870272 72.5405405,70.0397321 C74.0890692,72.2128987 76.9253374,72.9016237 79.3922767,72.3505362 C81.858725,71.7994487 84.0226379,70.2133919 85.9974664,68.5036765 C96.2355349,59.6389633 104.438366,46.7214718 110.282306,34.0512976 C111.343635,31.7507089 112.362236,29.2114051 111.918256,26.6785531 C110.811252,20.3681977 104.674599,16.6665025 99.8649758,14.1073059 C95.9251415,12.0110227 94.2670911,10.2518438 92.0309822,9.79538203 C90.3076117,9.44376131 86.7778698,9.09536647 79.2478849,13.051906 C67.6695262,19.1353746 53.2141358,31.9394227 52.3089856,32.807184 C52.2087954,32.9034227 51.8271884,33.2819257 51.2201533,33.5141889 Z" id="Fill-4" fill="#000000"></path>
                        <g id="Group-5" transform="translate(95.080163, 17.351243) rotate(5.000000) translate(-95.080163, -17.351243) translate(77.080163, 1.851243)">
                            <path d="M0.465977439,15.7076433 C5.91848806,12.3570312 7.63583107,10.976691 9.12591548,10.2503308 C13.0662409,8.33039562 24.9762436,12.2181017 26.1750887,13.3659767 C27.2148081,14.3627731 27.0925171,15.1611779 25.8813937,15.8095794 C25.4884908,16.0199784 24.6038611,17.3423816 23.2275048,19.7767892 C17.5139613,22.8092932 13.4070288,24.2907649 10.906707,24.2212043 C4.79729604,24.0512365 -0.945229576,16.5746898 0.465977439,15.7076433 Z" id="Fill-6" fill="#C4C3C6"></path>
                            <path d="M16.2428795,12.6934938 C18.2825394,12.884354 20.1627403,12.7037066 21.8657755,12.2990861 C28.5488632,10.7112657 32.5036838,5.67436851 32.6601973,6.10406962 C33.0727243,11.2310258 30.9941772,15.5142516 26.4245563,18.9537472 C19.5701248,24.1129906 11.4799407,26.2894167 8.99638467,23.9155205 C8.66803043,23.6016645 12.7561694,23.7441534 16.2428795,12.6934938 Z" id="Path-Copy-2" fill="#FFFFFF" transform="translate(20.844622, 15.476208) rotate(231.000000) translate(-20.844622, -15.476208) "></path>
                        </g>
                        <g id="Group-8" transform="translate(16.079064, 32.036516) rotate(-36.000000) translate(-16.079064, -32.036516) translate(5.579064, 19.536516)">
                            <path d="M5.00841174,0.267714242 C4.77136303,-0.0839257209 12.3707708,3.56166625 15.475367,6.66569162 C16.8997789,8.0896594 17.9348798,9.845925 18.5948008,11.7275276 C19.5931609,14.5750763 20.7017434,17.4141145 20.9550428,20.5355478 C21.2037496,23.5970205 18.8629378,25.6418707 16.1843934,24.581535 C14.2268869,23.8066892 12.7569023,22.1595132 10.9633162,21.0922143 C10.4291617,20.5049872 9.89500725,19.9185338 9.36085278,19.3316935 C2.23454848,10.6578883 2.11742707,9.23331353 0.684976841,5.78103211 C0.040628891,4.22811919 0.445130137,2.51749104 0.520101832,2.24756179 C0.620079156,1.88741129 0.554722955,1.43596592 0.918951296,1.24602618 C1.34676945,1.02320482 1.57675262,1.45414752 1.75021151,1.73731634 C2.81180818,3.46572927 6.17631007,8.89081051 6.52958683,8.50396787 C7.45623178,9.60182729 11.5126442,14.8110244 12.3633347,15.9750339 C12.7452268,16.3471765 8.36733255,8.1631595 7.94269388,7.73028258 C7.4369148,6.96866847 5.90232594,3.52808042 5.22936869,1.61998874 C4.83484821,0.501372011 5.20021129,0.552224642 5.00841174,0.267714242 Z" id="Fill-8" fill="#C4C3C6"></path>
                            <path d="M15.56538,6.82778155 C16.973982,8.26896803 17.9975942,10.0464705 18.6501906,11.9508256 C19.4426765,14.2641833 20.3053929,16.5719912 20.7445271,19.0265237 C19.1571351,18.4570518 15.834698,11.9353544 12.3085816,8.29676597 C10.0042113,5.91889356 5.89922482,3.16461748 5.67082377,2.81548082 C5.36874647,2.0306492 4.69436017,-0.0762981714 5.50368596,0.00390577076 C7.57378925,0.209052382 13.3581709,4.56922531 15.56538,6.82778155 Z" id="Path" fill="#FFFFFF"></path>
                            <path d="M8.72149435,8.6367286 C10.6126647,10.35555 12.6251199,11.7978044 14.2718602,14.0663563 C15.0273993,15.1070499 15.5676103,16.3976478 15.9026944,17.7847351 C16.309597,19.4697328 16.7551053,21.1499759 16.9664007,22.941769 C16.1022117,22.540727 14.357892,17.8012158 12.4669448,15.1734605 C11.2311823,13.4561827 9.01189049,11.4812481 8.89077779,11.2280192 C8.33478332,9.19534969 8.60689303,9.64854884 8.43742254,9.51769405 C8.00081667,9.18097272 7.9096571,8.64702799 8.02219262,8.02864647 C8.20223222,8.33065704 8.49440819,8.43035446 8.72149435,8.6367286 Z" id="Path-Copy-66" fill="#FFFFFF" transform="translate(12.472294, 15.485208) rotate(169.000000) translate(-12.472294, -15.485208) "></path>
                        </g>
                        <path d="M97.8023827,116.926151 C97.10498,118.455217 96.3137717,119.752558 96.4507966,121.630019 C96.5234836,122.632729 97.6358252,126.080336 97.1638505,126.353998 C97.066607,126.410451 94.145203,124.422239 93.1611024,123.597651 C86.6442315,118.137099 86.5948262,113.350803 86.5948262,113.350803 C85.7294575,108.024878 87.1341921,105.093751 87.8719412,102.315213 C89.1848962,102.42067 92.9612082,102.803401 95.5626429,102.918573 C96.3812729,103.108796 104.588971,104.552794 100.871547,110.79612 C100.81091,110.897958 98.6987879,114.961497 97.8023827,116.926151 Z M93.6384665,99.7413207 C91.1099052,100.487215 89.3655181,99.9591943 86.3693598,99.5145974 C84.0286405,99.1667402 82.7203537,89.1325475 85.3631171,87.1905688 C87.656688,85.5045098 87.7646947,85.8932029 89.8961932,87.2007588 C91.2660502,88.0413951 95.0096338,90.132393 97.8628406,93.08718 C99.3116908,94.5876123 100.556273,96.2856572 101.490486,97.8119447 C101.249986,97.7378814 100.9857,97.6983433 100.695401,97.6983433 C97.4055174,97.6983433 94.6151138,98.5547835 93.6384665,99.7413207 Z" id="Shape" fill="#C4C3C6"></path>
                        <path d="M97.6125342,100.41908 C97.4559617,100.397466 92.0618314,100.118679 91.9213252,100.059038 C89.301642,98.9470486 90.478277,87.7587055 92.3091675,88.7402299 C93.5145454,89.386657 99.2259485,92.9796701 101.846733,96.1924542 C104.467517,99.4052383 103.954499,100.9694 104.280921,103.869004 C102.972573,102.598541 101.611561,101.76546 100.391169,101.231297 C99.3096925,100.757937 98.3386451,100.519318 97.6125342,100.41908 Z" id="Shape" fill="#FFFFFF"></path>
                        <path d="M89.3673969,109.689163 C94.9845544,114.317462 97.1053202,117.811774 95.7296945,120.172101 C93.6662559,123.71259 95.1107512,126.78625 94.8847848,126.888944 C94.8466222,126.906166 92.8308724,125.069037 91.4917841,123.408579 C86.0553984,116.667509 89.4958266,109.498787 89.3673969,109.689163 Z" id="Path" fill="#FFFFFF" transform="translate(92.273296, 118.287198) rotate(-13.000000) translate(-92.273296, -118.287198) "></path>
                        <path d="M95.1753919,31.4937343 L103.173509,28.3728437 C106.313615,27.0792557 108.993511,26.4942805 111.213196,26.6179183 C110.661335,30.2116871 105.219875,42.7094756 99.031708,52.2224182 C94.6200158,59.0044225 88.8614854,64.4913168 88.6171482,63.1452378 C88.2316069,61.0212517 91.9896526,51.2281789 90.7275533,39.2201067 C90.6348219,38.3378261 92.1174348,35.7623686 95.1753919,31.4937343 Z" id="Fill-12" fill="#C4C3C6"></path>
                        <path d="M106.220836,133.772196 C102.192599,132.496899 100.372508,127.131324 99.4049847,123.80168 C99.0631591,122.62531 99.7517215,122.235516 100.840063,122.793056 C104.876649,124.863532 108.688894,128.493541 109.583239,133.516233 C109.681465,134.069471 106.979139,134.012524 106.220836,133.772196 Z" id="Fill-14" fill="#C4C3C6"></path>
                        <path d="M67.4747446,70.263393 C67.472289,70.2666189 67.4698333,70.2698448 67.4673777,70.2730707 C67.4659043,70.2757589 67.4644309,70.2779095 67.4629575,70.2811354 L67.4747446,70.263393 Z" id="Fill-16" fill="#D796A0"></path>
                        <path d="M76.6503053,66.3192193 C76.3507168,64.0912128 75.0821314,60.9320028 72.8435669,59.5862739 C71.5887331,58.8319561 71.0656811,59.2701379 67.8728535,57.8658056 C67.0438283,57.501819 66.6848132,57.395365 65.9328952,57.0523466 C62.8206128,55.6308097 60.2456251,56.3749122 57.9142372,58.9152913 C56.47081,60.4873692 54.8471386,61.8626686 53.627175,63.6783004 C52.4632,65.445544 52.6061185,67.2751546 53.215118,69.2477791 C54.6843186,74.0030158 64.9508388,90.2470569 69.5344929,95.8611749 C70.6676163,97.2490389 72.0204098,97.3046058 72.1481287,97.1699052 C72.8946443,96.3833286 71.9541329,95.7827776 71.6157452,95.1462043 C69.3698137,90.9289062 66.8218381,86.9169891 64.6967243,82.6125923 C63.8539475,80.9066404 63.51998,79.3098307 63.6093654,77.7942056 C63.6741944,76.6952565 64.5410365,75.0925327 66.199087,71.8811709 C67.0561065,70.2203813 67.6174666,69.2526179 68.4234088,68.1886157 C68.6409788,67.9004373 69.3290501,67.0079443 70.3879235,66.0380303 C70.3879235,66.0380303 71.8789902,64.6713332 73.4707382,64.3256266 C73.8179662,64.2498185 74.1391644,64.2342267 74.2698046,64.4245535 C74.3081126,64.4804688 74.3847287,64.6331603 74.2467215,65.0476857 C74.0114709,65.7514648 73.4717205,66.1224408 73.3479561,66.301477 C72.3882906,67.6848411 72.0985247,68.9493853 72.439368,69.9606981 C72.8204839,71.0913684 73.9348548,71.5505184 75.3070684,72.0994554 C76.4617119,72.5607559 78.0735962,72.9070002 78.2459824,72.4897866 C78.3329122,72.2779539 78.0200632,71.9446132 77.8687956,71.7645017 C76.6424472,70.3069424 76.8909584,68.1085064 76.6503053,66.3192193 Z" id="Fill-18" fill="#C4C3C6"></path>
                        <path d="M72.8152779,62.9789838 C70.3597226,61.6823096 64.8319812,69.3828896 63.9749616,71.0436792 C62.8137971,73.2926574 53.8298375,71.2373894 53.215118,69.2477791 C52.6061185,67.2751546 52.4632,65.445544 53.627175,63.6783004 C54.8471386,61.8626686 56.47081,60.4873692 57.9142372,58.9152913 C60.2456251,56.3749122 62.8206128,55.6308097 65.9328952,57.0523466 C66.6848132,57.395365 67.0438283,57.501819 67.8728535,57.8658056 C71.0656811,59.2701379 71.5887331,58.8319561 72.8435669,59.5862739 C72.8552224,59.5932807 72.8668517,59.6003367 72.8784546,59.6074414 C73.4656357,61.0506908 73.7914063,61.3292363 73.7975352,62.9789838 L72.8152779,62.9789838 Z" id="Shape" fill="#FFFFFF"></path>
                        <path d="M49.3884364,32.3680414 C49.9425924,33.0924288 52.0318941,37.9800173 51.3874469,39.1652906 C50.3961247,40.9885395 46.2116745,39.0414052 45.5441084,38.5886337 C44.8005395,39.0526225 46.0023314,40.0365153 45.1777264,40.4005019 C44.4262995,40.733305 43.9332063,40.0725376 43.5584751,39.524676 C42.7854386,38.3918551 42.0291004,37.2294637 41.4048758,35.9950276 C40.8248529,34.8476903 40.4250741,33.5912107 39.7615593,31.9196682 C41.6038756,32.5429107 48.1723489,30.7783833 49.3884364,32.3680414 Z" id="Fill-22" fill="#C4C3C6"></path>
                        <path d="M49.0551418,32.0799401 L49.059798,32.1035618 C49.3740848,33.1996017 49.5273356,34.1940499 49.2809293,34.6472426 C48.2896071,36.4704915 44.105157,34.5233572 43.4375908,34.0705857 C42.694022,34.5345745 43.8958138,35.5184673 43.0712088,35.8824539 C42.3197819,36.215257 41.8266887,35.5544896 41.4519575,35.006628 C41.0327389,34.3922979 40.6184311,33.7692714 40.2274412,33.1307744 C40.0850293,32.7510138 39.9319951,32.3490342 39.7615593,31.9196682 C41.4740512,32.4989921 47.2700835,31.0152117 49.0551418,32.0799401 Z" id="Combined-Shape" fill="#FFFFFF"></path>
                        <path d="M34.045678,39.0460861 C33.446501,37.9949875 31.8522973,37.372393 32.7235596,35.5659012 C33.8374394,35.9433289 33.2652745,37.548741 34.5829728,37.8503606 C34.7524122,36.8594783 33.9484345,34.793841 36.2469168,35.4745013 C36.8352889,35.6481611 37.0921492,34.6250201 36.8387268,33.80726 C36.5592746,32.9050894 36.3849239,31.9636706 36.4222497,30.9104214 C37.2319229,32.628372 37.391387,31.0034381 38.1977533,32.7235445 C38.8240277,34.0594866 40.1011094,38.7383295 40.7078386,40.0848189 C40.8630352,40.4294502 40.3581549,40.5622488 40.030081,40.5778406 C38.2129049,39.2353376 35.9861274,39.8127698 34.045678,39.0460861 Z" id="Fill-24" fill="#C4C3C6"></path>
                    </g>
                </g>
                <g id="Group-96" transform="translate(20.814153, 0.000000)">
                    <g id="Group-93" transform="translate(103.043882, 103.034891) rotate(20.000000) translate(-103.043882, -103.034891) translate(23.543882, 22.534891)">
                        <g id="Group-94" transform="translate(0.183512, 0.300040)">
                            <g id="Group-22" transform="translate(24.876792, 123.856875)">
                                <path d="M18.4284507,31.6743349 C28.0854779,31.0034052 35.6775779,24.4778083 35.3858808,17.0990063 C35.0941836,9.72020434 27.029149,4.28239948 17.3721218,4.95332922 C7.7150946,5.62425896 0.122994557,12.1498559 0.414691728,19.5286578 C0.7063889,26.9074598 8.7714235,32.3452647 18.4284507,31.6743349 Z" id="Oval" fill="#000000"></path>
                                <path d="M18.2744602,26.8509125 C27.1060174,26.3082234 34.022102,20.4256333 33.7219674,13.7117797 C33.4218329,6.99792621 26.0191341,1.995209 17.187577,2.5378981 C8.35601978,3.08058721 1.43993524,8.9631773 1.74006977,15.6770308 C2.0402043,22.3908844 9.44290307,27.3936016 18.2744602,26.8509125 Z" id="Oval-Copy" fill="#C4C3C6" transform="translate(17.731019, 14.694405) rotate(8.000000) translate(-17.731019, -14.694405) "></path>
                            </g>
                            <path d="M98.0276088,124.226796 C114.700719,112.359974 122.927829,103.80279 129.494917,94.2817469 C141.728311,76.5456254 146.549232,63.6026956 143.95768,55.4529576 C143.793661,44.8169638 139.748167,36.4039331 131.821199,30.2138656 C126.850598,26.3323872 117.656761,21.6720479 104.239687,16.2328478 C91.7946269,11.8996156 81.9779136,11.1141717 74.7895476,13.8765162 C53.8251507,21.9327123 39.8313245,33.9284352 39.8243833,48.4510337 C39.8234457,50.4128555 26.4274727,56.941459 24.7451709,70.5292424 C22.0866969,92.0014702 25.033095,111.13274 17.3488068,121.608828 C13.5459357,126.79333 12.2029555,130.272603 13.0968916,133.542587 C13.6230872,135.46739 14.1951447,134.744049 16.2259697,136.828917 C34.6234155,129.439031 44.6117642,149.731948 66.3249245,146.714568 C88.0380847,143.697187 81.3544988,136.093619 98.0276088,124.226796 Z" id="Oval" fill="#000000" transform="translate(78.733969, 79.643236) rotate(-12.000000) translate(-78.733969, -79.643236) "></path>
                            <path d="M104.109027,20.5024747 C128.99057,25.5432312 137.802993,35.2161711 130.546294,49.5212946 C119.661247,70.9789799 139.949714,52.8100688 128.877733,79.4074802 C124.915318,88.9261004 122.65678,80.9893301 104.971327,101.594219 C87.285874,122.199108 92.8980655,142.871498 73.0011549,144.507915 C67.5262001,144.958202 55.2086017,143.645656 45.3087126,141.080749 C35.4088235,138.515842 30.9087422,145.915189 29.7441059,144.480913 C25.7734501,139.59096 37.8532911,125.455064 35.7408512,119.386574 C30.9957083,105.755012 30.1037605,90.7588024 29.3141756,81.6250638 C28.2630724,69.4661417 38.7352864,61.2907854 38.3725265,59.580114 C36.320616,49.9038952 43.8807721,38.2921712 55.0519403,28.4849995 C58.717743,25.2667902 68.0210747,23.6531194 75.6390207,20.8759972 C92.626095,20.140751 102.116097,20.0162435 104.109027,20.5024747 Z" id="Path" fill="#C4C3C6"></path>
                            <g id="Group-28" transform="translate(31.675493, 42.347859)">
                                <path d="M36.5919556,64.5570347 C43.2741184,64.5180412 51.4641357,67.8598703 52.4786266,68.8840142 C44.2529829,70.4176751 26.3832393,84.9727329 21.0789029,86.3517865 C34.1414372,77.7087622 29.9097929,64.5960283 36.5919556,64.5570347 Z" id="Path-Copy-77" fill="#000000" transform="translate(36.778765, 75.454241) scale(-1, -1) rotate(-4.000000) translate(-36.778765, -75.454241) "></path>
                                <path d="M20.7614251,85.1873268 C27.1510922,85.9061516 33.699588,84.2853727 38.3538075,76.4959472 C40.57985,72.7703834 54.5769308,56.8755262 57.3045496,55.7735962 C43.072019,54.7888171 46.6550269,65.3775438 19.4674714,68.1123042 C18.1201813,68.2478263 16.1377546,72.5863192 12.6126731,74.9311957 C11.6718715,75.5570149 11.0977818,62.3333905 8.34890569,65.511009 C5.60002956,68.6886275 8.38225887,83.7946954 20.7614251,85.1873268 Z" id="Path-Copy-69" fill="#FFFFFF" transform="translate(32.341987, 70.525180) rotate(7.000000) translate(-32.341987, -70.525180) "></path>
                                <path d="M11.787684,67.102389 C17.0300913,68.0252461 31.6688845,63.7954714 38.4219143,62.0376121 C42.3832947,61.006438 55.3202125,56.0925879 58.1126271,56.0384725 C46.9624906,53.7979441 49.5932934,57.8401569 25.9494211,55.2894216 C24.465032,55.1292836 22.9759284,55.4745047 19.9691372,56.7421763 C19.5632342,56.9133062 18.4602941,55.4702677 16.6127842,55.4829644 C12.0642127,55.5142235 7.44804515,58.3688793 4.53616856,58.3770283 C2.7005525,58.3821654 5.66738739,60.3322787 6.85563956,61.3716982 C9.02901154,63.272848 11.6046093,65.0418763 11.3573534,65.8328397 C10.6929192,67.9583423 7.57161086,66.3602047 11.787684,67.102389 Z" id="Path-Copy-71" fill="#FFFFFF" transform="translate(31.032076, 61.242669) rotate(7.000000) translate(-31.032076, -61.242669) "></path>
                                <path d="M19.1063576,79.8918983 C25.2328163,81.2406167 31.0564677,78.1505188 36.6031752,72.6494863 C39.8569173,69.4225374 55.1032684,56.0237877 58.0085304,55.3524106 C43.9046115,55.363967 47.4470765,59.8044698 29.4717183,60.344746 C28.1412508,60.3847352 20.4293514,59.9572131 18.7055787,57.2781211 C18.7063718,58.7361305 19.1376144,59.9565074 19.9989805,60.3395708 C17.4159227,61.1033454 16.2315022,61.7156062 11.549637,61.1619871 C6.8677717,60.6083681 6.07564434,59.0486998 1.70891091,57.253879 C4.50617964,60.0409932 6.77957778,66.0609609 7.73237944,69.3716252 C9.35436463,75.0074766 10.2272677,77.9371978 19.1063576,79.8918983 Z" id="Path-Copy-10" fill="#000000" transform="translate(29.858721, 67.779585) rotate(7.000000) translate(-29.858721, -67.779585) "></path>
                                <path d="M57.7093606,55.7867813 C61.1897817,56.6765625 61.6926561,59.777241 61.9861311,62.1760205 C59.8635992,60.1617014 59.2062031,59.4882423 56.8018875,59.2280101 C54.3975719,58.967778 53.3375002,59.9993994 51.4894107,61.0399034 C52.349543,58.3307135 54.2289396,54.8970001 57.7093606,55.7867813 Z" id="Path-Copy-70" fill="#000000" transform="translate(56.737771, 58.909699) scale(-1, 1) rotate(-75.000000) translate(-56.737771, -58.909699) "></path>
                                <path d="M84.8392154,17.2912595 C91.2911789,16.3035442 92.7136465,18.9684622 102.769693,1.65905059 C105.673735,-3.33965913 105.94548,4.94213937 104.407281,15.5260071 C102.695554,27.3038672 97.0167014,45.9046023 93.0511964,51.1349772 C90.3565611,54.6891153 58.7925464,76.8126653 78.4697891,50.9932374 C98.1470319,25.1738094 86.9059168,22.4489796 84.8392154,17.2912595 Z" id="Path" fill="#000000"></path>
                            </g>
                            <path d="M54.38883,89.4793541 C58.0660983,90.9475948 53.4962218,95.8379289 50.7586517,96.9473555 C50.3734011,94.2616699 50.7115617,88.0111135 54.38883,89.4793541 Z" id="Path-Copy-79" fill="#000000" transform="translate(53.198791, 93.103179) scale(-1, 1) rotate(-45.000000) translate(-53.198791, -93.103179) "></path>
                            <path d="M62.267342,81.874857 C67.6560834,84.2238983 60.3549146,91.3525512 56.8037731,92.7339445 C56.2357087,88.4464481 56.8786006,79.5258156 62.267342,81.874857 Z" id="Path-Copy-81" fill="#000000" transform="translate(60.411036, 87.110618) rotate(-95.000000) translate(-60.411036, -87.110618) "></path>
                            <g id="Group-24" transform="translate(45.353048, 85.750685) rotate(6.000000) translate(-45.353048, -85.750685) translate(35.853048, 77.750685)">
                                <g id="Group-25" transform="translate(9.453731, 7.815866) rotate(5.000000) translate(-9.453731, -7.815866) translate(0.953731, 0.815866)">
                                    <path d="M13.6530141,3.52358187 C17.6413534,4.99508779 12.6930336,9.87656721 9.72655296,10.9819896 C9.30564519,8.29777052 9.66467486,2.05207594 13.6530141,3.52358187 Z" id="Path-Copy-86" fill="#000000" transform="translate(12.367314, 7.142083) rotate(-103.000000) translate(-12.367314, -7.142083) "></path>
                                    <path d="M4.899987,3.70524608 C6.41565493,3.69021197 9.70480664,5.15956953 13.2321841,9.74328167 C10.3861539,6.8269452 5.44557548,4.45068164 1.26650927,10.5404823 C-0.166652206,5.40286979 2.3638463,3.73040239 4.899987,3.70524608 Z" id="Path-Copy-83" fill="#000000" transform="translate(7.041381, 7.122807) scale(-1, 1) rotate(136.000000) translate(-7.041381, -7.122807) "></path>
                                    <path d="M6.10487008,7.18947921 C6.01992361,7.18024531 5.93442765,7.16493409 5.84869508,7.14328585 C4.63086683,6.83577329 3.82646163,5.36601909 4.05200579,3.86049796 C4.27199707,2.39204262 5.39059225,1.43194349 6.57561448,1.67091285 C6.302295,2.29956642 6.0940783,3.02291449 5.9760697,3.81062915 C5.79438688,5.02337314 5.85498194,6.19871852 6.10487008,7.18947921 L6.10487008,7.18947921 Z" id="Path" fill="#FFFFFF" transform="translate(5.294863, 4.411979) rotate(-16.000000) translate(-5.294863, -4.411979) "></path>
                                </g>
                            </g>
                            <g id="Group-20" transform="translate(61.144623, 112.481085) rotate(3.000000) translate(-61.144623, -112.481085) translate(32.557314, 95.814205)"></g>
                            <path d="M88.7402258,64.3089967 C94.1051392,64.2449111 100.495296,64.4507611 105.448753,68.2094109 C110.40221,71.9680608 106.151321,77.4130544 103.167484,79.6808328 C97.6579206,83.8682171 94.0999518,76.9325404 80.5448723,78.4476816 C67.8113178,79.8709956 77.1497142,64.447449 88.7402258,64.3089967 Z" id="Path-Copy-74" fill="#FFFFFF" transform="translate(91.077081, 72.672411) scale(-1, -1) rotate(179.000000) translate(-91.077081, -72.672411) "></path>
                            <path d="M69.9397084,56.3333687 C64.6236035,61.3382458 55.1855797,26.1662287 59.4698526,12.8515148 C62.0302528,4.89427294 67.2306672,-1.08776084 70.508028,2.81670706 C73.6531161,6.56359251 63.0355507,37.3301257 66.6265639,39.4542272 C66.6948903,39.4946426 67.147627,39.0832525 67.9847739,38.220057 C68.2490801,37.9475268 68.7317554,37.4373998 69.4327999,36.6896762 C72.6258547,33.32746 75.9272636,31.5262592 79.3370263,31.2860735 C78.6046188,32.9056605 71.5388909,48.5200868 69.9397084,56.3333687 Z" id="Path-Copy-89" fill="#000000" transform="translate(68.861341, 29.203916) scale(-1, 1) rotate(114.000000) translate(-68.861341, -29.203916) "></path>
                            <path d="M74.3669024,33.6188797 C73.1994474,30.4062141 69.6630591,29.3182887 66.9834415,30.3569352 C63.88501,31.5579182 60.708253,32.9839324 57.5387246,34.6893136 C38.4577757,44.9559174 51.5342413,29.0911015 59.5082626,24.5027192 C65.732106,20.9214178 75.1846081,18.9277279 83.0802059,18.4251602 C83.2985976,19.9473246 76.3333014,26.5350717 74.3669024,33.6188797 Z" id="Shape" fill="#FFFFFF"></path>
                            <path d="M107.80245,53.5187319 C103.619502,58.7028136 83.1708864,33.4673468 88.729821,17.9080519 C91.1260397,11.2011061 102.67239,-7.24503211 98.4738783,12.2985654 C94.2753666,31.8421629 113.492375,49.7693163 107.80245,53.5187319 Z" id="Path-Copy-88" fill="#FFFFFF" transform="translate(98.321914, 28.891295) scale(-1, 1) rotate(112.000000) translate(-98.321914, -28.891295) "></path>
                            <path d="M41.1277978,65.2672521 C44.3395587,65.2285123 48.078771,67.3776888 50.1771996,70.4956208 C51.4081544,72.3246243 51.8053562,75.3648444 38.4349238,73.8071407 C37.5955129,73.7093463 34.3062367,73.8569402 32.8322688,72.9744447 C29.673014,71.1400331 35.7536142,65.3320745 41.1277978,65.2672521 Z" id="Path-Copy-84" fill="#FFFFFF" transform="translate(41.352972, 69.751873) scale(-1, -1) rotate(157.000000) translate(-41.352972, -69.751873) "></path>
                            <path d="M60.3019327,71.7699991 C61.0850861,72.9453199 62.7462984,75.0055114 60.4851946,76.2298687 C58.2240908,77.454226 54.7635279,78.1439338 51.1351787,77.052865 C47.5068295,75.9617963 48.8545653,74.2106575 52.3787557,72.2517895 C55.0092434,70.7896726 59.0357448,65.4830584 64.4582601,56.3319469 C66.7165229,50.0513053 68.2343151,46.3145156 69.0116367,45.1215776 C70.4825331,42.8642263 71.2459281,59.7507117 62.2059981,68.1852176 C62.0561219,68.3250563 59.5187792,70.5946783 60.3019327,71.7699991 Z" id="Path" fill="#FFFFFF"></path>
                            <path d="M44.3643015,129.455197 C49.414549,129.400757 55.4768152,131.604205 61.4973909,136.453428 C67.5179666,141.302651 55.1562629,140.976743 45.2415556,140.112667 C35.3268484,139.248591 35.4222067,144.611213 33.1028848,143.23514 C28.1318282,140.374574 35.9138104,129.546291 44.3643015,129.455197 Z" id="Path-Copy-76" fill="#FFFFFF" transform="translate(47.314178, 136.458230) scale(-1, -1) rotate(186.000000) translate(-47.314178, -136.458230) "></path>
                            <path d="M92.3537323,121.556953 C94.7852886,121.534141 97.2272033,123.39691 98.8203936,125.60635 C99.7549715,126.902425 101.545482,130.556723 102.555661,130.959176 C99.3184977,130.0202 96.1159752,127.719415 92.0421588,127.694261 C87.8662725,127.668477 82.8386548,129.939663 81.2046802,130.7194 C82.7087208,126.708449 88.2850516,121.595123 92.3537323,121.556953 Z" id="Path-Copy-80" fill="#000000" transform="translate(91.880171, 126.257961) scale(-1, 1) rotate(-135.000000) translate(-91.880171, -126.257961) "></path>
                            <path d="M24.0315451,117.706843 C23.3473121,116.48626 36.4589636,126.690083 37.7692371,128.16433 C38.5378539,129.029135 39.7073612,132.42749 40.5383023,132.696166 C33.4885251,128.633484 27.8270007,129.849701 25.1713257,130.876702 C26.4091831,128.20125 26.3705351,121.879297 24.0315451,117.706843 Z" id="Path-Copy-78" fill="#000000" transform="translate(32.271996, 125.150946) scale(-1, 1) rotate(38.000000) translate(-32.271996, -125.150946) "></path>
                            <path d="M91.5780726,47.2610591 C99.0823077,47.2610591 105.204498,53.5003454 105.533319,61.3275015 C101.480778,59.5515382 96.7766054,58.5354361 91.75949,58.5354361 C86.5893651,58.5354361 81.7515616,59.6144604 77.6162888,61.4917567 C77.8664815,53.5875101 84.0216011,47.2610591 91.5780726,47.2610591 Z" id="Combined-Shape-Copy-21" fill="#FFFFFF"></path>
                            <path d="M91.4903181,56.4255337 C98.9825319,56.4255337 105.167426,58.7817692 106.091473,61.8299656 C102.018866,61.1715142 97.3647352,60.7983045 92.4219222,60.7983045 C86.6732657,60.7983045 81.3150942,61.3031254 76.8071068,62.1739606 C77.3530278,58.9610647 83.7182737,56.4255337 91.4903181,56.4255337 Z" id="Combined-Shape-Copy-24" fill="#FFFFFF"></path>
                            <path d="M50.2070418,57.7907364 C55.5426563,57.7907364 59.9251716,60.004638 60.4038991,62.8316057 C57.5164549,62.2130878 54.1886407,61.8607789 50.6463099,61.8607789 C46.7277485,61.8607789 43.0716912,62.2918994 39.982911,63.0372328 C40.2783346,60.1125787 44.742904,57.7907364 50.2070418,57.7907364 Z" id="Combined-Shape-Copy-26" fill="#FFFFFF" transform="translate(50.193056, 60.414069) rotate(-4.000000) translate(-50.193056, -60.414069) "></path>
                            <path d="M54.1263534,47.4196882 C59.8501974,47.4196882 64.5913099,52.5074475 65.4254472,59.1469975 C62.2049101,57.6990772 58.5215201,56.8777917 54.6084852,56.8777917 C50.2761581,56.8777917 46.2253268,57.8845128 42.7729873,59.6331693 C43.4317623,52.7574924 48.2635432,47.4196882 54.1263534,47.4196882 Z" id="Combined-Shape-Copy-23" fill="#FFFFFF" transform="translate(54.099217, 53.526429) rotate(4.000000) translate(-54.099217, -53.526429) "></path>
                            <path d="M55.2825099,50.0012202 C59.7281412,50.0019491 65.4987923,55.4632587 64.5685634,58.5809472 C63.8960116,60.8350235 57.4484892,60.4179669 55.2739274,60.4176104 C50.0916561,60.416761 45.2400992,61.4433307 41.0846198,63.2321194 C43.2746581,54.4103276 48.0072881,50.0000279 55.2825099,50.0012202 Z" id="Path-Copy-73" fill="#000000" transform="translate(52.876451, 56.616670) rotate(4.000000) translate(-52.876451, -56.616670) "></path>
                            <path d="M91.3243184,50.3123138 C98.78366,50.3123138 104.912015,55.0844104 105.593352,61.1817945 C101.528366,59.8177834 96.8486871,59.0408637 91.8685708,59.0408637 C86.4223429,59.0408637 81.335423,59.97002 77.018648,61.5801938 C77.4710717,55.2939316 83.7029829,50.3123138 91.3243184,50.3123138 Z" id="Combined-Shape-Copy-19" fill="#000000"></path>
                            <path d="M46.0479771,59.1567553 C51.3541689,64.9947992 53.8022234,66.6216636 56.7688082,67.7524672 C59.7353929,68.8832708 62.4427126,70.2621048 66.2413165,69.1086294 C65.3912227,71.9063044 62.4694122,71.924346 53.9712307,72.2281651 C45.4730492,72.5319841 40.8294378,67.9376498 35.4646253,70.0017829 C35.7835417,69.5434112 38.0107582,66.8456965 45.4995185,67.6191216 C52.9882788,68.3925467 46.5908028,65.0868122 46.0479771,59.1567553 Z" id="Path-Copy-82" fill="#000000" transform="translate(50.852971, 65.699710) rotate(-47.000000) translate(-50.852971, -65.699710) "></path>
                            <path d="M85.8218181,62.6421241 C91.9706158,63.7356527 96.3574198,64.5619508 98.9822302,65.1210183 C84.9354157,64.7843928 77.4746321,67.152665 76.5998795,72.2258352 C76.2781308,74.8871646 78.3694017,76.9018557 82.8736921,78.2699085 C88.6588872,82.5278728 88.185713,84.9742818 81.4541695,85.6091354 C71.3568542,86.5614158 69.7695963,90.0485743 69.0248892,90.1402296 C71.6487179,87.3645822 71.6759004,83.8431518 70.3526063,80.6824554 C69.0293122,77.5217589 67.2256553,76.4987152 62.8874952,75.8062782 C63.1246159,76.1022869 69.2992589,73.444697 71.5705982,69.656537 C74.1357135,65.3784149 77.6178466,57.5130685 78.1286975,57.7153461 C78.5623365,57.8870507 76.5986216,61.0018312 85.8218181,62.6421241 Z" id="Path-2" fill="#000000"></path>
                            <path d="M70.4464117,83.5557379 C69.3874357,77.5499863 64.7066054,77.0070968 63.2450055,75.8930639 C67.1737233,76.701828 70.7099931,77.0343754 72.6843086,79.8584815 C74.7793109,82.855221 75.6978104,87.5837567 69.1030871,89.9850799 C69.6920588,88.6427328 71.0817973,87.1591888 70.4464117,83.5557379 Z" id="Path" fill="#FFFFFF"></path>
                            <path d="M94.0436868,41.4223077 C87.2127053,42.2727709 85.1731366,45.5770795 83.7741737,48.1361936 C88.461244,46.0422092 89.930494,45.3405843 94.5238903,45.1324748 C99.1172866,44.9243652 100.736546,46.0596999 103.827946,47.2276326 C103.177118,44.3024454 100.874668,40.5718444 94.0436868,41.4223077 Z" id="Path-Copy-70" fill="#000000" transform="translate(93.801060, 44.717691) rotate(2.000000) translate(-93.801060, -44.717691) "></path>
                            <path d="M58.7261959,41.627843 C53.2021943,42.4750761 51.5545799,45.7775596 50.4246282,48.3353393 C54.2140633,46.2439974 55.4019073,45.5432136 59.1166489,45.3371736 C62.8313904,45.1311335 64.1415896,46.2668567 66.6423844,47.435813 C66.1143836,44.5111663 64.2501975,40.78061 58.7261959,41.627843 Z" id="Path-Copy-93" fill="#000000" transform="translate(58.533506, 44.920462) rotate(25.000000) translate(-58.533506, -44.920462) "></path>
                        </g>
                        <g id="Group-91" transform="translate(52.632143, 55.138459) rotate(4.000000) translate(-52.632143, -55.138459) translate(40.477173, 46.773599)"></g>
                    </g>
                </g>
                <path d="M151.772419,111.899741 C157.56644,111.870867 166.924497,112.858226 173.830819,115.390716 C164.983646,116.500906 164.151556,117.917133 152.776847,117.466637 C141.402138,117.016141 139.632725,125.836098 134.677691,123.629416 C137.722576,115.288404 142.077384,111.948055 151.772419,111.899741 Z" id="Path-Copy-91" fill="#FFFFFF" transform="translate(154.254255, 117.941778) scale(-1, -1) rotate(-396.000000) translate(-154.254255, -117.941778) "></path>
            </g>
        </g>
    </g>
</svg>