<?xml version="1.0" encoding="UTF-8"?>
<svg width="882px" height="300px" viewBox="0 0 882 300" version="1.1" xmlns="http://www.w3.org/2000/svg" xmlns:xlink="http://www.w3.org/1999/xlink">
    <!-- Generator: Sketch 63.1 (92452) - https://sketch.com -->
    <title>Content Creators</title>
    <desc>Created with Sketch.</desc>
    <g id="Content-Creators" stroke="none" stroke-width="1" fill="none" fill-rule="evenodd">
        <rect id="Rectangle" fill="#000000" fill-rule="nonzero" x="0" y="0" width="882" height="210"></rect>
        <g id="Group-2" transform="translate(514.999670, 0.000000)" fill="#1F232C">
            <rect id="Rectangle" fill-rule="nonzero" x="105.00033" y="105" width="52.5" height="52.5"></rect>
            <path d="M122.50066,52.5 L122.50066,105 L116.66733,105 L116.66733,52.5 L122.50066,52.5 Z M134.16666,52.5 L134.16666,105 L128.33333,105 L128.33333,52.5 L134.16666,52.5 Z M145.83366,52.5 L145.83366,105 L140.00033,105 L140.00033,52.5 L145.83366,52.5 Z M157.50066,52.5 L157.50066,105 L151.66733,105 L151.66733,52.5 L157.50066,52.5 Z M110.83701,52.5 L110.83701,105 L105.00033,105 L105.00033,52.5 L110.83701,52.5 Z" id="Shape" fill-rule="nonzero"></path>
            <path d="M40.83333,105 L40.83333,157.5 L35,157.5 L35,105 L40.83333,105 Z M29.16733,105 L29.16733,157.5 L23.334,157.5 L23.334,105 L29.16733,105 Z M17.50033,105 L17.50033,157.5 L11.667,157.5 L11.667,105 L17.50033,105 Z M5.83333,105 L5.83333,157.5 L-6.92779167e-14,157.5 L-6.92779167e-14,105 L5.83333,105 Z M52.50033,105 L52.50033,157.5 L46.66365,157.5 L46.66365,105 L52.50033,105 Z" id="Shape" fill-rule="nonzero"></path>
            <path d="M355.50533,0.9844 L355.50533,53.4844 L349.672,53.4844 L349.672,0.9844 L355.50533,0.9844 Z M343.83833,0.9844 L343.83833,53.4844 L338.005,53.4844 L338.005,0.9844 L343.83833,0.9844 Z M332.17233,0.9844 L332.17233,53.4844 L326.339,53.4844 L326.339,0.9844 L332.17233,0.9844 Z M320.50533,0.9844 L320.50533,53.4844 L314.672,53.4844 L314.672,0.9844 L320.50533,0.9844 Z M367.17233,0.9844 L367.17233,53.4844 L361.33565,53.4844 L361.33565,0.9844 L367.17233,0.9844 Z" id="Shape" fill-rule="nonzero"></path>
            <path d="M52.50033,163.333 L52.50033,157.5 C81.49533,157.5 105.00033,181.005 105.00033,210 L99.16733,210 C99.16733,184.227 78.27333,163.333 52.50033,163.333 Z M52.50033,175 L52.50033,169.166 C75.05233,169.166 93.33333,187.448 93.33333,210 L87.50033,210 C87.50033,190.67 71.83033,175 52.50033,175 Z M52.50033,180.834 L52.50033,186.667 C65.38733,186.667 75.83333,197.114 75.83333,210 L81.66733,210 C81.66733,193.892 68.60833,180.834 52.50033,180.834 Z M52.50033,198.333 L52.50033,192.5 C62.16533,192.5 70.00033,200.335 70.00033,210 L64.16733,210 C64.16733,203.557 58.94333,198.333 52.50033,198.333 Z M52.50033,210 L52.50033,204.166 C55.72233,204.166 58.33333,206.778 58.33333,210 L52.50033,210 Z" id="Shape"></path>
            <path d="M262.00033,110.833 L262.00033,105 C290.99533,105 314.50033,128.505 314.50033,157.5 L308.66733,157.5 C308.66733,131.727 287.77333,110.833 262.00033,110.833 Z M262.00033,122.5 L262.00033,116.667 C284.55233,116.667 302.83333,134.949 302.83333,157.5 L297.00033,157.5 C297.00033,138.17 281.33033,122.5 262.00033,122.5 Z M262.00033,128.333 L262.00033,134.167 C274.88733,134.167 285.33333,144.613 285.33333,157.5 L291.16733,157.5 C291.16733,141.392 278.10833,128.333 262.00033,128.333 Z M262.00033,145.833 L262.00033,140 C271.66533,140 279.50033,147.835 279.50033,157.5 L273.66733,157.5 C273.66733,151.056 268.44333,145.833 262.00033,145.833 Z M262.00033,157.5 L262.00033,151.667 C265.22233,151.667 267.83333,154.279 267.83333,157.5 L262.00033,157.5 Z" id="Shape"></path>
            <path d="M214.11233,52.5 L210.00033,52.5 L210.00033,48.3875 L258.38733,0 L262.50033,0 L262.50033,4.1125 L214.11233,52.5 Z M250.13333,0 L241.87933,0 L210.00033,31.8791 L210.00033,40.1333 L250.13333,0 Z M233.62533,0 L225.37133,0 L210.00033,15.3708 L210.00033,23.625 L233.62533,0 Z M210.00033,0 L210.00033,7.11666 L217.11633,0 L210.00033,0 Z M262.50033,20.6208 L262.50033,12.3667 L222.36633,52.5 L230.62133,52.5 L262.50033,20.6208 Z M262.50033,37.1291 L262.50033,28.875 L238.87533,52.5 L247.12933,52.5 L262.50033,37.1291 Z M262.50033,45.3833 L255.38333,52.5 L262.50033,52.5 L262.50033,45.3833 Z" id="Shape" fill-rule="nonzero"></path>
            <path d="M157.50033,105 L210.00033,105 L210.00033,52.5 C181.00533,52.5 157.50033,76.0051 157.50033,105 Z" id="Path" fill-rule="nonzero"></path>
            <path d="M262.50033,157.5 L262.50033,105 L210.00033,105 C210.00033,133.995 233.50533,157.5 262.50033,157.5 Z" id="Path" fill-rule="nonzero"></path>
            <path d="M110.83733,204.164 L110.83733,210.001 L105.00033,210.001 L105.00033,204.164 L110.83733,204.164 Z M122.49433,204.164 L122.49433,210.001 L116.65833,210.001 L116.65833,204.164 L122.49433,204.164 Z M134.16833,204.164 L134.16833,210.001 L128.33133,210.001 L128.33133,204.164 L134.16833,204.164 Z M145.82633,204.164 L145.82633,210.001 L139.99033,210.001 L139.99033,204.164 L145.82633,204.164 Z M157.50033,204.164 L157.50033,210.001 L151.66333,210.001 L151.66333,204.164 L157.50033,204.164 Z M151.66333,198.326 L151.66333,204.163 L145.82633,204.163 L145.82633,198.326 L140.00533,198.326 L140.00633,204.163 L134.16933,204.163 L134.16833,198.326 L128.33133,198.326 L128.33233,204.163 L122.49533,204.163 L122.49533,198.326 L128.33233,198.326 L128.33233,192.505 L122.49533,192.505 L122.49533,186.668 L128.33233,186.668 L128.33133,180.832 L134.16833,180.832 L134.16933,186.668 L139.99033,186.668 L139.99033,180.832 L145.82633,180.832 L145.82633,186.668 L151.66333,186.668 L151.66333,180.832 L157.50033,180.832 L157.50033,186.669 L151.66333,186.669 L151.66333,192.489 L157.50033,192.489 L157.50033,198.326 L151.66333,198.326 Z M110.83733,180.832 L110.83733,186.668 L116.65833,186.668 L116.65833,180.832 L122.49433,180.832 L122.49433,186.669 L116.67333,186.669 L116.67333,192.489 L122.49433,192.489 L122.49433,198.326 L116.67333,198.326 L116.67333,204.163 L110.83733,204.163 L110.83733,198.326 L105.00033,198.326 L105.00033,192.489 L110.83733,192.489 L110.83733,186.669 L105.00033,186.669 L105.00033,180.832 L110.83733,180.832 Z M139.99033,192.505 L134.16933,192.505 L134.16933,198.326 L139.99033,198.325 L139.99033,192.505 Z M116.65833,192.505 L110.83733,192.505 L110.83733,198.326 L116.65833,198.325 L116.65833,192.505 Z M134.16833,186.669 L128.33133,186.669 L128.33133,192.489 L134.16833,192.489 L134.16833,186.669 Z M145.82633,186.669 L140.00533,186.669 L140.00533,192.489 L145.82633,192.489 L145.82633,186.669 Z M116.67333,163.337 L116.67333,169.158 L122.49433,169.158 L122.49433,174.995 L116.67333,174.995 L116.67333,180.832 L110.83733,180.832 L110.83733,174.995 L105.00033,174.995 L105.00033,169.158 L110.83733,169.158 L110.83733,163.337 L116.67333,163.337 Z M128.33233,163.337 L128.33133,169.158 L134.16833,169.158 L134.16933,163.337 L140.00633,163.337 L140.00533,169.158 L145.82633,169.158 L145.82633,163.337 L151.66333,163.337 L151.66333,169.158 L157.50033,169.158 L157.50033,174.995 L151.66333,174.995 L151.66333,180.832 L145.82633,180.832 L145.82633,174.995 L140.00533,174.995 L140.00633,180.832 L134.16933,180.832 L134.16833,174.995 L128.33133,174.995 L128.33233,180.832 L122.49533,180.832 L122.49533,174.995 L128.33233,174.995 L128.33233,169.174 L122.49533,169.174 L122.49533,163.337 L128.33233,163.337 Z M139.99033,169.174 L134.16933,169.174 L134.16933,174.995 L139.99033,174.994 L139.99033,169.174 Z M116.65833,169.174 L110.83733,169.174 L110.83733,174.995 L116.65833,174.994 L116.65833,169.174 Z M151.66333,169.174 L145.82633,169.174 L145.82633,174.995 L151.66333,174.995 L151.66333,169.174 Z M110.83733,157.5 L110.83733,163.337 L105.00033,163.337 L105.00033,157.5 L110.83733,157.5 Z M122.49433,157.5 L122.49433,163.337 L116.65833,163.337 L116.65833,157.5 L122.49433,157.5 Z M134.16833,157.5 L134.16833,163.337 L128.33133,163.337 L128.33133,157.5 L134.16833,157.5 Z M145.82633,157.5 L145.82633,163.337 L139.99033,163.337 L139.99033,157.5 L145.82633,157.5 Z M157.50033,157.5 L157.50033,163.337 L151.66333,163.337 L151.66333,157.5 L157.50033,157.5 Z M151.66333,192.505 L145.82633,192.505 L145.82633,198.326 L151.66333,198.326 L151.66333,192.505 Z" id="Combined-Shape" fill-rule="nonzero"></path>
        </g>
        <path d="M262.539062,61.6484375 C264.101563,61.6484375 265.566406,61.8789061 266.933594,62.3398438 C268.300781,62.8007814 269.496094,63.4648438 270.519531,64.3320312 C271.542969,65.1992188 272.367187,66.2460939 272.992188,67.4726562 C273.617188,68.6992186 273.976562,70.0859375 274.070312,71.6328125 L274.070312,71.6328125 L269.5,71.6328125 C269.28125,69.7109375 268.53125,68.2304686 267.25,67.1914062 C265.96875,66.1523439 264.257812,65.6328125 262.117188,65.6328125 C260.960938,65.6328125 259.894531,65.8320312 258.917969,66.2304688 C257.941406,66.6289062 257.09375,67.1796875 256.375,67.8828125 C255.65625,68.5859375 255.097656,69.4257811 254.699219,70.4023438 C254.300781,71.3789064 254.101562,72.4609374 254.101562,73.6484375 L254.101562,73.6484375 L254.101562,83.7265625 C254.101562,84.8828124 254.316406,85.9453126 254.746094,86.9140625 C255.175781,87.8828124 255.769531,88.7304688 256.527344,89.4570312 C257.285156,90.1835938 258.167969,90.7460938 259.175781,91.1445312 C260.183594,91.5429688 261.257812,91.7421875 262.398438,91.7421875 C264.570313,91.7421875 266.332031,91.2539064 267.683594,90.2773438 C269.035156,89.3007811 269.820313,87.7031251 270.039062,85.484375 L270.039062,85.484375 L274.585938,85.484375 C274.492188,87.0156249 274.117188,88.4179689 273.460938,89.6914062 C272.804688,90.9648436 271.941406,92.0390626 270.871094,92.9140625 C269.800781,93.7890624 268.542969,94.4765626 267.097656,94.9765625 C265.652344,95.4765624 264.101563,95.7265625 262.445312,95.7265625 C260.273437,95.7265625 258.355469,95.3320314 256.691406,94.5429688 C255.027344,93.7539061 253.636719,92.6250001 252.519531,91.15625 C251.402344,89.6874999 250.546875,87.9296874 249.953125,85.8828125 C249.359375,83.8359376 249.0625,81.5312499 249.0625,78.96875 C249.0625,76.3125001 249.335938,73.9140624 249.882812,71.7734375 C250.429687,69.6328126 251.261719,67.8085936 252.378906,66.3007812 C253.496094,64.7929689 254.902344,63.640625 256.597656,62.84375 C258.292969,62.046875 260.273437,61.6484375 262.539062,61.6484375 Z M75.90625,61.6484375 C77.4687501,61.6484375 78.9335939,61.8789061 80.3007812,62.3398438 C81.6679686,62.8007814 82.8632811,63.4648438 83.8867188,64.3320312 C84.9101564,65.1992188 85.7343749,66.2460939 86.359375,67.4726562 C86.9843751,68.6992186 87.34375,70.0859375 87.4375,71.6328125 L87.4375,71.6328125 L82.8671875,71.6328125 C82.6484376,69.7109375 81.8984376,68.2304686 80.6171875,67.1914062 C79.3359374,66.1523439 77.6249999,65.6328125 75.484375,65.6328125 C74.3281251,65.6328125 73.2617189,65.8320312 72.2851562,66.2304688 C71.3085936,66.6289062 70.4609376,67.1796875 69.7421875,67.8828125 C69.0234374,68.5859375 68.4648438,69.4257811 68.0664062,70.4023438 C67.6679688,71.3789064 67.46875,72.4609374 67.46875,73.6484375 L67.46875,73.6484375 L67.46875,83.7265625 C67.46875,84.8828124 67.6835939,85.9453126 68.1132812,86.9140625 C68.5429686,87.8828124 69.1367189,88.7304688 69.8945312,89.4570312 C70.6523436,90.1835938 71.5351562,90.7460938 72.5429688,91.1445312 C73.5507812,91.5429688 74.6249999,91.7421875 75.765625,91.7421875 C77.9375001,91.7421875 79.6992186,91.2539064 81.0507812,90.2773438 C82.4023439,89.3007811 83.1875001,87.7031251 83.40625,85.484375 L83.40625,85.484375 L87.953125,85.484375 C87.859375,87.0156249 87.484375,88.4179689 86.828125,89.6914062 C86.171875,90.9648436 85.3085939,92.0390626 84.2382812,92.9140625 C83.1679686,93.7890624 81.9101564,94.4765626 80.4648438,94.9765625 C79.0195311,95.4765624 77.4687501,95.7265625 75.8125,95.7265625 C73.6406249,95.7265625 71.7226562,95.3320314 70.0585938,94.5429688 C68.3945312,93.7539061 67.0039064,92.6250001 65.8867188,91.15625 C64.7695311,89.6874999 63.9140624,87.9296874 63.3203125,85.8828125 C62.7265626,83.8359376 62.4296875,81.5312499 62.4296875,78.96875 C62.4296875,76.3125001 62.7031251,73.9140624 63.25,71.7734375 C63.7968749,69.6328126 64.6289061,67.8085936 65.7460938,66.3007812 C66.8632814,64.7929689 68.2695314,63.640625 69.9648438,62.84375 C71.6601561,62.046875 73.6406249,61.6484375 75.90625,61.6484375 Z M333.039062,69.9453125 C334.351562,69.9453125 335.574219,70.1132814 336.707031,70.4492188 C337.839844,70.7851561 338.824219,71.2890624 339.660156,71.9609375 C340.496094,72.6328126 341.144531,73.4960938 341.605469,74.5507812 C342.066406,75.6054688 342.296875,76.8515626 342.296875,78.2890625 L342.296875,78.2890625 L342.296875,91.296875 L345.953125,91.296875 L345.953125,95 L338.640625,95 L338.546875,90.4765625 L338.359375,90.4765625 C337.6875,92.2109375 336.695312,93.4960936 335.382812,94.3320312 C334.070312,95.1679689 332.5,95.5859375 330.671875,95.5859375 C329.453125,95.5859375 328.351562,95.3984375 327.367188,95.0234375 C326.382812,94.6484375 325.53125,94.0937499 324.8125,93.359375 C324.171875,92.7187501 323.675781,91.953125 323.324219,91.0625 C322.972656,90.171875 322.796875,89.2421874 322.796875,88.2734375 C322.796875,86.3515625 323.40625,84.7031251 324.625,83.328125 C325.84375,81.9531249 327.671875,81.1562499 330.109375,80.9375 L330.109375,80.9375 L338.078125,80.2109375 L338.078125,78.2421875 C338.078125,77.2890624 337.957031,76.5000001 337.714844,75.875 C337.472656,75.2499999 337.128906,74.7539064 336.683594,74.3867188 C336.238281,74.0195311 335.703125,73.7617186 335.078125,73.6132812 C334.453125,73.4648439 333.757813,73.390625 332.992188,73.390625 C331.460938,73.390625 330.238281,73.7343751 329.324219,74.421875 C328.410156,75.1093749 327.953125,76.2421876 327.953125,77.8203125 L327.953125,77.8203125 L323.617188,77.8203125 C323.617188,76.6640626 323.867188,75.6054688 324.367188,74.6445312 C324.867187,73.6835938 325.539062,72.8515625 326.382812,72.1484375 C327.226562,71.4453125 328.21875,70.9023436 329.359375,70.5195312 C330.5,70.1367189 331.726562,69.9453125 333.039062,69.9453125 Z M420.929688,69.9453125 C422.085937,69.9453125 423.214844,70.0976562 424.316406,70.4023438 C425.417969,70.7070312 426.402344,71.1796876 427.269531,71.8203125 C428.136719,72.4609374 428.832031,73.2773439 429.355469,74.2695312 C429.878906,75.2617186 430.15625,76.4453124 430.1875,77.8203125 L430.1875,77.8203125 L425.875,77.8203125 C425.8125,76.1953126 425.308594,75.0507811 424.363281,74.3867188 C423.417969,73.7226564 422.289062,73.390625 420.976562,73.390625 C419.632813,73.390625 418.496094,73.7109376 417.566406,74.3515625 C416.636719,74.9921874 416.171875,75.828125 416.171875,76.859375 C416.171875,77.8125001 416.445313,78.5546874 416.992188,79.0859375 C417.539062,79.6171876 418.421875,80.0078124 419.640625,80.2578125 L419.640625,80.2578125 L423.765625,81.125 C426.203125,81.640625 428.011719,82.4726562 429.191406,83.6210938 C430.371094,84.7695312 430.960938,86.3359374 430.960938,88.3203125 C430.960938,89.3515625 430.730469,90.3085936 430.269531,91.1914062 C429.808594,92.0742189 429.144531,92.8320312 428.277344,93.4648438 C427.410156,94.0976562 426.382813,94.6093749 425.195312,95 C424.007812,95.3906251 422.695312,95.5859375 421.257812,95.5859375 C419.882812,95.5859375 418.597656,95.4101562 417.402344,95.0585938 C416.207031,94.7070312 415.160156,94.1835939 414.261719,93.4882812 C413.363281,92.7929686 412.65625,91.9257811 412.140625,90.8867188 C411.625,89.8476564 411.351562,88.6406251 411.320312,87.265625 L411.320312,87.265625 L415.65625,87.265625 C415.71875,88.8906249 416.300781,90.1054689 417.402344,90.9101562 C418.503906,91.7148436 419.804688,92.1171875 421.304688,92.1171875 C422.742187,92.1171875 423.992188,91.7968749 425.054688,91.15625 C426.117187,90.5156251 426.648438,89.5859375 426.648438,88.3671875 C426.648438,87.3828125 426.328125,86.5937499 425.6875,86 C425.046875,85.4062501 423.90625,84.9531249 422.265625,84.640625 L422.265625,84.640625 L418.234375,83.8203125 C416.21875,83.3984375 414.667969,82.6210936 413.582031,81.4882812 C412.496094,80.3554689 411.953125,78.828125 411.953125,76.90625 C411.953125,75.9531249 412.167969,75.0507811 412.597656,74.1992188 C413.027344,73.3476564 413.644531,72.6093751 414.449219,71.984375 C415.253906,71.3593749 416.199219,70.8632814 417.285156,70.4960938 C418.371094,70.1289061 419.585938,69.9453125 420.929688,69.9453125 Z M103.984375,69.9453125 C105.84375,69.9453125 107.460937,70.2656251 108.835938,70.90625 C110.210938,71.5468749 111.351562,72.4257811 112.257812,73.5429688 C113.164063,74.6601564 113.84375,76.0117186 114.296875,77.5976562 C114.75,79.1835939 114.976562,80.9062501 114.976562,82.765625 C114.976562,84.6562501 114.75,86.3828124 114.296875,87.9453125 C113.84375,89.5078126 113.164063,90.8515625 112.257812,91.9765625 C111.351562,93.1015625 110.207031,93.9843751 108.824219,94.625 C107.441406,95.2656249 105.828125,95.5859375 103.984375,95.5859375 C102.125,95.5859375 100.507813,95.2656249 99.1328125,94.625 C97.7578124,93.9843751 96.6132812,93.1015625 95.6992188,91.9765625 C94.7851562,90.8515625 94.1054688,89.5078126 93.6601562,87.9453125 C93.2148438,86.3828124 92.9921875,84.6562501 92.9921875,82.765625 C92.9921875,80.9062501 93.2148438,79.1835939 93.6601562,77.5976562 C94.1054688,76.0117186 94.7851562,74.6601564 95.6992188,73.5429688 C96.6132812,72.4257811 97.7578124,71.5468749 99.1328125,70.90625 C100.507813,70.2656251 102.125,69.9453125 103.984375,69.9453125 Z M175.890625,69.9453125 C177.65625,69.9453125 179.195312,70.25 180.507812,70.859375 C181.820312,71.46875 182.90625,72.3007812 183.765625,73.3554688 C184.625,74.4101562 185.273437,75.6484374 185.710938,77.0703125 C186.148438,78.4921876 186.367188,80.0234375 186.367188,81.6640625 L186.367188,81.6640625 L186.367188,83.9609375 L169.890625,83.9609375 L169.890625,86.5625 C169.890625,87.453125 170.058594,88.2421876 170.394531,88.9296875 C170.730469,89.6171874 171.1875,90.1992189 171.765625,90.6757812 C172.34375,91.1523436 172.992187,91.5117189 173.710938,91.7539062 C174.429688,91.9960936 175.171875,92.1171875 175.9375,92.1171875 C177.46875,92.1171875 178.796875,91.7265624 179.921875,90.9453125 C181.046875,90.1640626 181.6875,88.9218751 181.84375,87.21875 L181.84375,87.21875 L186.179688,87.21875 C186.085938,88.53125 185.742187,89.6992186 185.148438,90.7226562 C184.554688,91.7460939 183.785156,92.6171874 182.839844,93.3359375 C181.894531,94.0546876 180.828125,94.6093749 179.640625,95 C178.453125,95.3906251 177.203125,95.5859375 175.890625,95.5859375 C174.125,95.5859375 172.582031,95.2656249 171.261719,94.625 C169.941406,93.9843751 168.839844,93.1015625 167.957031,91.9765625 C167.074219,90.8515625 166.417969,89.5078126 165.988281,87.9453125 C165.558594,86.3828124 165.34375,84.6562501 165.34375,82.765625 C165.34375,80.9062501 165.574219,79.1835939 166.035156,77.5976562 C166.496094,76.0117186 167.183594,74.6601564 168.097656,73.5429688 C169.011719,72.4257811 170.117188,71.5468749 171.414062,70.90625 C172.710937,70.2656251 174.203125,69.9453125 175.890625,69.9453125 Z M378.132812,69.9453125 C379.992187,69.9453125 381.609375,70.2656251 382.984375,70.90625 C384.359375,71.5468749 385.5,72.4257811 386.40625,73.5429688 C387.3125,74.6601564 387.992188,76.0117186 388.445312,77.5976562 C388.898437,79.1835939 389.125,80.9062501 389.125,82.765625 C389.125,84.6562501 388.898437,86.3828124 388.445312,87.9453125 C387.992188,89.5078126 387.3125,90.8515625 386.40625,91.9765625 C385.5,93.1015625 384.355469,93.9843751 382.972656,94.625 C381.589844,95.2656249 379.976563,95.5859375 378.132812,95.5859375 C376.273438,95.5859375 374.65625,95.2656249 373.28125,94.625 C371.90625,93.9843751 370.761719,93.1015625 369.847656,91.9765625 C368.933594,90.8515625 368.253906,89.5078126 367.808594,87.9453125 C367.363281,86.3828124 367.140625,84.6562501 367.140625,82.765625 C367.140625,80.9062501 367.363281,79.1835939 367.808594,77.5976562 C368.253906,76.0117186 368.933594,74.6601564 369.847656,73.5429688 C370.761719,72.4257811 371.90625,71.5468749 373.28125,70.90625 C374.65625,70.2656251 376.273438,69.9453125 378.132812,69.9453125 Z M307.304688,69.9453125 C309.070312,69.9453125 310.609375,70.25 311.921875,70.859375 C313.234375,71.46875 314.320312,72.3007812 315.179688,73.3554688 C316.039063,74.4101562 316.6875,75.6484374 317.125,77.0703125 C317.5625,78.4921876 317.78125,80.0234375 317.78125,81.6640625 L317.78125,81.6640625 L317.78125,83.9609375 L301.304688,83.9609375 L301.304688,86.5625 C301.304688,87.453125 301.472656,88.2421876 301.808594,88.9296875 C302.144531,89.6171874 302.601562,90.1992189 303.179688,90.6757812 C303.757813,91.1523436 304.40625,91.5117189 305.125,91.7539062 C305.84375,91.9960936 306.585937,92.1171875 307.351562,92.1171875 C308.882812,92.1171875 310.210938,91.7265624 311.335938,90.9453125 C312.460938,90.1640626 313.101562,88.9218751 313.257812,87.21875 L313.257812,87.21875 L317.59375,87.21875 C317.5,88.53125 317.15625,89.6992186 316.5625,90.7226562 C315.96875,91.7460939 315.199219,92.6171874 314.253906,93.3359375 C313.308594,94.0546876 312.242188,94.6093749 311.054688,95 C309.867187,95.3906251 308.617188,95.5859375 307.304688,95.5859375 C305.539063,95.5859375 303.996094,95.2656249 302.675781,94.625 C301.355469,93.9843751 300.253906,93.1015625 299.371094,91.9765625 C298.488281,90.8515625 297.832031,89.5078126 297.402344,87.9453125 C296.972656,86.3828124 296.757812,84.6562501 296.757812,82.765625 C296.757812,80.9062501 296.988281,79.1835939 297.449219,77.5976562 C297.910156,76.0117186 298.597656,74.6601564 299.511719,73.5429688 C300.425781,72.4257811 301.53125,71.5468749 302.828125,70.90625 C304.125,70.2656251 305.617188,69.9453125 307.304688,69.9453125 Z M133.257812,69.9453125 C134.445313,69.9453125 135.523438,70.1054686 136.492188,70.4257812 C137.460937,70.7460939 138.296875,71.2578125 139,71.9609375 C139.703125,72.6640625 140.25,73.5664062 140.640625,74.6679688 C141.03125,75.7695312 141.226562,77.1093751 141.226562,78.6875 L141.226562,78.6875 L141.226562,95 L136.890625,95 L136.890625,79.15625 C136.890625,77.3593749 136.546875,75.9492189 135.859375,74.9257812 C135.171875,73.9023436 133.898437,73.390625 132.039062,73.390625 C131.148438,73.390625 130.335937,73.5664062 129.601562,73.9179688 C128.867188,74.2695312 128.226562,74.7734375 127.679688,75.4296875 C127.132813,76.0859375 126.707031,76.8632814 126.402344,77.7617188 C126.097656,78.6601561 125.945312,79.6406251 125.945312,80.703125 L125.945312,80.703125 L125.945312,95 L121.632812,95 L121.632812,70.53125 L125.945312,70.53125 L125.945312,74.5625 C126.617188,73.1250001 127.539062,71.9960938 128.710938,71.1757812 C129.882812,70.3554688 131.398438,69.9453125 133.257812,69.9453125 Z M292.679688,70.53125 L292.679688,74.2578125 L285.226562,74.2578125 L285.226562,95 L280.914062,95 L280.914062,70.53125 L292.679688,70.53125 Z M356.828125,62.3515625 L356.828125,70.53125 L362.453125,70.53125 L362.453125,74.2109375 L356.828125,74.2109375 L356.828125,91.296875 L362.453125,91.296875 L362.453125,95 L352.5625,95 L352.5625,74.2109375 L348.4375,74.2109375 L348.4375,70.53125 L352.5625,70.53125 L352.5625,62.3515625 L356.828125,62.3515625 Z M407.546875,70.53125 L407.546875,74.2578125 L400.09375,74.2578125 L400.09375,95 L395.78125,95 L395.78125,70.53125 L407.546875,70.53125 Z M155.03125,62.3515625 L155.03125,70.53125 L160.65625,70.53125 L160.65625,74.2109375 L155.03125,74.2109375 L155.03125,91.296875 L160.65625,91.296875 L160.65625,95 L150.765625,95 L150.765625,74.2109375 L146.640625,74.2109375 L146.640625,70.53125 L150.765625,70.53125 L150.765625,62.3515625 L155.03125,62.3515625 Z M204.554688,69.9453125 C205.742188,69.9453125 206.820313,70.1054686 207.789062,70.4257812 C208.757812,70.7460939 209.59375,71.2578125 210.296875,71.9609375 C211,72.6640625 211.546875,73.5664062 211.9375,74.6679688 C212.328125,75.7695312 212.523438,77.1093751 212.523438,78.6875 L212.523438,78.6875 L212.523438,95 L208.1875,95 L208.1875,79.15625 C208.1875,77.3593749 207.84375,75.9492189 207.15625,74.9257812 C206.46875,73.9023436 205.195312,73.390625 203.335938,73.390625 C202.445312,73.390625 201.632812,73.5664062 200.898438,73.9179688 C200.164063,74.2695312 199.523437,74.7734375 198.976562,75.4296875 C198.429688,76.0859375 198.003906,76.8632814 197.699219,77.7617188 C197.394531,78.6601561 197.242188,79.6406251 197.242188,80.703125 L197.242188,80.703125 L197.242188,95 L192.929688,95 L192.929688,70.53125 L197.242188,70.53125 L197.242188,74.5625 C197.914063,73.1250001 198.835938,71.9960938 200.007812,71.1757812 C201.179688,70.3554688 202.695313,69.9453125 204.554688,69.9453125 Z M226.328125,62.3515625 L226.328125,70.53125 L231.953125,70.53125 L231.953125,74.2109375 L226.328125,74.2109375 L226.328125,91.296875 L231.953125,91.296875 L231.953125,95 L222.0625,95 L222.0625,74.2109375 L217.9375,74.2109375 L217.9375,70.53125 L222.0625,70.53125 L222.0625,62.3515625 L226.328125,62.3515625 Z M338.078125,83.5390625 L329.382812,84.3359375 C328.492188,84.3984376 327.933594,84.6328126 327.707031,85.0390625 C327.480469,85.4453124 327.367188,86 327.367188,86.703125 L327.367188,86.703125 L327.367188,88.859375 C327.367188,89.984375 327.757813,90.8085939 328.539062,91.3320312 C329.320312,91.8554686 330.398437,92.1171875 331.773438,92.1171875 C333.726562,92.1171875 335.265625,91.4218749 336.390625,90.03125 C337.515625,88.6406251 338.078125,86.84375 338.078125,84.640625 L338.078125,84.640625 L338.078125,83.5390625 Z M378.132812,73.390625 C377.273437,73.390625 376.449219,73.5273436 375.660156,73.8007812 C374.871094,74.0742189 374.1875,74.4531249 373.609375,74.9375 C373.03125,75.4218751 372.566406,76.0078126 372.214844,76.6953125 C371.863281,77.3828124 371.6875,78.1406251 371.6875,78.96875 L371.6875,78.96875 L371.6875,86.5625 C371.6875,87.3906249 371.863281,88.1484376 372.214844,88.8359375 C372.566406,89.5234374 373.03125,90.1054689 373.609375,90.5820312 C374.1875,91.0585936 374.867188,91.4335936 375.648438,91.7070312 C376.429687,91.9804689 377.257813,92.1171875 378.132812,92.1171875 C378.992188,92.1171875 379.8125,91.9804689 380.59375,91.7070312 C381.375,91.4335936 382.054687,91.0585936 382.632812,90.5820312 C383.210938,90.1054689 383.675781,89.5234374 384.027344,88.8359375 C384.378906,88.1484376 384.554688,87.3906249 384.554688,86.5625 L384.554688,86.5625 L384.554688,78.96875 C384.554688,78.1406251 384.378906,77.3828124 384.027344,76.6953125 C383.675781,76.0078126 383.210938,75.4218751 382.632812,74.9375 C382.054687,74.4531249 381.375,74.0742189 380.59375,73.8007812 C379.8125,73.5273436 378.992188,73.390625 378.132812,73.390625 Z M103.984375,73.390625 C103.125,73.390625 102.300781,73.5273436 101.511719,73.8007812 C100.722656,74.0742189 100.039063,74.4531249 99.4609375,74.9375 C98.8828124,75.4218751 98.4179688,76.0078126 98.0664062,76.6953125 C97.7148438,77.3828124 97.5390625,78.1406251 97.5390625,78.96875 L97.5390625,78.96875 L97.5390625,86.5625 C97.5390625,87.3906249 97.7148438,88.1484376 98.0664062,88.8359375 C98.4179688,89.5234374 98.8828124,90.1054689 99.4609375,90.5820312 C100.039063,91.0585936 100.71875,91.4335936 101.5,91.7070312 C102.28125,91.9804689 103.109375,92.1171875 103.984375,92.1171875 C104.84375,92.1171875 105.664063,91.9804689 106.445312,91.7070312 C107.226562,91.4335936 107.90625,91.0585936 108.484375,90.5820312 C109.0625,90.1054689 109.527344,89.5234374 109.878906,88.8359375 C110.230469,88.1484376 110.40625,87.3906249 110.40625,86.5625 L110.40625,86.5625 L110.40625,78.96875 C110.40625,78.1406251 110.230469,77.3828124 109.878906,76.6953125 C109.527344,76.0078126 109.0625,75.4218751 108.484375,74.9375 C107.90625,74.4531249 107.226562,74.0742189 106.445312,73.8007812 C105.664063,73.5273436 104.84375,73.390625 103.984375,73.390625 Z M175.890625,73.390625 C175.09375,73.390625 174.335938,73.5195312 173.617188,73.7773438 C172.898437,74.0351562 172.257812,74.4140626 171.695312,74.9140625 C171.132812,75.4140624 170.691406,76.0234374 170.371094,76.7421875 C170.050781,77.4609376 169.890625,78.265625 169.890625,79.15625 L169.890625,79.15625 L169.890625,80.515625 L181.890625,80.515625 L181.890625,79.15625 C181.890625,78.265625 181.730469,77.4609376 181.410156,76.7421875 C181.089844,76.0234374 180.652344,75.4140624 180.097656,74.9140625 C179.542969,74.4140626 178.902344,74.0351562 178.175781,73.7773438 C177.449219,73.5195312 176.6875,73.390625 175.890625,73.390625 Z M307.304688,73.390625 C306.507812,73.390625 305.75,73.5195312 305.03125,73.7773438 C304.3125,74.0351562 303.671875,74.4140626 303.109375,74.9140625 C302.546875,75.4140624 302.105469,76.0234374 301.785156,76.7421875 C301.464844,77.4609376 301.304688,78.265625 301.304688,79.15625 L301.304688,79.15625 L301.304688,80.515625 L313.304688,80.515625 L313.304688,79.15625 C313.304688,78.265625 313.144531,77.4609376 312.824219,76.7421875 C312.503906,76.0234374 312.066406,75.4140624 311.511719,74.9140625 C310.957031,74.4140626 310.316406,74.0351562 309.589844,73.7773438 C308.863281,73.5195312 308.101562,73.390625 307.304688,73.390625 Z" id="Text-Layer" fill="#FFFFFF"></path>
        <g id="Group" transform="translate(531.000000, -39.000000)">
            <g id="Group-22" transform="translate(93.000000, 196.000000)">
                <path d="M101.585807,76.2812471 C133.733549,78.0694444 156.415271,62.7698281 154.147676,44.1282489 C153.565938,39.3458661 151.407309,23.1326009 147.426678,18.537037 C135.890933,5.21923608 115.371096,1.46591576 89.5554355,3.0791433 C63.5609973,4.70354273 4.05972178,-4.59921184 0.854055623,3.0791433 C-2.02898709,9.98473632 15.7291599,51.725463 24.0555998,51.725463 C60.8171701,51.725463 69.4380647,74.4930497 101.585807,76.2812471 Z" id="Oval-Copy" fill="#000000"></path>
                <path d="M75.0228311,38.5295748 C76.680438,49.4526198 92.2292212,57.4793214 110.453207,56.6081065 C129.192472,55.7153053 143.66418,45.5622397 142.776674,33.9262573 C142.747783,33.5474431 142.702972,33.1718313 142.642662,32.7996553 L142.691497,32.7962963 L143.675799,42.9156985 L143.637108,42.9182413 C143.899352,54.2638407 129.637846,63.9932059 111.280035,64.8216067 C93.4599164,65.6285826 78.1970561,57.9276032 75.9786222,47.3647776 L75.9007183,47.3698975 L75.0228311,38.5295748 Z" id="Path" stroke="#979797" stroke-width="0.5" fill="#D8D8D8"></path>
                <path d="M110.869229,54.8321234 C93.1040817,55.7313316 78.0220954,47.3404639 77.18267,36.0863079 C76.3432446,24.8304663 90.0642534,14.782743 107.829401,13.6483778 C125.594548,12.5170632 140.676535,20.9187226 141.51596,32.4097212 C142.355386,43.8990343 128.634377,53.9359659 110.869229,54.8321234 Z" id="Oval-Copy-18" stroke="#979797" stroke-width="0.5" fill="#D8D8D8"></path>
                <path d="M110.469362,51.4130096 C128.053994,49.9878425 141.304959,39.7741693 140.28785,28.5185185 C140.509265,29.2708828 140.666947,30.0416528 140.756982,30.8287599 C142.058877,42.2111424 128.723428,52.5960282 110.971423,54.0197918 C93.2194186,55.4405247 77.7731807,47.5509379 76.4712856,36.4021662 C76.4590108,36.2970589 76.4480372,36.1920288 76.4383562,36.0870823 C79.4185715,46.0120287 93.945029,52.7495334 110.469362,51.4130096 Z" id="Path" fill="#FFFFFF"></path>
                <path d="M109.523103,18.8319963 C93.9631842,20.0041605 82.1238394,28.880006 83.0791862,38.6567521 C83.2197129,40.0948625 83.62925,41.474164 84.2751389,42.7777778 C83.0910943,41.026493 82.3533304,39.109459 82.1544384,37.0745565 C81.1990916,27.3002171 93.0384363,18.4196818 108.598355,17.2393257 C121.869488,16.2325941 133.56086,21.2500358 137.305936,28.9279568 C132.802605,22.1654771 121.84363,17.9038629 109.523103,18.8319963 Z" id="Path" fill="#000000"></path>
                <path d="M122.682361,37.5281361 L101.538942,42.7143062 C100.351952,43.0039504 99.2624506,42.2748668 99.1054716,41.0860292 C99.0688965,40.8090426 99.086042,40.521598 99.1559674,40.2394511 L103.169816,24.0149944 C103.469933,22.7996188 104.652864,21.9527088 105.811965,22.1238257 C106.082029,22.1637222 106.336058,22.2579666 106.560117,22.4013968 L123.689687,33.430813 C124.65134,34.0537496 124.852661,35.4227052 124.139351,36.4876267 C123.789772,37.0093331 123.264081,37.38473 122.682361,37.5281361 Z" id="Path" fill="#FFFFFF"></path>
                <path d="M121.36974,38.5918234 L101.400526,43.4313397 C100.279456,43.701713 99.2513443,43.0235374 99.1041743,41.9167452 C99.0698846,41.6588737 99.0863297,41.3912361 99.1526074,41.1285031 L102.957071,26.0221577 C103.241532,24.890677 104.359256,24.1020648 105.453577,24.2611398 C105.708547,24.2982268 105.948329,24.3859062 106.159768,24.519375 L122.324518,34.7785166 C123.232006,35.3576999 123.420896,36.631435 122.746416,37.6227602 C122.415867,38.1084236 121.919154,38.4580455 121.36974,38.5918234 Z" id="Path" fill="#000000"></path>
            </g>
            <g id="Group-27">
                <g id="Group-25" transform="translate(184.280646, 182.001142) rotate(-40.000000) translate(-184.280646, -182.001142) translate(46.280646, 61.001142)">
                    <g id="Group-18" transform="translate(72.115957, 86.534273) scale(-1, 1) translate(-72.115957, -86.534273) translate(0.115957, 0.534273)">
                        <path d="M46.2024785,5.49255795 C54.3028755,-1.27162774 66.919347,-1.59500541 78.192026,3.46045769 C89.9114418,8.71626898 98.7891938,19.0497934 101.638526,32.4079589 C104.248171,44.6424297 108.820996,53.7394042 113.083516,57.4034371 C115.232113,58.4716164 117.052212,59.8002437 118.51794,61.5385852 C120.682304,64.1055056 121.76987,67.2985202 121.532217,70.6193376 C130.776214,83.8120352 136.068027,101.883273 135.557461,118.237501 C137.427318,119.229602 139.071245,120.562838 140.418016,122.2786 C143.150834,125.760161 143.936126,130.012557 143.149742,134.303478 C142.586512,137.37675 141.237824,140.427059 139.25503,143.506884 C135.929299,148.672663 130.662294,154.09689 124.273712,159.064957 C117.88513,164.033025 111.323203,167.807544 105.482857,169.769748 C102.000855,170.939609 98.7010319,171.504206 95.5688424,171.304669 C91.1956614,171.026074 87.2402586,169.238908 84.5074413,165.757348 C83.1606703,164.041585 82.258688,162.131377 81.7439128,160.085499 C64.5473204,156.378467 47.0413082,145.775429 36.5614359,132.424257 C25.4809626,118.30793 21.722571,100.063815 29.4406176,82.1786243 C29.4175724,82.1305959 29.3919334,82.080327 29.3637449,82.028259 C29.196163,81.7187118 28.9690534,81.4035328 28.7439674,81.1566786 C26.6576976,80.2721417 24.2974183,79.6619939 21.6608437,79.2848868 C19.391963,78.9603706 17.5160177,78.8477351 14.137764,78.7605241 C12.2193326,78.710999 11.6092768,78.6880404 10.7146735,78.6060883 C9.85310489,78.5271624 9.07759195,78.4089548 8.24501297,78.1883282 C6.15750025,77.6351545 4.31126862,76.69945 2.63485797,74.5637325 C0.606562984,71.9797206 -0.191084665,68.8920469 0.0380802911,65.772634 C0.195210027,63.6337707 0.813571827,61.5906831 1.78198509,59.5361335 C3.16398161,56.6041408 5.32882355,53.5369107 8.18729024,50.2333083 C12.8180797,44.8813877 19.3907029,38.8391243 25.9188106,33.7625544 C29.2782788,31.1500706 32.6830714,28.8688304 36.0072502,27.0069111 C35.140047,19.8106575 38.3673027,12.0352723 46.2024785,5.49255795 Z" id="Path" fill="#000000" fill-rule="nonzero"></path>
                        <path d="M10.5599415,68.6181972 C15.3187503,67.259976 23.0555062,62.445986 31.2662222,55.8198813 C43.1047133,46.266137 51.0408089,36.8896245 48.6784077,33.9823068 C48.0237572,33.1766532 46.717089,33.0386137 44.918118,33.463349 C46.2849505,32.8518144 47.5968962,32.3544156 48.8342978,31.9818804 C45.2136532,27.9866006 43.2322811,20.7911729 52.6342256,12.9304638 C62.4268514,4.74311668 87.5212103,12.2934515 92.2373518,34.4307906 C95.6046719,50.2368271 101.815667,61.1205362 108.029364,65.7016374 C110.912176,66.9318394 112.192745,68.4524564 111.871072,70.2634884 C111.718435,71.1228367 111.259488,71.7410426 110.494229,72.1181061 C110.999246,72.698872 111.481739,73.2838534 111.941407,73.8701836 C122.423988,87.2412616 128.161456,108.614844 125.114958,125.591384 C128.665914,125.590745 131.454904,126.50074 132.803832,128.221367 C136.382078,132.785607 129.546392,142.695813 118.359023,151.406369 C107.171653,160.116925 95.86903,164.32932 92.2907833,159.76508 C91.4375157,158.676693 92.6390621,156.528249 95.8954226,153.319748 C98.2087884,151.110294 101.850882,148.084935 106.821703,144.24367 C114.277935,138.481773 116.920666,135.24712 119.448514,130.593571 C111.871072,138.798023 96.4339744,140.692754 81.3212322,140.008167 C54.6064533,138.798023 44.8907619,127.043954 44.4196597,126.443038 C37.0325116,117.020346 31.4106629,101.981656 38.8355159,85.4156382 C41.2784906,79.9649764 36.2393306,73.8347477 33.6510244,72.6380882 C23.1958311,67.8043069 11.5594347,69.7304078 10.5599415,68.6181972 L10.5599415,68.6181972 Z M63.3068841,32.1892322 C62.0242983,33.463622 60.4855054,34.3258494 58.8594813,34.774905 C59.5615592,37.2801964 60.4373325,42.0889286 61.9622141,50.1637853 C62.4882716,52.9494698 67.2117387,59.2733676 73.1201824,58.2031627 C81.8774308,56.6169498 89.5154058,57.9441849 95.8954226,60.8076656 C92.0798122,54.595182 88.8505609,46.1980827 86.144948,35.614807 C83.6860824,25.9967085 75.8552656,20.9224349 71.867095,19.3290411 C67.8789243,17.7356473 60.6214525,16.4229293 55.8207615,19.3290411 C52.6948954,21.2212929 52.2810743,25.7371287 54.66949,27.6736405 C57.1921348,29.7189844 62.4994562,27.6736405 61.9622141,25.0445122 C61.8843479,24.6634547 61.6367755,23.928475 61.214196,23.6821329 C61.3186941,24.121064 61.1399601,24.7768811 60.677994,25.649584 C58.6450259,26.5127728 57.2864072,26.6669667 56.6021381,26.1121657 C55.2547382,25.0197028 55.246993,22.7921368 57.1256227,21.749244 C59.5312786,20.4137807 62.3423417,20.6371351 65.3530551,20.9224349 C67.0755739,24.5949 66.3888331,29.1269773 63.3068841,32.1892322 Z" id="Shape" fill="#C4C3C6"></path>
                        <g id="Group-28" transform="translate(67.593583, 98.378147) rotate(1.000000) translate(-67.593583, -98.378147) translate(39.593583, 68.878147)" fill="#000000" fill-rule="nonzero">
                            <path d="M38.639826,16.1075824 C34.7971883,11.8625071 37.876654,7.03794532 43.1786907,4.38308871 C45.9502099,3.03544576 48.7886739,2.41553 50.917522,4.31570656 C52.4178892,5.29461192 52.9861107,7.22774469 52.2564201,8.87073973 C51.3148931,11.3378794 49.2608201,13.2051272 46.7267708,13.8974479 C46.1100332,14.1614907 45.42733,14.227383 44.7719795,14.0861179 C46.1008378,12.7506808 47.2325679,11.2303389 48.1326138,9.57151406 C49.1367874,7.24009176 47.9585571,5.63639665 45.3477057,5.9328781 C42.7622466,6.35154473 40.5967646,8.13020144 39.6707775,10.5957227 C39.2133215,11.7599473 39.2614192,13.0638336 39.8033892,14.1907083 C40.3453592,15.317583 41.3316167,16.1643484 42.5226306,16.5253517 C45.9496421,17.4136325 49.590311,16.4899075 52.1894752,14.0726415 C54.9168177,12.0095194 56.0766611,8.45346531 55.0948842,5.16472162 C54.4700083,2.90691505 52.2564201,-1.351846 45.5753184,0.421018435 C41.3176223,1.2296042 34.8641332,7.15923318 33.8064037,10.9865392 C32.9093419,14.4095523 33.6055689,17.1452674 36.4842,18.9645854 C38.3212016,19.8842073 40.3507428,20.3463786 42.4021298,20.3122284 C43.1188411,20.315346 43.8348226,20.2658008 44.5443668,20.1639876 C44.5575411,20.080851 44.5799983,19.9994771 44.6113117,19.9214119 C42.3312184,19.1814444 40.2760654,17.8688727 38.639826,16.1075824 Z" id="Path"></path>
                            <path d="M23.4719084,35.721245 C19.7829763,31.6607382 22.7392634,27.04594 27.8292186,24.5065119 C30.489877,23.2174621 33.2148025,22.6244992 35.2584966,24.4420594 C36.6988491,25.3784037 37.2443418,27.2274872 36.5438388,28.7990477 C35.6399729,31.1589204 33.6680628,32.9449835 31.2353754,33.6072033 C30.6433074,33.859766 29.9879123,33.9227934 29.3587758,33.7876703 C30.6344798,32.5102957 31.7209407,31.0560556 32.5849848,29.4693536 C33.5489914,27.2392974 32.4178903,25.7053282 29.911473,25.9889192 C27.4294323,26.3893829 25.3505695,28.0907067 24.4616219,30.4490314 C24.0224641,31.5626376 24.0686379,32.8098331 24.5889291,33.8877133 C25.1092204,34.9655934 26.0560275,35.7755429 27.1994009,36.1208504 C30.4893319,36.9705103 33.984374,36.0869473 36.4795717,33.7747798 C39.0978205,31.8013586 40.2112701,28.3999156 39.2687643,25.2541608 C38.6688835,23.0945197 36.5438388,19.0209222 30.1299811,20.7167056 C26.0425929,21.4901354 19.8472434,27.1619544 18.831823,30.8228558 C17.9706437,34.0970423 18.6390217,36.7138133 21.4025075,38.4540305 C23.1660291,39.3336689 25.1143886,39.7757457 27.0837201,39.7430803 C27.771763,39.7460624 28.4591052,39.6986713 29.1402676,39.6012848 C29.152915,39.5217628 29.1744739,39.4439269 29.2045347,39.3692558 C27.0156451,38.6614608 25.0426983,37.4059575 23.4719084,35.721245 Z" id="Path-Copy-25" transform="translate(29.039839, 30.029380) rotate(-180.000000) translate(-29.039839, -30.029380) "></path>
                            <path d="M5.53210634,54.4511509 C1.13533348,50.8161979 3.25279179,45.3700346 7.86451033,41.7360775 C10.2820392,39.877279 12.8879102,38.7461204 15.2465609,40.3010025 C16.8473055,41.0307417 17.720589,42.8947037 17.3042755,44.6930488 C16.8264401,47.3662362 15.1831602,49.6263238 12.8804982,50.777298 C12.3364065,51.1545087 11.6954241,51.3420226 11.0451665,51.3142085 C12.0864844,49.7225732 12.9078647,47.9778626 13.4842276,46.1333493 C14.0451116,43.5870049 12.6453422,42.1655147 10.2016474,42.9278292 C7.80309609,43.8098151 6.03823555,45.999557 5.57497021,48.6683557 C5.33691372,49.932136 5.60572706,51.2485539 6.31612389,52.2978926 C7.02652071,53.3472313 8.11350682,54.0334869 9.31308729,54.1899893 C12.7390303,54.487415 16.0593888,52.9058864 18.1294313,49.9906533 C20.3824641,47.4126397 20.8827575,43.5944264 19.3826668,40.4260243 C18.399763,38.2421578 15.5570212,34.3056233 9.4770129,37.2868962 C5.54747584,38.8603904 0.39540357,46.0252616 0.0390308883,50.1010684 C-0.232944251,53.7376906 0.899812074,56.3945721 3.96097412,57.734887 C5.87320163,58.3449403 7.89119066,58.4561658 9.84521915,58.0592089 C10.5304877,57.9358122 11.2060577,57.7590323 11.866544,57.5302784 C11.8649208,57.4434747 11.8724675,57.3568229 11.8890409,57.2719693 C9.58419675,56.9227133 7.3963873,55.9518974 5.53210634,54.4511509 Z" id="Path-Copy-26"></path>
                        </g>
                        <path d="M20.8289601,51.1445909 C22.1063169,49.9901643 23.4483033,48.8281505 24.8380632,47.6760724 C30.0130199,43.3861556 35.1818874,39.7881634 39.2992893,37.5654309 C41.2540187,36.5101924 42.8969905,35.8076264 44.1010122,35.5020738 C45.0731835,35.2553595 45.5789997,35.3010773 45.7031939,35.4580792 C45.8273881,35.6150811 45.7659064,36.1310754 45.3280447,37.0532451 C44.7857585,38.1953406 43.7728624,39.6944263 42.3581692,41.4323595 C39.3782885,45.0931065 36.9942144,46.8546741 31.8192576,51.1445909 C26.6443009,55.4345078 27.0726731,51.1979396 22.9552712,53.4206722 C21.0005418,54.4759106 15.303474,56.6940943 20.8289601,51.1445909 Z" id="Path" fill="#FFFFFF"></path>
                        <path d="M36.1683292,85.261499 C38.570383,79.6731583 33.9374084,77.8034088 31.3924574,76.5765228 C28.437455,75.1519566 16.9508613,70.1557789 14.079922,69.6379351 C42.735153,67.7090252 52.7065562,56.6103133 55.8688005,61.1331645 C58.9923672,65.6006964 45.1230889,72.2340347 37.7826002,88.3217055 C38.0267497,87.6712002 35.8866124,85.9169087 36.1683292,85.261499 Z" id="Path" fill="#000000"></path>
                        <path d="M126.034978,127.183256 C138.180496,127.759279 125.897521,143.483034 116.927233,150.130707 C105.737619,158.423072 94.4327283,162.433231 90.8537638,158.088119 C90.0003249,157.051985 91.0650746,161.057965 105.994875,151.376203 C120.924675,141.69444 127.112072,135.247572 126.034978,127.183256 Z" id="Path" fill="#FFFFFF"></path>
                        <path d="M102.516937,58.0522966 C121.520569,68.5241575 120.817158,96.0646696 107.659301,107.504164 C91.246077,121.773888 80.368541,122.267162 65.9857413,126.329328 C65.2648405,126.532934 58.9594342,124.097075 61.3657202,122.708691 C64.8835536,120.678963 79.1941571,118.30934 92.1982358,108.415837 C114.097429,91.7549305 104.09534,71.9278575 102.516937,58.0522966 Z" id="Path-Copy-11" fill="#FFFFFF" transform="translate(89.013796, 92.196812) rotate(-87.000000) translate(-89.013796, -92.196812) "></path>
                        <path d="M48.3553173,41.3739309 C48.3541865,39.2349356 46.2868614,39.2681287 46.4279747,37.2818853 C46.9251202,37.4486376 48.6570935,36.1082234 49.3870751,35.6567624 C53.493084,33.1173793 53.7942025,30.3127557 54.5050841,27.7347048 C55.2159657,25.1566538 54.8255407,22.7730568 53.7296444,19.908197 C54.5508501,21.0278985 56.1028784,21.4562173 56.4992199,23.2847519 C58.6120234,33.032242 53.2916674,45.5003795 48.4826848,46.0938465 C48.3998749,44.5639402 48.3561696,42.9863048 48.3553173,41.3739309 Z" id="Path" fill="#000000" fill-rule="nonzero" transform="translate(51.698289, 33.001022) rotate(73.000000) translate(-51.698289, -33.001022) "></path>
                    </g>
                    <g id="creator" transform="translate(172.604147, 146.267328) rotate(-19.000000) translate(-172.604147, -146.267328) translate(89.104147, 73.767328)" fill-rule="nonzero">
                        <path d="M35.4198138,18.2065893 C35.7917592,16.7069109 36.7570284,15.9079162 38.0117261,15.3743561 C38.6151263,15.1177603 39.3010227,14.9320706 40.1241817,14.7745104 C41.2533715,14.5583731 42.4704973,14.4154124 44.6138251,14.2143093 C44.8023276,14.1966226 45.0286414,14.1755662 45.4368881,14.1375924 C47.5449374,13.9409985 48.5567478,13.8208577 49.228836,13.6710422 C49.8545089,13.5315731 52.8491352,12.7487716 52.7264684,12.7798287 C56.7311392,11.7659159 59.8258074,11.3190771 63.1632175,11.5434253 C70.2917616,12.0226221 75.0372619,12.1654422 79.4571324,11.8868093 C82.8754417,11.6713159 85.3212739,12.5772114 87.13236,14.4077568 C87.3569937,14.6348041 87.5346035,14.8331127 87.7519968,15.0930583 C89.3269662,15.4025821 91.5909472,16.2871479 95.938872,18.1040504 C96.1102327,18.1756819 96.1102327,18.1756819 96.2813097,18.2472756 C96.5748734,18.3701576 97.752143,18.8638576 98.0439379,18.9859858 C100.18042,19.8801915 104.345244,22.4757875 111.86596,27.4309105 C112.119762,27.5981678 112.119762,27.5981678 112.373392,27.7654481 C113.316906,28.3878534 118.19061,31.6148412 119.423098,32.4257037 C121.817475,34.0009813 123.404618,35.0216427 124.431577,35.6392013 C127.259983,37.340054 129.059495,39.6767123 130.027019,42.618565 C130.702968,44.6738537 130.89457,46.3228712 131.086117,49.9919781 C131.130376,50.8397677 131.149703,51.1871687 131.179333,51.6333573 L131.181089,51.6596957 C131.304154,53.4995366 132.948239,59.2615848 135.564811,67.1933761 C135.799273,67.9041172 136.040492,68.6293908 136.288014,69.3680878 C137.225028,72.164474 138.223791,75.0690763 139.260233,78.0283086 C139.966814,80.0457284 140.488076,81.5149481 141.242904,83.6294228 C141.738424,85.017505 142.108219,86.2325043 142.409592,87.4111263 C142.522261,87.8517544 142.618798,88.259497 142.728559,88.747979 C142.758729,88.8822483 142.791633,89.0302958 142.847595,89.2823114 C142.889904,89.4722165 142.919772,89.6039191 142.948132,89.7247605 C143.068665,90.238342 143.150481,90.4970096 143.250373,90.7057916 C143.279218,90.7660801 143.311666,90.8264915 143.345402,90.8829209 C144.345694,92.5457611 158.141299,109.022876 163.483164,114.622167 C164.638222,115.836817 165.07143,117.569624 164.624594,119.185904 C164.246562,120.55331 163.28547,121.667831 162.020749,122.248997 L131.844882,143.77516 L131.26958,143.933729 C128.034147,144.825504 124.576258,143.76165 122.397694,141.204948 L122.342167,141.139783 L103.481306,116.584114 C103.305411,116.505566 103.117382,116.421102 102.917772,116.330881 C101.842793,115.845008 100.646929,115.28966 99.35995,114.67337 C95.6798752,112.911111 91.9981106,111.009485 88.5487806,109.033198 C84.1966993,106.539681 80.5229767,104.102462 77.7205294,101.750505 C76.937131,101.093037 76.2231934,100.443011 75.5811286,99.7990429 C74.3037858,98.5179128 72.918448,97.1547039 71.0599124,95.3440664 C70.8048057,95.0955883 70.8048057,95.0955883 70.5494369,94.8470399 C63.8831689,88.3598197 63.3239043,87.810431 61.2757586,85.6747343 C57.6117477,81.8541 56.2252682,80.1107392 56.160707,78.0545562 C56.1531824,78.0254536 56.1423778,77.9873875 56.1281103,77.9415598 C56.0577315,77.7155017 55.9370438,77.4098636 55.7702196,77.045225 C55.4045128,76.2458752 54.8567652,75.2475434 54.183819,74.1571378 C52.7949927,71.906759 51.0353964,69.5221795 49.5171496,67.845288 C49.206452,67.502125 48.9489356,67.220068 48.3854927,66.6046788 C43.3663641,61.1228145 41.5343813,58.6979539 40.569503,55.1722911 C39.2768322,50.448876 38.0653972,46.964474 36.7663156,44.6191687 C36.6819652,44.4668863 36.5925149,44.3082408 36.4937706,44.1355124 C36.3492289,43.882673 35.8220448,42.9763367 35.7174511,42.7942209 C35.3952309,42.2331795 35.1519974,41.7895626 34.9299414,41.3477212 C34.2995898,40.0934635 33.9068073,38.9719828 33.7646618,37.7778686 C33.5710301,36.1512381 33.8903695,34.5660587 34.7510165,33.0770857 C36.1789875,30.6067816 38.5309152,29.2894077 41.3002042,29.0667297 C36.76877,26.1718629 34.5590463,21.6771917 35.4198138,18.2065893 Z" id="Path" fill="#000000"></path>
                        <path d="M159.876832,117.719245 L138.085415,93.6405391 L132.252112,77.5855793 L124.37434,42.7500504 L91.0738741,20.5456677 L109.946764,41.3797782 L83.1810972,18.1560923 L71.8596138,17.4728231 L59.8553903,16.4497861 L40.64113,19.5226307 L42.3554832,22.9389768 L49.2166472,26.0118214 L61.2208707,26.0118214 L77.0064247,30.7909722 L88.327908,44.8147929 L92.7919786,59.1597127 L78.3794077,59.4994805 L66.3751842,57.1099051 L55.7364411,46.8646005 C55.7364411,46.8646005 54.7085795,41.3984468 52.3077347,38.6504351 C49.90689,35.9024234 43.3833448,32.8445136 41.6689916,33.5277828 C39.9546385,34.211052 37.5425398,35.9210919 44.0698363,47.1894334 L50.5933816,58.4615087 L61.2321247,71.4398901 L68.09704,81.3454269 L83.8675887,96.7133837 L106.172937,109.348264 L129.678707,138.209854 L159.876832,117.719245 Z" id="Path" fill="#C4C3C7"></path>
                        <path d="M66.0749256,57.3172318 C66.0749256,57.3172318 77.9296972,66.4501661 84.128879,66.4501661 C78.4695659,62.1494722 70.3864286,57.0235802 70.3864286,57.0235802 L66.0749256,57.3172318 Z" id="Path" fill="#101010"></path>
                        <path d="M44.1742727,47.8486316 C44.1742727,47.8486316 51.31123,47.1791523 51.988996,43.8040257 C52.5646888,48.1180079 45.8115266,51.6595139 45.8115266,51.6595139 L44.1742727,47.8486316 Z" id="Path" fill="#101010"></path>
                        <path d="M41.4061572,34.2685933 C41.4061572,34.2685933 39.1850243,34.8505246 40.1766668,38.2334385 C40.7156849,40.1385631 41.4973057,41.9729215 42.5039164,43.6951792 C42.5039164,43.6951792 48.387906,40.8170733 48.5562291,39.695278 C48.5379331,39.695278 45.6910774,36.007376 41.4061572,34.2685933 Z" id="Path" fill="#FFFFFF"></path>
                        <path d="M50.2372984,18.0006757 L50.2372984,18.0006757 C50.5443076,18.3338881 50.6510541,18.8078866 50.5169841,19.2425964 C50.3829142,19.6773061 50.028604,20.0060105 49.5886583,20.1038327 L47.0614434,20.6699294 L41.4115408,21.142871 L40.3694634,19.3514256 L50.2372984,18.0006757 Z" id="Path" fill="#FFFFFF"></path>
                        <polygon id="Path" fill="#101010" points="40.7898948 21.2737507 49.4243942 20.0962869 41.5408992 24.0240311"></polygon>
                        <path d="M0.457108863,0.337256669 C0.457108863,0.337256669 -2.29895166,14.3424387 7.34536987,21.0856745 C7.34536987,21.0856745 17.4471445,27.3101999 22.0405787,17.9734119 C26.6340129,8.63662382 20.2032051,5.00565069 16.9896914,3.9682298 C13.0389599,2.69433796 9.64019668,9.67404471 0.457108863,0.337256669 Z" id="Path" fill="#000000"></path>
                        <path d="M20.3315913,13.2340787 C20.3315913,13.2340787 20.6516581,9.38917373 16.7129544,8.90474622 C11.9307808,8.3135158 9.4643842,10.9073009 7.48750141,9.24041253 C6.19813933,8.1320009 4.9841443,6.93664868 3.85380257,5.66251487 C3.85380257,5.66251487 4.19269676,14.5767439 7.81886462,17.2468168 C11.4450325,19.9168897 14.0771107,20.5844079 15.3950326,20.5844079 C16.1109379,20.6202862 16.8139628,20.3819936 17.3643844,19.9168897 C17.3643844,19.9168897 16.4757285,17.0332109 20.3315913,13.2340787 Z" id="Path" fill="#C4C3C7"></path>
                        <path d="M4.02989247,6.59278588 L5.0392816,10.6656051 C5.23684541,11.5133983 5.63174554,12.303484 6.19234292,12.9725611 C6.21813023,13.0054654 6.24760145,13.0347136 6.27707266,13.0676179 C7.1951934,14.0919474 8.56687866,14.5954734 9.93566131,14.4106334 C11.304444,14.2257934 12.4906962,13.3768443 13.0996591,12.1462979 L14.2343009,9.86127817 C12.7816571,9.82075813 11.3333573,10.0374119 9.95729072,10.5010837 C7.97903537,11.1664815 5.4076718,8.30746472 4.02989247,6.59278588 Z" id="Path" fill="#FFFFFF"></path>
                        <polygon id="Path" fill="#FFFFFF" points="137.920862 95.0305496 130.600971 100.139142 123.791681 42.7940775"></polygon>
                        <path d="M27.0187264,16.0948377 L164.576326,84.530234 C166.614037,85.6027848 167.360451,87.7478866 166.222169,89.744023 C165.139869,91.6396077 162.751343,91.9487109 160.806934,90.9506427 L55.3638058,41.3295765 L51.7735535,37.7506828 C51.2324032,37.2144074 44.9475956,34.335651 44.2011814,34.171789 L36.927375,31.937308 L22.3237811,24.6044862 L27.0187264,16.0948377 Z" id="Path" fill="#000000"></path>
                        <path d="M28.0902481,21.2965128 L163.930858,87.2092395 C164.041517,87.2617186 164.126053,87.3570613 164.164986,87.4732946 C164.203918,87.589528 164.193888,87.7166246 164.137206,87.8252934 C164.025361,88.0406121 163.763329,88.1286179 163.544425,88.024384 L36.2803819,26.3752012 L35.9464735,26.0634178 C35.8840343,26.00751 35.8074692,25.9698297 35.7251186,25.9544815 L35.1623517,25.8493015 L27.6062686,22.2656708 C27.8867369,22.0703296 28.0634061,21.7580118 28.0864963,21.4167184 L28.0902481,21.2965128 Z" id="Path" fill="#C4C3C7"></path>
                        <polygon id="Path" fill="#101010" points="138.798232 94.2332816 123.796526 104.445416 142.635434 97.8557808"></polygon>
                        <ellipse id="Oval" fill="#000000" cx="22.4609491" cy="18.4897102" rx="5.88715871" ry="5.89161619"></ellipse>
                        <ellipse id="Oval" fill="#C4C3C7" cx="22.4609491" cy="18.4897102" rx="2.74734073" ry="2.74942089"></ellipse>
                    </g>
                </g>
            </g>
        </g>
    </g>
</svg>