<svg xmlns="http://www.w3.org/2000/svg" xmlns:xlink="http://www.w3.org/1999/xlink" viewBox="0 0 596.83 403.45"><defs><style>.cls-1,.cls-2,.cls-3,.cls-4,.cls-5{fill:none;}.cls-2,.cls-3,.cls-4,.cls-5,.cls-6{stroke:#4038ff;}.cls-2,.cls-3,.cls-4,.cls-6{stroke-linecap:square;}.cls-2,.cls-3,.cls-5,.cls-6{stroke-miterlimit:10;}.cls-2{stroke-width:2px;}.cls-3,.cls-4,.cls-5,.cls-6{stroke-width:12px;}.cls-4{stroke-linejoin:bevel;}.cls-6{fill:url(#lines);}.cls-7{fill:url(#lines-3);}</style><pattern id="lines" data-name="lines" width="16" height="16" patternTransform="translate(240 448)" patternUnits="userSpaceOnUse" viewBox="0 0 16 16"><rect class="cls-1" width="16" height="16"/><line class="cls-2" x1="1.98" y1="78.02" x2="67.98" y2="12.02"/><line class="cls-2" x1="-14.02" y1="78.02" x2="51.98" y2="12.02"/><line class="cls-2" x1="-30.02" y1="78.02" x2="35.98" y2="12.02"/><line class="cls-2" x1="-46.02" y1="78.02" x2="19.98" y2="12.02"/><line class="cls-2" x1="-62.02" y1="78.02" x2="3.98" y2="12.02"/><line class="cls-2" x1="1.98" y1="62.02" x2="67.98" y2="-3.98"/><line class="cls-2" x1="-14.02" y1="62.02" x2="51.98" y2="-3.98"/><line class="cls-2" x1="-30.02" y1="62.02" x2="35.98" y2="-3.98"/><line class="cls-2" x1="-46.02" y1="62.02" x2="19.98" y2="-3.98"/><line class="cls-2" x1="-62.02" y1="62.02" x2="3.98" y2="-3.98"/><line class="cls-2" x1="1.98" y1="46.02" x2="67.98" y2="-19.98"/><line class="cls-2" x1="-14.02" y1="46.02" x2="51.98" y2="-19.98"/><line class="cls-2" x1="-30.02" y1="46.02" x2="35.98" y2="-19.98"/><line class="cls-2" x1="-46.02" y1="46.02" x2="19.98" y2="-19.98"/><line class="cls-2" x1="-62.02" y1="46.02" x2="3.98" y2="-19.98"/><line class="cls-2" x1="1.98" y1="30.02" x2="67.98" y2="-35.98"/><line class="cls-2" x1="-14.02" y1="30.02" x2="51.98" y2="-35.98"/><line class="cls-2" x1="-30.02" y1="30.02" x2="35.98" y2="-35.98"/><line class="cls-2" x1="-46.02" y1="30.02" x2="19.98" y2="-35.98"/><line class="cls-2" x1="-62.02" y1="30.02" x2="3.98" y2="-35.98"/><line class="cls-2" x1="1.98" y1="14.02" x2="67.98" y2="-51.98"/><line class="cls-2" x1="-14.02" y1="14.02" x2="51.98" y2="-51.98"/><line class="cls-2" x1="-30.02" y1="14.02" x2="35.98" y2="-51.98"/><line class="cls-2" x1="-46.02" y1="14.02" x2="19.98" y2="-51.98"/><line class="cls-2" x1="-62.02" y1="14.02" x2="3.98" y2="-51.98"/></pattern><pattern id="lines-3" data-name="lines" width="16" height="16" patternTransform="translate(0 224)" patternUnits="userSpaceOnUse" viewBox="0 0 16 16"><rect class="cls-1" width="16" height="16"/><line class="cls-2" x1="1.98" y1="78.02" x2="67.98" y2="12.02"/><line class="cls-2" x1="-14.02" y1="78.02" x2="51.98" y2="12.02"/><line class="cls-2" x1="-30.02" y1="78.02" x2="35.98" y2="12.02"/><line class="cls-2" x1="-46.02" y1="78.02" x2="19.98" y2="12.02"/><line class="cls-2" x1="-62.02" y1="78.02" x2="3.98" y2="12.02"/><line class="cls-2" x1="1.98" y1="62.02" x2="67.98" y2="-3.98"/><line class="cls-2" x1="-14.02" y1="62.02" x2="51.98" y2="-3.98"/><line class="cls-2" x1="-30.02" y1="62.02" x2="35.98" y2="-3.98"/><line class="cls-2" x1="-46.02" y1="62.02" x2="19.98" y2="-3.98"/><line class="cls-2" x1="-62.02" y1="62.02" x2="3.98" y2="-3.98"/><line class="cls-2" x1="1.98" y1="46.02" x2="67.98" y2="-19.98"/><line class="cls-2" x1="-14.02" y1="46.02" x2="51.98" y2="-19.98"/><line class="cls-2" x1="-30.02" y1="46.02" x2="35.98" y2="-19.98"/><line class="cls-2" x1="-46.02" y1="46.02" x2="19.98" y2="-19.98"/><line class="cls-2" x1="-62.02" y1="46.02" x2="3.98" y2="-19.98"/><line class="cls-2" x1="1.98" y1="30.02" x2="67.98" y2="-35.98"/><line class="cls-2" x1="-14.02" y1="30.02" x2="51.98" y2="-35.98"/><line class="cls-2" x1="-30.02" y1="30.02" x2="35.98" y2="-35.98"/><line class="cls-2" x1="-46.02" y1="30.02" x2="19.98" y2="-35.98"/><line class="cls-2" x1="-62.02" y1="30.02" x2="3.98" y2="-35.98"/><line class="cls-2" x1="1.98" y1="14.02" x2="67.98" y2="-51.98"/><line class="cls-2" x1="-14.02" y1="14.02" x2="51.98" y2="-51.98"/><line class="cls-2" x1="-30.02" y1="14.02" x2="35.98" y2="-51.98"/><line class="cls-2" x1="-46.02" y1="14.02" x2="19.98" y2="-51.98"/><line class="cls-2" x1="-62.02" y1="14.02" x2="3.98" y2="-51.98"/></pattern></defs><title>Content-curator</title><g id="Layer_2" data-name="Layer 2"><g id="Content-curator"><path class="cls-3" d="M6,221.7c0-30.55,17.79-56.45,51.2-56.45"/><path class="cls-3" d="M6,326.22C6,308,19.83,292.6,45.8,292.6"/><path class="cls-3" d="M6,360.62c0-15.28,13.83-28.23,39.8-28.23"/><polyline class="cls-3" points="283.46 125.46 85.59 125.46 85.59 332.39 328.46 332.39"/><polygon class="cls-4" points="167.87 260.76 223.59 228.93 167.87 197.09 167.87 260.76"/><line class="cls-5" x1="287.95" y1="165.26" x2="165.18" y2="165.26"/><line class="cls-5" x1="284.57" y1="125.46" x2="284.57" y2="165.25"/><line class="cls-5" x1="244.77" y1="125.46" x2="244.77" y2="165.25"/><line class="cls-5" x1="204.98" y1="125.46" x2="204.98" y2="165.25"/><line class="cls-5" x1="165.18" y1="292.6" x2="299.95" y2="292.6"/><line class="cls-5" x1="284.57" y1="292.6" x2="284.57" y2="332.39"/><line class="cls-5" x1="244.77" y1="292.6" x2="244.77" y2="332.39"/><line class="cls-5" x1="204.98" y1="292.6" x2="204.98" y2="332.39"/><path class="cls-3" d="M165.18,125.46h-105C30.28,125.46,6,138.13,6,179.69V360.62"/><line class="cls-3" x1="45.8" y1="332.39" x2="165.18" y2="332.39"/><line class="cls-5" x1="165.18" y1="165.25" x2="45.8" y2="165.25"/><line class="cls-5" x1="165.18" y1="125.46" x2="165.18" y2="165.25"/><line class="cls-5" x1="125.39" y1="125.46" x2="125.39" y2="165.25"/><line class="cls-5" x1="85.59" y1="125.46" x2="85.59" y2="165.25"/><line class="cls-5" x1="45.8" y1="125.46" x2="45.8" y2="165.25"/><line class="cls-5" x1="45.8" y1="292.6" x2="165.18" y2="292.6"/><line class="cls-5" x1="165.18" y1="292.6" x2="165.18" y2="332.39"/><line class="cls-5" x1="125.39" y1="292.6" x2="125.39" y2="332.39"/><line class="cls-5" x1="85.59" y1="292.6" x2="85.59" y2="332.39"/><line class="cls-5" x1="45.8" y1="292.6" x2="45.8" y2="332.39"/><path class="cls-6" d="M284.36,378.28a18.89,18.89,0,0,1-18.89,18.89H41.25C24.49,397.17,6,380.74,6,360H6a27.6,27.6,0,0,1,27.6-27.6H284.36Z"/><path class="cls-3" d="M148.2,397.17h118c10.06,0,18.22-7.25,18.22-16.2h0c0-8.94-8.16-16.19-18.22-16.19H83.2"/><path class="cls-3" d="M590.83,223c0,128.11-153.07,174.14-153.07,174.14S284.7,347.61,284.7,223V44.45L437.76,6.18,590.83,44.45Z"/><path class="cls-7" d="M590.83,223V44.45L437.76,6.18v391C507.73,377.86,590.83,316.53,590.83,223Z"/></g></g></svg>