<svg xmlns="http://www.w3.org/2000/svg" xmlns:xlink="http://www.w3.org/1999/xlink" viewBox="0 0 704.21 423.96"><defs><style>.cls-1,.cls-2,.cls-3,.cls-5,.cls-6{fill:none;}.cls-2,.cls-3,.cls-4,.cls-5,.cls-6{stroke:#4038ff;}.cls-2,.cls-4,.cls-5,.cls-6{stroke-linecap:square;}.cls-2,.cls-3,.cls-4,.cls-5{stroke-miterlimit:10;}.cls-2{stroke-width:2px;}.cls-3,.cls-4,.cls-5,.cls-6{stroke-width:12px;}.cls-4{fill:url(#lines);}</style><pattern id="lines" data-name="lines" width="16" height="16" patternTransform="translate(144 -16)" patternUnits="userSpaceOnUse" viewBox="0 0 16 16"><rect class="cls-1" width="16" height="16"/><line class="cls-2" x1="1.98" y1="78.02" x2="67.98" y2="12.02"/><line class="cls-2" x1="-14.02" y1="78.02" x2="51.98" y2="12.02"/><line class="cls-2" x1="-30.02" y1="78.02" x2="35.98" y2="12.02"/><line class="cls-2" x1="-46.02" y1="78.02" x2="19.98" y2="12.02"/><line class="cls-2" x1="-62.02" y1="78.02" x2="3.98" y2="12.02"/><line class="cls-2" x1="1.98" y1="62.02" x2="67.98" y2="-3.98"/><line class="cls-2" x1="-14.02" y1="62.02" x2="51.98" y2="-3.98"/><line class="cls-2" x1="-30.02" y1="62.02" x2="35.98" y2="-3.98"/><line class="cls-2" x1="-46.02" y1="62.02" x2="19.98" y2="-3.98"/><line class="cls-2" x1="-62.02" y1="62.02" x2="3.98" y2="-3.98"/><line class="cls-2" x1="1.98" y1="46.02" x2="67.98" y2="-19.98"/><line class="cls-2" x1="-14.02" y1="46.02" x2="51.98" y2="-19.98"/><line class="cls-2" x1="-30.02" y1="46.02" x2="35.98" y2="-19.98"/><line class="cls-2" x1="-46.02" y1="46.02" x2="19.98" y2="-19.98"/><line class="cls-2" x1="-62.02" y1="46.02" x2="3.98" y2="-19.98"/><line class="cls-2" x1="1.98" y1="30.02" x2="67.98" y2="-35.98"/><line class="cls-2" x1="-14.02" y1="30.02" x2="51.98" y2="-35.98"/><line class="cls-2" x1="-30.02" y1="30.02" x2="35.98" y2="-35.98"/><line class="cls-2" x1="-46.02" y1="30.02" x2="19.98" y2="-35.98"/><line class="cls-2" x1="-62.02" y1="30.02" x2="3.98" y2="-35.98"/><line class="cls-2" x1="1.98" y1="14.02" x2="67.98" y2="-51.98"/><line class="cls-2" x1="-14.02" y1="14.02" x2="51.98" y2="-51.98"/><line class="cls-2" x1="-30.02" y1="14.02" x2="35.98" y2="-51.98"/><line class="cls-2" x1="-46.02" y1="14.02" x2="19.98" y2="-51.98"/><line class="cls-2" x1="-62.02" y1="14.02" x2="3.98" y2="-51.98"/></pattern></defs><title>Content-creator</title><g id="Layer_2" data-name="Layer 2"><g id="Content-creator"><path class="cls-3" d="M347.9,54.42,244.28,86.22c-13.28,4-17.34,13-17.4,24.2l26.48,101.15"/><path class="cls-3" d="M332.41,85.31"/><path class="cls-3" d="M264.26,262.78c0,7-.49,18.36-.49,18.36,13.09,7.83,24.85,7.1,34.46-1"/><path class="cls-3" d="M363.84,121.49l-65.74,30-3.78,72.72c-5.33,25.6-24.44,44.22-56,28.66l14.55-35.27-3.38-98.87a23.94,23.94,0,0,1,15-19.64L368.17,41.82C382.26,39.25,394.23,45,404,49l39.42,15.65"/><path class="cls-3" d="M522.66,230.11C486.52,276.31,415,255.2,415,255.2l-69.14,19.87c-5.55,3.05-31,17.85-31,17.85a43.35,43.35,0,0,1-5.56-4.39c-11.84-11.74-19.31-32.43,4.45-49.28L334,225.93"/><line class="cls-3" x1="506.45" y1="244.79" x2="552.38" y2="268.29"/><line class="cls-3" x1="581.81" y1="132.28" x2="619.61" y2="152.71"/><path class="cls-4" d="M303,229.09s-5.38-58.35,50.29-96.55l14,27.79,16.91-49L504.68,26a139.18,139.18,0,0,1,191,47.47h0l-278.1,138.1c-29.86,15.06-75.21,23.13-108.65,22.8"/><path class="cls-5" d="M221.76,292.19c30.65-23.08,83.36-59.48,155.51-102.89,57.4-34.52,124.91-79.25,220.61-112.92"/><path class="cls-4" d="M6,84.73A44.78,44.78,0,0,1,50.65,39.81c17.86,0,34.44,15.61,34.44,44.92Z"/><path class="cls-5" d="M164.18,373A44.79,44.79,0,0,1,119.54,418c-17.86,0-34.45-15.62-34.45-44.92V84.73"/><path class="cls-4" d="M129.84,416.84c-.59.24-10.3,1.12.21,1.12H327.47A44.79,44.79,0,0,0,372.12,373H164.18C162,394.51,150.64,408.44,129.84,416.84Z"/><path class="cls-6" d="M137.52,104H220"/><path class="cls-6" d="M137.52,167.57H241.84"/><path class="cls-6" d="M137.52,231.18H241.84"/><path class="cls-6" d="M137.52,292h54"/><path class="cls-5" d="M50.65,39.81h230.9v.29M321.09,292V373M281.55,40.1a45.08,45.08,0,0,1,5.1-.29c11.16,0,21.83,6.1,28.25,17.83"/></g></g></svg>