<?xml version="1.0" encoding="utf-8"?>
<!-- Generator: Adobe Illustrator 23.0.2, SVG Export Plug-In . SVG Version: 6.00 Build 0)  -->
<svg version="1.1" xmlns="http://www.w3.org/2000/svg" xmlns:xlink="http://www.w3.org/1999/xlink" x="0px" y="0px"
	 viewBox="0 0 882 300" style="enable-background:new 0 0 882 300;" xml:space="preserve">
<style type="text/css">
	.st0{fill:#C4C3C6;}
	.st1{fill:#FFFFFF;}
	.st2{fill-rule:evenodd;clip-rule:evenodd;}
	.st3{fill-rule:evenodd;clip-rule:evenodd;fill:#C4C3C6;}
	.st4{fill-rule:evenodd;clip-rule:evenodd;fill:#FFFFFF;}
	.st5{fill:#010101;}
	.st6{fill:none;}
	.st7{fill-rule:evenodd;clip-rule:evenodd;fill:#B1B2B7;}
	.st8{fill-rule:evenodd;clip-rule:evenodd;fill:#FDFDFD;}
	.st9{fill-rule:evenodd;clip-rule:evenodd;fill:#F9F9F9;}
</style>
<g id="Layer_4">
	<path d="M876,209H6c-3.3,0-6-2.7-6-6V6c0-3.3,2.7-6,6-6h870c3.3,0,6,2.7,6,6v197C882,206.3,879.3,209,876,209z"/>
	<g>
		<path class="st1" d="M84.7,100.6v-15H67.8v15h-3.7V67.4h3.7v14.9h16.9V67.4h3.6v33.2H84.7z"/>
		<path class="st1" d="M111.9,97.6l1.4-0.1l0.1,2.8c-3.6,0.5-6.8,0.8-9.4,0.8c-3.5,0-5.9-1-7.3-3c-1.4-2-2.2-5.1-2.2-9.3
			c0-8.4,3.3-12.6,10-12.6c3.2,0,5.6,0.9,7.2,2.7c1.6,1.8,2.4,4.6,2.4,8.5l-0.2,2.7H98.2c0,2.7,0.5,4.6,1.4,5.9c1,1.3,2.6,1.9,5,1.9
			C107,97.9,109.5,97.8,111.9,97.6z M110.6,87.2c0-2.9-0.5-5-1.4-6.2c-0.9-1.2-2.5-1.8-4.6-1.8c-2.1,0-3.7,0.6-4.8,1.9
			c-1.1,1.3-1.6,3.3-1.7,6.1H110.6z"/>
		<path class="st1" d="M120.1,100.6V66.1h3.6v34.5H120.1z"/>
		<path class="st1" d="M130.9,111.3V76.6h3.6v1.7c2.4-1.5,4.8-2.2,7.2-2.2c3,0,5.2,1,6.6,2.9c1.4,1.9,2.1,5.1,2.1,9.6
			c0,4.4-0.8,7.6-2.4,9.6c-1.6,1.9-4.3,2.9-8,2.9c-2,0-3.7-0.2-5.4-0.5v10.7H130.9z M141.2,79.3c-1,0-2,0.2-3.1,0.5
			c-1.1,0.3-2,0.6-2.6,1l-0.9,0.5v16.2c2.3,0.4,4,0.5,5.2,0.5c2.6,0,4.4-0.7,5.4-2.2s1.6-3.9,1.6-7.2s-0.5-5.7-1.4-7.1
			C144.4,80,143,79.3,141.2,79.3z"/>
		<path class="st1" d="M174.7,66.1v34.5h-3.6V99c-2.5,1.4-4.9,2.1-7.3,2.1c-1.3,0-2.4-0.2-3.4-0.5s-1.9-0.9-2.7-1.7
			c-1.7-1.7-2.6-4.9-2.6-9.6c0-4.7,0.8-8,2.3-10.1c1.6-2.1,4.1-3.1,7.7-3.1c1.9,0,3.8,0.2,5.9,0.6V66.1H174.7z M162.2,97.5
			c0.6,0.2,1.3,0.3,2.2,0.3s1.9-0.2,3.1-0.5c1.1-0.3,2-0.6,2.7-0.9l1-0.4V79.8c-2-0.4-4-0.6-5.7-0.6c-2.4,0-4.1,0.8-5.1,2.3
			c-1,1.6-1.4,4-1.4,7.2c0,3.7,0.6,6.2,1.7,7.5C161.1,96.9,161.6,97.3,162.2,97.5z"/>
		<path class="st1" d="M197.9,97.6l1.4-0.1l0.1,2.8c-3.6,0.5-6.8,0.8-9.4,0.8c-3.5,0-5.9-1-7.3-3c-1.4-2-2.2-5.1-2.2-9.3
			c0-8.4,3.3-12.6,10-12.6c3.2,0,5.6,0.9,7.2,2.7c1.6,1.8,2.4,4.6,2.4,8.5l-0.2,2.7h-15.8c0,2.7,0.5,4.6,1.4,5.9
			c1,1.3,2.6,1.9,5,1.9C193.1,97.9,195.5,97.8,197.9,97.6z M196.7,87.2c0-2.9-0.5-5-1.4-6.2c-0.9-1.2-2.5-1.8-4.6-1.8
			c-2.1,0-3.7,0.6-4.8,1.9c-1.1,1.3-1.6,3.3-1.7,6.1H196.7z"/>
		<path class="st1" d="M213.4,79.3c-3.5,0-5.2,1.2-5.2,3.6c0,1.1,0.4,1.9,1.2,2.4c0.8,0.5,2.6,0.9,5.5,1.4c2.8,0.5,4.9,1.2,6,2.1
			c1.2,0.9,1.8,2.6,1.8,5c0,2.5-0.8,4.3-2.4,5.4s-3.9,1.7-6.9,1.7c-2,0-4.3-0.2-7-0.7l-1.4-0.2l0.2-3.1c3.6,0.5,6.4,0.8,8.3,0.8
			s3.3-0.3,4.2-0.9c1-0.6,1.5-1.6,1.5-3c0-1.4-0.4-2.3-1.2-2.8c-0.8-0.5-2.7-1-5.5-1.4c-2.8-0.4-4.8-1.1-6-2
			c-1.2-0.9-1.8-2.5-1.8-4.8c0-2.3,0.8-4.1,2.5-5.2c1.6-1.1,3.7-1.7,6.2-1.7c2,0,4.4,0.2,7.3,0.7l1.3,0.2l-0.1,3.1
			C218.3,79.6,215.5,79.3,213.4,79.3z"/>
		<path class="st1" d="M231.8,100.6h-3.6V66.1h3.6v20.4l3.7-0.2l6.9-9.7h4.1l-7.8,11l8.2,13h-4.1l-7.2-11.1l-3.8,0.1V100.6z"/>
	</g>
</g>
<g id="Layer_2">
</g>
<g id="Layer_3">
</g>
<g id="Layer_1">
	<g>
		<g>
			<g>
				<path d="M610.4,97.2c0,0-7.3,0.7-8.3,4.7l0.3,3.4c0,0-14.3-7-25.3,13l-8.6,90.2c0,0-1.2,14.4,7.1,22c1.8,1.7,4.2,2.7,6.6,3
					l4.2,0.5v8.4c0,0-4.7,3.7-5.3,6.6c-0.7,3,0,9.3,0,9.3s7.3,17.3,52.2,14.3c44.9-3,42.9-19.3,42.9-19.3l-2.3-8.6
					c0,0-1.7-0.5-3.7-2.8l-0.3-8l12.6-12.3c0,0,7.3-5,6.3-18.6c-1-13.6-11.5-92.5-11.5-92.5s-8.2-12.1-23.7-7.3l-0.3-3
					c0,0-1.9-3.3-6.4-3.3C642.4,95.6,610.4,97.2,610.4,97.2z M608.4,218.4c0,0-7.3,0.7-10.3,2.3c0,0-16,2.6-14.3-11.5l7.3-80.9
					c0,0,0.3-6.6,7.3-7.6v3c0,0-3.4,0.6-3.5,3.5c-0.1,3,10.4,5.7,10.4,5.7v11.5c0,0-4.7,1.6-4.7,4.3v5c0,0-8.3,6.3-5.6,25.3
					c2.7,18.9,4.1,20.3,4.1,20.3s-2.8,6,2.2,7.6c5,1.7,8.3,2.4,8.3,2.4L608.4,218.4z M667.4,218.8c-2.8-1.6-12.4-2.8-12.4-2.8
					l-0.3-8.5c4.7-1.4,9.8-5.8,9.8-5.8c0.9-3.3-3.2-5.9-3.2-5.9s3.8-2.1,4.4-19.9c0.6-16.1-3.8-24-5.3-26.7v0
					c-0.1-0.4-0.3-1.2-0.7-2.5c-1.7-5.4-5.7-5-5.7-5l-0.3-9.6c5.7-1.8,12.2-4.4,11.2-7.5c-0.3-1.1-4.8-3.9-4.8-3.9l0.1-6.2
					c6.3,0.3,7.8,8.5,7.8,8.5s10.4,69.2,10.8,79.1C679.1,212.1,667.4,218.8,667.4,218.8z"/>
				<path class="st0" d="M629.9,241.4c13.4-0.2,24.1-0.2,34.5-9.1c0.8,6.8,1.8,5.2,2.1,10.9c0.1,1.1,0.4,2.4-0.3,3.2
					c-0.4,0.5-1.1,0.8-1.7,1c-20.2,7.9-39,10.1-59.9,4.4c-3.1-0.9-6.3-1.9-8.7-4.1c-0.7-0.6-1.3-1.3-1.5-2.1c-0.2-0.7-0.1-1.4,0-2.1
					c0.3-2.2-1-8.8,1.1-9.6c1.4-0.5,11,4.3,12.9,4.9C616.6,241.8,621.3,241.4,629.9,241.4z"/>
				<path class="st0" d="M595.9,256.4c22.9,6.2,55.4,5.4,75.5-7.7c1.5,2.5,1.6,4.3,1.1,7.2c-0.1,0.8-4.2,3.4-4.8,4
					c-0.5,0.5-4.4,2.9-5.1,3.2c-19.7,6.7-39.5,7.7-59.8,3.2c-6.5-1.4-10.8-1.8-15.7-6.2c-0.5-0.4-1-0.9-1.1-1.6c-0.1-0.5,0-1,0-1.5
					c0.4-2.1,0.6-2.3,1.2-4.4C590.8,254.6,591.6,255.7,595.9,256.4z"/>
				<path class="st0" d="M630.1,109.9c7.5-0.1,15.3-0.7,22-4.2c0.7,3.5,1,7,0.7,10.6c0,0.5-0.1,1-0.4,1.4c-0.3,0.4-0.8,0.5-1.3,0.6
					c-14.4,2.8-29.2,3.1-43.7,1c-0.6-0.1-1.3-0.2-1.8-0.6c-1-0.7-1.1-2.1-1.1-3.2c-0.1-7.4,1.4-6.5,8.3-6
					C618.6,109.9,624.4,110,630.1,109.9z"/>
				<path class="st1" d="M607.4,262.3c-0.3,1.1-1.2,2.1-1.1,3.3c0.1,1.8,2.3,2.6,4.1,2.9c15.2,2.4,31,1.5,45.8-2.5
					c0.8-0.2,1.7-0.5,2.2-1.2c0.4-0.6,0.4-1.3,0.4-1.9c0-2.6,0.1-3.2,0.1-5.8c-0.6-1.3-2.4-1-3.8-0.7c-9.2,2.7-18.9,4-28.5,3.9
					c-4.8-0.1-9.5-0.7-14.2-1.2C607.3,258.5,608.6,258,607.4,262.3z"/>
				<path class="st0" d="M607.1,161.1c-2-0.7-4.5-1.4-5.9,0.2c-0.7,0.8-0.8,2-0.8,3c-0.2,3.8-0.4,7.6-0.6,11.4
					c-0.4,8,0.4,13.3,3.4,20.7c1.4,3.4,13.7,6,20.8,6.4c7.1,0.4,14.3,0.1,21.4-1.1c4-0.6,8.2-1.7,10.9-4.7c1.7-1.9,2.7-4.5,3.4-7
					c2.6-9.3,4.3-16.7,1.8-26.1c-0.3-1.1-1.5-2.5-2.4-3.3c-1.2-1.1-3.7-0.4-5.4-0.3c-7.3,0.6-13.9,3.6-21.1,3.9
					C624.9,164.8,615,164,607.1,161.1z"/>
				<path class="st1" d="M625.8,168.4c-5.4,0.1-11.5-0.1-15,4c-1.7,1.9-2.4,1.5-3,3.9c-0.9,3.8-1.8,7.6-1.6,11.5
					c0.2,3.9,1.5,7.8,4.3,10.6c3.6,3.6,9.1,4.5,14.1,4.6c5,0.2,9.9-0.2,14.8-1.1c6.5-1.2,13.3-3.7,16.8-9.3
					c1.9-3.1,2.5-6.7,2.8-10.3c0.4-4.5,0.3-6-0.3-10.4c-0.3-2.2-0.4-5-1.3-7c-1.1-2.6-0.9-2.3-3.7-1.6
					C644.2,165.6,635.6,168.3,625.8,168.4z"/>
				<path class="st1" d="M636.8,110c-0.3,0.1-0.7,0.1-1,0.4c-0.4,0.3-0.5,0.8-0.6,1.2c-0.6,2.2,0,5-0.2,7.3c0,0.4,0,0.8,0.2,1.1
					c0.3,0.3,0.7,0.3,1,0.3c2.4-0.1,6.1-0.6,8.5-0.8c0.7,0,1.4-0.1,1.9-0.6c0.3-0.3,0.5-0.8,0.6-1.3c0.5-1.7,0.9-6.9-0.7-8.4
					C645.2,108,638.5,109.7,636.8,110z"/>
				<path class="st0" d="M629.4,224.4c5.8-0.9,9.1-1.8,14.8-3c5.7-1.2,13.1-2.5,17.5,1.4c0.9,0.8,2.9,2.1,2.5,3.2
					c-0.2,0.7-0.9,1.9-1.5,2.4c-18.5,12.6-44.1,12.9-63.6,1.9c-1.3-0.7-2.7-2.1-2-3.4c0.2-0.4,0.7-0.7,1.1-0.9
					c4.3-2.5,10-4.1,15-3.4C618.8,223.4,623.4,225.3,629.4,224.4z"/>
				<path class="st0" d="M654,152.6c0.6-0.2,1.3-0.4,2-0.2c1.3,0.5,0.8,2.1,1.1,3.2c-16.3,5.4-26.4,6.7-44.5,3.5
					c-1-0.2-3.9-1.6-4.9-2c-0.5-0.2-0.4-2.4,1-2.6c2.3-0.2,6.4,1.1,7.1,1.2c4.6,0.8,5.3,0.6,10,0.7
					C635.4,156.7,644.9,155.4,654,152.6z"/>
				<path d="M659.7,148.3c0.1,0.1,0.3,0.4,0.7,1v0C660.6,150.4,659.8,148.5,659.7,148.3z"/>
				<path class="st0" d="M618.4,217.6c-0.6,0.5-1.3,1.5-0.7,2c0.2,0.2,0.5,0.3,0.8,0.3c9.1,1.8,18.5-0.3,27.6-2.3
					c1.1-0.3,2.3-0.5,3.2-1.3c1.8-1.5,2-4.4,1.5-6.4C641.2,210.5,626.1,211.4,618.4,217.6z"/>
				<path class="st1" d="M642.3,210.1c0.7-0.2,1.1,0.7,1.2,1.4c0.3,2.1,0.2,4.3-0.2,6.4c0,0.2-0.1,0.5-0.3,0.7
					c-0.2,0.2-0.5,0.2-0.8,0.2c-0.8,0-1.5,0-2.3,0.1c-0.7,0-1.5,0-2.1-0.4c-0.4-0.3-0.6-0.7-0.7-1.2c-0.5-1.6-0.2-3.5,0.8-4.8
					c1-1.3,1.7-2.4,3.4-2.3L642.3,210.1z"/>
				<path class="st0" d="M660.2,198.4c0.3-0.1,1.9,1.3,1.9,1.6c0,0.2-0.2,0.4-0.4,0.5c-3.2,2.7-7.2,4.3-11.2,5.2
					c-4.1,0.9-8.4,2.1-12.6,2.4c-12.4,0.7-20,1.5-31.6-2.7c0-1.2,0.2-2.4,0.7-3.6c11.2,3.8,18.1,3.9,29.9,3.2
					c4.4-0.2,8.8-0.8,13-2.1c2.1-0.6,4.2-1.4,6.1-2.4C658.1,199.6,658.9,198.9,660.2,198.4z"/>
				<path class="st0" d="M590.1,124.1c-1.7,3.3-2.4,7.1-3,10.8c-2.5,15.8-3.5,28.9-4.5,44.9c-0.6,10.6-1.2,21.2-1.8,31.8
					c-0.1,1.6-0.2,3.2,0.2,4.7c0.7,2.6,2.9,4.7,5.3,5.9s5.1,1.8,7.8,2.3c0,1.7-0.3,3.4-0.9,5c-5.8-0.3-11.3-3.8-14.5-8.6
					c-3.2-4.9-4.3-11-3.7-16.8c0.2-1.9,0.6-3.8,0.6-5.8c0-2.6,0.1-5.6,0.4-8.2c0.5-4.1-0.3-4.6,0.1-6.7c0.7-3.1,1.1-3,1.1-6.2
					c-0.1-6.8,0.1-12.2,0.8-18.3c1-9.6,2.3-19.2,3.5-28.7c0.4-3.3,0.9-6.6,2.3-9.6c2.6-5.6,8.8-9.3,15-9.1c-0.2,3.5,0.1,4.5-2.7,6.2
					C593.6,119.5,591.5,121.3,590.1,124.1z"/>
				<path class="st0" d="M598,126.7c1.9,2.3,4.9,3.1,7.8,3.7c2.4,0.5,4.7,0.9,7.1,1.1c7.7,0.8,15.6,0.4,23.3,0
					c4-0.2,7.9-0.4,11.8-1.2c4.7-1,9.3-2.8,13.4-5.4c-1-0.8-2.1-1.5-3.1-2.2c-0.3-0.2-0.7-0.4-1-0.5c-0.5-0.1-1,0.2-1.5,0.4
					c-6.8,3.2-14.4,4.3-21.9,4.6c-6.5,0.3-13.1,0.1-19.5-0.7c-3.3-0.4-6.6-0.9-9.8-1.6C601.5,124.4,599.5,123.4,598,126.7z"/>
				<path class="st0" d="M630.7,134.6c6.7,0,13.6-0.1,19.6-2.8c-0.2,4.2-0.1,8.4,0.3,12.6c-9.5,4.5-16.4,5.2-29.2,4.5
					c-2.4-0.1-3.3-0.8-5.4-1.8c-0.6-0.3-1.6-1.7-1.8-2.3c-0.1-0.4-0.4-1-0.4-1.5c0.1-2.1,0.1-2.5,0-3.8c-0.1-1,0-2.9,0.4-3.8
					c0.7-1.7,2.5-0.8,4-0.7C623.8,135.3,625.1,134.6,630.7,134.6z"/>
				<path class="st1" d="M643.4,134c0.3-0.1,0.6-0.1,0.9,0c0.5,0.2,0.6,0.8,0.6,1.3c0.3,3.6,0.6,7.2,0.7,10.9c0,0.1,0,0.3,0,0.4
					c-0.1,0.2-0.3,0.2-0.4,0.3c-2.9,1.3-6,1.9-9.1,1.8c-1.1-2.6-1.4-5.4-1.7-8.2c-0.2-2-1.6-5.5,1-6.1c0.9-0.2,2.2,0.2,3.1,0.2
					C640.1,134.5,641.8,134.3,643.4,134z"/>
				<path class="st1" d="M637.1,131.2c0.3,0.3,0.9,0.3,1.3,0.3c2.8-0.1,5.7-0.4,8.5-1c0.4-0.1,0.9-0.2,1-0.6c0.2-0.4,0-0.9-0.2-1.3
					c-0.4-0.7-0.9-1.4-1.4-2.1c-0.1-0.1-0.2-0.2-0.3-0.3c-0.1-0.1-0.3-0.1-0.4-0.1c-1.5,0-2.7-0.1-4.1,0.3c-1.4,0.4-4.8,0.2-5.2,1.2
					C635.8,128.7,636.1,129.9,637.1,131.2z"/>
			</g>
			<path class="st0" d="M659.1,112.1c1.9,0.9,4,1,5.8,2c3.6,2,4.5,6.6,5.1,10.7c1.5,10.2,3,20.4,4.5,30.6c0.8,5.5,1.6,10.9,2.4,16.4
				c1,6.6,1.9,10.2,2.7,16.8c0.3,2.7,0.6,5.5,1,8.2c0.3,1.8,0.6,3.5,0.6,5.3c0.3,6.9-3.5,13.8-9.4,17.4c-1.5,0.9-3.3,1.9-3.5,3.7
				c-0.2,1.6,1.3,3.1,1.3,4.7c5.8-5.3,12.5-11.1,14-18.8c1.4-7.4-0.4-13.9-1-21.6c-0.2-2.1-0.7-4.5-1-7.3c-1-7.8-1.9-12.6-3.4-20.4
				c-1.5-8.2-2.4-16.4-3.3-24.7c-0.7-5.9-2-11.7-3.2-17.6c-0.2-0.8-0.4-1.6-0.8-2.3c-0.5-0.8-1.9-2.5-2.8-3c-3-1.8-5.9-2.7-9.3-3.7
				C654.4,107.3,656.7,111,659.1,112.1z"/>
			<path class="st1" d="M637.1,205c-0.3,0-0.5,0-0.8,0.2c-0.6,0.3-0.6,1.2-0.5,1.8c0,0.2,0.1,0.5,0.2,0.7c0.2,0.3,0.7,0.3,1.1,0.3
				c2.6,0,5.2-0.3,7.7-0.8c1.4-0.2,5.7-0.6,3.4-2.8c-1-1-2.6-0.4-3.8-0.2C642,204.7,639.6,204.8,637.1,205z"/>
			<path class="st1" d="M636.4,156.1c-1.1,0.1-2.3,0.3-3,1.1c-0.5,0.7-0.6,1.6-0.5,2.4c0,0.2,0.1,0.4,0.2,0.6
				c0.3,0.6,1.1,0.6,1.8,0.6c3.5-0.2,7-0.8,10.4-1.8c0.5-0.2,1.1-0.3,1.5-0.7c1.9-1.7-0.5-3.5-2.2-3.1
				C641.9,155.8,639.1,155.9,636.4,156.1z"/>
		</g>
		<path class="st1" d="M653.9,221.6c-3.6-1.2-7.6-0.6-11.2,0.3c-3.7,1-7.2,2.4-11,3c-2,0.3-10.1,0.6-11.8,1.6
			c-5.3,3.1-4.2,6.6-2.9,8.2c1.3,1.5,3.4,2.3,5.4,2.5s4.1,0.1,6.1,0.1c1.7,0.1,3.5,0.3,5.2,0.3c5.1,0,19.7-4.2,24.4-6.2
			c3.2-1.4,4.3-2.3,2-5.4C658.6,224,656.4,222.4,653.9,221.6z"/>
	</g>
	<path class="st0" d="M603.1,105.8c0,0-3.7-12.4,1.8-13.7c5.5-1.3,48.6-6.4,49.8-0.4c1.3,6.1-1.2,11.4-1.2,11.4l3.5,0.5
		c0,0,4.6-15.3,1.1-17.1c-3.6-1.8-16.2-5.2-27-5.1s-35.8,2.5-33.6,13.5c2.1,11.1,3,11.6,3,11.6L603.1,105.8z"/>
	<g>
		<path d="M603.4,95.7c0.4,0.3,0.8,0.7,1.3,0.7c0.4,0,0.8-0.2,1.2-0.4c2-1.2,5.2-4.5,5-6.8c-0.1-0.9-0.7-1.8-1-2.6
			c-1.5-4.2-2.4-5.7-4.3-9c-0.6-1.1-0.1-1.4-0.3-2.6c-0.2-1.2-0.4-3.3-0.5-4.5c-0.1-1.7-0.6-2-0.9-3.5c-0.1-0.4,0.1-0.8,0.4-1.1
			c0.4-0.4,1-0.4,1.5-0.5c4.6-0.2,9.3-0.5,13.9-0.8c1.6-0.1,3.2-0.2,4.8-0.3c10.8-0.7,21.5-1.4,32.3-2.1c0.4,0,0.9-0.1,1.2-0.4
			c0.2-0.3,0.2-0.8,0.1-1.1c-1-4.2-3-8.3-2.3-12.5c0.3-1.6,1-3.1,1.6-4.7c1-2.6,1.7-5.3,2.1-8c0.1-0.4,0.1-0.8,0-1.1
			c-0.1-0.5-0.5-0.9-0.9-1.2c-3.2-2.8-7.2-2.3-11.2-3.6c-2.4-0.8-5.5-1.9-7.9-2.3c-1.2-0.2-2.3-0.8-3.6-1.1
			c-1.5-0.3-2.8-0.8-4.3-1.1c-3.7-0.8-7.5-1.6-11.1-2.7c-1.9,4.8-3.4,8.6-5.3,13.4c-0.6,1.6-1.3,3.3-2.5,4.6c-1.1,1.2-2.6,2-4,2.8
			c-5.9,3.4-11.5,7.3-17.1,11.3c-0.9,0.7-1.9,1.3-2.5,2.3c-0.7,1.1-0.8,2.5-0.9,3.8c-0.5,5.7-2.1,11.7-2.6,17.4
			c-0.3,3.5,4.6,6.2,7,8.4C596.4,89.4,599.9,92.5,603.4,95.7z"/>
		<path class="st0" d="M605.6,85c-1.6-2.2-3.1-4.5-4-7.2c-1-2.8-0.9-3.5-2.1-6.4c0.9-0.4,1-2.1,1.8-2.4c3.2-1.4,6-1,10.1-2.4
			c3.8-1.3,7.7-2.5,11.7-2.9c2.5-0.3,5.1-0.2,7.6-0.6c3.2-0.5,6.3-1.6,9.5-2c4-0.5,6.8-0.1,10.9-0.3c-1.8-2.9-1.1-5.5-0.3-8.7
			c0.4-1.6,1.1-5.4,1.5-7c0.5-1.6,0.6-2.7,0.8-4.4c0.1-0.7,1.9-3.3,1.4-3.8c-1.1-1.1-4.1-1.1-6.4-1.5c-7.7-1.4-15.1-3.6-22.8-5.5
			c-0.6-0.1-1.2-0.3-1.7,0c-0.4,0.3-0.7,0.7-0.9,1.2c-1.2,2.8-3.3,7-4.5,9.7c-0.5,1.1-1,2.2-1.8,3.1c-0.7,0.7-1.7,1.2-2.6,1.7
			c-6.7,3.3-13,7.3-18.9,11.9c-0.7,0.5-1.4,1.1-1.9,1.9c-0.4,0.6-0.5,1.4-0.7,2.1c-1.1,4.7-1.9,9.5-2.4,14.2
			c-0.1,0.9-0.2,1.8,0.2,2.5c0.4,0.8,1.1,1.3,1.8,1.8c3.9,2.8,6.1,6.4,9.7,9.5c2.1,1.8,2.6,2.4,3.4,1.3
			C606.1,89.4,606.3,86.1,605.6,85z"/>
		<path d="M613.5,67.2c0,0,7.4-5,11.9-11.3c0,0-2.2,6.1-9,11L613.5,67.2z"/>
		<path class="st1" d="M597.2,85.1c-0.3-0.3-0.1-0.7,0.3-0.6c0.6,0.2,2.1,1.1,3.4,2.1c0,0,3.4,3.2,3.6,4.6c0,0.2-0.2,0.3-0.4,0.2
			c-0.5-0.1-1.6-0.7-3.8-2.9L597.2,85.1z"/>
		<path class="st1" d="M628.8,30.6c-0.9-0.2-2.7-0.4-3.5-0.7c-1.1-0.3-1.4-0.4-2.2,0.5c-2.2,3.8-3.6,8.4-5.6,12.2
			c0.6-0.2,2.6-1.6,3.2-1.7c2.8-0.5,1.4-0.3,4.2-0.7c1.6-2.9,4.3-6,5.7-8.9c0.1-0.1,0.1-0.2,0.1-0.3L628.8,30.6z"/>
		<path d="M600.1,72.7c0,0-1.7-2.3-3.1-3.6c0,0,2.5,1.4,2.9,1.9c0,0,0.3-1.5-0.5-2.2l2.3,2.3L600.1,72.7z"/>
		<path class="st1" d="M592.8,73.2c0.4-0.7,0.5-1.4,0.7-2.2c0.5-2.5,1.1-5,1.6-7.4c0.3-1.4,0.6-2.7,1.3-3.9c1-1.7,2.8-2.8,4.5-3.8
			c2.7-1.8,5.3-3.8,7.9-5.7c1.5-1.2,3.1-2.4,4.1-4c-6.3,3.4-12.6,6.8-18,11.5c-0.7,0.6-1.3,1.2-1.7,1.9c-0.4,0.6-0.5,1.3-0.7,2
			c-0.6,2.5-1.1,4.9-1.6,7.4c-0.5,2.3-1.2,5-1.2,7.4C590.3,76.5,592.4,73.9,592.8,73.2z"/>
		<path d="M597.2,85.1c0,0,0.2-0.9,1.7,0.1c0,0,2.2,1.5,3.2,2.6c0,0-2.1-3.2-4.9-4.2c0,0-2.1,0-1.8,1.8L597.2,85.1z"/>
	</g>
	<g>
		<path d="M604.9,88.6c0.3-2.7,5-7.9,8.5-6.1c1.8,1,4,2.9,4.9,4.8c1.4-2.4,4-3.8,6.7-4.2s5.2,2.3,5.7,5.1c1.9-4.1,8.6-4.8,11.3-1.2
			c0.4-2.6,3.2-4.4,5.7-4.1c2.6,0.3,4.7,2.4,5.5,4.9s0.3,5.2-0.8,7.5c-0.3,0.7-3.1,2.3-4.3,2.4c-1.6,0.1-3-0.2-4.2-2.6
			c0.4,3-1.7,6.1-4.6,6.8s-6.3-1.1-7.3-3.9c-0.8,2.7-1.7,5.7-4.3,6.4c-0.7,0.2-3.9,0.3-4.6,0.1c-2.1-0.4-3.3-3.1-4.4-4.9
			c0.5,1.3-0.7,3.7-2.1,4.3c-6.7,2.6-8.8-0.5-10.5-6.3C605.2,94.2,604.7,91.1,604.9,88.6z"/>
		<path class="st0" d="M614.2,86.9c0.3,0.2,0.6,0.4,0.8,0.7c0.2,0.4,0.3,0.8,0.3,1.2c0.4,2.8,0.6,5.5,0.7,8.3c0,0.8,0,1.7-0.4,2.5
			c-0.3,0.4-0.7,0.5-1,0.8c-1,0.8-2,0.8-3.2,0.6c-1.5-0.3-2.4-2.6-2.7-4.1C607.8,93.6,607,82.8,614.2,86.9z"/>
		<path class="st0" d="M622,88.6c0.6-0.9,1.6-1.5,2.7-1.6c1.1-0.1,2,0.3,2.6,1.2c1,1.5,0.9,4.4,0.8,6.2c-0.1,1.3,0.2,3.2-0.6,4.2
			c-0.8,1-2,1.6-3.3,1.5c-0.3,0-1.2-0.2-1.4-0.3c-1-0.4-1.7-3.4-1.8-4.5C620.8,93.3,620.8,90.5,622,88.6z"/>
		<path class="st0" d="M634.9,89.6c0.5-0.8,1.3-1.4,2.2-1.6c1-0.1,2,0.3,2.6,1c1,1.3,1,2.9,1.1,4.5c0.1,1.1,0.1,2.7-0.6,3.6
			c-0.6,0.9-1.5,1.4-2.7,1.4c-0.3,0-1-0.4-1.3-0.5c-0.9-0.3-1.4-1.4-1.6-2.3C634.4,93.8,633.9,91.3,634.9,89.6z"/>
		<path class="st0" d="M645.7,88c0.4-0.6,1.2-1.1,1.9-1.1c0.8,0,1.6,0.4,2.1,1c0.8,1.2,0.5,1.3,0.5,2.6c0,1,0.2,2-0.4,2.7
			c-0.6,0.7-1.7,0.7-2.7,0.6c-0.2,0-0.4-0.1-0.6-0.1c-0.8-0.3-1-1.2-1.1-2C645.3,90.1,644.8,89.3,645.7,88z"/>
		<path class="st1" d="M611.9,85.7c0.8-0.2,2.1,0.8,2.2,1c0.1,0.2,0.1,0.4,0.1,0.6c0.1,1.5,0.3,2.6,0.3,4.1c0,0.5-0.3,1.3-0.5,1.7
			c-0.2,0.2-0.4,0.4-0.6,0.6c-0.6,0.5-1.2,1-1.9,0.9c-0.8-0.1-2-1.5-2.1-2.3C609.1,90.6,607.8,86.8,611.9,85.7z"/>
		<path class="st1" d="M636.9,87.1c0.6-0.2,1.7,0.4,1.8,0.5c0.1,0.1,0.4,0.5,0.4,0.7c0.1,1.1,0.3,2,0.3,3.2c0,0.3-0.6,1.1-0.8,1.4
			c-0.1,0.2-0.3,0.3-0.4,0.5c-0.4,0.4-0.9,0.8-1.4,0.7c-0.6-0.1-1.6-1.2-1.7-1.8C634.8,90.9,633.8,87.9,636.9,87.1z"/>
		<path class="st1" d="M624.9,86.8c0.8-0.2,1.9,0.6,1.9,0.8c0.1,0.2,0.1,0.4,0.1,0.6c0,1.3,0.2,1.9,0.1,3.3c0,0.4-0.4,1.7-0.6,2
			c-0.2,0.2-0.4,0.4-0.6,0.6c-0.5,0.5-1.3,0.5-1.9,0.5c-0.7,0-1.6-1.3-1.7-2C622,91,620.4,87.9,624.9,86.8z"/>
		<path d="M610.3,93.9c0,0,3,0.2,3.4-2.3l0.1-5.2l0.4,0.2l0.3,4.8c0,0-0.2,2.2-2.1,3C611,95,610.3,93.9,610.3,93.9z"/>
		<path d="M623,94c0,0,3,0.2,3.4-2.3l0.1-5.2l0.4,0.2l0.3,4.8c0,0-0.2,2.2-2.1,3C623.7,95,623,94,623,94z"/>
		<path d="M635.7,93.3c0,0,3,0.2,3.4-2.3l0.1-5.2l0.4,0.2l0.3,4.8c0,0-0.2,2.2-2.1,3C636.4,94.4,635.7,93.3,635.7,93.3z"/>
		<path class="st1" d="M646.6,91.1c0,0,2,0.2,2.7-0.7c0,0,0.8-2.7,0-3.3s-3.2-0.5-3.9,1.4C645.4,88.5,645.7,90.2,646.6,91.1z"/>
		<path d="M646.4,91c0,0,2.8,0,3.1-1.9l0-3.9l0.3,0.2l0.2,3.6c0,0-0.3,1.9-2.1,2.4C646.9,91.7,646.4,91,646.4,91z"/>
	</g>
	<path class="st1" d="M595.5,116.9c-0.4,0.7-1.2,1.1-1.8,1.5c-3.2,2.1-5.4,5.5-6.6,9.1s-1.7,7.4-2.1,11.2c-0.5,4.4-1,8.7-1.5,13.1
		c-1.4-0.7-1.7-2.5-1.7-4.1c-0.1-6.7,1.2-13.4,2.7-19.9c0.6-2.6,1.3-5.3,2.9-7.4C588.6,118.7,597.6,113.6,595.5,116.9z"/>
	<g>
		<path class="st0" d="M70.9,138.8c0,2.2-0.4,3.8-1.1,4.8c-0.7,1-2,1.5-3.9,1.5c-1.9,0-3.2-0.5-3.9-1.5c-0.7-1-1.1-2.6-1.1-4.8
			c0-2.2,0.4-3.8,1.1-4.9c0.7-1.1,2-1.6,3.8-1.6s3.1,0.5,3.8,1.6C70.5,134.9,70.9,136.6,70.9,138.8z M62.4,138.8
			c0,1.8,0.2,3.1,0.7,3.9c0.5,0.8,1.4,1.2,2.8,1.2c1.4,0,2.3-0.4,2.8-1.2c0.5-0.8,0.7-2.1,0.7-3.9s-0.2-3.2-0.7-4
			c-0.5-0.8-1.4-1.3-2.8-1.3c-1.4,0-2.3,0.4-2.8,1.3C62.7,135.6,62.4,136.9,62.4,138.8z"/>
		<path class="st0" d="M78.8,135.9h1.4v9h-1.4v-0.6c-0.9,0.5-1.8,0.8-2.7,0.8c-1.2,0-2-0.3-2.4-1c-0.4-0.6-0.6-1.8-0.6-3.5v-4.7h1.4
			v4.7c0,1.3,0.1,2.2,0.3,2.6c0.2,0.4,0.7,0.7,1.5,0.7c0.4,0,0.8-0.1,1.2-0.2c0.4-0.1,0.7-0.2,0.9-0.3l0.3-0.2V135.9z"/>
		<path class="st0" d="M82.7,144.9v-9h1.3v1.2c1-0.7,2.1-1.2,3.3-1.4v1.4c-0.5,0.1-1,0.2-1.6,0.5c-0.5,0.2-1,0.4-1.3,0.5l-0.5,0.2
			v6.6H82.7z"/>
		<path class="st0" d="M95.7,137c-1.3,0-2,0.5-2,1.4c0,0.4,0.1,0.7,0.4,0.9s1,0.4,2.1,0.5c1.1,0.2,1.8,0.4,2.3,0.8
			c0.4,0.3,0.7,1,0.7,1.9s-0.3,1.6-0.9,2c-0.6,0.4-1.5,0.6-2.6,0.6c-0.7,0-1.6-0.1-2.6-0.3l-0.5-0.1l0.1-1.2
			c1.4,0.2,2.4,0.3,3.1,0.3c0.7,0,1.2-0.1,1.6-0.3c0.4-0.2,0.5-0.6,0.5-1.1c0-0.5-0.2-0.9-0.5-1.1c-0.3-0.2-1-0.4-2.1-0.5
			c-1.1-0.2-1.8-0.4-2.2-0.7c-0.4-0.3-0.7-0.9-0.7-1.8c0-0.9,0.3-1.5,0.9-1.9s1.4-0.6,2.3-0.6c0.7,0,1.6,0.1,2.8,0.3l0.5,0.1l0,1.2
			C97.6,137,96.5,137,95.7,137z"/>
		<path class="st0" d="M100.3,135.9h1.3l2.2,7.8h0.6l2.3-7.8h1.4l-3.7,13H103l1.2-4h-1.3L100.3,135.9z"/>
		<path class="st0" d="M112.5,137c-1.3,0-2,0.5-2,1.4c0,0.4,0.1,0.7,0.4,0.9s1,0.4,2.1,0.5c1.1,0.2,1.8,0.4,2.3,0.8
			c0.4,0.3,0.7,1,0.7,1.9s-0.3,1.6-0.9,2c-0.6,0.4-1.5,0.6-2.6,0.6c-0.7,0-1.6-0.1-2.6-0.3l-0.5-0.1l0.1-1.2
			c1.4,0.2,2.4,0.3,3.1,0.3c0.7,0,1.2-0.1,1.6-0.3c0.4-0.2,0.5-0.6,0.5-1.1c0-0.5-0.2-0.9-0.5-1.1c-0.3-0.2-1-0.4-2.1-0.5
			c-1.1-0.2-1.8-0.4-2.2-0.7c-0.4-0.3-0.7-0.9-0.7-1.8c0-0.9,0.3-1.5,0.9-1.9s1.4-0.6,2.3-0.6c0.7,0,1.6,0.1,2.8,0.3l0.5,0.1l0,1.2
			C114.4,137,113.3,137,112.5,137z"/>
		<path class="st0" d="M122.7,137.1h-2.9v4.3c0,1,0.1,1.7,0.2,2s0.5,0.5,1.1,0.5l1.6-0.1l0.1,1.1c-0.8,0.1-1.4,0.2-1.8,0.2
			c-0.9,0-1.6-0.2-1.9-0.7c-0.4-0.5-0.5-1.3-0.5-2.6v-4.7h-1.3v-1.2h1.3v-2.8h1.3v2.8h2.9V137.1z"/>
		<path class="st0" d="M130.5,143.8l0.5-0.1l0,1.1c-1.4,0.2-2.5,0.3-3.5,0.3c-1.3,0-2.2-0.4-2.8-1.1c-0.5-0.7-0.8-1.9-0.8-3.5
			c0-3.2,1.3-4.7,3.8-4.7c1.2,0,2.1,0.3,2.7,1s0.9,1.7,0.9,3.2l-0.1,1h-5.9c0,1,0.2,1.7,0.5,2.2c0.4,0.5,1,0.7,1.9,0.7
			S129.6,143.9,130.5,143.8z M130,139.9c0-1.1-0.2-1.9-0.5-2.3s-0.9-0.7-1.7-0.7s-1.4,0.2-1.8,0.7c-0.4,0.5-0.6,1.2-0.6,2.3H130z"/>
		<path class="st0" d="M134.8,144.9h-1.4v-9h1.3v0.6c0.9-0.5,1.8-0.8,2.6-0.8c1.1,0,1.9,0.3,2.3,0.9c0.4-0.2,0.9-0.5,1.5-0.6
			c0.6-0.2,1.2-0.3,1.7-0.3c1.2,0,2,0.3,2.4,1c0.4,0.6,0.6,1.8,0.6,3.5v4.8h-1.3v-4.7c0-1.2-0.1-2.1-0.4-2.6s-0.8-0.7-1.5-0.7
			c-0.4,0-0.8,0.1-1.2,0.2s-0.7,0.2-1,0.3l-0.3,0.2c0.2,0.4,0.2,1.3,0.2,2.6v4.7h-1.3v-4.6c0-1.3-0.1-2.2-0.4-2.6
			c-0.2-0.5-0.7-0.7-1.5-0.7c-0.4,0-0.8,0.1-1.2,0.2s-0.7,0.2-0.9,0.3l-0.3,0.2V144.9z"/>
		<path class="st0" d="M151.4,137c-1.3,0-2,0.5-2,1.4c0,0.4,0.1,0.7,0.4,0.9s1,0.4,2.1,0.5c1.1,0.2,1.8,0.4,2.3,0.8
			c0.4,0.3,0.7,1,0.7,1.9s-0.3,1.6-0.9,2c-0.6,0.4-1.5,0.6-2.6,0.6c-0.7,0-1.6-0.1-2.6-0.3l-0.5-0.1l0.1-1.2
			c1.4,0.2,2.4,0.3,3.1,0.3c0.7,0,1.2-0.1,1.6-0.3c0.4-0.2,0.5-0.6,0.5-1.1c0-0.5-0.2-0.9-0.5-1.1c-0.3-0.2-1-0.4-2.1-0.5
			c-1.1-0.2-1.8-0.4-2.2-0.7c-0.4-0.3-0.7-0.9-0.7-1.8c0-0.9,0.3-1.5,0.9-1.9s1.4-0.6,2.3-0.6c0.7,0,1.6,0.1,2.8,0.3l0.5,0.1l0,1.2
			C153.2,137,152.1,137,151.4,137z"/>
		<path class="st0" d="M162.6,137.1v7.8h-1.4v-7.8h-1.1v-1.2h1.1v-0.8c0-1.3,0.2-2.1,0.5-2.6c0.4-0.5,1-0.7,1.9-0.7l1.8,0.1l0,1.1
			c-0.7,0-1.2,0-1.7,0s-0.8,0.1-0.9,0.4c-0.2,0.3-0.3,0.8-0.3,1.7v0.8h2.6v1.2H162.6z"/>
		<path class="st0" d="M166.3,140.4c0-1.6,0.3-2.8,0.9-3.6c0.6-0.7,1.6-1.1,3-1.1c1.4,0,2.4,0.4,3,1.1c0.6,0.7,0.9,1.9,0.9,3.6
			c0,1.6-0.3,2.8-0.8,3.6s-1.6,1.1-3,1.1c-1.5,0-2.5-0.4-3-1.1C166.5,143.2,166.3,142,166.3,140.4z M167.7,140.4
			c0,1.3,0.2,2.2,0.5,2.8c0.3,0.5,1,0.8,2,0.8c1,0,1.7-0.3,2-0.8c0.3-0.5,0.5-1.4,0.5-2.8c0-1.3-0.2-2.2-0.5-2.7s-1-0.7-1.9-0.7
			c-0.9,0-1.6,0.2-1.9,0.7S167.7,139.1,167.7,140.4z"/>
		<path class="st0" d="M176.2,144.9v-9h1.3v1.2c1-0.7,2.1-1.2,3.3-1.4v1.4c-0.5,0.1-1,0.2-1.6,0.5c-0.5,0.2-1,0.4-1.3,0.5l-0.5,0.2
			v6.6H176.2z"/>
		<path class="st0" d="M190.3,135.7c1.2,0,2.1,0.3,2.5,1c0.5,0.7,0.7,1.9,0.7,3.6c0,1.7-0.3,2.9-0.9,3.6c-0.6,0.7-1.7,1.1-3.3,1.1
			c-0.5,0-1.3,0-2.5-0.1l-0.5-0.1V132h1.3v4.4C188.6,136,189.5,135.7,190.3,135.7z M189.3,143.9c1.2,0,2-0.3,2.3-0.8
			c0.4-0.5,0.6-1.4,0.6-2.7c0-1.3-0.2-2.2-0.5-2.7s-0.8-0.8-1.6-0.8c-0.7,0-1.4,0.1-2.1,0.4l-0.4,0.1v6.3
			C188.5,143.9,189,143.9,189.3,143.9z"/>
		<path class="st0" d="M201.4,135.9h1.4v9h-1.4v-0.6c-0.9,0.5-1.8,0.8-2.7,0.8c-1.2,0-2-0.3-2.4-1c-0.4-0.6-0.6-1.8-0.6-3.5v-4.7
			h1.4v4.7c0,1.3,0.1,2.2,0.3,2.6c0.2,0.4,0.7,0.7,1.5,0.7c0.4,0,0.8-0.1,1.2-0.2c0.4-0.1,0.7-0.2,0.9-0.3l0.3-0.2V135.9z"/>
		<path class="st0" d="M205.4,133.9v-1.6h1.4v1.6H205.4z M205.4,144.9v-9h1.4v9H205.4z"/>
		<path class="st0" d="M209.4,144.9V132h1.4v12.9H209.4z"/>
		<path class="st0" d="M220.4,132v12.9h-1.3v-0.6c-0.9,0.5-1.8,0.8-2.7,0.8c-0.5,0-0.9-0.1-1.3-0.2c-0.4-0.1-0.7-0.3-1-0.6
			c-0.6-0.6-1-1.8-1-3.6s0.3-3,0.9-3.8c0.6-0.8,1.5-1.2,2.9-1.2c0.7,0,1.4,0.1,2.2,0.2v-4H220.4z M215.7,143.8
			c0.2,0.1,0.5,0.1,0.8,0.1c0.3,0,0.7-0.1,1.2-0.2c0.4-0.1,0.8-0.2,1-0.3l0.4-0.2v-6.1c-0.8-0.1-1.5-0.2-2.1-0.2
			c-0.9,0-1.5,0.3-1.9,0.9c-0.4,0.6-0.5,1.5-0.5,2.7c0,1.4,0.2,2.3,0.6,2.8C215.3,143.5,215.5,143.7,215.7,143.8z"/>
		<path class="st0" d="M223,133.9v-1.6h1.4v1.6H223z M223,144.9v-9h1.4v9H223z"/>
		<path class="st0" d="M228.3,144.9h-1.4v-9h1.3v0.6c1-0.5,1.9-0.8,2.8-0.8c1.2,0,2,0.3,2.4,1s0.6,1.8,0.6,3.5v4.8h-1.3v-4.7
			c0-1.2-0.1-2.1-0.4-2.6s-0.8-0.7-1.6-0.7c-0.4,0-0.8,0.1-1.2,0.2c-0.4,0.1-0.8,0.2-1,0.3l-0.3,0.2V144.9z"/>
		<path class="st0" d="M240.1,149.2c-1.4,0-2.4-0.2-3-0.6c-0.6-0.4-0.9-1.1-0.9-2.1c0-0.5,0.1-0.9,0.3-1.2c0.2-0.3,0.6-0.7,1.1-1
			c-0.3-0.2-0.5-0.6-0.5-1.2c0-0.2,0.1-0.6,0.5-1.1l0.2-0.3c-0.9-0.4-1.4-1.3-1.4-2.7c0-2.1,1.1-3.1,3.4-3.1c0.6,0,1.1,0.1,1.6,0.2
			l0.3,0.1l2.7-0.1v1.2l-1.7,0c0.4,0.4,0.6,1,0.6,1.8c0,1.1-0.3,1.9-0.8,2.4c-0.6,0.5-1.4,0.7-2.6,0.7c-0.3,0-0.6,0-0.9-0.1
			c-0.2,0.5-0.3,0.9-0.3,1c0,0.4,0.1,0.6,0.3,0.7c0.2,0.1,0.9,0.1,2.1,0.1c1.2,0,2,0.2,2.5,0.5c0.5,0.4,0.8,1.1,0.8,2.1
			C244.1,148.2,242.8,149.2,240.1,149.2z M237.5,146.3c0,0.6,0.2,1.1,0.5,1.3c0.4,0.2,1,0.4,2,0.4s1.6-0.1,2.1-0.4
			c0.4-0.3,0.6-0.7,0.6-1.3s-0.1-1-0.4-1.2c-0.3-0.2-0.9-0.3-1.8-0.3l-1.9-0.1c-0.4,0.3-0.7,0.5-0.8,0.8
			C237.6,145.7,237.5,146,237.5,146.3z M237.7,138.8c0,0.7,0.2,1.2,0.5,1.5s0.8,0.5,1.6,0.5c0.7,0,1.3-0.2,1.6-0.5
			c0.3-0.3,0.5-0.8,0.5-1.5c0-0.7-0.2-1.2-0.5-1.5c-0.3-0.3-0.8-0.5-1.6-0.5c-0.7,0-1.3,0.2-1.6,0.5S237.7,138.1,237.7,138.8z"/>
		<path class="st0" d="M245.2,147.1l0.8-4.1h1.5l-1.2,4.1H245.2z"/>
		<path class="st0" d="M253.1,135.9h1.4l1.8,7.8h0.3l2.1-7.7h1.4l2.1,7.7h0.3l1.8-7.8h1.4l-2.1,9h-2.2l-1.9-7l-1.9,7h-2.2
			L253.1,135.9z"/>
		<path class="st0" d="M267.6,144.9v-9h1.3v1.2c1-0.7,2.1-1.2,3.3-1.4v1.4c-0.5,0.1-1,0.2-1.6,0.5c-0.5,0.2-1,0.4-1.3,0.5l-0.5,0.2
			v6.6H267.6z"/>
		<path class="st0" d="M273.8,133.9v-1.6h1.4v1.6H273.8z M273.8,144.9v-9h1.4v9H273.8z"/>
		<path class="st0" d="M282.4,137.1h-2.9v4.3c0,1,0.1,1.7,0.2,2s0.5,0.5,1.1,0.5l1.6-0.1l0.1,1.1c-0.8,0.1-1.4,0.2-1.8,0.2
			c-0.9,0-1.6-0.2-1.9-0.7c-0.4-0.5-0.5-1.3-0.5-2.6v-4.7h-1.3v-1.2h1.3v-2.8h1.3v2.8h2.9V137.1z"/>
		<path class="st0" d="M284,133.9v-1.6h1.4v1.6H284z M284,144.9v-9h1.4v9H284z"/>
		<path class="st0" d="M289.3,144.9H288v-9h1.3v0.6c1-0.5,1.9-0.8,2.8-0.8c1.2,0,2,0.3,2.4,1s0.6,1.8,0.6,3.5v4.8h-1.3v-4.7
			c0-1.2-0.1-2.1-0.4-2.6s-0.8-0.7-1.6-0.7c-0.4,0-0.8,0.1-1.2,0.2c-0.4,0.1-0.8,0.2-1,0.3l-0.3,0.2V144.9z"/>
		<path class="st0" d="M301.1,149.2c-1.4,0-2.4-0.2-3-0.6c-0.6-0.4-0.9-1.1-0.9-2.1c0-0.5,0.1-0.9,0.3-1.2c0.2-0.3,0.6-0.7,1.1-1
			c-0.3-0.2-0.5-0.6-0.5-1.2c0-0.2,0.1-0.6,0.5-1.1l0.2-0.3c-0.9-0.4-1.4-1.3-1.4-2.7c0-2.1,1.1-3.1,3.4-3.1c0.6,0,1.1,0.1,1.6,0.2
			l0.3,0.1l2.7-0.1v1.2l-1.7,0c0.4,0.4,0.6,1,0.6,1.8c0,1.1-0.3,1.9-0.8,2.4c-0.6,0.5-1.4,0.7-2.6,0.7c-0.3,0-0.6,0-0.9-0.1
			c-0.2,0.5-0.3,0.9-0.3,1c0,0.4,0.1,0.6,0.3,0.7c0.2,0.1,0.9,0.1,2.1,0.1c1.2,0,2,0.2,2.5,0.5c0.5,0.4,0.8,1.1,0.8,2.1
			C305.1,148.2,303.8,149.2,301.1,149.2z M298.6,146.3c0,0.6,0.2,1.1,0.5,1.3c0.4,0.2,1,0.4,2,0.4s1.6-0.1,2.1-0.4
			c0.4-0.3,0.6-0.7,0.6-1.3s-0.1-1-0.4-1.2c-0.3-0.2-0.9-0.3-1.8-0.3l-1.9-0.1c-0.4,0.3-0.7,0.5-0.8,0.8
			C298.7,145.7,298.6,146,298.6,146.3z M298.7,138.8c0,0.7,0.2,1.2,0.5,1.5s0.8,0.5,1.6,0.5c0.7,0,1.3-0.2,1.6-0.5
			c0.3-0.3,0.5-0.8,0.5-1.5c0-0.7-0.2-1.2-0.5-1.5c-0.3-0.3-0.8-0.5-1.6-0.5c-0.7,0-1.3,0.2-1.6,0.5S298.7,138.1,298.7,138.8z"/>
		<path class="st0" d="M317.2,138.6v4.6c0,0.4,0.4,0.7,1,0.8l-0.1,1.1c-0.9,0-1.7-0.2-2.1-0.7c-1.1,0.5-2.2,0.7-3.2,0.7
			c-0.8,0-1.5-0.2-1.9-0.7c-0.4-0.5-0.6-1.1-0.6-2s0.2-1.5,0.7-1.9c0.4-0.4,1.1-0.7,2.1-0.8l2.8-0.3v-0.8c0-0.6-0.1-1-0.4-1.3
			c-0.3-0.3-0.6-0.4-1.1-0.4c-1,0-2,0.1-3,0.2l-0.6,0.1l-0.1-1c1.3-0.3,2.5-0.4,3.5-0.4s1.8,0.2,2.2,0.7
			C317,136.9,317.2,137.6,317.2,138.6z M311.7,142.3c0,1.1,0.5,1.7,1.4,1.7c0.8,0,1.6-0.1,2.4-0.4l0.4-0.1v-3l-2.7,0.3
			c-0.5,0-0.9,0.2-1.2,0.5S311.7,141.8,311.7,142.3z"/>
		<path class="st0" d="M321.2,144.9h-1.4v-9h1.3v0.6c1-0.5,1.9-0.8,2.8-0.8c1.2,0,2,0.3,2.4,1s0.6,1.8,0.6,3.5v4.8h-1.3v-4.7
			c0-1.2-0.1-2.1-0.4-2.6s-0.8-0.7-1.6-0.7c-0.4,0-0.8,0.1-1.2,0.2c-0.4,0.1-0.8,0.2-1,0.3l-0.3,0.2V144.9z"/>
		<path class="st0" d="M336.5,132v12.9h-1.3v-0.6c-0.9,0.5-1.8,0.8-2.7,0.8c-0.5,0-0.9-0.1-1.3-0.2c-0.4-0.1-0.7-0.3-1-0.6
			c-0.6-0.6-1-1.8-1-3.6s0.3-3,0.9-3.8c0.6-0.8,1.5-1.2,2.9-1.2c0.7,0,1.4,0.1,2.2,0.2v-4H336.5z M331.8,143.8
			c0.2,0.1,0.5,0.1,0.8,0.1c0.3,0,0.7-0.1,1.2-0.2c0.4-0.1,0.8-0.2,1-0.3l0.4-0.2v-6.1c-0.8-0.1-1.5-0.2-2.1-0.2
			c-0.9,0-1.5,0.3-1.9,0.9c-0.4,0.6-0.5,1.5-0.5,2.7c0,1.4,0.2,2.3,0.6,2.8C331.4,143.5,331.6,143.7,331.8,143.8z"/>
		<path class="st0" d="M346.4,135.7c0.4,0,1.1,0.1,2,0.2l0.4,0.1l-0.1,1.1c-1-0.1-1.7-0.2-2.1-0.2c-1,0-1.7,0.2-2.1,0.7
			c-0.4,0.5-0.5,1.4-0.5,2.7c0,1.3,0.2,2.2,0.5,2.7c0.3,0.5,1.1,0.8,2.1,0.8l2.1-0.2l0.1,1.1c-1.1,0.2-2,0.3-2.5,0.3
			c-1.4,0-2.4-0.4-2.9-1.1c-0.5-0.7-0.8-1.9-0.8-3.6s0.3-2.9,0.9-3.6C344.1,136.1,345.1,135.7,346.4,135.7z"/>
		<path class="st0" d="M350.4,140.4c0-1.6,0.3-2.8,0.9-3.6c0.6-0.7,1.6-1.1,3-1.1c1.4,0,2.4,0.4,3,1.1c0.6,0.7,0.9,1.9,0.9,3.6
			c0,1.6-0.3,2.8-0.8,3.6s-1.6,1.1-3,1.1c-1.5,0-2.5-0.4-3-1.1C350.6,143.2,350.4,142,350.4,140.4z M351.8,140.4
			c0,1.3,0.2,2.2,0.5,2.8c0.3,0.5,1,0.8,2,0.8c1,0,1.7-0.3,2-0.8c0.3-0.5,0.5-1.4,0.5-2.8c0-1.3-0.2-2.2-0.5-2.7s-1-0.7-1.9-0.7
			c-0.9,0-1.6,0.2-1.9,0.7S351.8,139.1,351.8,140.4z"/>
		<path class="st0" d="M361.6,144.9h-1.4v-9h1.3v0.6c0.9-0.5,1.8-0.8,2.6-0.8c1.1,0,1.9,0.3,2.3,0.9c0.4-0.2,0.9-0.5,1.5-0.6
			c0.6-0.2,1.2-0.3,1.7-0.3c1.2,0,2,0.3,2.4,1c0.4,0.6,0.6,1.8,0.6,3.5v4.8h-1.3v-4.7c0-1.2-0.1-2.1-0.4-2.6s-0.8-0.7-1.5-0.7
			c-0.4,0-0.8,0.1-1.2,0.2s-0.7,0.2-1,0.3l-0.3,0.2c0.2,0.4,0.2,1.3,0.2,2.6v4.7h-1.3v-4.6c0-1.3-0.1-2.2-0.4-2.6
			c-0.2-0.5-0.7-0.7-1.5-0.7c-0.4,0-0.8,0.1-1.2,0.2s-0.7,0.2-0.9,0.3l-0.3,0.2V144.9z"/>
		<path class="st0" d="M376.7,144.9h-1.4v-9h1.3v0.6c0.9-0.5,1.8-0.8,2.6-0.8c1.1,0,1.9,0.3,2.3,0.9c0.4-0.2,0.9-0.5,1.5-0.6
			c0.6-0.2,1.2-0.3,1.7-0.3c1.2,0,2,0.3,2.4,1s0.6,1.8,0.6,3.5v4.8h-1.3v-4.7c0-1.2-0.1-2.1-0.4-2.6s-0.8-0.7-1.5-0.7
			c-0.4,0-0.8,0.1-1.2,0.2s-0.7,0.2-1,0.3l-0.3,0.2c0.2,0.4,0.2,1.3,0.2,2.6v4.7H381v-4.6c0-1.3-0.1-2.2-0.4-2.6
			c-0.2-0.5-0.7-0.7-1.5-0.7c-0.4,0-0.8,0.1-1.2,0.2s-0.7,0.2-0.9,0.3l-0.3,0.2V144.9z"/>
		<path class="st0" d="M396,135.9h1.3v9H396v-0.6c-0.9,0.5-1.8,0.8-2.7,0.8c-1.2,0-2-0.3-2.4-1c-0.4-0.6-0.6-1.8-0.6-3.5v-4.7h1.3
			v4.7c0,1.3,0.1,2.2,0.3,2.6c0.2,0.4,0.7,0.7,1.5,0.7c0.4,0,0.8-0.1,1.2-0.2c0.4-0.1,0.7-0.2,0.9-0.3l0.3-0.2V135.9z"/>
		<path class="st0" d="M401.3,144.9h-1.4v-9h1.3v0.6c1-0.5,1.9-0.8,2.8-0.8c1.2,0,2,0.3,2.4,1s0.6,1.8,0.6,3.5v4.8h-1.3v-4.7
			c0-1.2-0.1-2.1-0.4-2.6s-0.8-0.7-1.6-0.7c-0.4,0-0.8,0.1-1.2,0.2s-0.8,0.2-1,0.3l-0.3,0.2V144.9z"/>
		<path class="st0" d="M409.6,133.9v-1.6h1.4v1.6H409.6z M409.6,144.9v-9h1.4v9H409.6z"/>
		<path class="st0" d="M416.9,135.7c0.4,0,1.1,0.1,2,0.2l0.4,0.1l-0.1,1.1c-1-0.1-1.7-0.2-2.1-0.2c-1,0-1.7,0.2-2.1,0.7
			s-0.5,1.4-0.5,2.7c0,1.3,0.2,2.2,0.5,2.7c0.3,0.5,1.1,0.8,2.1,0.8l2.1-0.2l0.1,1.1c-1.1,0.2-2,0.3-2.5,0.3c-1.4,0-2.4-0.4-2.9-1.1
			c-0.5-0.7-0.8-1.9-0.8-3.6s0.3-2.9,0.9-3.6C414.6,136.1,415.6,135.7,416.9,135.7z"/>
		<path class="st0" d="M427.7,138.6v4.6c0,0.4,0.4,0.7,1,0.8l-0.1,1.1c-0.9,0-1.7-0.2-2.1-0.7c-1.1,0.5-2.2,0.7-3.2,0.7
			c-0.8,0-1.5-0.2-1.9-0.7c-0.4-0.5-0.6-1.1-0.6-2s0.2-1.5,0.7-1.9c0.4-0.4,1.1-0.7,2.1-0.8l2.8-0.3v-0.8c0-0.6-0.1-1-0.4-1.3
			c-0.3-0.3-0.6-0.4-1.1-0.4c-1,0-2,0.1-3,0.2l-0.6,0.1l-0.1-1c1.3-0.3,2.5-0.4,3.5-0.4c1,0,1.8,0.2,2.2,0.7
			C427.5,136.9,427.7,137.6,427.7,138.6z M422.2,142.3c0,1.1,0.5,1.7,1.4,1.7c0.8,0,1.6-0.1,2.4-0.4l0.4-0.1v-3l-2.7,0.3
			c-0.5,0-0.9,0.2-1.2,0.5S422.2,141.8,422.2,142.3z"/>
		<path class="st0" d="M435.1,137.1h-2.9v4.3c0,1,0.1,1.7,0.2,2c0.1,0.3,0.5,0.5,1.1,0.5l1.6-0.1l0.1,1.1c-0.8,0.1-1.4,0.2-1.8,0.2
			c-0.9,0-1.6-0.2-1.9-0.7c-0.4-0.5-0.5-1.3-0.5-2.6v-4.7h-1.3v-1.2h1.3v-2.8h1.3v2.8h2.9V137.1z"/>
		<path class="st0" d="M436.7,133.9v-1.6h1.4v1.6H436.7z M436.7,144.9v-9h1.4v9H436.7z"/>
		<path class="st0" d="M442,144.9h-1.4v-9h1.3v0.6c1-0.5,1.9-0.8,2.8-0.8c1.2,0,2,0.3,2.4,1s0.6,1.8,0.6,3.5v4.8h-1.3v-4.7
			c0-1.2-0.1-2.1-0.4-2.6s-0.8-0.7-1.6-0.7c-0.4,0-0.8,0.1-1.2,0.2s-0.8,0.2-1,0.3l-0.3,0.2V144.9z"/>
		<path class="st0" d="M453.8,149.2c-1.4,0-2.4-0.2-3-0.6c-0.6-0.4-0.9-1.1-0.9-2.1c0-0.5,0.1-0.9,0.3-1.2c0.2-0.3,0.6-0.7,1.1-1
			c-0.3-0.2-0.5-0.6-0.5-1.2c0-0.2,0.1-0.6,0.4-1.1l0.2-0.3c-0.9-0.4-1.4-1.3-1.4-2.7c0-2.1,1.1-3.1,3.4-3.1c0.6,0,1.1,0.1,1.6,0.2
			l0.3,0.1l2.7-0.1v1.2l-1.7,0c0.4,0.4,0.6,1,0.6,1.8c0,1.1-0.3,1.9-0.8,2.4c-0.6,0.5-1.4,0.7-2.6,0.7c-0.3,0-0.6,0-0.9-0.1
			c-0.2,0.5-0.3,0.9-0.3,1c0,0.4,0.1,0.6,0.3,0.7c0.2,0.1,0.9,0.1,2.1,0.1c1.2,0,2,0.2,2.5,0.5c0.5,0.4,0.8,1.1,0.8,2.1
			C457.8,148.2,456.5,149.2,453.8,149.2z M451.3,146.3c0,0.6,0.2,1.1,0.5,1.3c0.4,0.2,1,0.4,2,0.4c1,0,1.6-0.1,2.1-0.4
			c0.4-0.3,0.6-0.7,0.6-1.3s-0.2-1-0.5-1.2c-0.3-0.2-0.9-0.3-1.8-0.3l-1.9-0.1c-0.4,0.3-0.7,0.5-0.8,0.8
			C451.3,145.7,451.3,146,451.3,146.3z M451.4,138.8c0,0.7,0.2,1.2,0.5,1.5c0.3,0.3,0.8,0.5,1.6,0.5c0.7,0,1.3-0.2,1.6-0.5
			c0.3-0.3,0.5-0.8,0.5-1.5c0-0.7-0.2-1.2-0.5-1.5c-0.3-0.3-0.8-0.5-1.6-0.5c-0.7,0-1.3,0.2-1.6,0.5
			C451.5,137.6,451.4,138.1,451.4,138.8z"/>
	</g>
</g>
</svg>
