<svg xmlns="http://www.w3.org/2000/svg" xmlns:xlink="http://www.w3.org/1999/xlink" viewBox="0 0 597.29 535.22"><defs><style>.cls-1,.cls-2,.cls-5,.cls-6,.cls-7{fill:none;}.cls-2,.cls-3,.cls-5,.cls-6,.cls-7{stroke:#4038ff;stroke-miterlimit:10;}.cls-2,.cls-7{stroke-linecap:square;}.cls-2{stroke-width:2px;}.cls-3,.cls-5,.cls-6,.cls-7{stroke-width:12px;}.cls-3,.cls-4{fill:url(#lines);}.cls-6{fill-rule:evenodd;}</style><pattern id="lines" data-name="lines" width="16" height="16" patternTransform="translate(0 256)" patternUnits="userSpaceOnUse" viewBox="0 0 16 16"><rect class="cls-1" width="16" height="16"/><line class="cls-2" x1="1.98" y1="78.02" x2="67.98" y2="12.02"/><line class="cls-2" x1="-14.02" y1="78.02" x2="51.98" y2="12.02"/><line class="cls-2" x1="-30.02" y1="78.02" x2="35.98" y2="12.02"/><line class="cls-2" x1="-46.02" y1="78.02" x2="19.98" y2="12.02"/><line class="cls-2" x1="-62.02" y1="78.02" x2="3.98" y2="12.02"/><line class="cls-2" x1="1.98" y1="62.02" x2="67.98" y2="-3.98"/><line class="cls-2" x1="-14.02" y1="62.02" x2="51.98" y2="-3.98"/><line class="cls-2" x1="-30.02" y1="62.02" x2="35.98" y2="-3.98"/><line class="cls-2" x1="-46.02" y1="62.02" x2="19.98" y2="-3.98"/><line class="cls-2" x1="-62.02" y1="62.02" x2="3.98" y2="-3.98"/><line class="cls-2" x1="1.98" y1="46.02" x2="67.98" y2="-19.98"/><line class="cls-2" x1="-14.02" y1="46.02" x2="51.98" y2="-19.98"/><line class="cls-2" x1="-30.02" y1="46.02" x2="35.98" y2="-19.98"/><line class="cls-2" x1="-46.02" y1="46.02" x2="19.98" y2="-19.98"/><line class="cls-2" x1="-62.02" y1="46.02" x2="3.98" y2="-19.98"/><line class="cls-2" x1="1.98" y1="30.02" x2="67.98" y2="-35.98"/><line class="cls-2" x1="-14.02" y1="30.02" x2="51.98" y2="-35.98"/><line class="cls-2" x1="-30.02" y1="30.02" x2="35.98" y2="-35.98"/><line class="cls-2" x1="-46.02" y1="30.02" x2="19.98" y2="-35.98"/><line class="cls-2" x1="-62.02" y1="30.02" x2="3.98" y2="-35.98"/><line class="cls-2" x1="1.98" y1="14.02" x2="67.98" y2="-51.98"/><line class="cls-2" x1="-14.02" y1="14.02" x2="51.98" y2="-51.98"/><line class="cls-2" x1="-30.02" y1="14.02" x2="35.98" y2="-51.98"/><line class="cls-2" x1="-46.02" y1="14.02" x2="19.98" y2="-51.98"/><line class="cls-2" x1="-62.02" y1="14.02" x2="3.98" y2="-51.98"/></pattern></defs><title>Validator</title><g id="Layer_2" data-name="Layer 2"><g id="Validator"><path class="cls-3" d="M443.08,474.87v53H151.52v-53"/><path class="cls-4" d="M205.09,147.84h47v196l-34.54,23.91V187.68C216.85,169.82,213.12,156,205.09,147.84Z"/><path class="cls-5" d="M355.86,140.77l19.69-14.13a25.9,25.9,0,0,0,11.53-21.55h0a25.89,25.89,0,0,0-25.9-25.89"/><path class="cls-5" d="M233.41,79.2a25.89,25.89,0,0,0-25.89,25.89h0a25.88,25.88,0,0,0,11.53,21.55l16.69,11.13a25.88,25.88,0,0,1,11.53,21.55V337.46a25.9,25.9,0,0,1-17,24.34L125,408.61v66.26H469.58V408.61l-75-38.94"/><path id="Rectangle-Copy-21" class="cls-6" d="M342.06,140.93a29.74,29.74,0,0,0,0,59.48h33.17a29.74,29.74,0,0,0,0-59.48Z"/><path id="Rectangle-Copy-23" class="cls-6" d="M333.25,259.84a29.28,29.28,0,0,0,0,58.55h49.07a29.28,29.28,0,0,0,0-58.55Z"/><path id="Rectangle-Copy-22" class="cls-6" d="M330.19,201.12a29.69,29.69,0,0,0,0,59.37h55.19a29.69,29.69,0,0,0,0-59.37Z"/><path id="Rectangle-Copy-24" class="cls-6" d="M348.19,318.17a29.26,29.26,0,0,0,0,58.51h27.24a29.26,29.26,0,0,0,0-58.51Z"/><path id="Path-8" class="cls-5" d="M241.41,143.53l-38.15-1.68q-18.66,1.23-23.19-13.93l22.55-59.7q0-42.07-27.24-57.84C165,4.39,155.8,5.67,146,7.64L122.22,68.73,77.8,130.3Q63.45,158.41,70,193.47t26.62,55.65q-18.48,30.78-13.58,70t51.23,60l53,.5"/><path id="Line-2" class="cls-5" d="M98.94,350.12,5,357.9"/><path id="Line-2-Copy-3" class="cls-5" d="M67.94,158.28,7.39,158"/><path id="Line-2-Copy-3-2" data-name="Line-2-Copy-3" class="cls-5" d="M94.07,247.19,45.68,247"/><path id="Line-2-Copy-3-3" data-name="Line-2-Copy-3" class="cls-5" d="M474,443.39H124.7"/><path id="Line-2-Copy-3-4" data-name="Line-2-Copy-3" class="cls-5" d="M597.29,529.15,0,529.22"/><path class="cls-7" d="M80.08,225.32c6.88,17,27.6,29,54.89,27.83"/><path class="cls-7" d="M190.29,244c29.66-10,57.28-34.69,57-62"/><path class="cls-5" d="M228.59,82.43c0,7.31,31.81,13.24,71.06,13.24s71.06-5.93,71.06-13.24"/><path class="cls-5" d="M228.59,83.66c0-7.31,31.81-13.24,71.06-13.24s71.06,5.93,71.06,13.24"/></g></g></svg>