<?xml version="1.0" encoding="UTF-8"?>
<!DOCTYPE svg PUBLIC "-//W3C//DTD SVG 1.1//EN" "http://www.w3.org/Graphics/SVG/1.1/DTD/svg11.dtd">
<!-- Creator: CorelDRAW 2020 (64-Bit) -->
<svg xmlns="http://www.w3.org/2000/svg" xml:space="preserve" width="882px" height="300px" version="1.1" shape-rendering="geometricPrecision" text-rendering="geometricPrecision" image-rendering="optimizeQuality" fill-rule="evenodd" clip-rule="evenodd"
viewBox="0 0 891.59 303.25"
 xmlns:xlink="http://www.w3.org/1999/xlink"
 xmlns:xodm="http://www.corel.com/coreldraw/odm/2003">
 <defs>
   <clipPath id="id0" clip-rule="nonzero">
    <path d="M0 303.25l891.59 0 0 -303.25 -891.59 0 0 303.25z"/>
   </clipPath>
 </defs>
 <g id="Слой_x0020_1">
  <metadata id="CorelCorpID_0Corel-Layer"/>
  <polygon id="Rectangle" fill="white" fill-rule="nonzero" points="0,303.25 891.59,303.25 891.59,0 0,0 "/>
  <g clip-path="url(#id0)">
   <g id="_2514920195440">
    <g>
     <polygon id="1" fill="white" fill-rule="nonzero" points="-0.03,303.25 891.56,303.25 891.56,0.01 -0.03,0.01 "/>
     <polygon id="Rectangle_1" fill="black" fill-rule="nonzero" points="-0.03,212.28 891.56,212.28 891.56,0 -0.03,0 "/>
     <path fill="white" fill-rule="nonzero" d="M56.6 88.6c0,-2.23 0.23,-4.26 0.69,-6.06 0.46,-1.8 1.16,-3.34 2.1,-4.61 0.94,-1.27 2.13,-2.24 3.56,-2.91 1.42,-0.67 3.1,-1.01 5,-1.01 1.32,0 2.56,0.2 3.7,0.58 1.15,0.39 2.17,0.95 3.02,1.68 0.86,0.73 1.56,1.62 2.08,2.65 0.53,1.03 0.83,2.2 0.91,3.5l-3.84 0c-0.18,-1.61 -0.81,-2.86 -1.89,-3.74 -1.09,-0.87 -2.53,-1.31 -4.33,-1.31 -0.97,0 -1.87,0.17 -2.7,0.5 -0.82,0.34 -1.54,0.8 -2.14,1.39 -0.61,0.6 -1.07,1.3 -1.41,2.12 -0.34,0.83 -0.51,1.74 -0.51,2.74l0 8.49c0,0.97 0.18,1.87 0.55,2.68 0.36,0.83 0.86,1.54 1.49,2.15 0.64,0.61 1.39,1.08 2.24,1.42 0.85,0.34 1.75,0.5 2.72,0.5 1.82,0 3.31,-0.41 4.45,-1.23 1.13,-0.81 1.79,-2.16 1.98,-4.02l3.84 0c-0.08,1.28 -0.4,2.46 -0.95,3.54 -0.55,1.07 -1.28,1.97 -2.19,2.7 -0.89,0.74 -1.96,1.32 -3.18,1.74 -1.21,0.42 -2.52,0.63 -3.91,0.63 -1.83,0 -3.45,-0.33 -4.85,-1 -1.41,-0.66 -2.58,-1.61 -3.52,-2.85 -0.94,-1.24 -1.66,-2.72 -2.16,-4.45 -0.5,-1.71 -0.75,-3.66 -0.75,-5.82zm25.74 3.21c0,-1.56 0.19,-3.02 0.57,-4.35 0.37,-1.34 0.94,-2.48 1.72,-3.42 0.76,-0.94 1.73,-1.68 2.89,-2.22 1.16,-0.54 2.52,-0.81 4.09,-0.81 1.57,0 2.93,0.27 4.08,0.81 1.16,0.54 2.12,1.28 2.88,2.22 0.77,0.94 1.34,2.08 1.72,3.42 0.38,1.33 0.57,2.79 0.57,4.35 0,1.59 -0.19,3.05 -0.57,4.36 -0.38,1.31 -0.95,2.45 -1.72,3.39 -0.76,0.95 -1.72,1.69 -2.89,2.23 -1.16,0.54 -2.52,0.81 -4.07,0.81 -1.57,0 -2.93,-0.27 -4.09,-0.81 -1.16,-0.54 -2.13,-1.28 -2.89,-2.23 -0.78,-0.94 -1.35,-2.08 -1.72,-3.39 -0.38,-1.31 -0.57,-2.77 -0.57,-4.36zm3.84 3.2c0,0.69 0.15,1.33 0.45,1.91 0.29,0.58 0.68,1.08 1.17,1.47 0.48,0.41 1.06,0.72 1.72,0.95 0.66,0.23 1.35,0.35 2.09,0.35 0.72,0 1.41,-0.12 2.07,-0.35 0.66,-0.23 1.24,-0.54 1.72,-0.95 0.49,-0.39 0.88,-0.89 1.17,-1.47 0.3,-0.58 0.45,-1.22 0.45,-1.91l0 -6.39c0,-0.7 -0.15,-1.34 -0.45,-1.92 -0.29,-0.58 -0.68,-1.07 -1.17,-1.48 -0.48,-0.41 -1.06,-0.73 -1.72,-0.96 -0.66,-0.23 -1.35,-0.34 -2.07,-0.34 -0.72,0 -1.42,0.11 -2.09,0.34 -0.66,0.23 -1.24,0.55 -1.72,0.96 -0.49,0.41 -0.88,0.9 -1.17,1.48 -0.3,0.58 -0.45,1.22 -0.45,1.92l0 6.39zm20.29 7.1l0 -20.62 3.64 0 0 3.41c0.46,-1.13 1.17,-2.06 2.13,-2.79 0.97,-0.74 2.17,-1.1 3.61,-1.1 1.37,0 2.58,0.34 3.63,1.03 1.05,0.68 1.81,1.76 2.27,3.22 0.43,-1.21 1.17,-2.22 2.21,-3.03 1.04,-0.82 2.32,-1.22 3.85,-1.22 0.9,0 1.73,0.13 2.52,0.4 0.78,0.27 1.46,0.7 2.04,1.3 0.58,0.59 1.03,1.35 1.36,2.27 0.32,0.93 0.48,2.07 0.48,3.39l0 13.74 -3.64 0 0 -13.34c0,-1.51 -0.29,-2.69 -0.87,-3.56 -0.58,-0.86 -1.54,-1.29 -2.9,-1.29 -0.64,0 -1.24,0.15 -1.79,0.44 -0.56,0.3 -1.05,0.72 -1.49,1.28 -0.43,0.55 -0.77,1.2 -1,1.96 -0.24,0.75 -0.36,1.58 -0.36,2.48l0 12.03 -3.64 0 0 -13.34c0,-1.51 -0.29,-2.69 -0.87,-3.56 -0.58,-0.86 -1.53,-1.29 -2.88,-1.29 -0.64,0 -1.24,0.15 -1.79,0.44 -0.56,0.3 -1.05,0.72 -1.49,1.28 -0.43,0.55 -0.77,1.2 -1.01,1.96 -0.25,0.75 -0.37,1.58 -0.37,2.48l0 12.03 -3.64 0zm34.28 0l0 -20.62 3.64 0 0 3.41c0.46,-1.13 1.17,-2.06 2.13,-2.79 0.96,-0.74 2.17,-1.1 3.61,-1.1 1.37,0 2.57,0.34 3.62,1.03 1.06,0.68 1.81,1.76 2.28,3.22 0.43,-1.21 1.16,-2.22 2.21,-3.03 1.03,-0.82 2.31,-1.22 3.84,-1.22 0.9,0 1.74,0.13 2.52,0.4 0.79,0.27 1.47,0.7 2.05,1.3 0.58,0.59 1.03,1.35 1.35,2.27 0.32,0.93 0.49,2.07 0.49,3.39l0 13.74 -3.64 0 0 -13.34c0,-1.51 -0.29,-2.69 -0.87,-3.56 -0.58,-0.86 -1.55,-1.29 -2.91,-1.29 -0.64,0 -1.24,0.15 -1.79,0.44 -0.55,0.3 -1.04,0.72 -1.48,1.28 -0.43,0.55 -0.77,1.2 -1.01,1.96 -0.23,0.75 -0.35,1.58 -0.35,2.48l0 12.03 -3.64 0 0 -13.34c0,-1.51 -0.29,-2.69 -0.87,-3.56 -0.58,-0.86 -1.54,-1.29 -2.89,-1.29 -0.64,0 -1.24,0.15 -1.79,0.44 -0.55,0.3 -1.04,0.72 -1.48,1.28 -0.43,0.55 -0.78,1.2 -1.02,1.96 -0.24,0.75 -0.36,1.58 -0.36,2.48l0 12.03 -3.64 0zm34.11 -6.88l0 -13.74 3.64 0 0 13.34c0,1.49 0.29,2.67 0.87,3.54 0.58,0.88 1.64,1.32 3.17,1.32 1.55,0 2.77,-0.58 3.66,-1.72 0.91,-1.15 1.36,-2.62 1.36,-4.43l0 -12.05 3.64 0 0 20.62 -3.64 0 0 -3.39c-0.57,1.21 -1.32,2.15 -2.27,2.85 -0.95,0.69 -2.2,1.03 -3.75,1.03 -0.95,0 -1.83,-0.14 -2.66,-0.41 -0.82,-0.27 -1.53,-0.7 -2.13,-1.29 -0.58,-0.59 -1.05,-1.35 -1.38,-2.29 -0.34,-0.94 -0.51,-2.06 -0.51,-3.38zm23.05 6.88l0 -20.62 3.64 0 0 3.41c0.56,-1.21 1.34,-2.16 2.33,-2.85 0.98,-0.7 2.26,-1.04 3.83,-1.04 0.99,0 1.9,0.13 2.71,0.4 0.82,0.27 1.53,0.7 2.11,1.3 0.6,0.59 1.05,1.35 1.38,2.27 0.33,0.93 0.5,2.07 0.5,3.39l0 13.74 -3.64 0 0 -13.34c0,-1.51 -0.29,-2.69 -0.87,-3.56 -0.58,-0.86 -1.65,-1.29 -3.22,-1.29 -0.75,0 -1.43,0.15 -2.05,0.44 -0.62,0.3 -1.16,0.72 -1.62,1.28 -0.46,0.55 -0.82,1.2 -1.08,1.96 -0.25,0.75 -0.38,1.58 -0.38,2.48l0 12.03 -3.64 0zm22.96 -23.69l0 -3.8 3.8 0 0 3.8 -3.8 0zm0.08 23.69l0 -20.62 3.64 0 0 20.62 -3.64 0zm8.44 -17.5l0 -3.12 3.4 0 0 -6.87 3.64 0 0 6.87 4.69 0 0 3.12 -4.69 0 0 14.39 4.69 0 0 3.11 -8.33 0 0 -17.5 -3.4 0zm14.62 -3.12l3.93 0 5.37 16.14 0.18 0 5.52 -16.14 3.78 0 -10.11 27.5 -7.05 0 0 -3.12 4.74 0 1.3 -3.75 -7.66 -20.63zm33.84 20.62l0 -27.49 10.36 0c1.44,0 2.7,0.16 3.8,0.49 1.1,0.33 2.01,0.83 2.74,1.5 0.72,0.68 1.25,1.5 1.58,2.48 0.33,0.98 0.49,2.13 0.49,3.43 0,1.21 -0.16,2.3 -0.47,3.29 -0.31,0.97 -0.81,1.82 -1.51,2.53 -0.54,0.54 -1.16,0.98 -1.88,1.33 -0.72,0.35 -1.61,0.59 -2.69,0.72l6.79 11.72 -4.41 0 -6.43 -11.6 -4.52 0 0 11.6 -3.85 0zm3.85 -14.88l7.91 0c1.04,0 1.82,-0.31 2.36,-0.93 0.54,-0.61 0.8,-1.35 0.8,-2.21l0 -3.04c0,-0.94 -0.28,-1.68 -0.84,-2.21 -0.57,-0.52 -1.34,-0.78 -2.32,-0.78l-7.91 0 0 9.17zm19.87 4.57c0,-1.56 0.19,-3.02 0.59,-4.35 0.38,-1.33 0.96,-2.47 1.73,-3.41 0.77,-0.94 1.7,-1.68 2.8,-2.22 1.09,-0.54 2.35,-0.81 3.78,-0.81 1.47,0 2.76,0.25 3.86,0.77 1.1,0.51 2.01,1.21 2.73,2.1 0.72,0.89 1.26,1.93 1.63,3.13 0.37,1.19 0.55,2.49 0.55,3.87l0 1.93 -13.83 0 0 2.19c0,0.76 0.14,1.42 0.43,2 0.28,0.58 0.66,1.07 1.15,1.47 0.49,0.4 1.04,0.7 1.64,0.91 0.6,0.21 1.23,0.31 1.87,0.31 1.29,0 2.41,-0.33 3.36,-0.99 0.95,-0.66 1.49,-1.7 1.62,-3.14l3.6 0c-0.08,1.11 -0.36,2.09 -0.86,2.95 -0.5,0.86 -1.14,1.6 -1.93,2.19 -0.8,0.61 -1.69,1.08 -2.68,1.41 -1,0.33 -2.05,0.49 -3.14,0.49 -1.49,0 -2.8,-0.27 -3.91,-0.81 -1.12,-0.54 -2.04,-1.28 -2.79,-2.23 -0.74,-0.95 -1.3,-2.08 -1.66,-3.4 -0.36,-1.31 -0.54,-2.77 -0.54,-4.36zm3.84 -1.9l10.11 0 0 -1.14c0,-0.74 -0.14,-1.43 -0.41,-2.02 -0.26,-0.61 -0.64,-1.12 -1.1,-1.54 -0.47,-0.42 -1.01,-0.74 -1.62,-0.96 -0.61,-0.21 -1.25,-0.32 -1.92,-0.32 -0.68,0 -1.31,0.11 -1.92,0.32 -0.61,0.22 -1.14,0.54 -1.62,0.96 -0.48,0.42 -0.85,0.93 -1.12,1.54 -0.26,0.59 -0.4,1.28 -0.4,2.02l0 1.14zm19.4 19.09l0 -27.5 3.64 0 0 3.38c0.65,-1.24 1.52,-2.2 2.61,-2.86 1.09,-0.67 2.42,-1 3.98,-1 1.37,0 2.57,0.28 3.59,0.85 1.03,0.56 1.88,1.33 2.56,2.3 0.68,0.96 1.18,2.11 1.51,3.44 0.34,1.32 0.51,2.73 0.51,4.21 0,1.52 -0.17,2.92 -0.51,4.22 -0.33,1.31 -0.83,2.44 -1.51,3.41 -0.68,0.98 -1.52,1.74 -2.54,2.31 -1.03,0.57 -2.23,0.85 -3.61,0.85 -1.56,0 -2.89,-0.33 -3.98,-1 -1.09,-0.66 -1.96,-1.61 -2.61,-2.84l0 10.23 -3.64 0zm3.64 -15.44c0,1.78 0.49,3.24 1.46,4.4 0.97,1.16 2.38,1.74 4.21,1.74 1.54,0 2.8,-0.43 3.78,-1.3 0.98,-0.86 1.47,-1.98 1.47,-3.38l0 -6.39c0,-1.4 -0.49,-2.53 -1.47,-3.4 -0.98,-0.87 -2.24,-1.3 -3.78,-1.3 -1.83,0 -3.24,0.58 -4.21,1.74 -0.97,1.17 -1.46,2.64 -1.46,4.42l0 3.47zm19.32 -1.74c0,-1.56 0.18,-3.02 0.56,-4.35 0.37,-1.34 0.95,-2.48 1.72,-3.42 0.77,-0.94 1.73,-1.68 2.89,-2.22 1.16,-0.54 2.53,-0.81 4.1,-0.81 1.56,0 2.92,0.27 4.08,0.81 1.16,0.54 2.11,1.28 2.88,2.22 0.76,0.94 1.33,2.08 1.71,3.42 0.39,1.33 0.57,2.79 0.57,4.35 0,1.59 -0.18,3.05 -0.57,4.36 -0.38,1.31 -0.95,2.45 -1.71,3.39 -0.77,0.95 -1.72,1.69 -2.89,2.23 -1.17,0.54 -2.52,0.81 -4.07,0.81 -1.57,0 -2.94,-0.27 -4.1,-0.81 -1.16,-0.54 -2.12,-1.28 -2.89,-2.23 -0.77,-0.94 -1.35,-2.08 -1.72,-3.39 -0.38,-1.31 -0.56,-2.77 -0.56,-4.36zm3.84 3.2c0,0.69 0.15,1.33 0.44,1.91 0.3,0.58 0.69,1.08 1.17,1.47 0.49,0.41 1.06,0.72 1.72,0.95 0.66,0.23 1.36,0.35 2.1,0.35 0.72,0 1.41,-0.12 2.07,-0.35 0.66,-0.23 1.23,-0.54 1.72,-0.95 0.48,-0.39 0.87,-0.89 1.17,-1.47 0.3,-0.58 0.44,-1.22 0.44,-1.91l0 -6.39c0,-0.7 -0.14,-1.34 -0.44,-1.92 -0.3,-0.58 -0.69,-1.07 -1.17,-1.48 -0.49,-0.41 -1.06,-0.73 -1.72,-0.96 -0.66,-0.23 -1.35,-0.34 -2.07,-0.34 -0.73,0 -1.42,0.11 -2.09,0.34 -0.66,0.23 -1.24,0.55 -1.73,0.96 -0.48,0.41 -0.87,0.9 -1.17,1.48 -0.29,0.58 -0.44,1.22 -0.44,1.92l0 6.39z"/>
     <g>
      <path fill="#C4C3C6" fill-rule="nonzero" d="M59.24 146.49l0 -11.46 7.03 0 0 1.43 -5.43 0 0 3.48 5.03 0 0 1.43 -5.03 0 0 5.12 -1.6 0zm8.74 -4.29c0,-0.66 0.08,-1.26 0.24,-1.82 0.15,-0.55 0.39,-1.03 0.71,-1.42 0.32,-0.39 0.73,-0.7 1.21,-0.93 0.48,-0.22 1.05,-0.34 1.71,-0.34 0.65,0 1.21,0.12 1.69,0.34 0.49,0.23 0.89,0.54 1.21,0.93 0.31,0.39 0.55,0.87 0.71,1.42 0.16,0.56 0.24,1.16 0.24,1.82 0,0.66 -0.08,1.26 -0.24,1.81 -0.16,0.55 -0.4,1.02 -0.71,1.41 -0.32,0.4 -0.72,0.71 -1.21,0.93 -0.48,0.23 -1.05,0.34 -1.69,0.34 -0.66,0 -1.23,-0.11 -1.71,-0.34 -0.48,-0.22 -0.89,-0.53 -1.21,-0.93 -0.32,-0.39 -0.56,-0.86 -0.71,-1.41 -0.16,-0.55 -0.24,-1.15 -0.24,-1.81zm1.6 1.33c0,0.29 0.06,0.56 0.19,0.8 0.12,0.24 0.28,0.44 0.49,0.61 0.2,0.17 0.44,0.3 0.71,0.4 0.28,0.09 0.57,0.14 0.88,0.14 0.3,0 0.58,-0.05 0.86,-0.14 0.27,-0.1 0.51,-0.23 0.71,-0.4 0.21,-0.17 0.37,-0.37 0.49,-0.61 0.13,-0.24 0.19,-0.51 0.19,-0.8l0 -2.67c0,-0.28 -0.06,-0.55 -0.19,-0.79 -0.12,-0.24 -0.28,-0.45 -0.49,-0.62 -0.2,-0.17 -0.44,-0.3 -0.71,-0.4 -0.28,-0.09 -0.56,-0.14 -0.86,-0.14 -0.31,0 -0.6,0.05 -0.87,0.14 -0.28,0.1 -0.52,0.23 -0.72,0.4 -0.21,0.17 -0.37,0.38 -0.49,0.62 -0.13,0.24 -0.19,0.51 -0.19,0.79l0 2.67zm8.46 2.96l0 -8.59 4.13 0 0 1.31 -2.62 0 0 7.28 -1.51 0zm9.85 -4.23c0,-0.68 0.08,-1.31 0.24,-1.88 0.16,-0.57 0.4,-1.05 0.72,-1.44 0.32,-0.39 0.7,-0.7 1.16,-0.92 0.47,-0.22 0.99,-0.33 1.57,-0.33 0.45,0 0.87,0.06 1.28,0.18 0.39,0.12 0.74,0.3 1.05,0.55 0.3,0.24 0.55,0.56 0.74,0.94 0.19,0.38 0.31,0.83 0.35,1.35l-1.51 0c-0.04,-0.34 -0.11,-0.63 -0.22,-0.86 -0.12,-0.24 -0.26,-0.42 -0.44,-0.56 -0.18,-0.14 -0.39,-0.24 -0.62,-0.3 -0.23,-0.05 -0.47,-0.08 -0.71,-0.08 -0.26,0 -0.51,0.04 -0.74,0.12 -0.24,0.09 -0.45,0.22 -0.65,0.39 -0.19,0.17 -0.34,0.38 -0.45,0.63 -0.11,0.25 -0.17,0.55 -0.17,0.88l0 2.53c0,0.3 0.05,0.58 0.16,0.83 0.11,0.26 0.25,0.47 0.44,0.64 0.19,0.17 0.4,0.31 0.64,0.41 0.24,0.09 0.5,0.14 0.78,0.14 0.56,0 1.03,-0.15 1.4,-0.45 0.37,-0.31 0.59,-0.78 0.64,-1.42l1.52 0c-0.06,0.52 -0.19,0.98 -0.41,1.37 -0.21,0.38 -0.47,0.7 -0.79,0.96 -0.32,0.25 -0.67,0.44 -1.07,0.57 -0.4,0.12 -0.82,0.18 -1.25,0.18 -0.64,0 -1.18,-0.11 -1.63,-0.33 -0.45,-0.22 -0.83,-0.53 -1.14,-0.93 -0.3,-0.4 -0.52,-0.86 -0.67,-1.4 -0.15,-0.54 -0.22,-1.13 -0.22,-1.77zm8.97 -0.06c0,-0.66 0.08,-1.26 0.24,-1.82 0.15,-0.55 0.39,-1.03 0.72,-1.42 0.32,-0.39 0.72,-0.7 1.2,-0.93 0.48,-0.22 1.05,-0.34 1.71,-0.34 0.65,0 1.22,0.12 1.7,0.34 0.48,0.23 0.88,0.54 1.2,0.93 0.32,0.39 0.56,0.87 0.71,1.42 0.16,0.56 0.24,1.16 0.24,1.82 0,0.66 -0.08,1.26 -0.24,1.81 -0.15,0.55 -0.39,1.02 -0.71,1.41 -0.32,0.4 -0.72,0.71 -1.21,0.93 -0.48,0.23 -1.05,0.34 -1.69,0.34 -0.66,0 -1.23,-0.11 -1.71,-0.34 -0.48,-0.22 -0.88,-0.53 -1.2,-0.93 -0.33,-0.39 -0.57,-0.86 -0.72,-1.41 -0.16,-0.55 -0.24,-1.15 -0.24,-1.81zm1.61 1.33c0,0.29 0.06,0.56 0.18,0.8 0.12,0.24 0.29,0.44 0.49,0.61 0.2,0.17 0.44,0.3 0.72,0.4 0.27,0.09 0.56,0.14 0.87,0.14 0.3,0 0.59,-0.05 0.86,-0.14 0.28,-0.1 0.51,-0.23 0.72,-0.4 0.2,-0.17 0.36,-0.37 0.48,-0.61 0.13,-0.24 0.19,-0.51 0.19,-0.8l0 -2.67c0,-0.28 -0.06,-0.55 -0.19,-0.79 -0.12,-0.24 -0.28,-0.45 -0.48,-0.62 -0.21,-0.17 -0.44,-0.3 -0.72,-0.4 -0.27,-0.09 -0.56,-0.14 -0.86,-0.14 -0.3,0 -0.59,0.05 -0.87,0.14 -0.28,0.1 -0.52,0.23 -0.72,0.4 -0.2,0.17 -0.37,0.38 -0.49,0.62 -0.12,0.24 -0.18,0.51 -0.18,0.79l0 2.67zm8.45 2.96l0 -8.59 1.52 0 0 1.42c0.19,-0.47 0.49,-0.86 0.88,-1.17 0.41,-0.3 0.91,-0.46 1.51,-0.46 0.57,0 1.07,0.15 1.51,0.43 0.44,0.29 0.75,0.74 0.95,1.35 0.18,-0.51 0.48,-0.93 0.92,-1.27 0.43,-0.34 0.96,-0.51 1.6,-0.51 0.37,0 0.72,0.06 1.05,0.17 0.33,0.12 0.61,0.3 0.85,0.54 0.24,0.25 0.43,0.57 0.57,0.95 0.13,0.39 0.2,0.86 0.2,1.41l0 5.73 -1.52 0 0 -5.56c0,-0.63 -0.12,-1.12 -0.36,-1.48 -0.24,-0.36 -0.64,-0.54 -1.21,-0.54 -0.27,0 -0.52,0.06 -0.75,0.18 -0.23,0.13 -0.43,0.3 -0.62,0.53 -0.18,0.23 -0.32,0.51 -0.41,0.82 -0.1,0.32 -0.15,0.66 -0.15,1.03l0 5.02 -1.52 0 0 -5.56c0,-0.63 -0.12,-1.12 -0.36,-1.48 -0.24,-0.36 -0.64,-0.54 -1.2,-0.54 -0.27,0 -0.52,0.06 -0.75,0.18 -0.23,0.13 -0.44,0.3 -0.62,0.53 -0.18,0.23 -0.32,0.51 -0.42,0.82 -0.1,0.32 -0.15,0.66 -0.15,1.03l0 5.02 -1.52 0zm14.28 0l0 -8.59 1.52 0 0 1.42c0.19,-0.47 0.49,-0.86 0.89,-1.17 0.4,-0.3 0.9,-0.46 1.5,-0.46 0.57,0 1.07,0.15 1.51,0.43 0.44,0.29 0.75,0.74 0.95,1.35 0.18,-0.51 0.48,-0.93 0.92,-1.27 0.43,-0.34 0.96,-0.51 1.6,-0.51 0.37,0 0.72,0.06 1.05,0.17 0.33,0.12 0.61,0.3 0.85,0.54 0.24,0.25 0.43,0.57 0.57,0.95 0.13,0.39 0.2,0.86 0.2,1.41l0 5.73 -1.52 0 0 -5.56c0,-0.63 -0.12,-1.12 -0.36,-1.48 -0.24,-0.36 -0.64,-0.54 -1.21,-0.54 -0.27,0 -0.52,0.06 -0.75,0.18 -0.23,0.13 -0.43,0.3 -0.61,0.53 -0.18,0.23 -0.32,0.51 -0.42,0.82 -0.1,0.32 -0.15,0.66 -0.15,1.03l0 5.02 -1.52 0 0 -5.56c0,-0.63 -0.12,-1.12 -0.36,-1.48 -0.24,-0.36 -0.64,-0.54 -1.2,-0.54 -0.27,0 -0.52,0.06 -0.75,0.18 -0.23,0.13 -0.43,0.3 -0.62,0.53 -0.18,0.23 -0.32,0.51 -0.42,0.82 -0.1,0.32 -0.15,0.66 -0.15,1.03l0 5.02 -1.52 0zm14.21 -2.87l0 -5.72 1.52 0 0 5.55c0,0.62 0.12,1.12 0.36,1.48 0.24,0.37 0.69,0.55 1.33,0.55 0.64,0 1.15,-0.24 1.52,-0.72 0.38,-0.48 0.57,-1.09 0.57,-1.84l0 -5.02 1.51 0 0 8.59 -1.51 0 0 -1.42c-0.24,0.51 -0.55,0.9 -0.95,1.19 -0.39,0.29 -0.92,0.43 -1.56,0.43 -0.4,0 -0.77,-0.05 -1.11,-0.17 -0.34,-0.11 -0.64,-0.29 -0.89,-0.54 -0.24,-0.24 -0.43,-0.56 -0.57,-0.95 -0.14,-0.39 -0.22,-0.86 -0.22,-1.41zm9.61 2.87l0 -8.59 1.51 0 0 1.42c0.24,-0.51 0.56,-0.9 0.98,-1.19 0.41,-0.29 0.94,-0.44 1.59,-0.44 0.42,0 0.8,0.06 1.13,0.17 0.34,0.12 0.64,0.3 0.88,0.54 0.25,0.25 0.44,0.57 0.58,0.95 0.14,0.39 0.2,0.86 0.2,1.41l0 5.73 -1.51 0 0 -5.56c0,-0.63 -0.12,-1.12 -0.37,-1.48 -0.24,-0.36 -0.68,-0.54 -1.34,-0.54 -0.31,0 -0.59,0.06 -0.85,0.18 -0.26,0.13 -0.48,0.3 -0.68,0.53 -0.19,0.23 -0.34,0.51 -0.44,0.82 -0.11,0.32 -0.17,0.66 -0.17,1.03l0 5.02 -1.51 0zm9.57 -9.87l0 -1.59 1.58 0 0 1.59 -1.58 0zm0.03 9.87l0 -8.59 1.52 0 0 8.59 -1.52 0zm3.52 -7.3l0 -1.29 1.41 0 0 -2.87 1.52 0 0 2.87 1.95 0 0 1.29 -1.95 0 0 6 1.95 0 0 1.3 -3.47 0 0 -7.3 -1.41 0zm6.09 -1.29l1.64 0 2.23 6.72 0.08 0 2.3 -6.72 1.57 0 -4.21 11.45 -2.94 0 0 -1.29 1.98 0 0.54 -1.57 -3.19 -8.59zm13.95 8.59l0 -8.59 4.13 0 0 1.31 -2.62 0 0 7.28 -1.51 0zm5.56 -4.3c0,-0.65 0.08,-1.25 0.24,-1.81 0.16,-0.56 0.4,-1.03 0.73,-1.42 0.32,-0.39 0.7,-0.7 1.16,-0.93 0.46,-0.22 0.98,-0.34 1.57,-0.34 0.62,0 1.16,0.11 1.62,0.33 0.45,0.21 0.83,0.5 1.13,0.87 0.3,0.37 0.53,0.81 0.68,1.31 0.15,0.49 0.23,1.03 0.23,1.61l0 0.8 -5.76 0 0 0.92c0,0.31 0.06,0.59 0.18,0.83 0.11,0.24 0.27,0.44 0.48,0.61 0.2,0.17 0.43,0.29 0.68,0.38 0.25,0.09 0.51,0.13 0.78,0.13 0.54,0 1,-0.14 1.4,-0.41 0.4,-0.28 0.62,-0.71 0.67,-1.31l1.51 0c-0.04,0.46 -0.16,0.87 -0.36,1.23 -0.21,0.36 -0.48,0.66 -0.81,0.91 -0.33,0.25 -0.7,0.45 -1.12,0.59 -0.41,0.13 -0.85,0.2 -1.31,0.2 -0.62,0 -1.16,-0.11 -1.62,-0.34 -0.47,-0.22 -0.85,-0.53 -1.16,-0.93 -0.31,-0.39 -0.55,-0.86 -0.7,-1.41 -0.15,-0.55 -0.22,-1.15 -0.22,-1.82zm1.6 -0.79l4.21 0 0 -0.47c0,-0.31 -0.06,-0.6 -0.17,-0.85 -0.11,-0.25 -0.27,-0.46 -0.46,-0.64 -0.19,-0.17 -0.42,-0.31 -0.67,-0.4 -0.26,-0.09 -0.53,-0.13 -0.81,-0.13 -0.28,0 -0.54,0.04 -0.79,0.13 -0.26,0.09 -0.48,0.23 -0.68,0.4 -0.2,0.18 -0.35,0.39 -0.46,0.64 -0.12,0.25 -0.17,0.54 -0.17,0.85l0 0.47zm8.08 7.95l0 -11.45 1.52 0 0 1.4c0.27,-0.51 0.63,-0.91 1.08,-1.19 0.46,-0.28 1.01,-0.42 1.66,-0.42 0.57,0 1.08,0.12 1.5,0.36 0.43,0.23 0.78,0.55 1.07,0.96 0.28,0.4 0.49,0.88 0.63,1.43 0.14,0.55 0.21,1.14 0.21,1.76 0,0.63 -0.07,1.21 -0.21,1.76 -0.14,0.54 -0.35,1.01 -0.63,1.42 -0.29,0.4 -0.64,0.72 -1.06,0.96 -0.43,0.23 -0.93,0.35 -1.51,0.35 -0.65,0 -1.2,-0.14 -1.66,-0.41 -0.45,-0.28 -0.81,-0.68 -1.08,-1.19l0 4.26 -1.52 0zm1.52 -6.43c0,0.74 0.2,1.35 0.61,1.83 0.4,0.49 0.99,0.73 1.75,0.73 0.64,0 1.17,-0.18 1.58,-0.54 0.4,-0.36 0.61,-0.83 0.61,-1.41l0 -2.67c0,-0.58 -0.21,-1.05 -0.61,-1.41 -0.41,-0.36 -0.94,-0.54 -1.58,-0.54 -0.76,0 -1.35,0.24 -1.75,0.73 -0.41,0.48 -0.61,1.09 -0.61,1.83l0 1.45zm8.05 -0.72c0,-0.66 0.07,-1.26 0.23,-1.82 0.16,-0.55 0.4,-1.03 0.72,-1.42 0.32,-0.39 0.72,-0.7 1.2,-0.93 0.49,-0.22 1.06,-0.34 1.71,-0.34 0.65,0 1.22,0.12 1.7,0.34 0.48,0.23 0.88,0.54 1.2,0.93 0.32,0.39 0.56,0.87 0.71,1.42 0.16,0.56 0.24,1.16 0.24,1.82 0,0.66 -0.08,1.26 -0.24,1.81 -0.15,0.55 -0.39,1.02 -0.71,1.41 -0.32,0.4 -0.72,0.71 -1.2,0.93 -0.49,0.23 -1.05,0.34 -1.7,0.34 -0.65,0 -1.22,-0.11 -1.71,-0.34 -0.48,-0.22 -0.88,-0.53 -1.2,-0.93 -0.32,-0.39 -0.56,-0.86 -0.72,-1.41 -0.16,-0.55 -0.23,-1.15 -0.23,-1.81zm1.6 1.33c0,0.29 0.06,0.56 0.18,0.8 0.13,0.24 0.29,0.44 0.49,0.61 0.2,0.17 0.44,0.3 0.72,0.4 0.27,0.09 0.56,0.14 0.87,0.14 0.3,0 0.59,-0.05 0.86,-0.14 0.28,-0.1 0.52,-0.23 0.72,-0.4 0.2,-0.17 0.36,-0.37 0.49,-0.61 0.12,-0.24 0.18,-0.51 0.18,-0.8l0 -2.67c0,-0.28 -0.06,-0.55 -0.18,-0.79 -0.13,-0.24 -0.29,-0.45 -0.49,-0.62 -0.2,-0.17 -0.44,-0.3 -0.72,-0.4 -0.27,-0.09 -0.56,-0.14 -0.86,-0.14 -0.3,0 -0.59,0.05 -0.87,0.14 -0.28,0.1 -0.52,0.23 -0.72,0.4 -0.2,0.17 -0.36,0.38 -0.49,0.62 -0.12,0.24 -0.18,0.51 -0.18,0.79l0 2.67zm8.45 2.96l0 -8.59 4.13 0 0 1.31 -2.61 0 0 7.28 -1.52 0zm5.22 -7.3l0 -1.29 1.42 0 0 -2.87 1.52 0 0 2.87 1.95 0 0 1.29 -1.95 0 0 6 1.95 0 0 1.3 -3.47 0 0 -7.3 -1.42 0zm6.43 4.59l1.52 0c0.02,0.57 0.23,0.99 0.62,1.27 0.38,0.29 0.84,0.43 1.37,0.43 0.5,0 0.94,-0.11 1.31,-0.34 0.37,-0.22 0.56,-0.55 0.56,-0.98 0,-0.34 -0.11,-0.62 -0.34,-0.83 -0.22,-0.21 -0.62,-0.37 -1.2,-0.48l-1.41 -0.28c-0.71,-0.15 -1.25,-0.42 -1.63,-0.82 -0.39,-0.4 -0.58,-0.94 -0.58,-1.61 0,-0.33 0.08,-0.65 0.23,-0.95 0.15,-0.3 0.37,-0.56 0.65,-0.78 0.28,-0.22 0.61,-0.39 1,-0.52 0.38,-0.13 0.8,-0.2 1.27,-0.2 0.41,0 0.81,0.06 1.19,0.16 0.39,0.11 0.74,0.28 1.04,0.5 0.31,0.23 0.55,0.51 0.73,0.86 0.19,0.35 0.28,0.76 0.3,1.25l-1.52 0c-0.02,-0.57 -0.2,-0.97 -0.53,-1.2 -0.33,-0.24 -0.73,-0.35 -1.19,-0.35 -0.47,0 -0.87,0.11 -1.2,0.34 -0.32,0.23 -0.48,0.52 -0.48,0.89 0,0.33 0.09,0.6 0.28,0.79 0.19,0.18 0.5,0.32 0.93,0.41l1.45 0.3c0.85,0.18 1.49,0.47 1.9,0.87 0.42,0.4 0.63,0.95 0.63,1.64 0,0.36 -0.09,0.69 -0.25,1 -0.16,0.31 -0.39,0.58 -0.7,0.8 -0.3,0.22 -0.66,0.4 -1.08,0.54 -0.41,0.13 -0.88,0.2 -1.38,0.2 -0.48,0 -0.93,-0.06 -1.35,-0.18 -0.42,-0.13 -0.79,-0.31 -1.11,-0.55 -0.31,-0.25 -0.56,-0.55 -0.74,-0.91 -0.18,-0.37 -0.27,-0.79 -0.29,-1.27zm9.02 2.71l0 -1.85 1.76 0 0 1.85 -1 1.85 -0.76 0 0.94 -1.85 -0.94 0zm8.01 -7.3l0 -1.29 1.41 0 0 -2.87 1.52 0 0 2.87 1.95 0 0 1.29 -1.95 0 0 6 1.95 0 0 1.3 -3.47 0 0 -7.3 -1.41 0zm6.53 3.01c0,-0.66 0.08,-1.26 0.23,-1.82 0.16,-0.55 0.4,-1.03 0.72,-1.42 0.32,-0.39 0.72,-0.7 1.2,-0.93 0.49,-0.22 1.06,-0.34 1.71,-0.34 0.65,0 1.22,0.12 1.7,0.34 0.48,0.23 0.88,0.54 1.2,0.93 0.32,0.39 0.56,0.87 0.72,1.42 0.16,0.56 0.23,1.16 0.23,1.82 0,0.66 -0.07,1.26 -0.23,1.81 -0.16,0.55 -0.4,1.02 -0.72,1.41 -0.32,0.4 -0.72,0.71 -1.2,0.93 -0.49,0.23 -1.05,0.34 -1.7,0.34 -0.65,0 -1.22,-0.11 -1.71,-0.34 -0.48,-0.22 -0.88,-0.53 -1.2,-0.93 -0.32,-0.39 -0.56,-0.86 -0.72,-1.41 -0.15,-0.55 -0.23,-1.15 -0.23,-1.81zm1.6 1.33c0,0.29 0.06,0.56 0.18,0.8 0.13,0.24 0.29,0.44 0.49,0.61 0.2,0.17 0.44,0.3 0.72,0.4 0.27,0.09 0.56,0.14 0.87,0.14 0.3,0 0.59,-0.05 0.86,-0.14 0.28,-0.1 0.52,-0.23 0.72,-0.4 0.2,-0.17 0.36,-0.37 0.49,-0.61 0.12,-0.24 0.18,-0.51 0.18,-0.8l0 -2.67c0,-0.28 -0.06,-0.55 -0.18,-0.79 -0.13,-0.24 -0.29,-0.45 -0.49,-0.62 -0.2,-0.17 -0.44,-0.3 -0.72,-0.4 -0.27,-0.09 -0.56,-0.14 -0.86,-0.14 -0.3,0 -0.59,0.05 -0.87,0.14 -0.27,0.1 -0.52,0.23 -0.72,0.4 -0.2,0.17 -0.36,0.38 -0.49,0.62 -0.12,0.24 -0.18,0.51 -0.18,0.79l0 2.67zm8 -1.33c0,-0.66 0.08,-1.26 0.23,-1.82 0.16,-0.55 0.4,-1.03 0.72,-1.42 0.32,-0.39 0.72,-0.7 1.2,-0.93 0.49,-0.22 1.06,-0.34 1.71,-0.34 0.65,0 1.22,0.12 1.7,0.34 0.48,0.23 0.88,0.54 1.2,0.93 0.32,0.39 0.56,0.87 0.72,1.42 0.16,0.56 0.23,1.16 0.23,1.82 0,0.66 -0.07,1.26 -0.23,1.81 -0.16,0.55 -0.4,1.02 -0.72,1.41 -0.32,0.4 -0.72,0.71 -1.2,0.93 -0.49,0.23 -1.05,0.34 -1.7,0.34 -0.65,0 -1.22,-0.11 -1.71,-0.34 -0.48,-0.22 -0.88,-0.53 -1.2,-0.93 -0.32,-0.39 -0.56,-0.86 -0.72,-1.41 -0.15,-0.55 -0.23,-1.15 -0.23,-1.81zm1.6 1.33c0,0.29 0.06,0.56 0.18,0.8 0.13,0.24 0.29,0.44 0.49,0.61 0.2,0.17 0.44,0.3 0.72,0.4 0.27,0.09 0.56,0.14 0.87,0.14 0.3,0 0.59,-0.05 0.86,-0.14 0.28,-0.1 0.52,-0.23 0.72,-0.4 0.2,-0.17 0.36,-0.37 0.49,-0.61 0.12,-0.24 0.18,-0.51 0.18,-0.8l0 -2.67c0,-0.28 -0.06,-0.55 -0.18,-0.79 -0.13,-0.24 -0.29,-0.45 -0.49,-0.62 -0.2,-0.17 -0.44,-0.3 -0.72,-0.4 -0.27,-0.09 -0.56,-0.14 -0.86,-0.14 -0.3,0 -0.59,0.05 -0.87,0.14 -0.27,0.1 -0.52,0.23 -0.72,0.4 -0.2,0.17 -0.36,0.38 -0.49,0.62 -0.12,0.24 -0.18,0.51 -0.18,0.79l0 2.67zm8.49 2.96l0 -11.46 1.51 0 0 11.46 -1.51 0zm3.78 -2.71l1.52 0c0.02,0.57 0.23,0.99 0.62,1.27 0.38,0.29 0.84,0.43 1.37,0.43 0.5,0 0.94,-0.11 1.31,-0.34 0.37,-0.22 0.56,-0.55 0.56,-0.98 0,-0.34 -0.11,-0.62 -0.34,-0.83 -0.22,-0.21 -0.62,-0.37 -1.2,-0.48l-1.41 -0.28c-0.71,-0.15 -1.25,-0.42 -1.63,-0.82 -0.39,-0.4 -0.58,-0.94 -0.58,-1.61 0,-0.33 0.08,-0.65 0.23,-0.95 0.15,-0.3 0.37,-0.56 0.65,-0.78 0.28,-0.22 0.61,-0.39 1,-0.52 0.38,-0.13 0.8,-0.2 1.27,-0.2 0.41,0 0.81,0.06 1.19,0.16 0.39,0.11 0.74,0.28 1.04,0.5 0.31,0.23 0.55,0.51 0.73,0.86 0.19,0.35 0.28,0.76 0.3,1.25l-1.52 0c-0.02,-0.57 -0.2,-0.97 -0.53,-1.2 -0.33,-0.24 -0.73,-0.35 -1.19,-0.35 -0.47,0 -0.87,0.11 -1.2,0.34 -0.32,0.23 -0.48,0.52 -0.48,0.89 0,0.33 0.09,0.6 0.28,0.79 0.19,0.18 0.5,0.32 0.93,0.41l1.45 0.3c0.85,0.18 1.49,0.47 1.9,0.87 0.42,0.4 0.63,0.95 0.63,1.64 0,0.36 -0.09,0.69 -0.25,1 -0.16,0.31 -0.39,0.58 -0.7,0.8 -0.3,0.22 -0.66,0.4 -1.08,0.54 -0.41,0.13 -0.88,0.2 -1.38,0.2 -0.48,0 -0.93,-0.06 -1.35,-0.18 -0.42,-0.13 -0.79,-0.31 -1.1,-0.55 -0.32,-0.25 -0.57,-0.55 -0.75,-0.91 -0.18,-0.37 -0.27,-0.79 -0.29,-1.27zm12.87 0.35c0,-0.67 0.21,-1.25 0.64,-1.74 0.43,-0.48 1.07,-0.76 1.92,-0.83l2.8 -0.26 0 -0.69c0,-0.33 -0.04,-0.61 -0.13,-0.83 -0.09,-0.22 -0.21,-0.4 -0.36,-0.52 -0.16,-0.13 -0.35,-0.22 -0.57,-0.27 -0.21,-0.06 -0.46,-0.08 -0.73,-0.08 -0.53,0 -0.96,0.12 -1.29,0.36 -0.32,0.24 -0.48,0.63 -0.48,1.19l-1.51 0c0,-0.41 0.08,-0.78 0.26,-1.12 0.17,-0.33 0.41,-0.63 0.7,-0.87 0.3,-0.25 0.65,-0.44 1.05,-0.57 0.4,-0.14 0.83,-0.21 1.29,-0.21 0.46,0 0.89,0.06 1.29,0.18 0.39,0.12 0.74,0.3 1.03,0.53 0.3,0.24 0.53,0.54 0.69,0.91 0.16,0.37 0.24,0.81 0.24,1.31l0 4.57 1.28 0 0 1.3 -2.56 0 -0.03 -1.59 -0.07 0c-0.24,0.61 -0.59,1.06 -1.05,1.35 -0.46,0.29 -1.01,0.44 -1.65,0.44 -0.43,0 -0.81,-0.06 -1.16,-0.2 -0.35,-0.13 -0.64,-0.32 -0.9,-0.58 -0.22,-0.22 -0.39,-0.49 -0.51,-0.8 -0.13,-0.31 -0.19,-0.64 -0.19,-0.98zm1.6 0.2c0,0.4 0.14,0.69 0.41,0.87 0.28,0.19 0.65,0.28 1.14,0.28 0.68,0 1.22,-0.25 1.62,-0.73 0.39,-0.49 0.59,-1.13 0.59,-1.9l0 -0.39 -3.05 0.28c-0.31,0.03 -0.51,0.11 -0.59,0.25 -0.08,0.14 -0.12,0.34 -0.12,0.59l0 0.75zm8.22 2.16l0 -8.59 1.52 0 0 1.42c0.23,-0.51 0.55,-0.9 0.97,-1.19 0.41,-0.29 0.94,-0.44 1.59,-0.44 0.42,0 0.8,0.06 1.13,0.17 0.34,0.12 0.64,0.3 0.88,0.54 0.25,0.25 0.44,0.57 0.58,0.95 0.14,0.39 0.2,0.86 0.2,1.41l0 5.73 -1.51 0 0 -5.56c0,-0.63 -0.12,-1.12 -0.37,-1.48 -0.24,-0.36 -0.68,-0.54 -1.33,-0.54 -0.32,0 -0.6,0.06 -0.86,0.18 -0.26,0.13 -0.48,0.3 -0.67,0.53 -0.2,0.23 -0.35,0.51 -0.45,0.82 -0.11,0.32 -0.16,0.66 -0.16,1.03l0 5.02 -1.52 0zm9.16 -4.29c0,-0.62 0.07,-1.21 0.21,-1.76 0.14,-0.55 0.35,-1.03 0.63,-1.43 0.28,-0.41 0.64,-0.73 1.07,-0.96 0.42,-0.24 0.92,-0.36 1.5,-0.36 0.63,0 1.19,0.14 1.65,0.42 0.46,0.27 0.82,0.67 1.09,1.19l0 -4.27 1.52 0 0 11.46 -1.52 0 0 -1.4c-0.27,0.51 -0.63,0.91 -1.08,1.19 -0.45,0.27 -0.99,0.41 -1.63,0.41 -0.58,0 -1.08,-0.12 -1.52,-0.35 -0.43,-0.24 -0.78,-0.56 -1.07,-0.96 -0.29,-0.41 -0.5,-0.89 -0.64,-1.43 -0.14,-0.54 -0.21,-1.13 -0.21,-1.75zm1.6 1.33c0,0.29 0.06,0.56 0.17,0.8 0.11,0.24 0.27,0.44 0.47,0.61 0.19,0.17 0.42,0.3 0.69,0.4 0.26,0.09 0.55,0.14 0.87,0.14 0.76,0 1.34,-0.24 1.75,-0.73 0.4,-0.48 0.6,-1.09 0.6,-1.83l0 -1.45c0,-0.74 -0.2,-1.35 -0.6,-1.83 -0.41,-0.49 -0.99,-0.73 -1.75,-0.73 -0.31,0 -0.6,0.05 -0.87,0.14 -0.27,0.1 -0.5,0.23 -0.69,0.4 -0.2,0.17 -0.36,0.38 -0.47,0.62 -0.11,0.24 -0.17,0.51 -0.17,0.79l0 2.67zm12.7 -1.27c0,-0.68 0.08,-1.31 0.24,-1.88 0.16,-0.57 0.4,-1.05 0.72,-1.44 0.31,-0.39 0.7,-0.7 1.16,-0.92 0.46,-0.22 0.98,-0.33 1.57,-0.33 0.45,0 0.87,0.06 1.27,0.18 0.4,0.12 0.75,0.3 1.05,0.55 0.3,0.24 0.55,0.56 0.74,0.94 0.2,0.38 0.31,0.83 0.36,1.35l-1.52 0c-0.03,-0.34 -0.1,-0.63 -0.22,-0.86 -0.11,-0.24 -0.25,-0.42 -0.44,-0.56 -0.18,-0.14 -0.38,-0.24 -0.61,-0.3 -0.23,-0.05 -0.47,-0.08 -0.72,-0.08 -0.25,0 -0.5,0.04 -0.74,0.12 -0.23,0.09 -0.45,0.22 -0.64,0.39 -0.19,0.17 -0.34,0.38 -0.45,0.63 -0.12,0.25 -0.17,0.55 -0.17,0.88l0 2.53c0,0.3 0.05,0.58 0.16,0.83 0.1,0.26 0.25,0.47 0.44,0.64 0.18,0.17 0.4,0.31 0.64,0.41 0.24,0.09 0.5,0.14 0.78,0.14 0.56,0 1.02,-0.15 1.4,-0.45 0.37,-0.31 0.58,-0.78 0.64,-1.42l1.51 0c-0.05,0.52 -0.18,0.98 -0.4,1.37 -0.21,0.38 -0.48,0.7 -0.79,0.96 -0.32,0.25 -0.68,0.44 -1.07,0.57 -0.4,0.12 -0.82,0.18 -1.26,0.18 -0.63,0 -1.17,-0.11 -1.62,-0.33 -0.46,-0.22 -0.83,-0.53 -1.14,-0.93 -0.3,-0.4 -0.53,-0.86 -0.67,-1.4 -0.15,-0.54 -0.22,-1.13 -0.22,-1.77z"/>
      <path fill="#C4C3C6" fill-rule="nonzero" d="M326.84 142.2c0,-0.66 0.08,-1.26 0.24,-1.82 0.15,-0.55 0.39,-1.03 0.71,-1.42 0.32,-0.39 0.72,-0.7 1.21,-0.93 0.48,-0.22 1.05,-0.34 1.7,-0.34 0.66,0 1.22,0.12 1.7,0.34 0.49,0.23 0.88,0.54 1.21,0.93 0.31,0.39 0.55,0.87 0.71,1.42 0.16,0.56 0.24,1.16 0.24,1.82 0,0.66 -0.08,1.26 -0.24,1.81 -0.16,0.55 -0.4,1.02 -0.71,1.41 -0.33,0.4 -0.72,0.71 -1.21,0.93 -0.48,0.23 -1.05,0.34 -1.7,0.34 -0.65,0 -1.22,-0.11 -1.7,-0.34 -0.49,-0.22 -0.89,-0.53 -1.21,-0.93 -0.32,-0.39 -0.56,-0.86 -0.71,-1.41 -0.16,-0.55 -0.24,-1.15 -0.24,-1.81zm1.6 1.33c0,0.29 0.06,0.56 0.19,0.8 0.12,0.24 0.28,0.44 0.49,0.61 0.2,0.17 0.44,0.3 0.71,0.4 0.28,0.09 0.57,0.14 0.87,0.14 0.3,0 0.59,-0.05 0.87,-0.14 0.27,-0.1 0.51,-0.23 0.71,-0.4 0.21,-0.17 0.37,-0.37 0.49,-0.61 0.12,-0.24 0.19,-0.51 0.19,-0.8l0 -2.67c0,-0.28 -0.07,-0.55 -0.19,-0.79 -0.12,-0.24 -0.28,-0.45 -0.49,-0.62 -0.2,-0.17 -0.44,-0.3 -0.71,-0.4 -0.28,-0.09 -0.57,-0.14 -0.87,-0.14 -0.3,0 -0.59,0.05 -0.87,0.14 -0.27,0.1 -0.51,0.23 -0.71,0.4 -0.21,0.17 -0.37,0.38 -0.49,0.62 -0.13,0.24 -0.19,0.51 -0.19,0.79l0 2.67zm8.46 2.96l0 -8.59 1.51 0 0 1.42c0.24,-0.51 0.56,-0.9 0.97,-1.19 0.41,-0.29 0.95,-0.44 1.6,-0.44 0.41,0 0.79,0.06 1.13,0.17 0.34,0.12 0.63,0.3 0.88,0.54 0.25,0.25 0.44,0.57 0.58,0.95 0.13,0.39 0.2,0.86 0.2,1.41l0 5.73 -1.52 0 0 -5.56c0,-0.63 -0.12,-1.12 -0.36,-1.48 -0.24,-0.36 -0.69,-0.54 -1.34,-0.54 -0.31,0 -0.6,0.06 -0.85,0.18 -0.26,0.13 -0.49,0.3 -0.68,0.53 -0.19,0.23 -0.34,0.51 -0.45,0.82 -0.1,0.32 -0.16,0.66 -0.16,1.03l0 5.02 -1.51 0zm8.81 -7.3l0 -1.29 1.41 0 0 -2.87 1.52 0 0 2.87 1.95 0 0 1.29 -1.95 0 0 6 1.95 0 0 1.3 -3.47 0 0 -7.3 -1.41 0zm6.98 7.3l0 -8.59 4.13 0 0 1.31 -2.61 0 0 7.28 -1.52 0zm5.98 -9.87l0 -1.59 1.59 0 0 1.59 -1.59 0zm0.04 9.87l0 -8.59 1.51 0 0 8.59 -1.51 0zm4.31 0l0 -11.46 1.51 0 0 4.27c0.27,-0.51 0.63,-0.91 1.09,-1.19 0.45,-0.28 1.01,-0.42 1.66,-0.42 0.57,0 1.07,0.12 1.5,0.36 0.42,0.23 0.78,0.55 1.06,0.96 0.28,0.4 0.49,0.88 0.63,1.43 0.14,0.55 0.21,1.14 0.21,1.76 0,0.63 -0.07,1.21 -0.21,1.76 -0.14,0.54 -0.35,1.01 -0.63,1.42 -0.28,0.4 -0.64,0.72 -1.06,0.96 -0.43,0.23 -0.93,0.35 -1.5,0.35 -0.65,0 -1.21,-0.14 -1.66,-0.41 -0.46,-0.28 -0.82,-0.68 -1.09,-1.19l0 1.4 -1.51 0zm1.51 -3.57c0,0.74 0.2,1.35 0.61,1.83 0.41,0.49 0.99,0.73 1.75,0.73 0.64,0 1.17,-0.18 1.58,-0.54 0.41,-0.36 0.61,-0.83 0.61,-1.41l0 -2.67c0,-0.58 -0.2,-1.05 -0.61,-1.41 -0.41,-0.36 -0.94,-0.54 -1.58,-0.54 -0.76,0 -1.34,0.24 -1.75,0.73 -0.41,0.48 -0.61,1.09 -0.61,1.83l0 1.45zm8.44 0.7l0 -5.72 1.51 0 0 5.55c0,0.62 0.12,1.12 0.37,1.48 0.24,0.37 0.68,0.55 1.32,0.55 0.64,0 1.15,-0.24 1.52,-0.72 0.38,-0.48 0.57,-1.09 0.57,-1.84l0 -5.02 1.51 0 0 8.59 -1.51 0 0 -1.42c-0.24,0.51 -0.55,0.9 -0.95,1.19 -0.39,0.29 -0.91,0.43 -1.56,0.43 -0.4,0 -0.76,-0.05 -1.11,-0.17 -0.34,-0.11 -0.64,-0.29 -0.88,-0.54 -0.25,-0.24 -0.44,-0.56 -0.58,-0.95 -0.14,-0.39 -0.21,-0.86 -0.21,-1.41zm8.81 -4.43l0 -1.29 1.41 0 0 -2.87 1.52 0 0 2.87 1.95 0 0 1.29 -1.95 0 0 6 1.95 0 0 1.3 -3.47 0 0 -7.3 -1.41 0zm6.95 -2.57l0 -1.59 1.58 0 0 1.59 -1.58 0zm0.03 9.87l0 -8.59 1.52 0 0 8.59 -1.52 0zm3.86 -4.29c0,-0.66 0.08,-1.26 0.24,-1.82 0.15,-0.55 0.39,-1.03 0.71,-1.42 0.32,-0.39 0.72,-0.7 1.21,-0.93 0.48,-0.22 1.05,-0.34 1.7,-0.34 0.66,0 1.22,0.12 1.7,0.34 0.49,0.23 0.88,0.54 1.2,0.93 0.32,0.39 0.56,0.87 0.72,1.42 0.16,0.56 0.24,1.16 0.24,1.82 0,0.66 -0.08,1.26 -0.24,1.81 -0.16,0.55 -0.4,1.02 -0.72,1.41 -0.32,0.4 -0.71,0.71 -1.2,0.93 -0.49,0.23 -1.05,0.34 -1.7,0.34 -0.65,0 -1.22,-0.11 -1.7,-0.34 -0.49,-0.22 -0.89,-0.53 -1.21,-0.93 -0.32,-0.39 -0.56,-0.86 -0.71,-1.41 -0.16,-0.55 -0.24,-1.15 -0.24,-1.81zm1.6 1.33c0,0.29 0.06,0.56 0.19,0.8 0.12,0.24 0.28,0.44 0.48,0.61 0.21,0.17 0.45,0.3 0.72,0.4 0.28,0.09 0.56,0.14 0.87,0.14 0.3,0 0.59,-0.05 0.87,-0.14 0.27,-0.1 0.51,-0.23 0.71,-0.4 0.2,-0.17 0.37,-0.37 0.49,-0.61 0.12,-0.24 0.19,-0.51 0.19,-0.8l0 -2.67c0,-0.28 -0.07,-0.55 -0.19,-0.79 -0.12,-0.24 -0.29,-0.45 -0.49,-0.62 -0.2,-0.17 -0.44,-0.3 -0.71,-0.4 -0.28,-0.09 -0.57,-0.14 -0.87,-0.14 -0.3,0 -0.59,0.05 -0.87,0.14 -0.27,0.1 -0.51,0.23 -0.72,0.4 -0.2,0.17 -0.36,0.38 -0.48,0.62 -0.13,0.24 -0.19,0.51 -0.19,0.79l0 2.67zm8.46 2.96l0 -8.59 1.51 0 0 1.42c0.24,-0.51 0.56,-0.9 0.97,-1.19 0.41,-0.29 0.95,-0.44 1.6,-0.44 0.41,0 0.79,0.06 1.13,0.17 0.34,0.12 0.63,0.3 0.88,0.54 0.25,0.25 0.44,0.57 0.57,0.95 0.14,0.39 0.21,0.86 0.21,1.41l0 5.73 -1.52 0 0 -5.56c0,-0.63 -0.12,-1.12 -0.36,-1.48 -0.24,-0.36 -0.69,-0.54 -1.34,-0.54 -0.31,0 -0.6,0.06 -0.86,0.18 -0.25,0.13 -0.48,0.3 -0.67,0.53 -0.19,0.23 -0.34,0.51 -0.45,0.82 -0.1,0.32 -0.16,0.66 -0.16,1.03l0 5.02 -1.51 0zm9.04 -2.71l1.52 0c0.02,0.57 0.22,0.99 0.61,1.27 0.39,0.29 0.84,0.43 1.37,0.43 0.51,0 0.95,-0.11 1.32,-0.34 0.37,-0.22 0.55,-0.55 0.55,-0.98 0,-0.34 -0.11,-0.62 -0.33,-0.83 -0.23,-0.21 -0.63,-0.37 -1.2,-0.48l-1.42 -0.28c-0.7,-0.15 -1.25,-0.42 -1.63,-0.82 -0.38,-0.4 -0.57,-0.94 -0.57,-1.61 0,-0.33 0.07,-0.65 0.23,-0.95 0.15,-0.3 0.36,-0.56 0.64,-0.78 0.29,-0.22 0.62,-0.39 1,-0.52 0.38,-0.13 0.81,-0.2 1.28,-0.2 0.41,0 0.8,0.06 1.19,0.16 0.39,0.11 0.73,0.28 1.04,0.5 0.3,0.23 0.55,0.51 0.73,0.86 0.18,0.35 0.28,0.76 0.29,1.25l-1.52 0c-0.02,-0.57 -0.19,-0.97 -0.53,-1.2 -0.33,-0.24 -0.72,-0.35 -1.18,-0.35 -0.48,0 -0.87,0.11 -1.2,0.34 -0.33,0.23 -0.49,0.52 -0.49,0.89 0,0.33 0.1,0.6 0.29,0.79 0.19,0.18 0.5,0.32 0.92,0.41l1.45 0.3c0.86,0.18 1.49,0.47 1.91,0.87 0.41,0.4 0.62,0.95 0.62,1.64 0,0.36 -0.08,0.69 -0.24,1 -0.16,0.31 -0.4,0.58 -0.7,0.8 -0.31,0.22 -0.67,0.4 -1.08,0.54 -0.42,0.13 -0.88,0.2 -1.39,0.2 -0.48,0 -0.93,-0.06 -1.35,-0.18 -0.42,-0.13 -0.78,-0.31 -1.1,-0.55 -0.31,-0.25 -0.56,-0.55 -0.74,-0.91 -0.18,-0.37 -0.28,-0.79 -0.29,-1.27z"/>
     </g>
     <g id="Group-2">
      <rect id="Rectangle_2" fill="#1F232C" fill-rule="nonzero" x="625.17" y="105.59" width="53.34" height="53.34"/>
      <path id="Shape" fill="#1F232C" fill-rule="nonzero" d="M642.96 52.24l0 53.35 -5.93 0 0 -53.35 5.93 0zm11.85 0l0 53.35 -5.93 0 0 -53.35 5.93 0zm11.85 0l0 53.35 -5.92 0 0 -53.35 5.92 0zm11.86 0l0 53.35 -5.93 0 0 -53.35 5.93 0zm-47.42 0l0 53.35 -5.93 0 0 -53.35 5.93 0z"/>
      <path id="Shape_3" fill="#1F232C" fill-rule="nonzero" d="M559.98 105.59l0 53.34 -5.93 0 0 -53.34 5.93 0zm-11.86 0l0 53.34 -5.93 0 0 -53.34 5.93 0zm-11.85 0l0 53.34 -5.93 0 0 -53.34 5.93 0zm-11.86 0l0 53.34 -5.92 0 0 -53.34 5.92 0zm47.42 0l0 53.34 -5.93 0 0 -53.34 5.93 0z"/>
      <path id="Shape_4" fill="#1F232C" fill-rule="nonzero" d="M879.71 -0.1l0 53.34 -5.93 0 0 -53.34 5.93 0zm-11.86 0l0 53.34 -5.92 0 0 -53.34 5.92 0zm-11.85 0l0 53.34 -5.93 0 0 -53.34 5.93 0zm-11.85 0l0 53.34 -5.93 0 0 -53.34 5.93 0zm47.41 0l0 53.34 -5.93 0 0 -53.34 5.93 0z"/>
      <path id="Shape_5" fill="#1F232C" d="M571.83 164.86l0 -5.93c29.46,0 53.34,23.89 53.34,53.35l-5.92 0c0,-26.19 -21.23,-47.42 -47.42,-47.42zm0 11.85l0 -5.92c22.92,0 41.49,18.57 41.49,41.49l-5.93 0c0,-19.64 -15.92,-35.57 -35.56,-35.57zm0 5.93l0 5.93c13.09,0 23.71,10.61 23.71,23.71l5.93 0c0,-16.37 -13.27,-29.64 -29.64,-29.64zm0 17.78l0 -5.92c9.82,0 17.78,7.96 17.78,17.78l-5.93 0c0,-6.55 -5.3,-11.86 -11.85,-11.86zm0 11.86l0 -5.93c3.27,0 5.93,2.65 5.93,5.93l-5.93 0z"/>
      <path id="Shape_6" fill="#1F232C" d="M784.7 111.52l0 -5.93c29.46,0 53.34,23.88 53.34,53.34l-5.92 0c0,-26.19 -21.23,-47.41 -47.42,-47.41zm0 11.85l0 -5.93c22.91,0 41.49,18.58 41.49,41.49l-5.93 0c0,-19.64 -15.92,-35.56 -35.56,-35.56zm0 5.93l0 5.92c13.09,0 23.71,10.62 23.71,23.71l5.93 0c0,-16.36 -13.27,-29.63 -29.64,-29.63zm0 17.78l0 -5.93c9.82,0 17.78,7.96 17.78,17.78l-5.93 0c0,-6.55 -5.3,-11.85 -11.85,-11.85zm0 11.85l0 -5.92c3.27,0 5.93,2.65 5.93,5.92l-5.93 0z"/>
      <path id="Shape_7" fill="#1F232C" fill-rule="nonzero" d="M736.04 52.24l-4.18 0 0 -4.18 49.17 -49.16 4.18 0 0 4.18 -49.17 49.16zm36.6 -53.34l-8.39 0 -32.39 32.39 0 8.39 40.78 -40.78zm-16.77 0l-8.39 0 -15.62 15.62 0 8.38 24.01 -24zm-24.01 0l0 7.23 7.23 -7.23 -7.23 0zm53.35 20.95l0 -8.38 -40.78 40.77 8.39 0 32.39 -32.39zm0 16.78l0 -8.39 -24.01 24 8.39 0 15.62 -15.61zm0 8.38l-7.23 7.23 7.23 0 0 -7.23z"/>
      <path id="Path" fill="#1F232C" fill-rule="nonzero" d="M678.52 105.59l53.34 0 0 -53.35c-29.46,0 -53.34,23.89 -53.34,53.35z"/>
      <path id="Path_8" fill="#1F232C" fill-rule="nonzero" d="M785.21 158.93l0 -53.34 -53.35 0c0,29.46 23.89,53.34 53.35,53.34z"/>
      <path id="Combined-Shape" fill="#1F232C" fill-rule="nonzero" d="M631.11 206.35l0 5.93 -5.94 0 0 -5.93 5.94 0zm11.84 0l0 5.93 -5.93 0 0 -5.93 5.93 0zm11.86 0l0 5.93 -5.93 0 0 -5.93 5.93 0zm11.85 0l0 5.93 -5.93 0 0 -5.93 5.93 0zm11.86 0l0 5.93 -5.93 0 0 -5.93 5.93 0zm-5.93 -5.93l0 5.93 -5.93 0 0 -5.93 -5.92 0 0 5.93 -5.93 0 0 -5.93 -5.93 0 0 5.93 -5.93 0 0 -5.93 5.93 0 0 -5.92 -5.93 0 0 -5.93 5.93 0 0 -5.93 5.93 0 0 5.93 5.92 0 0 -5.93 5.93 0 0 5.93 5.93 0 0 -5.93 5.93 0 0 5.93 -5.93 0 0 5.91 5.93 0 0 5.94 -5.93 0zm-41.48 -17.78l0 5.93 5.91 0 0 -5.93 5.93 0 0 5.93 -5.91 0 0 5.91 5.91 0 0 5.94 -5.91 0 0 5.93 -5.93 0 0 -5.93 -5.94 0 0 -5.94 5.94 0 0 -5.91 -5.94 0 0 -5.93 5.94 0zm29.62 11.86l-5.92 0 0 5.92 5.92 -0.01 0 -5.91zm-23.71 0l-5.91 0 0 5.92 5.91 -0.01 0 -5.91zm17.79 -5.93l-5.93 0 0 5.91 5.93 0 0 -5.91zm11.85 0l-5.92 0 0 5.91 5.92 0 0 -5.91zm-29.62 -23.71l0 5.92 5.91 0 0 5.93 -5.91 0 0 5.93 -5.93 0 0 -5.93 -5.94 0 0 -5.93 5.94 0 0 -5.92 5.93 0zm11.84 0l0 5.92 5.93 0 0 -5.92 5.93 0 0 5.92 5.92 0 0 -5.92 5.93 0 0 5.92 5.93 0 0 5.93 -5.93 0 0 5.93 -5.93 0 0 -5.93 -5.92 0 0 5.93 -5.93 0 0 -5.93 -5.93 0 0 5.93 -5.93 0 0 -5.93 5.93 0 0 -5.92 -5.93 0 0 -5.93 5.93 0zm11.85 5.93l-5.92 0 0 5.92 5.92 0 0 -5.92zm-23.71 0l-5.91 0 0 5.92 5.91 0 0 -5.92zm35.57 0l-5.93 0 0 5.92 5.93 0 0 -5.92zm-41.48 -11.86l0 5.93 -5.94 0 0 -5.93 5.94 0zm11.84 0l0 5.93 -5.93 0 0 -5.93 5.93 0zm11.86 0l0 5.93 -5.93 0 0 -5.93 5.93 0zm11.85 0l0 5.93 -5.93 0 0 -5.93 5.93 0zm11.86 0l0 5.93 -5.93 0 0 -5.93 5.93 0zm-5.93 35.57l-5.93 0 0 5.92 5.93 0 0 -5.92z"/>
     </g>
     <g>
      <polygon id="Rectangle_9" fill="#1F242C" fill-rule="nonzero" points="632.92,159.63 685.11,159.63 685.11,107.44 632.92,107.44 "/>
      <path id="Path_10" fill="#1F242C" fill-rule="nonzero" d="M789.5 159.63l0 -52.19 -52.2 0c0,28.82 23.37,52.19 52.2,52.19z"/>
      <rect id="Rectangle-Copy-8" fill="#C4C3C7" stroke="black" stroke-width="4" stroke-miterlimit="22.9256" x="453.28" y="239.66" width="399.91" height="8.27"/>
      <polygon id="Rectangle-Copy-22" fill="white" stroke="black" stroke-width="3.56" stroke-linejoin="round" stroke-miterlimit="22.9256" points="491.84,221.27 823.45,221.27 853.2,239.2 453.28,239.2 "/>
      <path id="Path_11" fill="black" fill-rule="nonzero" d="M765.48 103.22l37.15 0 0 118.05c21.27,5.93 34.45,9.92 39.53,11.95 5.09,2.04 6.47,3.87 4.14,5.52l-334.64 -11.03 0 -109.77 29.8 0 0 -12.42 27.8 0 0 -12.43 27.79 0 0 -13.4 66.62 -2.3 0 13.4 14 0 0 -13.4 38.66 0 0 25.83 27.79 0 0 12.42 21.36 0 0 -12.42z"/>
      <g id="Group-31">
       <g id="Group-33-Copy">
        <g id="Group-32">
         <path id="Path_12" fill="black" fill-rule="nonzero" d="M730.34 86.23c6.33,-3.67 10.06,-5.18 11.18,-4.52 1.7,0.98 2.08,4.52 -2.17,9.75 -2.83,3.5 -7.04,6.34 -12.64,8.53 -0.84,2 -2.94,3.23 -5.14,2.92 -5.2,-0.73 -9.21,-1.32 -12.02,-1.78 -1.41,-0.22 -7.59,-0.74 -8.94,-1.56 -1.5,-0.91 -4.53,-2.58 -5.04,-4.32 -0.29,-1 0.02,-2.8 0.09,-3.55 2.81,-0.67 4.7,-1.07 5.69,-1.2 1.35,-0.18 -0.94,-3.53 1.11,-3.01 1.36,0.35 3.17,2.25 5.42,5.72l15.5 0.2 6.96 -7.18z"/>
         <path id="Path_13" fill="white" fill-rule="nonzero" d="M721.98 96.25c0.46,1.29 0.49,2.22 0.06,2.79 -0.64,0.86 -3.07,2.08 -4.27,1.77 -3.57,-0.95 2.45,-1.74 -1.21,-3.59 -1.51,-0.87 0.27,-1.18 5.35,-0.93l0.07 -0.04z"/>
        </g>
       </g>
       <path id="Path_14" fill="black" fill-rule="nonzero" d="M728.22 109.64c-0.07,-2.07 -0.47,-3.94 -0.05,-5.96 0.51,-2.48 0.58,-5.04 0.19,-7.54 -0.32,-2.09 -1.53,-4.38 0.04,-6.28 2,-2.41 3.64,-5.49 7.26,-6.15 1.38,-0.25 1.5,-1.16 2.85,-1.53l0.66 -0.42c0.77,-0.83 2.1,-0.11 2.84,-1.03 0.42,-0.9 1.54,-1.73 0.74,-2.58 -0.71,-0.75 -1.67,-1.61 -1.32,-2.92 -0.08,-1.53 -1.15,-2.86 -0.89,-4.46 -1.08,-1.42 -0.96,-3.42 0.28,-4.72 1.73,-2.96 8.83,-4.94 11.12,-2.62 2.12,2.04 3.8,6.05 3.36,8.96 -0.18,1.23 -1.57,1.93 -1.13,3.29 -0.22,0.68 -0.17,1.55 -1.22,1.61l-0.09 0.1c-0.25,1.19 0.08,2.35 0.14,3.52 2.35,1.44 4.76,2.12 7.32,3.17 2.61,1.08 5.33,2.3 5.91,5.33 0.8,4.21 0.9,10.01 1.35,14.31l-0.83 17.47c0.12,1.13 -12.44,1.03 -18.61,0 -11.4,-1.9 -19.88,-10.14 -19.92,-11.55z"/>
       <path id="Path_15" fill="white" fill-rule="nonzero" d="M732.7 88.12c-1.24,1.99 -1.63,5.83 -2.9,6.62 -1.27,0.79 -2.01,2.03 -4.14,2.9 -0.7,-0.99 -0.28,-2.65 1.25,-4.97 1.52,-2.31 3.45,-3.83 5.79,-4.55z"/>
       <path id="Shape_16" fill="#D8D8D8" fill-rule="nonzero" d="M737.18 87.84c-0.08,-0.8 0.03,-1.88 0.8,-2.01 0.89,6.8 2.74,17.24 4.78,23.77l-1.64 0.09c-2.5,-7.12 -3.74,-20.09 -3.94,-21.85zm2.9 1.52c-0.22,-1.52 -0.33,-3.05 -0.34,-4.58 1.36,-0.81 3.45,-2.05 4.48,-1.33 0.34,3.79 3.71,22.81 3.92,25.33l-3.73 2.07c-1.4,-5.43 -3.29,-15.96 -4.33,-21.49z"/>
       <path id="Path_17" fill="#D8D8D8" fill-rule="nonzero" d="M757.96 105.2c-4.77,-3.67 -8.04,-6.75 -9.82,-9.25 -1.78,-2.49 -3.02,-5.94 -3.73,-10.34 0.55,7.35 1.24,12.04 2.07,14.07 0.84,2.03 2.42,4.74 4.75,8.15l6.73 -2.63z"/>
       <path id="Shape_18" fill="white" fill-rule="nonzero" d="M741.11 109.53c-1.49,-5.12 -2.65,-10.34 -3.49,-15.63 -0.28,-1.82 -0.53,-3.65 -0.73,-5.49 -0.09,-0.65 -0.04,-1.48 0.34,-1.87 0.19,1.67 0.41,3.34 0.66,4.99 0.95,6.13 2.41,12.1 4.23,17.95l-1.01 0.05zm-5.93 -0.31c-0.03,-0.27 -0.13,-12.14 0.55,-17.82 -0.01,-0.06 2.36,16.74 2.48,17.79l-3.03 0.03z"/>
       <polygon id="Path_19" fill="white" fill-rule="nonzero" points="742.76,83.96 744.41,109.6 739.58,84.87 "/>
       <path id="Path_20" fill="white" fill-rule="nonzero" d="M753.46 71.79c0.06,-0.4 0.11,-0.71 0.11,-0.8 0.04,-0.89 -0.03,-1.78 -0.19,-2.66 -0.27,-1.37 -0.89,-2.78 -2.3,-3.33 -0.19,-0.07 -0.39,-0.06 -0.57,0.03 -1.44,-1.77 -5.47,-0.77 -7.03,0.81 -0.53,0.46 -0.81,1.12 -0.77,1.8 -0.09,0.09 -0.15,0.2 -0.17,0.32 -0.01,0.08 -0.02,0.16 -0.01,0.24 0,0.05 -0.03,0.1 0,0.07 -0.02,0.05 -0.05,0.1 -0.08,0.14 -0.2,0.26 -0.16,0.61 0.09,0.82 0.18,0.14 0.44,0.16 0.65,0.05 0.6,-0.32 1.84,0.29 2.42,0.47 1.19,0.35 2.92,-0.27 4.17,-0.29 0.23,-0.02 0.47,0.01 0.69,0.08 0.61,0.24 0.69,1.03 0.84,1.67 0.25,1.03 0.92,1.93 1.87,2.5 0,0 0.16,-1.12 0.28,-1.92z"/>
       <path id="Path_21" fill="white" d="M744.81 75.08c0.69,0.13 1.38,-0.32 1.59,-1.05 0.21,-0.72 -0.14,-1.47 -0.79,-1.73l-0.8 2.78z"/>
      </g>
      <polygon id="Path_22" fill="#C4C3C6" fill-rule="nonzero" points="521.77,226.33 796.2,226.33 796.2,111.49 771.91,111.49 771.91,123.92 737.69,123.92 737.69,111.49 709.89,111.49 709.89,85.67 684.11,85.67 684.11,99.07 657.23,99.07 657.23,85.67 608.08,85.67 608.08,99.07 580.29,99.07 580.29,111.49 552.49,111.49 552.49,123.92 521.77,123.92 "/>
      <g id="Group-30">
       <polygon id="Path-Copy-29" fill="white" fill-rule="nonzero" points="770,225.17 795.28,168.87 794.6,225.41 "/>
       <polygon id="Path-Copy-31" fill="black" fill-rule="nonzero" points="715.76,230.07 773.21,137.61 731.52,230.46 "/>
       <polygon id="Path-Copy-32" fill="black" fill-rule="nonzero" points="756.67,129.16 715.76,195.53 745.44,128.88 "/>
       <path id="Path-Copy-35" fill="white" fill-rule="nonzero" d="M743.49 226.33l0 -0.01 -19.92 -0.5 62.74 -114.41 0 0 0 0 6.21 0.51 -49.02 114.4 -0.01 0.01zm3.62 -102.51l18.75 0.16 -23.46 38.45 13.39 -30.01 -33.6 47.02 24.92 -55.62z"/>
      </g>
      <polygon id="Rectangle-Copy-23" fill="white" points="520.15,191.85 517.62,191.85 517.39,129.8 519.49,124.74 "/>
      <polygon id="Rectangle-Copy-24" fill="white" points="551.86,124.28 548.49,124.28 548.19,117.12 550.98,111.87 "/>
      <polygon id="Rectangle-Copy-25" fill="white" points="579.9,111.87 576.53,111.87 576.23,104.71 579.02,99.46 "/>
      <polygon id="Rectangle-Copy-26" fill="white" points="607.48,99.46 604.11,99.46 603.81,91.38 606.6,86.13 "/>
      <path id="Shape-Copy-21" fill="white" d="M731.11 111.15l-2.21 -0.05c3.62,0.08 6.32,0.17 9.93,0.25l0 11.37 -0.09 2.02c0.13,1.15 -69.19,0.09 -69.55,0.46l-11.37 0c-0.05,-0.38 -0.1,-0.76 -0.14,-1.14 2.92,-0.06 5.84,-0.13 8.76,-0.18 3.81,-0.07 7.63,-0.12 11.44,-0.2 1.57,-0.03 2.19,-0.58 2.19,-1.94 0.01,-2.39 0.01,-4.78 -0.02,-7.17 -0.02,-1.36 -0.64,-1.89 -2.22,-1.87 -7.27,0.1 -16.85,0.39 -24.13,0.55 -7.28,0.16 -8.5,-1.61 -8.52,-1.72 2.45,-0.05 15.47,-0.1 17.92,-0.16 1.82,-0.04 2.42,-0.57 2.41,-2.17 0,-2.31 -0.01,-4.61 -0.05,-6.92 -0.02,-1.43 -0.65,-1.98 -2.29,-1.95 -2.83,0.05 -4.86,-0.87 -4.87,-1.39 0.1,0 0.2,0 0.31,0 7.6,-0.16 11.52,-0.3 19.11,-0.42 1.67,-0.02 5.18,-0.34 6.95,-0.34 3.76,-0.01 7.51,-0.02 11.27,-0.02 3.85,0 7.7,0.03 11.54,0.03 0.69,-4.95 0.69,-8.21 0,-9.76 -0.54,-1.23 -2.38,-2.15 -5.51,-2.76l7.81 0 0 23.9 -1.99 -9.37c-2.9,0 -5.81,-0.01 -8.72,0.01 -1.59,0.01 -2.24,0.57 -2.25,1.94 -0.03,2.4 -0.02,4.79 -0.02,7.19 0.01,1.04 11.44,1.64 34.31,1.81zm-45.84 1.64c-1.53,0 -2.14,0.58 -2.14,2.05 -0.02,2.42 -0.01,3.92 0,6.35 0.01,1.54 0.6,2.08 2.25,2.09 3.5,0.01 7.01,0.01 10.51,0.02 3.59,0.01 7.18,0.05 10.78,0.06 1.53,0.01 2.13,-0.56 2.15,-2.02 0.03,-2.46 0.05,-4 0.04,-6.46l-2.1 -1.97c-7.16,-0.08 -14.32,-0.12 -21.49,-0.12zm29.11 -0.46c-1.71,0 -2.25,0.49 -2.26,2.03 -0.02,2.15 -0.04,4.29 -0.04,6.44 -0.01,1.5 0.55,1.98 2.29,1.99 3.46,0.01 6.92,0.02 10.38,0.03 3.6,0.03 6.27,0.06 9.87,0.08l2.19 -1.82c0.05,-2.22 0.07,-4.44 0.09,-6.65 0.01,-1.41 -0.57,-1.92 -2.21,-1.94 -7.07,-0.08 -13.23,-0.14 -20.31,-0.16zm-21.56 -11.49l-0.11 0c-7.64,0.08 -15.28,0.2 -22.93,0.35 -1.65,0.04 -2.29,0.6 -2.29,1.97 0,2.2 0.02,4.39 0.04,6.58l2.72 1.21c3.71,-0.07 7.32,0.06 11.03,0 3.81,-0.06 7.69,0.06 11.49,0 1.75,-0.02 2.28,0.01 2.29,-1.45 0.01,-2.23 0.01,-4.46 0,-6.69 0,-1.39 -0.57,-1.94 -2.13,-1.97l-0.11 0z"/>
      <path id="Shape_23" fill="black" d="M732.95 109.77l-2.21 -0.05c3.62,0.08 7.23,0.17 10.85,0.26l0 11.36 0.21 0c0.13,1.15 0.76,1.49 2.42,1.5 3.44,0.04 6.88,0.07 10.32,0.11 0.71,0.01 1.42,0.02 2.13,0.03l0 0.84c-56.86,-0.25 -85.41,-0.25 -85.64,0l-11.37 0c-0.05,-0.38 -0.1,-0.76 -0.14,-1.14 2.92,-0.06 5.84,-0.12 8.75,-0.18 3.82,-0.07 7.64,-0.12 11.45,-0.2 1.57,-0.03 2.18,-0.58 2.19,-1.94 0.01,-2.39 0,-4.78 -0.02,-7.17 -0.02,-1.36 -0.64,-1.89 -2.22,-1.87 -7.27,0.1 -26.97,0.39 -34.24,0.55l-0.92 -1.38c-0.02,-0.11 17.98,-0.44 20.43,-0.5 1.82,-0.03 2.42,-0.57 2.41,-2.17 0,-2.3 -0.02,-4.61 -0.05,-6.92 -0.02,-1.43 -0.65,-1.98 -2.29,-1.95 -2.84,0.05 -3.83,0.11 -6.67,0.18 -0.02,-0.53 -0.03,-1.05 -0.04,-1.57 0.1,0 0.2,0 0.31,0 7.6,-0.16 13.36,-0.3 20.95,-0.42 1.67,-0.02 2.29,-0.57 2.29,-2 0.01,-2.31 0,-4.61 -0.01,-6.92 -0.01,-0.49 -0.06,-0.87 -0.19,-1.17l2.45 0c0,0.02 0,0.04 0,0.06 -0.02,2.51 -0.01,5.02 0.01,7.54 0.01,1.59 0.63,2.15 2.4,2.15 3.75,-0.01 7.51,-0.02 11.26,-0.02 3.85,0.01 7.71,0.03 11.55,0.04l1.9 -1.7 0 3.71 -1.59 -0.01c-2.9,0 -5.81,-0.01 -8.72,0.01 -1.59,0.01 -2.24,0.57 -2.25,1.94 -0.03,2.4 -0.02,4.79 -0.02,7.19 0.01,1.55 0.61,2.09 2.37,2.09 7.58,0 15.15,0.01 22.73,0.05 0.76,0 1.31,-0.09 1.69,-0.33l7.52 0zm-45.84 1.64c-1.54,0 -2.14,0.58 -2.14,2.05 -0.02,2.42 -0.01,3.93 0,6.35 0.01,1.54 0.6,2.08 2.24,2.09 3.51,0.01 7.01,0.01 10.52,0.02 3.59,0.02 7.18,0.05 10.77,0.06 1.53,0.01 2.14,-0.56 2.16,-2.02 0.03,-2.46 0.04,-4 0.04,-6.46l-2.1 -1.97c-7.16,-0.08 -14.32,-0.11 -21.49,-0.12zm29.11 -0.46c-1.71,0 -2.25,0.49 -2.26,2.03 -0.02,2.15 -0.04,4.29 -0.04,6.44 -0.01,1.5 0.55,1.98 2.29,1.99 3.46,0.01 6.92,0.02 10.38,0.03 3.6,0.03 7.19,0.06 10.78,0.08l2.2 -1.82c0.05,-2.22 0.07,-4.43 0.09,-6.65 0.01,-1.41 -0.57,-1.92 -2.21,-1.94 -7.08,-0.08 -14.15,-0.14 -21.23,-0.16zm-21.56 -11.49l-0.12 0c-7.63,0.08 -15.27,0.2 -22.92,0.35 -1.65,0.04 -2.29,0.6 -2.29,1.98 0,2.19 0.02,4.38 0.04,6.57l2.6 2.13c3.71,-0.07 7.42,-0.14 11.13,-0.2 3.81,-0.06 7.62,-0.1 11.43,-0.16 1.75,-0.02 2.36,-0.55 2.37,-2.01 0.01,-2.23 0.01,-4.46 0,-6.69 0,-1.39 -0.57,-1.94 -2.13,-1.97l-0.11 0z"/>
      <g id="Group-34">
       <circle id="Oval" fill="#C4C3C7" stroke="black" stroke-width="6.23" stroke-miterlimit="22.9256" cx="654.16" cy="159.22" r="34.48"/>
       <path id="Oval-Copy-3" fill="black" d="M678 203.04c18.85,-2.65 16.92,-24.92 14.27,-43.78 -2.65,-18.85 -19.83,-30.17 -38.68,-27.52 -18.86,2.65 -35.38,22.42 -32.73,41.27 2.65,18.85 38.28,32.68 57.14,30.03z"/>
       <g id="Group-26">
        <path id="Oval-Copy-18" fill="#C4C3C6" d="M654.45 192.76c-18.91,-0.42 -34.06,-15.37 -33.84,-33.39 0.21,-18.02 15.72,-32.29 34.64,-31.86 18.91,0.42 34.06,15.37 33.84,33.39 -0.22,18.02 -15.73,32.29 -34.64,31.86z"/>
        <path id="Path_24" fill="white" d="M620.61 161.5c0.27,17.42 15.51,31.21 34.04,30.8 18.53,-0.41 33.33,-14.86 33.06,-32.28 -0.02,-1.21 -0.11,-2.4 -0.27,-3.56 -0.01,17.2 -14.7,31.39 -33.06,31.79 -17.25,0.38 -31.65,-11.54 -33.78,-27.24 0,0.16 0,0.32 0.01,0.49z"/>
        <path id="Path-Copy-18" fill="white" d="M682.66 157.18c-0.23,-13.4 -13.18,-24.01 -28.92,-23.7 -15.74,0.32 -28.31,11.43 -28.08,24.84 0.02,0.92 0.1,1.84 0.23,2.73 0.01,-13.23 12.49,-24.14 28.08,-24.45 14.65,-0.3 26.88,8.88 28.69,20.96 0,-0.13 0,-0.26 0,-0.38z"/>
        <path id="Combined-Shape_25" fill="black" d="M654.45 130.81c14.06,0 25.87,9.46 29.05,22.21 -4.07,-11.37 -15.18,-19.53 -28.23,-19.53 -16.49,0 -29.84,13.02 -29.81,29.07 0,2.36 0.3,4.66 0.85,6.86 -1.08,-2.99 -1.66,-6.2 -1.67,-9.55 -0.02,-16.05 13.33,-29.06 29.81,-29.06z"/>
        <path id="Triangle-2" fill="white" d="M667.37 161.62l-20.3 11.63c-1.1,0.65 -2.46,-0.21 -3.07,-1.93 -0.14,-0.41 -0.23,-0.83 -0.26,-1.26l-0.61 -24.6c0.04,-1.83 1.37,-3.29 2.94,-3.25 0.36,0.01 0.72,0.1 1.05,0.27l21.35 12.97c0.99,0.73 1.14,2.69 0.38,4.38 -0.37,0.82 -0.9,1.47 -1.48,1.79z"/>
        <path id="Triangle-2-Copy" fill="black" d="M666.15 163.72l-19.25 10.92c-1.04,0.61 -2.34,-0.2 -2.91,-1.82 -0.13,-0.38 -0.21,-0.78 -0.24,-1.18l-0.62 -23.15c0.03,-1.73 1.27,-3.1 2.74,-3.06 0.34,0.01 0.67,0.09 0.98,0.25l20.25 12.23c0.95,0.69 1.12,2.53 0.43,4.12 -0.34,0.78 -0.83,1.39 -1.38,1.69z"/>
        <path id="Line-2" fill="white" d="M646.12 152.25l0 15.77c0,1.52 1.23,2.76 2.75,2.76 0.48,0 0.96,-0.13 1.37,-0.37l13.76 -7.88c1.32,-0.76 1.78,-2.44 1.02,-3.77 -0.24,-0.42 -0.59,-0.77 -1.02,-1.02l-13.76 -7.88c-1.32,-0.76 -3,-0.3 -3.76,1.02 -0.24,0.42 -0.36,0.89 -0.36,1.37z"/>
       </g>
      </g>
      <g>
       <path id="Path_26" fill="black" d="M845.44 137.62c-1.03,-1 -3.91,-1.72 -6.31,-1.17 -2.37,0.55 -4.79,1.84 -5.99,3.83 -1.14,1.24 -1.23,2.65 -0.28,4.02 -0.24,1.35 -0.35,2.47 -0.28,3.79 -0.32,1.12 0.54,1.84 1.17,2.49 0.71,0.72 0.69,1.33 0.34,2.1 -0.67,0.77 -1.31,0.16 -1.99,0.87l-0.6 0.35c-1.18,0.31 -2.92,0.18 -4.14,0.39 -3.23,0.56 -3.65,4.23 -5.44,6.28 -1.42,1.62 0.19,4.1 0.47,5.88 0.35,2.12 0.29,4.29 -0.17,6.4 -0.38,1.72 -1.03,3.42 -0.99,5.17 0.04,1.86 0.87,3.65 0.8,5.51 -0.15,3.5 -4.69,7.74 -2.27,11.17 0.32,0.45 0.78,0.84 0.96,1.37 0.12,0.51 0.11,1.05 -0.04,1.56 -0.64,3.07 -1.41,6.14 -1.57,9.27 -0.16,3.2 0.97,6.43 0.42,9.61 -0.03,0.16 -0.06,0.31 -0.09,0.47 -0.52,2.67 -1.46,5.3 -1.6,8.04 -0.13,2.33 6.69,8.61 15.97,11.93 9.27,3.33 19.6,0.89 19.96,0.94 1.12,0.17 0.75,1.03 1.31,-0.24 2.63,-5.84 1.53,-26.67 4.26,-42.87 2.46,-14.62 1.4,-29.03 -1.91,-34.78 -0.66,-2.3 -2.95,-3.28 -5.16,-4.16 -2.29,-0.89 -3.38,-1.95 -5.48,-3.18 -0.05,-0.99 -1.41,0.12 -1.18,-0.87l0.08 -0.08c0.94,-0.06 0.9,-0.8 1.1,-1.37 -0.39,-1.15 1.39,-3.86 1.55,-4.91 0.41,-2.48 -1.01,-6.06 -2.9,-7.81z"/>
       <path id="Path_27" fill="#C4C3C6" fill-rule="nonzero" d="M839.81 176.73c0.11,3.76 -0.78,7.08 -2.13,10.55 -3.24,-7.7 -5.81,-15.63 -7.18,-23.87 -0.26,-1.55 -0.47,-3.11 -0.65,-4.67 -0.08,-0.71 0.04,-1.67 0.77,-1.78 1,7.32 2.82,14.52 5.41,21.48 0.05,0.17 0.14,0.32 0.26,0.45 0.42,0.4 0.8,-0.01 0.66,-0.46 -1.9,-6 -3.12,-12.14 -4.34,-18.34 -0.2,-1.34 -0.3,-2.7 -0.3,-4.06 1.31,-0.72 3.3,-1.81 4.29,-1.17 0.3,3.34 1.4,6.66 1.7,10.06 0.03,0.69 0.14,1.38 0.33,2.05 0.1,0.29 0.22,0.57 0.37,0.84 0.23,2.98 0.71,5.94 0.81,8.92z"/>
       <path id="Path_28" fill="#C4C3C6" fill-rule="nonzero" d="M848.46 178.23c-2.17,-1.1 -3.57,-3.25 -5.29,-4.99 -0.63,-0.64 -1.68,-0.55 -0.81,0.38 0.61,0.65 1.26,1.27 1.9,1.88 1.24,1.2 2.5,2.37 3.75,3.56 0.15,0.11 0.27,0.26 0.35,0.43 0.08,0.23 0.11,0.48 0.07,0.72 -0.16,1.94 -0.14,3.89 0.04,5.83 0.1,1.02 0.25,2.1 -0.12,3.06 0.09,-0.25 -1.46,-2.05 -1.66,-2.35 -0.97,-1.39 -1.91,-2.8 -2.81,-4.24 -0.97,-1.58 -2.51,-3.13 -2.8,-5.03 -0.14,-1 0.06,-2.04 0.01,-3.03 -0.05,-1.05 -0.18,-2.1 -0.38,-3.13 -0.15,-0.62 -0.24,-1.25 -0.25,-1.89 -0.01,-0.11 0.02,-0.22 0.08,-0.31 0.18,-0.23 0.54,-0.08 0.78,0.09 1.97,1.35 4.1,2.45 6.34,3.29 0.43,0.16 0.91,0.35 1.08,0.78 0.06,0.21 0.08,0.43 0.06,0.64 -0.06,1.45 -0.18,2.89 -0.34,4.31z"/>
       <path id="Path_29" fill="#C4C3C6" fill-rule="nonzero" d="M825.44 162.14c-0.12,5.42 1.03,11.12 2.39,16.35 1.4,5.5 3.52,10.67 5.92,15.83 3.19,6.83 7.36,13.27 12.03,19.3 0.6,0.79 1.75,2.03 2.92,1.44 -0.16,0.08 -4.61,-6.34 -5.02,-6.94 -1.67,-2.37 -3.28,-4.79 -4.77,-7.28 -2.95,-4.89 -5.4,-10.03 -7.31,-15.36 -0.37,-1.09 -0.73,-2.19 -1.07,-3.29 -0.32,-1.06 -0.61,-2.12 -0.87,-3.18 -1.37,-5.57 -1.98,-11.27 -2.28,-16.98 -0.07,-1.22 0.18,-2.83 1.46,-3.04 -0.95,10.36 4.11,20.25 8.68,29.71 3.35,6.99 6.54,14.08 10.54,20.77 0.49,0.82 1.02,1.67 1.82,2.23 -1.3,-2.46 -2.6,-4.93 -3.92,-7.39 -1.36,-2.5 -2.67,-5.03 -3.95,-7.58 -1.39,-2.79 -2.71,-5.62 -3.95,-8.48 0.18,0.02 0.37,-0.01 0.53,-0.09 0.2,0.16 0.88,0.15 0.97,-0.05 0.99,-2.24 1.69,-4.59 2.07,-7 1.15,1.85 2.35,3.67 3.59,5.46 0.64,0.93 1.3,1.85 1.96,2.76 0.43,0.59 1.56,1.61 1.71,2.31 1.46,6 2.79,12.04 3.34,18.23 0.34,3.84 0.17,7.67 0.16,11.51 0,1.52 -0.08,3.03 -0.22,4.54 -1.62,-1.7 -3.21,-3.45 -4.71,-5.23 -5.55,-6.51 -10.62,-13.59 -15.64,-26.72 0.53,2.53 4.29,13.48 7.8,19.16 3.65,5.89 7.97,10.58 9.81,12.63 0.56,0.58 1.04,1.22 1.43,1.92 0.98,2.02 0.78,3.29 0.01,5.41 -6.63,-4.79 -11.73,-11.31 -15.37,-18.39 -3.64,-7.07 -5.91,-14.73 -7.45,-22.45 -1.98,-9.92 -2.86,-20.01 -2.61,-30.11z"/>
       <path id="Path_30" fill="white" fill-rule="nonzero" d="M828.57 163.23c0.29,5.25 0.87,10.49 2.16,15.61 0.24,0.98 0.51,1.95 0.82,2.92 0.31,1.02 0.65,2.03 1.02,3.03 1.8,4.9 4.12,9.63 6.91,14.12 1.41,2.29 2.93,4.51 4.52,6.7 0.88,1.21 1.91,2.04 2.33,3.52 0.47,1.71 1,3.2 2.09,4.68 -1.16,-1.59 -4.52,-6.1 -4.72,-6.38 -1.59,-2.19 -3.11,-4.41 -4.52,-6.7 -2.79,-4.49 -5.11,-9.22 -6.91,-14.12 -0.35,-1 -0.7,-2.02 -1.02,-3.03 -0.3,-0.97 -0.57,-1.94 -0.82,-2.92 -1.29,-5.12 -1.87,-10.37 -2.16,-15.61 -0.05,-0.65 0.05,-1.31 0.3,-1.92l0 0.1z"/>
       <path id="Path_31" fill="white" fill-rule="nonzero" d="M835.61 159.35c1.24,5.92 1.89,11.94 1.95,17.98 0.03,4.08 -0.25,1.21 -0.65,0.45 -0.1,-0.14 -0.18,-0.29 -0.26,-0.44 0,-0.04 -0.02,-0.07 -0.04,-0.1 -1.54,-5.28 -2.63,-10.62 -3.69,-16.01 -0.2,-1.33 -0.3,-2.67 -0.3,-4.01l0.38 -0.2c0.03,0.74 2.47,1.59 2.61,2.33z"/>
       <path id="Path_32" fill="white" fill-rule="nonzero" d="M825.31 163.79c0,-0.05 0,-0.11 0.02,-0.16 0,0.21 0.01,0.42 0.01,0.64 -0.26,3.88 0.1,7.8 0.52,11.67 1.1,10.22 2.58,20.5 6.11,30.19 3.54,9.7 9.33,18.86 17.81,25.1 0.48,0.7 0.86,0.68 0.48,2.3 -8.48,-6.24 -15.03,-15.77 -18.58,-25.47 -3.56,-9.69 -5.02,-19.97 -6.12,-30.2 -0.51,-4.67 -0.95,-9.42 -0.25,-14.07z"/>
       <path id="Shape_33" fill="white" fill-rule="nonzero" d="M834.69 143.56c0.09,-0.22 0.2,-0.43 0.33,-0.63 0.41,-0.68 0.73,-1.42 1.33,-1.97 0.12,-0.12 0.27,-0.22 0.42,-0.28 0.15,-0.05 0.3,-0.06 0.44,-0.11 0.21,-0.12 0.41,-0.25 0.58,-0.41 0.19,-0.16 0.46,-0.18 0.66,-0.04 0.1,-0.23 0.29,-0.41 0.52,-0.51 0.25,-0.03 0.51,-0.02 0.76,0.02 0.28,0 0.54,-0.31 0.79,0.06 0.04,0.08 0.1,0.16 0.17,0.23 0.08,0.04 0.18,0.07 0.28,0.07 0.56,0.08 0.93,0.7 1.5,0.75 0.12,-0.01 0.25,0.01 0.37,0.04 0.55,0.23 0.83,1.08 1,1.56 0.36,1.06 1.49,2.9 0.55,3.92 -0.14,0.16 -0.34,0.29 -0.38,0.49 -0.03,0.19 0.01,0.33 -0.06,0.49 -0.06,0.16 -0.24,0.23 -0.33,0.34 -0.12,0.22 -0.18,0.45 -0.19,0.7 -0.12,0.54 -0.6,0.92 -0.95,1.35 -0.28,0.36 -0.47,0.78 -0.72,1.15 -1.21,1.79 -4.54,1.33 -5.77,-0.23 -0.39,-0.42 -0.56,-1 -0.45,-1.55 -0.06,-0.08 -0.1,-0.18 -0.1,-0.29 0,-0.06 0,-0.13 0.01,-0.19 0,-0.04 0,-0.09 0,-0.06 -0.01,-0.04 -0.03,-0.08 -0.05,-0.12 -0.14,-0.23 -0.07,-0.53 0.17,-0.67 0.17,-0.1 0.38,-0.09 0.54,0.01 0.38,0.26 2.21,-0.23 2.68,-0.26 1.11,-0.08 2.23,-0.08 3.34,0 0.31,-0.47 0.57,-0.96 0.78,-1.48 0.04,-0.1 0.06,-0.21 0.05,-0.31 -0.05,-0.2 -0.28,-0.27 -0.44,-0.39 -0.6,-0.43 -0.33,-1.27 -1.06,-1.6 -0.34,-0.15 -0.75,-0.18 -1.11,-0.31 -0.45,-0.19 -0.88,-0.57 -1.35,-0.47 -0.41,0.1 -0.73,0.55 -1.15,0.46 -0.15,-0.03 -0.3,-0.13 -0.44,-0.08 -0.14,0.06 -0.18,0.32 -0.29,0.48 -0.15,0.23 -0.52,0.25 -0.71,0.47 -0.19,0.22 -0.13,0.46 -0.24,0.67 -0.11,0.17 -0.29,0.29 -0.49,0.34 -0.2,0.04 -0.42,0 -0.59,-0.11 -0.33,-0.25 -0.51,-0.65 -0.46,-1.06 0,-0.16 0.02,-0.32 0.06,-0.47l0 0zm4.93 5.16c-0.79,-0.06 -1.83,-0.36 -2.56,0.15 -0.08,0.06 -0.15,0.12 -0.22,0.18 -0.01,0.05 -0.02,0.1 -0.05,0.15 0.38,0.15 0.77,0.29 1.16,0.41 1.15,0.28 2.36,-0.17 2.99,-1.09 -0.43,0.12 -0.87,0.18 -1.32,0.2z"/>
       <path id="Path_34" fill="white" fill-rule="nonzero" d="M853.32 188.54c0.85,1.22 0.69,3.91 0.8,5.36 0.04,0.66 0.52,3.45 -0.21,3.88 -0.41,0.25 -1.42,-3.29 -1.49,-3.56 -0.26,-0.88 -0.65,-1.79 -0.49,-2.66 0.18,-1 0.64,-2.35 1.39,-3.02z"/>
       <path id="Path_35" fill="white" fill-rule="nonzero" d="M822.36 190.13c0.18,-0.64 0.28,-1.34 0.74,-1.82 0.53,-0.57 1.2,-1.02 1.96,-1.31 0.04,-0.06 0.08,-0.11 0.12,-0.16 0.04,0.03 0.08,0.06 0.11,0.1l0 0c0,0.01 0,0.02 0,0.03 0.43,0.49 0.4,1.72 0.47,2.37 0.04,0.33 0.4,1.6 -0.07,2.06 -0.26,0.25 -0.97,-1.25 -1.02,-1.36 -0.1,-0.21 -0.23,-0.42 -0.31,-0.65 -0.26,0.43 -0.52,0.83 -0.7,1.15 -0.24,0.42 -1.04,2.32 -1.73,2.33 -0.37,0.01 0.37,-2.55 0.43,-2.74z"/>
       <path id="Path_36" fill="white" fill-rule="nonzero" d="M840.87 154.74c-0.05,-0.14 -0.06,-0.3 -0.03,-0.44 0.05,-0.15 0.15,-0.28 0.27,-0.38l0.99 -0.97c-0.18,2.04 1.02,3.42 2.88,3.91 1.93,0.51 3.94,1.09 5.35,2.47 1.18,1.14 3.05,2.16 3.41,3.73 0.19,0.88 1.51,5.45 1.64,9.39 0.19,5.96 -0.87,11.89 -0.97,12.62 -0.14,1.04 -0.91,2.14 -1.76,0.08 -0.67,-1.62 -0.27,-1.94 -0.23,-3.58 0.06,-2.1 0.05,-4.2 -0.04,-6.3 -0.21,-4.28 -0.2,-10.24 -3.67,-13.34 0.3,1.03 0.47,2.09 0.49,3.16 0.05,1.49 -0.01,3 -0.11,4.5 0,0.21 -0.06,0.41 -0.18,0.58 -0.15,0.19 -0.39,0.3 -0.64,0.3 -0.48,0 -0.96,-0.12 -1.39,-0.37 -0.42,-0.24 -0.71,-0.81 -1.03,-1.2 -0.71,-0.84 -1.38,-1.72 -2.01,-2.63 -1.09,-1.61 -4.39,-6.03 -2.12,-7.8 0.29,-0.2 0.51,-0.48 0.64,-0.8 0.32,-0.97 -1.16,-1.73 -1.49,-2.93z"/>
      </g>
      <g id="Group-62">
       <g id="Group-3">
        <path id="Path-2" fill="#0D0D0D" stroke="black" stroke-width="2.67" stroke-miterlimit="22.9256" d="M802.08 136.92c-2.87,0.24 -2.85,0.21 -3.78,2.91 -0.47,1.37 -0.68,2.63 0.11,4.04 0.79,1.41 1.51,2.91 2.02,4.63 -2.71,-0.04 -5.33,-0.07 -7.94,-0.13 -3.07,-0.07 -6.14,-0.18 -9.22,-0.23 -0.52,-0.01 -0.77,-0.13 -1,-0.64 -1.42,-3.22 -2.41,-6.6 -3.7,-9.87 -0.23,-0.58 -0.51,-0.88 -1.11,-0.85 -0.67,0.02 -1.35,0.13 -2.01,0.08 -1.34,-0.09 -2.02,0.54 -2.26,1.8 -0.08,0.4 -0.25,0.78 -0.36,1.18 -0.55,1.93 -0.73,3.74 0.14,5.76 1.66,3.84 3.03,7.8 4.39,11.75 1.62,4.71 3.69,9.25 5.14,14.02 0.92,3.01 1.99,5.96 2.98,8.95 0.19,0.56 0.33,1.14 0.48,1.72 0.29,0.8 0.58,1.6 0.86,2.41 0.69,2.04 1.38,4.08 2.07,6.12 0.68,2.13 1.25,4.31 2.05,6.4 2.79,7.27 4.89,14.76 7.11,22.21 1.85,6.2 3.52,12.45 5.42,18.63 0.45,1.44 0.7,1.51 2.21,1.34 1.78,-0.21 2.9,-1.06 3.28,-2.83 0.02,-0.07 0.03,-0.15 0.07,-0.21 1.21,-1.82 0.84,-3.69 0.37,-5.66 -0.68,-2.85 -1.64,-5.6 -2.54,-8.37 -0.2,-0.62 -0.11,-0.85 0.59,-0.91 5.2,-0.37 10.33,-1.23 15.46,-2.08 2.2,-0.36 2.23,-0.33 2.96,1.86 1.21,3.66 2.35,7.34 3.28,11.07 0.63,2.52 1.92,3.13 4.33,2 0.34,-0.16 0.5,-0.44 0.65,-0.74 0.71,-1.45 1.26,-2.96 1.81,-4.48 0.26,-0.73 0.18,-1.44 -0.05,-2.19 -2.71,-8.67 -5.4,-17.36 -8.08,-26.04 -0.13,-0.39 -0.19,-0.8 -0.29,-1.19 -0.13,-0.48 -0.26,-0.96 -0.39,-1.44 -0.43,-0.68 -0.57,-1.45 -0.7,-2.23 -0.51,-1.28 -1.02,-2.55 -1.53,-3.83 -0.64,-1.61 -1.22,-3.25 -1.51,-4.97 -0.37,-0.69 -0.57,-1.45 -0.74,-2.21 -0.88,-2.64 -1.65,-5.32 -2.74,-7.89 -1.7,-4 -3.17,-8.08 -4.67,-12.16 -1.58,-4.29 -3.64,-8.37 -5.31,-12.63 -1.85,-4.74 -4.2,-9.26 -6.07,-13.99 -0.34,-0.86 -0.81,-1.19 -1.78,-1.11zm18.58 65.31c0.79,2.77 1.59,5.53 2.42,8.29 0.2,0.63 0,0.74 -0.59,0.79 -5.87,0.48 -11.61,1.76 -17.43,2.51 -0.5,0.07 -0.71,0.03 -0.87,-0.49 -0.82,-2.72 -1.7,-5.43 -2.55,-8.14 -0.07,-0.22 -0.12,-0.44 -0.19,-0.72 0.06,-0.31 0.39,-0.22 0.6,-0.27 5.91,-1.26 11.95,-1.53 17.92,-2.3 0.29,-0.04 0.56,-0.11 0.69,0.33zm-5.45 -16.17c0.9,2.57 1.99,5.08 2.62,7.75 0.15,0.69 -0.03,0.82 -0.67,0.88 -2.01,0.19 -4.02,0.41 -6.02,0.7 -3.63,0.53 -7.22,1.27 -10.89,1.5 -0.41,0.02 -0.88,0.26 -1.08,-0.41 -0.81,-2.79 -1.64,-5.58 -2.48,-8.36 -0.19,-0.63 -0.14,-0.92 0.65,-0.97 2.9,-0.18 5.81,-0.43 8.71,-0.68 2.83,-0.25 5.65,-0.54 8.68,-0.84 0.14,-0.02 0.35,0.06 0.48,0.43zm-5.95 -15.58c1,2.29 2.01,4.58 3.03,6.87 0.24,0.52 0.13,0.73 -0.44,0.77 -0.97,0.08 -1.94,0.16 -2.9,0.3 -4.78,0.7 -9.62,0.64 -14.42,1.14 -0.5,0.05 -0.8,-0.04 -1.01,-0.59 -1.01,-2.61 -1.76,-5.3 -2.64,-7.99 0.26,-0.05 0.44,-0.1 0.63,-0.12 5.66,-0.5 11.36,-0.2 17.02,-0.74 0.33,-0.03 0.58,0.01 0.73,0.36zm-5.8 -14.27c0.82,1.97 1.66,3.92 2.51,5.88 0.21,0.48 0.12,0.65 -0.44,0.65 -1.27,-0.02 -2.54,0.01 -3.82,0.06 -4.15,0.16 -8.29,0.57 -12.45,0.54 -0.42,0 -0.98,0.29 -1.23,-0.41 -0.87,-2.42 -1.76,-4.84 -2.69,-7.39 0.74,-0.03 1.4,-0.07 2.07,-0.09 4.94,-0.11 9.88,0.56 14.82,0.08 0.59,-0.06 0.99,0.09 1.23,0.68z"/>
       </g>
       <g>
        <path id="Fill-4" fill="white" d="M805.29 237.06l1.45 -3.4c-7.86,-25.74 -14.31,-46.01 -19.32,-60.79 -5.02,-14.79 -9.15,-25.75 -12.39,-32.9l-1.14 3.73 15.51 42.88 15.89 50.48zm0 0l0 0 0 0z"/>
       </g>
       <path id="Fill-12" fill="#C4C3C7" d="M801.75 139c0.79,2.03 1.53,4.06 2.36,6.05 2.23,5.35 4.52,10.68 6.76,16.02 4.4,10.52 8.36,21.21 11.92,32.04 1.73,5.26 3.04,10.63 4.64,15.91 1.88,6.19 3.83,12.35 5.75,18.52 0.23,0.72 1.27,1.07 1.87,0.6 0.34,-0.26 0.05,-0.55 -0.02,-0.8 -1,-3.21 -2.04,-6.41 -3.02,-9.63 -1.9,-6.21 -3.72,-12.46 -5.67,-18.66 -1.17,-3.74 -2.6,-7.4 -3.79,-11.13 -3.43,-10.73 -7.55,-21.19 -11.99,-31.54 -2.22,-5.18 -4.21,-10.47 -6.82,-15.49 -0.15,-0.3 -0.25,-0.63 -0.35,-0.94 -0.34,-1.06 -0.34,-1.06 -1.64,-0.95z"/>
       <path id="Fill-14" fill="#C4C3C7" d="M776.85 138.55c-0.85,-0.16 -1.09,0 -0.72,0.96 3.13,8.29 6.21,16.61 9.45,24.87 2.7,6.91 5.15,13.93 7.13,21.09 1.89,6.83 4.58,13.38 6.61,20.15 1.42,4.72 2.61,9.49 4.18,14.17 1.42,4.24 2.68,8.54 3.58,12.92 0.17,0.85 0.61,0.62 1.11,0.59 0.77,-0.03 0.41,-0.51 0.35,-0.87 -0.66,-3.99 -2.13,-7.76 -3.34,-11.6 -3.08,-9.66 -5.76,-19.45 -8.8,-29.12 -4.46,-14.23 -9.42,-28.28 -14.79,-42.19 -1.3,-3.38 -2.42,-6.82 -3.89,-10.13 -0.18,-0.4 -0.22,-0.92 -0.87,-0.84z"/>
       <path id="Fill-28" fill="#F3F3F3" d="M817.28 181.33c-0.56,-1.66 -0.56,-1.64 -2.29,-1.59 -4.1,0.13 -8.14,0.87 -12.26,0.9 -2.74,0.02 -5.44,0.34 -8.15,0.42 0.08,1.11 0.6,1.45 1.78,1.41 5.17,-0.17 10.33,-0.49 15.47,-0.96 1.76,-0.16 3.56,-0.13 5.45,-0.18z"/>
       <path id="Fill-30" fill="#F3F3F3" d="M826.73 212.08c-4.31,0.37 -8.77,0.77 -13.17,1.64 -2.46,0.49 -4.95,0.68 -7.42,1.12 -0.31,0.05 -1.04,-0.23 -0.9,0.62 0.11,0.71 0.55,0.6 1.07,0.55 6.68,-0.62 13.3,-1.85 20,-2.36 0.22,-0.02 0.46,0 0.68,-0.06 0.29,-0.08 0.92,0.23 0.74,-0.45 -0.11,-0.43 0,-1.17 -1,-1.06z"/>
       <path id="Fill-32" fill="#F3F3F3" d="M821.63 195.73c-3.14,0.34 -6.28,0.62 -9.41,1.03 -3.97,0.52 -7.89,1.36 -11.89,1.62 -0.22,0.01 -0.83,-0.25 -0.68,0.42 0.1,0.46 0.11,0.96 0.9,0.85 4.16,-0.55 8.34,-0.98 12.49,-1.57 2.9,-0.42 5.84,-0.35 8.73,-0.84 0.29,-0.05 0.93,0.25 0.81,-0.42 -0.09,-0.44 -0.11,-1.15 -0.95,-1.09z"/>
       <path id="Fill-34" fill="#F3F3F3" d="M810.78 165.48c-0.1,-0.98 -0.59,-1.22 -1.53,-1.17 -6.57,0.32 -13.14,0.56 -19.7,0.84 -0.34,0.01 -0.68,0.04 -1.01,0.07 0.01,1.07 0.42,1.44 1.53,1.37 6.68,-0.38 13.36,-0.67 20.04,-1 0.23,-0.01 0.45,-0.07 0.67,-0.11z"/>
       <path id="Fill-36" fill="#F3F3F3" d="M831.05 231.57c0.64,-1.63 1.15,-3.09 0.59,-4.87 -1.07,-3.36 -1.93,-6.81 -2.9,-10.31 -0.87,1.16 -1.32,2.17 -0.84,3.72 1.16,3.73 2.09,7.56 3.15,11.46z"/>
       <path id="Fill-38" fill="#F3F3F3" d="M785.1 150.67c3.56,0.46 7.24,0.29 10.92,0.3 2.72,0 5.44,0.34 8.16,0.21 0.34,-0.02 0.94,0.2 0.96,-0.29 0.01,-0.59 -0.56,-0.7 -1.13,-0.69 -4.66,0.05 -9.32,-0.14 -13.97,-0.32 -1.72,-0.07 -3.43,-0.14 -5.14,-0.17 -0.34,-0.01 -0.94,-0.31 -0.98,0.21 -0.03,0.5 0.38,0.88 1.18,0.75z"/>
       <path id="Fill-40" fill="#F3F3F3" d="M821.79 194.15c-1.17,-3.84 -2.25,-7.37 -3.36,-11.01 -0.81,1.13 -1.26,2.07 -0.76,3.5 0.77,2.22 1.6,4.42 2.07,6.76 0.27,1.28 1.25,0.28 2.05,0.75z"/>
       <path id="Fill-42" fill="#F3F3F3" d="M805.71 152.74c-0.7,1.27 -1.32,2.3 -0.53,3.82 0.9,1.74 1.42,3.71 2.11,5.58 0.23,0.61 1.43,0.98 1.9,0.6 0.26,-0.21 0.07,-0.42 0.01,-0.61 -1.15,-3.1 -2.31,-6.2 -3.49,-9.39z"/>
       <path id="Fill-44" fill="#F3F3F3" d="M812.3 167.71c-1.08,1.48 -1.26,2.79 -0.41,4.4 0.92,1.73 1.57,3.64 2.21,5.52 0.33,0.98 1,0.55 1.45,0.45 0.54,-0.11 0.1,-0.6 0.01,-0.88 -1.06,-3.14 -2.15,-6.26 -3.26,-9.49z"/>
       <path id="Fill-46" fill="#F3F3F3" d="M822.97 199.54c-0.95,1.43 -0.89,2.81 -0.33,4.39 0.73,2.04 1.24,4.18 1.71,6.31 0.23,1.04 0.88,0.68 1.35,0.59 0.74,-0.13 0.18,-0.65 0.09,-0.92 -1.21,-3.36 -1.69,-6.93 -2.82,-10.37z"/>
       <path id="Fill-48" fill="#F3F3F3" d="M803.84 148.56c-1.4,-2.87 -2.2,-6 -3.48,-8.97 -0.79,1.56 -0.95,3 -0.13,4.51 0.56,1.04 1.04,2.15 1.36,3.29 0.34,1.22 0.94,1.66 2.25,1.17z"/>
       <path id="Fill-50" fill="#F3F3F3" d="M834.88 229.53c-1.88,0.16 -2.44,0.96 -2.85,3.78 2.21,-0.46 1.76,-2.48 2.85,-3.78z"/>
       <path id="Fill-52" fill="#F3F3F3" d="M808.27 234.55c-1.62,0.12 -1.62,0.12 -2.21,2.48 1.39,-0.03 1.41,-0.05 2.21,-2.48z"/>
      </g>
      <g id="Group-45">
       <g id="statue">
        <g id="Group-25-Copy">
         <path id="Shape_37" fill="white" fill-rule="nonzero" d="M556.75 111.94c-0.09,0.01 0.15,17.76 0.53,39.8l0.01 0.67c0.12,6.57 0.23,12.78 0.34,18.26 1.99,11.78 3.8,11.26 4.52,-7.76 0.9,-23.53 2.4,16.96 3.73,14.58l-1.02 -65.69 -8.11 0.14zm8.68 -0.05l0.58 65.27c0.82,-1.12 1.69,-0.75 2.58,-0.9l-0.96 -64.41 -2.2 0.04zm2.76 0l0.57 64.35c0.63,-0.44 1.27,-1.42 1.91,-3.65 0.11,-0.4 0.22,-0.83 0.33,-1.29 -0.15,-7.08 -0.56,-59.45 -0.61,-59.45l-2.2 0.04z"/>
         <path id="Path_38" fill="black" d="M533.41 172.51c-2.2,-2.19 -10.88,-2.6 -13.48,1.79 -1.23,1.37 -1.16,7.58 -1.09,9.03 -0.34,1.23 1.13,3.12 1.8,3.83 0.77,0.8 0.76,1.47 0.37,2.31 -0.48,0.57 -0.86,1.02 -1.14,1.35 -1.29,0.34 -1.69,0.78 -3.01,1.01 -3.49,0.61 -5.09,3.48 -7.02,5.74 -1.52,1.77 -0.36,3.92 -0.06,5.88 0.38,2.34 0.32,4.72 -0.18,7.04 -0.41,1.89 -0.17,32.47 -1.16,35.14 -2.5,6.8 -7.2,18.73 -4.32,21.14 2.26,1.89 6.22,1.8 12.87,1.22 2.44,-0.21 10.78,-8.32 13.47,-7.33 2.35,0.86 9.48,4.59 12.25,4.89 9.06,0.98 16.36,-5.14 17.77,-7.95 1.3,-2.58 0.6,-3.53 -1.47,-4.61 -0.87,-0.46 -2.96,0.7 -3.68,-0.92 -1.16,-2.61 1.7,0.77 2.3,-3.68 0.66,-4.91 0.46,-21.6 -0.21,-26.24 -0.33,-2.26 -13.7,-4.61 -13.48,-6.73 0.24,-2.23 -0.19,-1.66 0.05,-3.2 0.12,-0.76 3.51,1.93 5.29,3.09 1.63,1.06 3.08,2.37 5.74,-0.88 2.01,-2.46 7.48,-5.77 10.59,-10.15 1.59,-2.24 5.58,-3.33 6.27,-5.07 0.62,-1.59 -3.86,-5.8 -4.14,-6.44 -0.56,-1.3 -5.21,1.72 -5.97,2.76 -0.76,1.04 -1.48,3.06 -1.9,3.46 -1.1,1.04 -4.04,2.8 -8.82,5.29 -4.35,-4.01 -6.66,-6.26 -6.94,-6.75 -0.71,-2.53 -3.19,-3.61 -5.57,-4.57 -2.46,-0.99 -3.2,-2.16 -5.47,-3.5 -0.05,-1.1 1.27,-1.66 1.52,-2.75l0.09 -0.09c1.01,-0.06 0.97,-0.87 1.18,-1.51 -0.42,-1.26 0.92,-1.91 1.09,-3.06 0.44,-2.73 -1.5,-7.62 -3.54,-9.54z"/>
         <polygon id="Path_39" fill="#C4C3C6" fill-rule="nonzero" points="515.04,219.94 516.02,241.99 520.42,238.51 "/>
         <path id="Path-Copy-22" fill="white" d="M527.39 189.3c-1.27,-2.04 -2.09,-3.96 -2.47,-5.76 -0.06,1.29 -0.04,2.42 0.06,3.39 -0.82,-1.2 -1.46,-3.11 -1.69,-4.08 -0.06,0.79 -0.19,1.05 -0.08,2.32 -0.52,-1.02 -0.86,-2.22 -0.95,-2.65 -0.33,0.79 -0.22,0.87 -0.38,1.48 -0.31,-2.83 0.73,-4.9 2.94,-6.19 0.52,-0.3 1.67,-0.97 2.7,-1.61 0.07,-0.04 -3.67,2.91 -0.13,13.1z"/>
         <path id="Shape_40" fill="#C4C3C6" fill-rule="nonzero" d="M519.34 195.19c0.08,1.58 3.35,17.35 10.71,35.73 -8.74,-18.38 -11.49,-32.17 -11.78,-35.92 -0.63,0.07 -0.83,1.28 -0.81,2.12 0.18,7.14 5.83,25.2 10.18,33.9 0.6,1.35 1.54,3.37 2.82,6.04 3.92,0.92 5.89,1.37 5.9,1.36 2.69,-1.58 5.49,-2.93 8.32,-4.27 1,-0.47 2.38,-0.01 2.38,1.37 0,1.54 -0.05,10.16 0,12.41 1.4,0.5 2.35,-1.66 3.09,-1.16 2.24,1.52 3.74,1.32 3.68,0.61 -0.08,-0.82 1.5,-12.32 1.5,-19.21 0,-6.9 -5.52,-8.28 -9.65,-5.52 -0.79,0.52 -7.85,4.59 -12.13,6.28 -2.89,1.11 -0.39,-0.69 -0.31,-0.79 0.02,-0.01 0.04,-0.04 0.06,-0.06 0.37,-0.32 0.93,-0.78 1.68,-1.39 -4.42,-7.88 -7.15,-12.65 -8.19,-14.32 1.42,1.55 10.25,12.72 10.31,12.68 0.57,-4.14 0.79,-6.25 0.66,-6.34 -1.11,-0.88 -4.92,-4.27 -11.44,-10.19l10.81 8.05 0.39 -5.5c-3.91,-1.84 -7.01,-4.11 -9.31,-6.81 -2.3,-2.7 -4.14,-6.22 -5.52,-10.57 -2.14,0.92 -3.26,1.42 -3.35,1.5zm-3.05 0.36c-1.38,0.23 -1.65,2 -1.58,3.34 0.33,6.27 0.99,12.55 2.46,18.67 0.29,1.17 0.6,2.34 0.94,3.5 0.36,1.21 0.76,2.42 1.16,3.62 1.09,3.12 3.31,7.96 6.64,14.52 1.27,0.45 1.88,-0.31 1.84,-2.3 -0.03,-1.46 -12.48,-29.96 -11.46,-41.35z"/>
         <path id="Path_41" fill="white" fill-rule="nonzero" d="M513.96 199.21c0.46,18.38 8.56,34.61 11.49,39.53 0.85,1.44 1.57,0.13 0.31,-1.99 -2.92,-4.92 -11.8,-30.19 -10.76,-40.16 -0.73,1.27 -1.08,2.14 -1.04,2.62z"/>
         <path id="Path_42" fill="white" fill-rule="nonzero" d="M522.66 194.61l-2.89 1.16c0.07,0.46 0.14,0.91 0.23,1.36 1.37,5.85 5.9,21.88 5.72,17.43 -0.3,-6.61 -1.25,-13.16 -2.84,-19.6 -0.02,-0.11 -0.1,-0.23 -0.22,-0.35z"/>
         <polygon id="Path-Copy-12" fill="white" fill-rule="nonzero" points="537.52,219.94 537.63,218.73 526.83,209.32 "/>
         <path id="Path-Copy-23" fill="white" fill-rule="nonzero" d="M550.53 226.88c-2.05,0.81 -6.82,1.72 -14.32,2.72 6.76,-3.64 11.14,-5.65 13.14,-6.03 3.01,-0.57 3.68,2.3 1.18,3.31z"/>
         <g id="Group-44">
          <path id="Path-Copy-27" fill="#C4C3C6" fill-rule="nonzero" d="M529.13 252.53l-4.01 -10.87 4.41 -1.58 5.58 1.42c0,3.37 -0.31,5.82 -0.92,7.35 -0.62,1.53 -2.3,2.76 -5.06,3.68z"/>
         </g>
         <polygon id="Path-Copy-24" fill="white" fill-rule="nonzero" points="523.61,246.09 525.72,251.94 517.55,257.07 "/>
         <polygon id="Path-Copy-29_43" fill="white" fill-rule="nonzero" points="548.21,244.01 553.4,242.97 553.23,234.5 "/>
         <path id="Path_44" fill="white" fill-rule="nonzero" d="M556.42 257.61c-3.8,1.76 -6.55,2.82 -8.25,3.18 -2.55,0.54 -2.25,0.8 -6.01,-0.8 -0.63,-0.27 -0.74,1.59 1.51,2.39 1.5,0.54 3,0.54 4.5,0.01 3.58,-0.96 6.24,-1.96 7.98,-2.98 2.34,-1.39 3.11,-1.59 2.52,-4.18 0,0 -0.75,0.79 -2.25,2.38z"/>
         <path id="Path_45" fill="white" fill-rule="nonzero" d="M547.76 251.34c-0.4,0.25 -1.06,0.87 -0.65,3.13 0.39,2.18 0.44,4.24 -0.11,4.35 -1.82,0.36 -1.31,1.09 -3.99,0.03 -0.45,-0.18 -0.53,1.07 1.08,1.6 1.07,0.35 2.14,0.35 3.21,0 2.56,-0.65 4.46,-1.31 5.71,-2 1.11,-0.61 1.17,-1.01 0.19,-1.19 -1.16,0.5 -2.88,-1.12 -2.87,-1.27 0.08,-0.83 0.42,-1.57 -0.34,-2.8 -0.12,-0.2 -0.32,-0.56 -0.47,-0.99 -0.91,-0.74 -1.49,-1.03 -1.76,-0.86z"/>
         <path id="Shape_46" fill="white" fill-rule="nonzero" d="M529.13 190.93c-0.46,0.92 -1.32,6.64 0.46,9.66 2.25,3.82 8.38,6.82 8.39,6.7 0,-0.13 -0.12,-2.77 -0.12,-4.41 0,-1.22 0.62,-1.37 1.84,-0.46l9.2 7.82 2.75 2.3c1.08,-0.92 2.46,-1.99 4.14,-3.22 2.52,-1.84 3.68,-2.76 5.98,-4.6 2.29,-1.84 0.46,-5.05 -2.3,-3.21 -2.76,1.83 -3.85,2.51 -9.31,5.42 -4.58,-4.63 -8.35,-8.75 -11.84,-11.4 -3.48,-2.65 -7.35,-4.14 -9.19,-4.6zm-7.24 -10.96c0,3.59 -0.57,0.72 1.84,3.67 0.85,1.04 1.83,1.83 3.06,3.67 0.61,-1.84 0.9,-1.96 1.84,-3.67 -0.73,2.76 0.18,1.94 -0.88,3.83 0.86,-1.18 1.35,-1.35 2.58,-3.59 -0.69,2.45 -1.35,4.33 -1.62,4.65 0.74,-0.51 0.57,-0.35 1.65,-1.63 -0.41,0.94 -0.9,1.82 -1.46,2.64 3.49,-3.85 5.24,-6.64 5.24,-8.35 0,-4.21 -2.2,-7.33 -6.43,-7.33 -4.23,0 -5.82,1.89 -5.82,6.11z"/>
         <g id="paint-37">
          <path id="Path_47" fill="black" stroke="#111111" stroke-width="0.62" stroke-linecap="round" stroke-linejoin="round" stroke-miterlimit="22.9256" d="M573.05 174.38l0.22 12.51c0.03,1.72 -1.36,3.15 -3.1,3.18l-3.14 0.05 0.1 5.47c0.02,1.29 -1.02,2.36 -2.33,2.39 -1.31,0.02 -2.39,-1.01 -2.41,-2.31l-0.1 -5.47 -2.81 0.05c-1.75,0.03 -3.18,-1.34 -3.22,-3.07l-0.21 -12.5 17 -0.3z"/>
          <path id="Path_48" fill="#C4C3C7" fill-rule="nonzero" d="M571.66 182.68l-13.93 0.25c-0.09,0 -0.15,0.62 -0.14,1.38 0.02,0.76 0.1,1.38 0.19,1.38l13.93 -0.25c0.08,0 0.14,-0.62 0.13,-1.38 -0.01,-0.76 -0.09,-1.38 -0.18,-1.38z"/>
          <path id="Path-Copy-7" fill="#C4C3C7" fill-rule="nonzero" d="M566.31 196.16l-0.16 -8.91c0,-0.06 -0.62,-0.09 -1.38,-0.08 -0.76,0.02 -1.38,0.07 -1.38,0.13 0.99,4.03 1.5,6.81 1.53,8.33 0.04,2.28 1.39,0.58 1.39,0.53z"/>
          <path id="Path-Copy-8" fill="white" fill-rule="nonzero" d="M566.08 196.16l-0.1 -5.57c0,-0.01 -0.83,0.61 -1.01,1.23 -0.39,1.3 -0.29,3.27 -0.27,4.13 0.02,1.27 1.38,0.24 1.38,0.21z"/>
          <path id="Path_49" fill="#C4C3C7" fill-rule="nonzero" d="M569.48 175.83l0.07 3.77 -1.19 -3.75 -2.05 0.03 0.04 1.89 -0.59 -1.88 -8.15 0.14c-0.09,0.01 -0.14,1.34 -0.11,2.99 0.03,1.65 0.13,2.99 0.21,2.99l13.93 -0.24c0.09,-0.01 0.14,-1.29 0.11,-2.89l0 -0.11c-0.03,-1.65 -0.12,-2.98 -0.21,-2.98l-2.06 0.04z"/>
          <path id="Combined-Shape_50" fill="white" fill-rule="nonzero" d="M557.61 176.03c-0.09,0 -0.13,1.25 -0.11,2.83l0 0.24c0.01,0.55 0.03,1.07 0.05,1.52 1.73,0.73 3.43,0.6 4.42,-0.79 1.36,-1.91 2.75,-2.46 4.22,-2.62l-0.4 -1.32 -8.18 0.14zm8.74 -0.15l0.02 1.31c0.78,-0.08 1.59,-0.06 2.42,-0.09l-0.39 -1.25 -2.05 0.03zm3.18 -0.05l0.02 1.22c0.51,-0.05 1.04,-0.13 1.58,-0.28 0.2,-0.06 0.4,-0.13 0.58,-0.2 -0.04,-0.49 -0.08,-0.78 -0.12,-0.78l-2.06 0.04z"/>
         </g>
         <path id="Path_51" fill="white" fill-rule="nonzero" d="M566.18 194.63c-1.02,0.18 -1.58,0.75 -1.94,1.04 -0.25,0.2 -0.62,1 -1.12,2.4 0.16,0 0.1,0.07 -0.1,0.18 0.06,1.38 0.55,2.68 1.39,3.67 1.89,-0.66 3.52,-1.13 4.45,-1.81 1.03,-0.74 0.88,-1.73 -0.01,-1.8 -0.59,0.21 -0.02,-0.83 -0.03,-0.99 -0.01,-0.53 -0.45,-0.3 -1,-0.36 -0.31,-0.03 0.58,-0.81 0.18,-0.99 -0.23,-0.11 -0.61,-0.19 -0.8,-0.38 -0.15,-0.15 0.72,-0.58 0.37,-0.8 -0.35,-0.22 -0.82,-0.26 -1.39,-0.16z"/>
        </g>
       </g>
       <path id="Path_52" fill="white" d="M516.32 249.63c0.77,0.83 0.55,1.99 -0.18,4.71 -0.36,1.35 -1.1,2.09 -1.57,3.81 -0.46,1.73 0.45,2.38 0.09,3.72 -0.73,2.73 -2.91,4.51 -4.87,3.99 -1.96,-0.53 -2.96,-3.16 -2.23,-5.88 0.21,-0.8 2.6,-7.05 4.3,-9.95 1.18,-2 3.68,-1.22 4.46,-0.4z"/>
       <g id="Group-42-Copy">
        <g id="Group-43">
         <path id="Path_53" fill="black" d="M512.59 260.07c-1.98,-0.72 -3.79,-1.48 -5.23,-2.2 1.62,0.37 3.61,0.96 5.72,1.73 1.99,0.71 3.79,1.48 5.23,2.19 -1.62,-0.37 -3.61,-0.96 -5.72,-1.72z"/>
         <path id="Path-Copy-19" fill="black" d="M511.18 256.76c-1.77,-0.64 -3.38,-1.32 -4.67,-1.96 1.45,0.34 3.22,0.87 5.11,1.55 1.77,0.64 3.38,1.32 4.67,1.95 -1.45,-0.33 -3.22,-0.86 -5.11,-1.54z"/>
         <path id="Path-Copy-20" fill="black" d="M510.43 254.03c-1.17,-0.43 -2.23,-0.87 -3.09,-1.29 0.96,0.22 2.13,0.57 3.38,1.02 1.17,0.42 2.24,0.87 3.09,1.29 -0.96,-0.22 -2.13,-0.57 -3.38,-1.02z"/>
        </g>
       </g>
      </g>
      <g id="Group-28">
       <path id="Shape_54" fill="black" fill-rule="nonzero" d="M571.67 273.35c0,1.13 -0.76,3.39 -4.37,4.71 -2.28,0.75 -4.94,1.13 -7.6,1.13 -4.18,0 -8.56,-0.94 -10.65,-3.01 -0.76,-0.76 -1.33,-1.7 -1.33,-2.83l-3.42 -21.84c0,-5.27 8.17,-7.72 15.4,-7.72 3.8,0 7.41,0.57 10.07,1.7 4.57,1.88 5.33,4.52 5.33,6.02l-3.43 21.84z"/>
       <path id="Combined-Shape_55" fill="#C4C3C7" fill-rule="nonzero" d="M547.52 252.53c0.15,0.18 0.3,0.36 0.47,0.53 2.34,2.4 7.25,3.49 11.94,3.49 2.98,0 5.97,-0.44 8.52,-1.31 1.95,-0.73 3.15,-1.72 3.88,-2.68 0.01,0.07 0.01,0.14 0.01,0.21l-2.76 18.31c0,0.95 -0.61,2.84 -3.52,3.94 -1.84,0.64 -3.99,0.95 -6.13,0.95 -3.37,0 -6.9,-0.79 -8.58,-2.52 -0.62,-0.64 -1.08,-1.42 -1.08,-2.37l-2.75 -18.31 0 -0.24 0 0 0 0z"/>
       <path id="Path_56" fill="white" fill-rule="nonzero" d="M569.53 256.21c0.05,0.98 0.07,2.04 0.03,3.16 0,7.99 -1.68,12.78 -2.52,13.84 -0.84,-1.06 -2.52,-5.85 -2.52,-13.84 0,-0.54 0.01,-1.08 0.03,-1.6 1.41,-0.21 2.77,-0.57 4.02,-1.07 0.32,-0.14 0.61,-0.29 0.89,-0.45l0.07 -0.04z"/>
       <path id="Path-Copy-10" fill="#111111" fill-rule="nonzero" d="M549.17 253.11c0.14,0.74 0.29,1.53 0.46,2.36 1.16,5.93 2.21,9.42 2.54,10.18 0.02,-0.83 -0.33,-4.45 -1.49,-10.38 -0.08,-0.41 -0.16,-0.81 -0.23,-1.19 -0.33,-0.1 -0.67,-0.31 -1,-0.64 -0.09,-0.09 -0.18,-0.19 -0.26,-0.3l-0.02 -0.03z"/>
       <path id="Path-Copy-11" fill="#111111" fill-rule="nonzero" d="M551.33 253.11c0.06,0.37 0.14,0.77 0.23,1.18 0.58,2.97 1.28,4.68 1.53,5.04 0.1,-0.43 0.1,-2.28 -0.48,-5.24 -0.04,-0.21 -0.08,-0.4 -0.12,-0.59 -0.31,-0.03 -0.62,-0.11 -0.92,-0.24 -0.08,-0.04 -0.15,-0.08 -0.22,-0.13l-0.02 -0.02z"/>
       <path id="Path-Copy-9" fill="black" fill-rule="nonzero" d="M547.68 254.83c0.41,0.24 1.12,8.43 4.15,14.53 3.03,6.09 7.82,6.51 7.11,7.53 -0.42,-0.45 -8.13,-1.19 -8.89,-4.84 -0.33,-1.58 -1.85,-6.67 -2.37,-10.23 -0.22,-1.49 -0.22,-3.82 0,-6.99z"/>
       <path id="Path_57" fill="white" fill-rule="nonzero" d="M559.7 249.32c-5.51,-0.17 -8.74,1.38 -9.89,2.07 0.76,0.68 4.19,2.06 9.89,2.06 5.7,0 9.12,-1.38 9.88,-2.06 -0.76,-0.69 -4.18,-2.07 -9.88,-2.07z"/>
      </g>
      <g id="Group-33">
       <path id="Path-Copy-33" fill="white" d="M762.3 90.87c-1.94,3.19 -6.09,4.4 -9.6,2.69 -3.5,-1.71 -5.11,-5.73 -3.79,-9.22l13.39 6.53z"/>
       <g id="Group-32_58">
        <path id="Path_59" fill="black" fill-rule="nonzero" d="M757.88 97.61c2.84,-6.73 4.91,-10.18 6.2,-10.34 1.94,-0.23 4.38,2.37 4.14,9.1 -0.16,4.5 -1.81,9.3 -4.96,14.41 0.53,2.11 -0.41,4.36 -2.35,5.43 -4.6,2.55 -8.16,4.49 -10.67,5.82 -1.26,0.67 -6.51,3.97 -8.08,4.13 -1.75,0.17 -5.17,0.67 -6.62,-0.41 -0.84,-0.63 -1.68,-2.25 -2.07,-2.9 2.5,-2.33 4.1,-3.85 4.81,-4.55 0.97,-0.95 -1.03,-4.23 0.92,-5.05 1.29,-0.55 2.94,0.61 4.94,3.46l12.5 -9.17 1.24 -9.93z"/>
        <path id="Path_60" fill="white" fill-rule="nonzero" d="M757.09 111.53l1.92 2.03c0.1,1.07 -0.52,2.16 -1.62,2.73 -3.29,1.68 -6.91,3.06 -10.86,4.13 -2.57,0.55 -4.2,0.5 -4.89,-0.15l15.44 -8.66 0.01 -0.08z"/>
        <path id="Path-Copy-34" fill="white" fill-rule="nonzero" d="M740.98 117.97c-0.43,0.05 -0.8,-0.04 -0.91,-0.24 -0.34,-0.59 -0.52,-1.26 -0.54,-2 0.05,-0.48 0.23,-0.8 0.56,-0.95l1.87 2.61 -0.98 0.58z"/>
        <path id="Path_61" fill="white" fill-rule="nonzero" d="M743.18 118.49c1.13,0.54 2.32,2.69 2.41,3.78 -1.36,0.66 -2.49,1.28 -3.4,1.51 -0.04,0.03 -0.08,0.06 -0.13,0.08 -0.63,0.28 -1.32,0.48 -2.08,0.6 -0.49,0.04 -0.79,-0.03 -0.92,-0.2l1.64 -0.82c-0.05,-0.11 -0.07,-0.23 -0.04,-0.35 -0.27,0.06 -0.6,0.13 -1,0.21 -2.1,0.26 -3.43,0.06 -3.97,-0.58 2.81,-2.36 4.32,-3.61 4.53,-3.76 0.71,-0.5 1.83,-1.01 2.96,-0.47z"/>
        <path id="Path_62" fill="white" fill-rule="nonzero" d="M761.03 97.52l3.46 -1.16c0.25,2.42 0.12,4.6 -0.4,6.52 -0.1,0.39 -1.37,0.7 -1.54,1.15 -0.54,1.46 -0.28,3.34 -1.48,5.41 -0.84,0.55 -1.38,-0.61 -1.6,-3.49 -0.22,-2.87 0.3,-5.68 1.56,-8.43z"/>
       </g>
      </g>
     </g>
    </g>
   </g>
  </g>
  <polygon fill="none" fill-rule="nonzero" points="0,303.25 891.59,303.25 891.59,0 0,0 "/>
 </g>
</svg>
